<?xml version="1.0" encoding="utf-8"?><svg viewBox="0 0 204 118" xmlns="http://www.w3.org/2000/svg" xmlns:xlink="http://www.w3.org/1999/xlink"><style>:root>svg{display:none}:root>svg:target{display:block}</style><svg fill="none" viewBox="0 0 12 8" id="arrow" xmlns="http://www.w3.org/2000/svg"><path d="M10.59 7.41L6 2.83 1.41 7.41 0 6l6-6 6 6-1.41 1.41z" fill="#fff"/></svg><svg fill="none" viewBox="0 0 13 8" id="arrow-link" xmlns="http://www.w3.org/2000/svg"><path d="M12.354 4.354a.5.5 0 000-.708L9.172.464a.5.5 0 00-.708.708L11.293 4 8.464 6.828a.5.5 0 10.708.708l3.182-3.182zM0 4.5h12v-1H0v1z" fill="#08A979"/></svg><svg fill="none" viewBox="0 0 7 12" id="arrow-right" xmlns="http://www.w3.org/2000/svg"><path d="M1 1l5 5-5 5" stroke="#58575C"/></svg><svg fill="none" viewBox="0 0 32 32" id="button-basket" xmlns="http://www.w3.org/2000/svg"><circle cx="16" cy="16" r="16" fill="#08A979"/><path d="M21.21 12l-4.38-6.56a.993.993 0 00-.83-.42c-.32 0-.64.14-.83.43L10.79 12H6c-.55 0-1 .45-1 1 0 .09.01.18.04.27l2.54 9.27c.23.84 1 1.46 1.92 1.46h13c.92 0 1.69-.62 1.93-1.46l2.54-9.27L27 13c0-.55-.45-1-1-1h-4.79zM13 12l3-4.4 3 4.4h-6zm3 8c-1.1 0-2-.9-2-2s.9-2 2-2 2 .9 2 2-.9 2-2 2z" fill="#fff"/><circle cx="24" cy="22" r="4" fill="#08A979"/><path fill="#fff" d="M23.5 19.5h1v5h-1z"/><path fill="#fff" d="M26.5 21.5v1h-5v-1z"/></svg><svg fill="none" viewBox="0 0 12 10" id="button-basket-active" xmlns="http://www.w3.org/2000/svg"><path d="M4 7.8L1.2 5l-.933.933L4 9.667l8-8-.933-.934L4 7.8z" fill="#fff"/></svg><svg fill="none" viewBox="0 0 32 32" id="button-basket-elipse" xmlns="http://www.w3.org/2000/svg"><circle cx="16" cy="16" r="16" fill="#08A979"/></svg><svg fill="none" viewBox="0 0 14 12" id="car" xmlns="http://www.w3.org/2000/svg"><path d="M12.09 3.454h-1.908V.91h-8.91A1.275 1.275 0 000 2.182v7h1.273c0 1.056.852 1.909 1.909 1.909a1.907 1.907 0 001.909-1.91h3.818c0 1.057.853 1.91 1.91 1.91a1.907 1.907 0 001.908-1.91H14V6l-1.91-2.546zm-8.908 6.682a.953.953 0 01-.955-.954.954.954 0 111.909 0 .953.953 0 01-.954.954zm8.59-5.727l1.248 1.59h-2.838V4.41h1.59zm-.954 5.727a.953.953 0 01-.954-.954.953.953 0 111.91 0 .953.953 0 01-.956.954z" fill="#fff"/></svg><svg fill="none" viewBox="0 0 23 21" id="cart" xmlns="http://www.w3.org/2000/svg"><path d="M16.947 7.723L12.367.465A1.02 1.02 0 0011.5 0c-.335 0-.67.155-.868.476L6.053 7.723H1.045C.47 7.723 0 8.22 0 8.829c0 .1.01.2.042.299l2.655 10.257C2.937 20.314 3.743 21 4.705 21h13.59c.962 0 1.767-.686 2.018-1.615L22.97 9.128l.03-.299c0-.608-.47-1.106-1.046-1.106h-5.007zm-8.583 0L11.5 2.855l3.136 4.868H8.364zm3.136 8.851c-1.15 0-2.09-.996-2.09-2.213s.94-2.212 2.09-2.212 2.09.995 2.09 2.212-.94 2.213-2.09 2.213z" fill="#58575C"/></svg><svg fill="none" viewBox="0 0 21 17" id="catalog" xmlns="http://www.w3.org/2000/svg"><path d="M0 11.309a1 1 0 001 1h7.333a1 1 0 001-1v-.286a1 1 0 00-1-1H1a1 1 0 00-1 1v.286zm0 4.57a1 1 0 001 1h7.333a1 1 0 001-1v-.285a1 1 0 00-1-1H1a1 1 0 00-1 1v.286zm0-9.142a1 1 0 001 1h7.333a1 1 0 001-1v-.286a1 1 0 00-1-1H1a1 1 0 00-1 1v.286zM1 .88a1 1 0 00-1 1v.286a1 1 0 001 1h7.333a1 1 0 001-1V1.88a1 1 0 00-1-1H1zm10.667 1a1 1 0 011-1H20a1 1 0 011 1v14a1 1 0 01-1 1h-7.333a1 1 0 01-1-1v-14z" fill="#58575C"/></svg><svg fill="none" viewBox="0 0 17 19" id="home" xmlns="http://www.w3.org/2000/svg"><path d="M.357 6.349A.853.853 0 000 7.043V17.84c0 .471.382.853.853.853H5.19a.853.853 0 00.853-.853v-5.547c0-.471.382-.853.853-.853h3.13c.47 0 .853.382.853.853v5.547c0 .471.382.853.853.853h4.338a.853.853 0 00.853-.853V7.043a.853.853 0 00-.357-.694L8.957.914a.853.853 0 00-.991 0L.356 6.349z" fill="#08A979"/></svg><svg fill="none" viewBox="0 0 23 21" id="like" xmlns="http://www.w3.org/2000/svg"><path d="M11.5 20.929l-1.617-1.473C4.139 14.248.346 10.812.346 6.596c0-3.435 2.7-6.134 6.135-6.134 1.94 0 3.803.903 5.019 2.33 1.216-1.427 3.079-2.33 5.02-2.33 3.435 0 6.134 2.699 6.134 6.134 0 4.216-3.792 7.652-9.537 12.872l-1.617 1.46z" fill="#58575C"/></svg><svg fill="none" viewBox="0 0 141 24" id="logo" xmlns="http://www.w3.org/2000/svg"><path d="M42.82 23.8V13.348c-.872.4-1.852.732-2.94.999-1.067.244-2.232.366-3.495.366-2.548 0-4.42-.555-5.618-1.664-1.198-1.132-1.797-2.919-1.797-5.36V.166h1.634V7.49c0 1.975.468 3.406 1.404 4.294.936.887 2.46 1.331 4.573 1.331 1.24 0 2.417-.122 3.527-.366 1.11-.266 2.015-.6 2.711-.999V.166h1.633V23.8H42.82zm6.129 0V.166h1.665V21.47L65.835.166h1.568V23.8h-1.666V2.83L50.68 23.8h-1.731zm21.357-11.983c0-1.42.24-2.83.719-4.228a12.54 12.54 0 012.155-3.794 10.7 10.7 0 013.43-2.73C77.982.377 79.539.033 81.28.033c2.07 0 3.833.488 5.292 1.465 1.46.954 2.548 2.186 3.266 3.695l-1.371.799c-.545-1.088-1.22-1.953-2.025-2.597a7.135 7.135 0 00-2.548-1.364 9.076 9.076 0 00-2.744-.433c-1.459 0-2.765.3-3.92.899a8.91 8.91 0 00-2.874 2.396 11.144 11.144 0 00-1.796 3.329 12.02 12.02 0 00-.588 3.695c0 1.398.24 2.73.719 3.994a11.985 11.985 0 001.96 3.362 9.954 9.954 0 002.939 2.33 8.202 8.202 0 003.658.832c.936 0 1.884-.155 2.842-.465a9.249 9.249 0 002.743-1.498c.85-.688 1.536-1.576 2.058-2.663l1.437.699a8.052 8.052 0 01-2.286 2.995c-.98.822-2.08 1.443-3.299 1.864a11.04 11.04 0 01-3.625.633c-1.568 0-3.016-.344-4.345-1.032a11.402 11.402 0 01-3.43-2.796 14.005 14.005 0 01-2.253-3.928 13.092 13.092 0 01-.784-4.427zm38.592-10.119h-8.492V23.8H98.74V1.698h-8.492V.166h18.65v1.532zm10.293 22.269c-1.612 0-3.081-.333-4.41-.999a11.192 11.192 0 01-3.429-2.73 12.608 12.608 0 01-2.221-3.828 12.894 12.894 0 01-.784-4.427c0-1.575.272-3.073.816-4.493a12.281 12.281 0 012.287-3.828 11.194 11.194 0 013.462-2.663C116.24.333 117.677 0 119.223 0c1.612 0 3.082.344 4.41 1.032a10.975 10.975 0 013.429 2.763 13.05 13.05 0 012.222 3.861c.522 1.42.783 2.863.783 4.327 0 1.598-.283 3.118-.849 4.56a12.787 12.787 0 01-2.286 3.829 10.942 10.942 0 01-3.462 2.63c-1.307.643-2.733.965-4.279.965zm-9.178-11.984c0 1.354.217 2.652.653 3.895a11.374 11.374 0 001.927 3.362 9.545 9.545 0 002.907 2.33c1.132.555 2.373.832 3.723.832 1.394 0 2.646-.3 3.757-.899a9.274 9.274 0 002.907-2.396 10.78 10.78 0 001.829-3.329 11.41 11.41 0 00.653-3.795c0-1.353-.229-2.652-.686-3.894a10.438 10.438 0 00-1.894-3.329 9.44 9.44 0 00-2.94-2.33 7.748 7.748 0 00-3.626-.866c-1.393 0-2.656.3-3.788.9a9.251 9.251 0 00-2.907 2.396 11.2 11.2 0 00-1.862 3.362 11.1 11.1 0 00-.653 3.761z" fill="#303030"/><path d="M140.905 23.75h-4.956v-4.19h4.956v.852h-4.216v2.486h4.216v.852zm.038-5.121h-.75a.877.877 0 00-.237-.58c-.152-.168-.431-.3-.836-.397-.405-.104-.984-.168-1.738-.194l-1.433-.058v-3.435h4.956v.851h-4.216v1.83l.769.019c.899.032 1.602.126 2.108.28.507.149.861.365 1.064.649.202.277.307.622.313 1.035zM141 8.42c0 .444-.095.838-.285 1.18-.19.342-.449.616-.778.822a2.692 2.692 0 01-1.14.377v.94h2.108v.85h-4.956v-.85h2.117v-.94a2.736 2.736 0 01-1.149-.386 2.21 2.21 0 01-.778-.833 2.411 2.411 0 01-.276-1.16c0-.51.117-.95.352-1.317.227-.368.534-.651.921-.851.386-.2.819-.3 1.3-.3.494 0 .934.103 1.32.31.386.2.69.486.912.86.221.368.332.8.332 1.297zm-.722 0c0-.317-.079-.594-.237-.833a1.62 1.62 0 00-.646-.561 2.164 2.164 0 00-.959-.203c-.379 0-.705.07-.978.212a1.524 1.524 0 00-.645.571 1.48 1.48 0 00-.228.813c0 .303.079.574.237.813.152.232.367.413.646.542.278.129.601.193.968.193.564 0 1.013-.145 1.349-.435.329-.29.493-.661.493-1.113zM141 2.681c0 .503-.117.949-.351 1.336a2.59 2.59 0 01-.95.91 2.58 2.58 0 01-1.282.328c-.468 0-.895-.106-1.281-.32a2.382 2.382 0 01-.921-.899c-.235-.387-.352-.835-.352-1.345 0-.497.111-.929.333-1.297.215-.374.506-.651.873-.832l.257.832c-.235.13-.415.31-.542.542a1.53 1.53 0 00-.199.774c0 .31.079.594.237.852.159.251.377.451.655.6.273.148.586.222.94.222.349 0 .665-.074.95-.222.278-.155.5-.358.665-.61.164-.258.246-.542.246-.851 0-.2-.034-.39-.104-.571a1.63 1.63 0 00-.275-.484.953.953 0 00-.39-.29l.247-.833c.361.149.659.42.893.813.234.387.351.836.351 1.345z" fill="#08A979"/><path d="M8.688 9.044h1.738c2.399 0 4.344-1.982 4.344-4.427V3.289c0-1.712-1.362-3.1-3.041-3.1-1.68 0-3.041 1.388-3.041 3.1v5.755z" fill="#02C087"/><path d="M14.48 14.946h-1.738c-2.399 0-4.344 1.982-4.344 4.427v1.328c0 1.712 1.362 3.1 3.041 3.1 1.68 0 3.04-1.388 3.04-3.1v-5.755z" fill="#2EEAB1"/><path d="M8.688 9.044v1.77c0 2.445-1.945 4.428-4.344 4.428H3.041c-1.68 0-3.04-1.388-3.04-3.1 0-1.71 1.36-3.098 3.04-3.098h5.647z" fill="#13D99D"/><path d="M14.48 14.946v-1.77c0-2.446 1.945-4.428 4.344-4.428h1.303c1.68 0 3.04 1.388 3.04 3.1 0 1.71-1.36 3.098-3.04 3.098H14.48z" fill="#08A979"/></svg><svg fill="none" viewBox="0 0 21 21" id="man" xmlns="http://www.w3.org/2000/svg"><path d="M10.5 10.5a5.25 5.25 0 100-10.5 5.25 5.25 0 100 10.5zm0 2.625c-3.504 0-10.5 1.759-10.5 5.25V21h21v-2.625c0-3.491-6.996-5.25-10.5-5.25z" fill="#58575C"/></svg><svg fill="none" viewBox="0 0 204 118" id="news-img" xmlns="http://www.w3.org/2000/svg"><path d="M1 .532l202 116.555M203 .532L1 117.087" opacity=".2" stroke="#000"/></svg><svg fill="none" viewBox="0 0 39 23" id="product-label" xmlns="http://www.w3.org/2000/svg"><path d="M.002 15C.004 6.716 6.722.002 15.006.004L27.9.007C33.975.01 38.899 4.935 38.897 11.01c-.002 6.075-4.928 10.999-11.003 10.997L0 22l.002-7z" fill="#FF9F0C"/></svg><svg fill="none" viewBox="0 0 20 19" id="product-like" xmlns="http://www.w3.org/2000/svg"><path d="M8.887 16.66h-.001c-2.585-2.345-4.69-4.254-6.155-6.045C1.27 8.83.5 7.225.5 5.5c0-2.804 2.196-5 5-5 1.589 0 3.121.742 4.12 1.914l.38.447.38-.447C11.38 1.242 12.912.5 14.5.5c2.804 0 5 2.196 5 5 0 1.726-.772 3.33-2.23 5.116-1.463 1.79-3.564 3.698-6.143 6.042l-.012.011-.001.001L10 17.675 8.887 16.66z" stroke="#58575C"/></svg><svg fill="none" viewBox="0 0 20 19" id="product-like-active" xmlns="http://www.w3.org/2000/svg"><path d="M10 18.35l-1.45-1.32C3.4 12.36 0 9.28 0 5.5 0 2.42 2.42 0 5.5 0 7.24 0 8.91.81 10 2.09 11.09.81 12.76 0 14.5 0 17.58 0 20 2.42 20 5.5c0 3.78-3.4 6.86-8.55 11.54L10 18.35z" fill="#08A979"/></svg><svg fill="none" viewBox="0 0 18 18" id="search" xmlns="http://www.w3.org/2000/svg"><path d="M12.5 11h-.79l-.28-.27A6.471 6.471 0 0013 6.5 6.5 6.5 0 106.5 13c1.61 0 3.09-.59 4.23-1.57l.27.28v.79l5 4.99L17.49 16l-4.99-5zm-6 0C4.01 11 2 8.99 2 6.5S4.01 2 6.5 2 11 4.01 11 6.5 8.99 11 6.5 11z" fill="#fff"/></svg><svg fill="none" viewBox="0 0 14 24" id="sl-arrow_l" xmlns="http://www.w3.org/2000/svg"><path d="M12.563 1.313L1.624 12.25l10.938 10.938" stroke="#08A979" stroke-width="2"/></svg><svg fill="none" viewBox="0 0 14 24" id="sl-arrow_r" xmlns="http://www.w3.org/2000/svg"><path d="M1 1.313L11.938 12.25 1 23.188" stroke="#08A979" stroke-width="2"/></svg><svg fill="none" viewBox="0 0 16 15" id="star" xmlns="http://www.w3.org/2000/svg"><path d="M7.729.572a.3.3 0 01.542 0l1.954 4.122a.3.3 0 00.232.169l4.524.584a.3.3 0 01.167.515l-3.316 3.132a.3.3 0 00-.089.273l.842 4.483a.3.3 0 01-.438.319l-4.003-2.187a.3.3 0 00-.288 0L3.853 14.17a.3.3 0 01-.438-.319l.842-4.483a.3.3 0 00-.089-.273L.852 5.962a.3.3 0 01.167-.515l4.524-.584a.3.3 0 00.232-.17L7.73.573z" fill="#fff"/></svg></svg>