<svg width="360" height="383" viewBox="0 0 360 383" fill="none" xmlns="http://www.w3.org/2000/svg">
<g filter="url(#filter0_d_2076_56657)">
<path d="M4 176C4 78.7979 82.7979 0 180 0C277.202 0 356 78.7979 356 176C356 273.202 277.202 352 180 352C82.7979 352 4 273.202 4 176Z" fill="#F9F9F9"/>
<path d="M157.96 287.256C157.96 287.256 164.692 283.4 172.977 278.581C181.262 273.762 195.169 274.058 204.046 279.174L208.041 281.473C216.918 286.589 216.918 294.893 208.041 300.009L152.93 331.89C144.053 337.006 129.776 337.006 120.899 331.89L104.846 322.622C95.9691 317.507 81.692 317.507 72.815 322.622L68.8204 324.921C59.9434 330.037 59.4995 338.044 67.8587 342.864L82.8756 351.538" stroke="#58575C" stroke-width="2.2259" stroke-miterlimit="10" stroke-linecap="round" stroke-linejoin="round"/>
<path d="M73.5547 355.102V356.363C73.5547 358.439 74.9602 360.885 76.7356 361.923L88.5716 368.745L100.555 361.775V351.321L88.8675 345.908C87.0181 345.019 84.0591 345.167 82.2837 346.205L76.6616 349.467C74.9602 350.579 73.5547 353.026 73.5547 355.102Z" fill="#37474F"/>
<path d="M88.8674 345.983C87.0181 345.093 84.0591 345.241 82.2837 346.279L76.6616 349.542C74.8862 350.58 74.9602 352.062 76.8095 352.952L88.4975 358.365L100.555 351.395L88.8674 345.983Z" fill="#455A64"/>
<path opacity="0.1" d="M87.3882 355.846C86.5005 356.365 85.7607 357.625 85.7607 358.663V367.264L88.4978 368.821L100.482 361.851V351.397L97.4488 349.988L87.3882 355.846Z" fill="black"/>
<path d="M101.591 349.617C101.295 349.469 100.925 349.469 100.481 349.765L88.6455 356.586C87.7578 357.105 87.0181 358.366 87.0181 359.404V369.636C87.0181 370.155 87.166 370.525 87.4619 370.674C87.7578 370.822 88.7195 371.415 88.9414 371.563C89.2373 371.712 89.6072 371.712 90.051 371.489L101.887 364.668C102.775 364.149 103.514 362.889 103.514 361.851V351.619C103.514 351.1 103.366 350.729 103.071 350.581C102.849 350.284 101.887 349.765 101.591 349.617Z" fill="#37474F"/>
<path d="M90.125 357.408L101.961 350.586C102.849 350.067 103.588 350.512 103.588 351.476V361.708C103.588 362.746 102.849 364.006 101.961 364.525L90.125 371.347C89.2373 371.866 88.4976 371.421 88.4976 370.457V360.225C88.5715 359.187 89.2373 357.927 90.125 357.408Z" fill="#455A64"/>
<path d="M102.405 365.115L92.6401 359.48L91.6045 360.074V367.043L101.369 372.678C101.961 373.049 102.553 373.049 102.923 372.826C103.071 372.752 103.81 372.307 103.958 372.233C104.328 372.011 104.624 371.492 104.624 370.75V368.971C104.624 367.562 103.662 365.857 102.405 365.115ZM100.629 366.969C101.443 367.414 102.109 368.6 102.109 369.564C102.109 369.712 102.109 369.861 102.035 370.009C101.887 370.009 101.813 369.935 101.665 369.861C100.851 369.416 100.186 368.229 100.186 367.266C100.186 367.117 100.186 366.969 100.26 366.821C100.334 366.821 100.481 366.895 100.629 366.969Z" fill="#2EEAB1"/>
<path opacity="0.85" d="M102.405 365.115L92.6401 359.48L91.6045 360.074L101.369 365.709C102.627 366.45 103.588 368.155 103.588 369.564V371.343C103.588 372.085 103.293 372.604 102.923 372.826C102.923 372.826 102.923 372.826 102.997 372.826C103.145 372.678 103.884 372.307 104.032 372.233C104.402 372.011 104.698 371.492 104.698 370.75V368.971C104.624 367.562 103.588 365.857 102.405 365.115Z" fill="white"/>
<path d="M104.624 369.045V370.824C104.624 371.565 104.402 372.01 103.958 372.307C103.81 372.381 103.071 372.826 102.923 372.9C102.923 372.9 102.923 372.9 102.849 372.9C103.292 372.678 103.514 372.159 103.514 371.417V369.638C103.514 368.896 103.292 368.155 102.849 367.413L103.884 366.82C104.402 367.488 104.624 368.303 104.624 369.045Z" fill="#2EEAB1"/>
<path opacity="0.6" d="M104.624 369.045V370.824C104.624 371.565 104.402 372.01 103.958 372.307C103.81 372.381 103.071 372.826 102.923 372.9C102.923 372.9 102.923 372.9 102.849 372.9C103.292 372.678 103.514 372.159 103.514 371.417V369.638C103.514 368.896 103.292 368.155 102.849 367.413L103.884 366.82C104.402 367.488 104.624 368.303 104.624 369.045Z" fill="white"/>
<path opacity="0.05" d="M104.624 369.045V370.824C104.624 371.565 104.402 372.01 103.958 372.307C103.81 372.381 103.071 372.826 102.923 372.9C102.923 372.9 102.923 372.9 102.849 372.9C103.292 372.678 103.514 372.159 103.514 371.417V369.638C103.514 368.896 103.292 368.155 102.849 367.413L103.884 366.82C104.402 367.488 104.624 368.303 104.624 369.045Z" fill="black"/>
<path opacity="0.6" d="M100.185 367.266C100.185 367.118 100.185 366.969 100.259 366.821C99.5933 366.673 99.1494 367.043 99.1494 367.859C99.1494 368.823 99.8152 370.009 100.629 370.454C101.295 370.899 101.886 370.677 102.108 370.009C101.96 370.009 101.886 369.935 101.739 369.861C100.851 369.342 100.185 368.23 100.185 367.266Z" fill="white"/>
<path opacity="0.1" d="M100.185 367.266C100.185 367.118 100.185 366.969 100.259 366.821C99.5933 366.673 99.1494 367.043 99.1494 367.859C99.1494 368.823 99.8152 370.009 100.629 370.454C101.295 370.899 101.886 370.677 102.108 370.009C101.96 370.009 101.886 369.935 101.739 369.861C100.851 369.342 100.185 368.23 100.185 367.266Z" fill="black"/>
<path opacity="0.7" d="M101.295 365.709L91.5303 360.074V367.044L101.295 372.679C102.553 373.42 103.514 372.827 103.514 371.344V369.565C103.588 368.23 102.553 366.451 101.295 365.709ZM100.629 370.454C99.8154 370.009 99.1497 368.823 99.1497 367.859C99.1497 366.895 99.8154 366.525 100.629 366.97C101.443 367.414 102.109 368.601 102.109 369.565C102.109 370.528 101.443 370.973 100.629 370.454Z" fill="white"/>
<path d="M110.32 360.514L100.555 354.879L99.5195 355.472V362.442L109.284 368.076C109.876 368.447 110.468 368.447 110.838 368.225C110.986 368.151 111.725 367.706 111.873 367.632C112.243 367.409 112.539 366.89 112.539 366.149V364.369C112.613 362.961 111.577 361.255 110.32 360.514ZM108.544 362.367C109.358 362.812 110.024 363.999 110.024 364.962C110.024 365.111 110.024 365.259 109.95 365.407C109.802 365.407 109.728 365.333 109.58 365.259C108.766 364.814 108.101 363.628 108.101 362.664C108.101 362.516 108.101 362.367 108.175 362.219C108.249 362.219 108.397 362.293 108.544 362.367Z" fill="#2EEAB1"/>
<path opacity="0.85" d="M110.32 360.514L100.555 354.879L99.5195 355.472L109.284 361.107C110.542 361.848 111.503 363.554 111.503 364.962V366.742C111.503 367.483 111.208 368.002 110.764 368.225C110.764 368.225 110.764 368.225 110.838 368.225C110.986 368.151 111.725 367.706 111.873 367.632C112.317 367.409 112.539 366.89 112.539 366.149V364.369C112.613 362.961 111.577 361.255 110.32 360.514Z" fill="white"/>
<path d="M112.613 364.443V366.222C112.613 366.964 112.391 367.409 111.948 367.705C111.8 367.78 111.06 368.224 110.912 368.299C110.912 368.299 110.912 368.299 110.838 368.299C111.282 368.076 111.504 367.557 111.504 366.816V365.036C111.504 364.295 111.282 363.553 110.838 362.812L111.874 362.219C112.317 362.886 112.613 363.702 112.613 364.443Z" fill="#2EEAB1"/>
<path opacity="0.6" d="M112.613 364.443V366.222C112.613 366.964 112.391 367.409 111.948 367.705C111.8 367.78 111.06 368.224 110.912 368.299C110.912 368.299 110.912 368.299 110.838 368.299C111.282 368.076 111.504 367.557 111.504 366.816V365.036C111.504 364.295 111.282 363.553 110.838 362.812L111.874 362.219C112.317 362.886 112.613 363.702 112.613 364.443Z" fill="white"/>
<path opacity="0.05" d="M112.613 364.443V366.222C112.613 366.964 112.391 367.409 111.948 367.705C111.8 367.78 111.06 368.224 110.912 368.299C110.912 368.299 110.912 368.299 110.838 368.299C111.282 368.076 111.504 367.557 111.504 366.816V365.036C111.504 364.295 111.282 363.553 110.838 362.812L111.874 362.219C112.317 362.886 112.613 363.702 112.613 364.443Z" fill="black"/>
<path opacity="0.6" d="M108.101 362.664C108.101 362.516 108.101 362.368 108.175 362.219C107.509 362.071 107.065 362.442 107.065 363.258C107.065 364.221 107.731 365.408 108.544 365.853C109.21 366.297 109.802 366.075 110.024 365.408C109.876 365.408 109.802 365.334 109.654 365.259C108.766 364.74 108.101 363.628 108.101 362.664Z" fill="white"/>
<path opacity="0.1" d="M108.101 362.664C108.101 362.516 108.101 362.368 108.175 362.219C107.509 362.071 107.065 362.442 107.065 363.258C107.065 364.221 107.731 365.408 108.544 365.853C109.21 366.297 109.802 366.075 110.024 365.408C109.876 365.408 109.802 365.334 109.654 365.259C108.766 364.74 108.101 363.628 108.101 362.664Z" fill="black"/>
<path opacity="0.7" d="M109.284 361.108L99.5195 355.473V362.442L109.284 368.077C110.542 368.819 111.503 368.225 111.503 366.742V364.963C111.503 363.628 110.542 361.849 109.284 361.108ZM108.544 365.853C107.731 365.408 107.065 364.222 107.065 363.258C107.065 362.294 107.731 361.923 108.544 362.368C109.358 362.813 110.024 363.999 110.024 364.963C110.024 365.927 109.358 366.372 108.544 365.853Z" fill="white"/>
<path d="M143.979 321.578L171.794 305.488C174.679 303.857 176.084 301.633 176.084 299.483C176.084 297.333 176.084 295.627 176.084 295.627L147.234 279.316C145.681 278.426 144.497 276.276 144.497 274.496V240.094L95.8955 268.268V302.671C95.8955 304.45 97.1531 306.601 98.6326 307.49L123.192 321.652C128.962 324.84 138.283 324.84 143.979 321.578Z" fill="#13D99D"/>
<g opacity="0.6">
<path opacity="0.6" d="M143.979 321.578L171.794 305.488C174.679 303.857 176.084 301.633 176.084 299.483C176.084 297.333 176.084 295.627 176.084 295.627L147.234 279.316C145.681 278.426 144.497 276.276 144.497 274.496V240.094L95.8955 268.268V302.671C95.8955 304.45 97.1531 306.601 98.6326 307.49L123.192 321.652C128.962 324.84 138.283 324.84 143.979 321.578Z" fill="black"/>
</g>
<path opacity="0.3" d="M107.584 308.676V312.532L98.7068 307.416C97.1533 306.526 95.9697 304.376 95.9697 302.596V268.194L105.217 262.855C105.438 265.228 105.586 267.675 105.808 270.047L99.2986 273.829V300.669C99.2986 302.448 100.556 304.598 102.036 305.488L107.584 308.676Z" fill="black"/>
<path d="M99.2983 300.597C99.2983 302.376 100.556 304.526 102.035 305.416L123.266 317.65C129.036 320.986 138.283 320.986 144.053 317.65L171.868 301.56C177.638 298.224 177.638 292.886 171.868 289.549L150.637 277.316C149.083 276.426 147.9 274.276 147.9 272.496V245.656L99.2983 273.831V300.597Z" fill="#13D99D"/>
<path opacity="0.3" d="M99.2983 300.597C99.2983 302.376 100.556 304.526 102.035 305.416L123.266 317.65C129.036 320.986 138.283 320.986 144.053 317.65L171.868 301.56C177.638 298.224 177.638 292.886 171.868 289.549L150.637 277.316C149.083 276.426 147.9 274.276 147.9 272.496V245.656L99.2983 273.831V300.597Z" fill="black"/>
<path opacity="0.5" d="M156.259 280.578L150.637 277.316C149.083 276.426 147.9 274.276 147.9 272.496V245.656L99.2983 273.831V300.671C99.2983 302.45 100.556 304.6 102.035 305.49L107.584 308.678L156.259 280.578Z" fill="black"/>
<path d="M176.158 295.551C176.158 295.551 176.158 297.256 176.158 299.406C176.158 301.556 174.753 303.781 171.868 305.412L144.053 321.501C141.316 323.132 137.765 323.874 134.141 323.948V320.092C137.765 320.018 141.316 319.203 144.053 317.646L171.868 301.482C174.679 299.925 176.158 297.701 176.158 295.551Z" fill="#13D99D"/>
<path opacity="0.5" d="M176.158 295.551C176.158 295.551 176.158 297.256 176.158 299.406C176.158 301.556 174.753 303.781 171.868 305.412L144.053 321.501C141.316 323.132 137.765 323.874 134.141 323.948V320.092C137.765 320.018 141.316 319.203 144.053 317.646L171.868 301.482C174.679 299.925 176.158 297.701 176.158 295.551Z" fill="black"/>
<path d="M21.2549 334.04C23.0303 335.078 26.0632 335.003 27.9866 333.891C51.8804 320.101 191.989 238.988 215.882 225.123C217.806 224.01 219.359 221.341 219.359 222.083V50.5887C219.359 45.3986 217.88 42.8036 216.104 41.7656C214.329 40.7276 211.296 40.8017 209.373 41.9139L21.4768 150.608C19.5535 151.721 18 154.39 18 156.614V328.108C18 330.332 19.4795 333.002 21.2549 334.04Z" fill="#13D99D"/>
<path d="M27.9866 333.889L215.882 225.12C217.806 224.008 219.359 221.339 219.359 222.08V50.5861C219.359 45.396 217.806 44.5063 215.882 45.6185L27.9866 154.387C26.0632 155.499 24.5098 158.168 24.5098 160.393V331.887C24.5098 334.111 26.0632 335.001 27.9866 333.889Z" fill="#27DEBF"/>
<path opacity="0.5" d="M27.9866 333.889L215.882 225.12C217.806 224.008 219.359 221.339 219.359 222.08V50.5861C219.359 45.396 217.806 44.5063 215.882 45.6185L27.9866 154.387C26.0632 155.499 24.5098 158.168 24.5098 160.393V331.887C24.5098 334.111 26.0632 335.001 27.9866 333.889Z" fill="black"/>
<path d="M27.4688 337.823C25.5454 338.638 22.8823 338.638 21.2549 337.674C19.4795 336.636 18 334.041 18 331.743V320.844L24.5098 324.625V335.524C24.5098 337.6 25.7673 338.49 27.4688 337.823Z" fill="#13D99D"/>
<path opacity="0.5" d="M27.4688 337.823C25.5454 338.638 22.8823 338.638 21.2549 337.674C19.4795 336.636 18 334.041 18 331.743V320.844L24.5098 324.625V335.524C24.5098 337.6 25.7673 338.49 27.4688 337.823Z" fill="black"/>
<path d="M24.5098 324.698V335.597C24.5098 337.822 26.0632 338.711 27.9866 337.599L215.882 228.831C217.806 227.718 219.359 225.049 219.359 222.825V211.926L24.5098 324.698Z" fill="#08A979"/>
<path opacity="0.3" d="M24.5098 324.624V335.523C24.5098 337.747 26.0632 338.637 27.9866 337.525L215.882 228.756C217.806 227.644 219.359 224.975 219.359 222.751V211.852L24.5098 324.624Z" fill="black"/>
<path d="M31.0195 310.977V162.542C31.0195 161.207 31.9812 159.576 33.0908 158.909L210.778 56.1458C211.962 55.4785 212.849 55.9975 212.849 57.3321V205.768C212.849 207.102 211.888 208.733 210.778 209.401L33.0908 312.164C31.9072 312.831 31.0195 312.312 31.0195 310.977Z" fill="#27DEBF"/>
<path d="M31.0195 310.977V162.542C31.0195 161.207 31.9812 159.576 33.0908 158.909L210.778 56.1458C211.962 55.4785 212.849 55.9975 212.849 57.3321V205.768C212.849 207.102 211.888 208.733 210.778 209.401L33.0908 312.164C31.9072 312.831 31.0195 312.312 31.0195 310.977Z" fill="#0F1010"/>
<path opacity="0.7" d="M25.5571 156.93C24.9653 158.042 24.5215 159.228 24.5215 160.34V324.643L18.0117 320.861V156.559C18.0117 155.447 18.3816 154.186 19.0474 153.148L25.5571 156.93Z" fill="black"/>
<path opacity="0.3" d="M219.21 48.0803C218.988 46.3009 218.077 44.2744 215.89 45.6294L27.9881 154.357C27.0264 154.876 26.2127 155.84 25.5469 156.952L19.0371 153.171C19.7029 152.133 20.5166 151.169 21.4783 150.576L209.38 41.8892C211.304 40.777 214.166 40.6908 216.016 41.7288C217.802 42.7311 219.051 45.2807 219.21 48.0803Z" fill="black"/>
<path d="M48.8479 320.021C48.8479 320.021 48.4041 320.317 47.5164 320.466C46.7766 320.54 46.0369 320.391 45.519 320.095C44.6313 319.576 43.8916 318.241 43.8916 317.129V182.484L47.1465 184.338V319.057C47.1465 319.872 47.5164 320.317 48.1082 320.317C48.1821 320.243 48.478 320.243 48.8479 320.021Z" fill="#F0F0F0"/>
<path d="M48.1079 319.871C47.5901 319.871 47.5161 319.278 47.5161 319.056V173.363L52.0286 170.768C52.6204 170.472 53.0642 168.989 53.9519 165.801C54.3958 164.095 55.1355 161.575 55.5054 161.278L96.5614 137.478C96.9312 137.626 97.671 139.035 98.1148 139.851C99.1505 141.63 99.7423 142.594 100.408 142.594C100.556 142.594 100.63 142.594 100.704 142.52L226.979 69.4883V214.661C226.979 215.625 226.313 216.812 225.425 217.331L48.6257 319.649C48.4038 319.797 48.2559 319.871 48.1079 319.871Z" fill="#FAFAFA"/>
<path d="M226.609 70.1549V80.016V214.661C226.609 215.476 226.017 216.588 225.277 216.959L48.4036 319.351C48.1816 319.5 48.1077 319.5 48.0337 319.5C47.8857 319.5 47.8857 319.055 47.8857 319.055V173.585L52.2503 171.064C52.916 170.694 53.3599 169.285 54.3215 165.874C54.7654 164.317 55.4312 162.019 55.7271 161.574L96.4871 137.996C96.857 138.367 97.4488 139.405 97.8187 140.072C98.9283 142 99.5201 143.038 100.482 143.038C100.63 143.038 100.852 142.964 101 142.89L226.609 70.1549ZM227.422 68.8203L100.556 142.222C100.482 142.222 100.482 142.222 100.408 142.222C99.4461 142.222 97.5228 137.032 96.4871 137.032C96.4132 137.032 96.4132 137.032 96.3392 137.032L55.2092 160.832C54.2476 161.352 52.6941 169.73 51.7324 170.323L46.998 173.066V319.055C46.998 319.87 47.3679 320.315 47.9597 320.315C48.1816 320.315 48.4775 320.241 48.6995 320.093L225.573 217.701C226.535 217.182 227.274 215.773 227.274 214.735V80.016V68.8203H227.422Z" fill="#E0E0E0"/>
<path d="M45.519 178.477C44.6313 177.958 43.8916 176.623 43.8916 175.511V162.017C43.8916 160.905 44.6313 159.57 45.593 159.051L222.467 56.6588C223.428 56.1398 224.908 56.0656 225.795 56.5846C226.683 57.1036 227.423 58.4382 227.423 59.5504V73.0445C227.423 74.1567 226.683 75.4912 225.722 76.0102L48.8479 178.403C47.8862 178.922 46.4067 178.996 45.519 178.477Z" fill="#13D99D"/>
<path opacity="0.4" d="M227.423 59.2538C227.275 58.3641 226.609 58.0675 225.721 58.5124L48.8477 160.905C48.4038 161.201 47.96 161.646 47.6641 162.165L44.4092 160.311C44.7051 159.792 45.1489 159.273 45.5928 159.051L222.466 56.6588C223.428 56.1398 224.908 56.0656 225.795 56.5846C226.609 57.1036 227.349 58.2158 227.423 59.2538Z" fill="white"/>
<path opacity="0.1" d="M47.5901 162.24C47.2942 162.759 47.0723 163.427 47.0723 163.946V184.409L43.8174 182.556V162.092C43.8174 162.018 43.8174 161.944 43.8174 161.87C43.8174 161.721 43.8174 161.573 43.8914 161.425C43.9653 161.054 44.1133 160.683 44.3352 160.387L47.5901 162.24Z" fill="black"/>
<path d="M227.423 59.5478V68.8157L100.556 142.218C99.5943 142.737 98.8546 142.292 98.8546 141.254V137.769C98.8546 136.657 98.1148 136.212 97.1532 136.805L55.3574 160.976C54.3958 161.495 53.656 162.904 53.656 163.942V167.427C53.656 168.539 52.9163 169.873 51.9546 170.392L47.2202 173.136V163.868C47.2202 162.756 47.96 161.421 48.9216 160.902L225.721 58.5839C226.683 57.9908 227.423 58.4356 227.423 59.5478Z" fill="#13D99D"/>
<path d="M219.359 65.3275C220.543 64.6603 221.504 65.1793 221.504 66.588C221.504 67.9967 220.543 69.6279 219.359 70.3693C218.176 71.0366 217.214 70.5176 217.214 69.1089C217.214 67.7001 218.176 66.069 219.359 65.3275Z" fill="white"/>
<path d="M211.518 69.851C212.701 69.1837 213.663 69.7027 213.663 71.1114C213.663 72.5202 212.701 74.1513 211.518 74.8927C210.334 75.56 209.373 75.041 209.373 73.6323C209.373 72.2236 210.334 70.5183 211.518 69.851Z" fill="white"/>
<path d="M203.751 74.3705C204.934 73.7032 205.896 74.2222 205.896 75.631C205.896 77.0397 204.934 78.6708 203.751 79.4123C202.567 80.0796 201.605 79.5606 201.605 78.1518C201.531 76.7431 202.567 75.0378 203.751 74.3705Z" fill="white"/>
<path d="M227.423 68.8203V80.0901L47.1465 184.41V173.14L50.6973 171.064C51.6589 170.545 51.9548 169.656 52.3987 168.099L53.5823 163.947C53.9522 162.464 54.322 161.5 55.2837 160.981L96.4137 137.181C97.3753 136.662 98.1151 136.588 98.8548 137.774L100.334 140.443C100.852 141.407 101.148 141.926 102.11 141.407L227.423 68.8203Z" fill="#E6E6E6"/>
<path d="M47.1465 173.139V184.409L43.8916 182.481V171.285L47.1465 173.139Z" fill="#E0E0E0"/>
<path opacity="0.5" d="M55.0615 173.958L52.3245 175.515L53.3601 173.513C53.4341 173.365 53.4341 173.142 53.3601 172.994C53.2861 172.92 53.1382 172.994 53.0642 173.142L51.5847 175.96C51.5847 175.96 51.5847 176.034 51.5107 176.034C51.5107 176.108 51.5107 176.108 51.5107 176.182C51.5107 176.256 51.5107 176.256 51.5107 176.33C51.5107 176.33 51.5107 176.405 51.5847 176.405L53.0642 177.517C53.1382 177.517 53.1382 177.517 53.2122 177.517C53.2861 177.517 53.3601 177.443 53.3601 177.294C53.4341 177.072 53.4341 176.924 53.3601 176.849L52.3245 176.034L55.0615 174.477C55.2095 174.403 55.2835 174.18 55.2835 174.032C55.2835 173.884 55.1355 173.884 55.0615 173.958Z" fill="#455A64"/>
<path opacity="0.5" d="M57.2805 172.622L60.0176 171.065L58.9819 170.25C58.908 170.176 58.908 169.953 58.9819 169.805C59.0559 169.582 59.2039 169.508 59.2778 169.582L60.7573 170.695C60.7573 170.695 60.7573 170.695 60.8313 170.769C60.8313 170.769 60.8313 170.843 60.8313 170.917C60.8313 170.991 60.8313 170.991 60.8313 171.065C60.8313 171.065 60.8313 171.14 60.7573 171.14L59.2778 173.957C59.2039 174.031 59.2039 174.105 59.1299 174.105C59.0559 174.105 58.9819 174.105 58.9819 174.105C58.908 174.031 58.908 173.809 58.9819 173.586L60.0176 171.584L57.2805 173.141C57.1326 173.216 57.0586 173.141 57.0586 172.919C57.0586 172.919 57.1326 172.697 57.2805 172.622Z" fill="#455A64"/>
<path opacity="0.5" d="M66.158 164.838C66.158 164.689 66.0101 164.689 65.9361 164.838L65.5662 165.727C64.9005 165.653 64.1607 166.247 63.6429 167.359C62.9771 168.767 62.9771 170.473 63.6429 171.14C64.0128 171.437 64.3826 171.437 64.8265 171.214C65.2703 170.992 65.7142 170.473 66.0101 169.731C66.0841 169.583 66.0841 169.361 66.0101 169.286C65.9361 169.212 65.7882 169.286 65.7142 169.435C65.1964 170.473 64.3826 170.992 63.8648 170.473C63.347 169.954 63.347 168.767 63.8648 167.655C64.2347 166.914 64.7525 166.469 65.1964 166.395L64.9005 167.062C64.8265 167.21 64.9005 167.433 64.9744 167.359L66.084 166.617C66.158 166.543 66.232 166.395 66.232 166.321L66.158 164.838Z" fill="#455A64"/>
<path opacity="0.5" d="M95.2299 142.225L96.1915 140.149C96.3395 139.926 96.3395 139.63 96.1915 139.482C96.0436 139.333 95.8956 139.482 95.7477 139.704L94.786 141.78L93.8243 140.816C93.6764 140.668 93.5284 140.816 93.3805 141.039C93.2325 141.261 93.2325 141.558 93.3805 141.706L94.3422 142.67L93.4545 144.82C93.3065 145.042 93.3065 145.339 93.4545 145.487C93.5284 145.561 93.6024 145.561 93.6764 145.487C93.7504 145.413 93.8243 145.339 93.8983 145.265L94.86 143.189L95.8217 144.153C95.8956 144.227 95.9696 144.227 96.0436 144.153C96.1176 144.078 96.1915 144.004 96.2655 143.93C96.4135 143.708 96.4135 143.411 96.2655 143.263L95.2299 142.225Z" fill="#455A64"/>
<path d="M69.7827 167.431V163.946C69.7827 162.834 70.5225 161.499 71.4841 160.98L216.031 77.3464C216.992 76.8274 217.732 77.2722 217.732 78.3102V81.795C217.732 82.9071 216.992 84.2417 216.031 84.7607L71.4841 168.395C70.5225 168.988 69.7827 168.543 69.7827 167.431Z" fill="#FAFAFA"/>
<path d="M214.995 79.2038L215.439 80.1676C215.439 80.2418 215.513 80.2418 215.587 80.2418L216.622 79.8711C216.77 79.7969 216.844 80.0194 216.696 80.2418L215.957 81.6505C215.883 81.7247 215.883 81.8729 215.883 81.9471L216.031 83.2075C216.031 83.43 215.883 83.6524 215.735 83.6524L214.847 83.5041C214.773 83.5041 214.699 83.5041 214.699 83.5783L213.811 84.7645C213.663 84.9128 213.515 84.9128 213.515 84.6163L213.663 83.1334C213.663 83.0592 213.663 82.9851 213.589 82.911L212.85 82.392C212.702 82.3178 212.776 82.0212 212.924 81.8729L214.033 81.0574C214.107 80.9832 214.181 80.9091 214.181 80.8349L214.625 79.3521C214.699 79.1296 214.921 78.9813 214.995 79.2038Z" stroke="#E0E0E0" stroke-width="0.59899" stroke-miterlimit="10"/>
<g opacity="0.5">
<g opacity="0.5">
<path opacity="0.5" d="M219.73 76.8983C219.508 76.8983 219.286 76.8241 219.212 76.6017C219.064 76.3051 219.138 75.9344 219.434 75.7861L224.316 72.9687C224.612 72.8204 224.982 72.8945 225.13 73.1911C225.278 73.4877 225.204 73.8584 224.908 74.0067L220.025 76.8241C219.951 76.8983 219.877 76.8983 219.73 76.8983Z" fill="#455A64"/>
</g>
<g opacity="0.5">
<path opacity="0.5" d="M219.73 79.7147C219.508 79.7147 219.286 79.6405 219.212 79.4181C219.064 79.1215 219.138 78.7508 219.434 78.6025L224.316 75.7851C224.612 75.6368 224.982 75.7109 225.13 76.0075C225.278 76.3041 225.204 76.6748 224.908 76.8231L220.025 79.6405C219.951 79.6405 219.877 79.7147 219.73 79.7147Z" fill="#455A64"/>
</g>
<g opacity="0.5">
<path opacity="0.5" d="M219.73 82.5389C219.508 82.5389 219.286 82.4648 219.212 82.2423C219.064 81.9458 219.138 81.575 219.434 81.4268L224.316 78.6093C224.612 78.461 224.982 78.5352 225.13 78.8317C225.278 79.1283 225.204 79.499 224.908 79.6473L220.025 82.4648C219.951 82.4648 219.877 82.5389 219.73 82.5389Z" fill="#455A64"/>
</g>
</g>
<path d="M95.4517 162.757V167.057C95.4517 167.947 96.0435 168.317 96.8572 167.873L154.484 134.434V126.945L96.8572 160.384C96.1174 160.829 95.4517 161.867 95.4517 162.757Z" fill="#E6E6E6"/>
<path d="M161.807 122.724C162.547 122.279 163.213 122.65 163.213 123.539V127.84C163.213 128.729 162.621 129.767 161.807 130.212L154.558 134.438V126.95L161.807 122.724Z" fill="#13D99D"/>
<path d="M161.215 128.655L160.401 128.432C160.475 128.062 160.549 127.765 160.549 127.394C160.549 126.579 160.253 125.911 159.81 125.689C159.44 125.467 159.07 125.541 158.626 125.763C157.738 126.282 156.999 127.765 156.999 129.174C156.999 129.989 157.294 130.657 157.738 130.879C157.886 130.953 158.034 131.027 158.256 131.027C158.478 131.027 158.7 130.953 158.922 130.805C159.44 130.508 159.958 129.841 160.253 129.025L161.067 129.248H161.141C161.289 129.248 161.363 129.174 161.437 129.025C161.511 128.877 161.363 128.729 161.215 128.655ZM158.626 130.212C158.404 130.36 158.182 130.36 158.034 130.286C157.738 130.138 157.59 129.693 157.59 129.1C157.59 127.987 158.182 126.653 158.922 126.208C159.07 126.134 159.144 126.06 159.292 126.06C159.366 126.06 159.44 126.06 159.514 126.134C159.81 126.282 159.958 126.727 159.958 127.32C159.958 128.506 159.366 129.841 158.626 130.212Z" fill="#FAFAFA"/>
<path d="M71.4839 175.069L63.1248 179.889C62.385 180.334 61.7192 181.372 61.7192 182.261V186.562C61.7192 187.451 62.311 187.822 63.1248 187.377L71.4839 182.558C72.2237 182.113 72.8894 181.075 72.8894 180.185V175.885C72.8894 174.921 72.2976 174.625 71.4839 175.069Z" fill="#13D99D"/>
<path d="M95.5257 240.4C94.8599 240.4 94.1941 240.103 93.6763 239.658C93.0105 238.991 92.6407 238.101 92.6407 236.989V231.503L77.9937 239.955C77.5498 240.252 77.032 240.326 76.5881 240.326C75.9224 240.326 75.2566 240.029 74.7388 239.584C74.073 238.917 73.7031 238.027 73.7031 236.915V227.87C73.7031 226.164 73.999 224.607 74.5168 223.124L91.2351 181.307C91.605 180.344 92.0489 179.602 92.4187 179.083C92.8626 178.564 93.3804 178.045 94.1202 177.674L102.479 172.855C102.923 172.559 103.441 172.484 103.885 172.484C104.551 172.484 105.216 172.707 105.734 173.226C106.4 173.893 106.77 174.783 106.77 175.895V205.404L108.767 204.292C109.211 203.995 109.729 203.921 110.173 203.921C110.838 203.921 111.504 204.144 111.948 204.663C112.614 205.33 112.984 206.22 112.984 207.406V216.452C112.984 217.341 112.762 218.231 112.392 219.121C111.948 220.085 111.356 220.826 110.617 221.197L106.77 223.421V231.058C106.77 231.948 106.548 232.837 106.178 233.727C105.734 234.691 105.142 235.432 104.403 235.803L97.1531 239.955C96.5613 240.252 96.0435 240.4 95.5257 240.4ZM90.4954 214.82L93.0105 213.337V208.444L90.4954 214.82Z" fill="#E0E0E0"/>
<path d="M126.447 221.863C126.299 221.863 126.151 221.863 126.003 221.863C123.562 221.715 121.491 220.825 119.79 219.12C118.236 217.563 117.126 215.338 116.387 212.595C115.721 210.074 115.277 207.183 115.203 203.994C115.129 201.696 115.055 199.175 115.055 196.506C115.055 193.837 115.129 191.167 115.129 188.721C115.277 185.458 115.647 182.196 116.313 178.934C116.979 175.597 118.014 172.409 119.346 169.443C120.751 166.478 122.453 163.66 124.524 161.139C126.669 158.544 129.184 156.394 132.143 154.689C135.028 152.984 137.543 152.168 139.837 152.168C139.985 152.168 140.133 152.168 140.281 152.168C142.722 152.316 144.793 153.206 146.494 154.911C148.048 156.468 149.158 158.693 149.897 161.436C150.563 164.031 151.007 166.848 151.081 170.037C151.155 172.483 151.229 175.078 151.229 177.748C151.229 180.417 151.155 182.938 151.155 185.384C151.007 188.647 150.637 191.909 149.971 195.171C149.305 198.508 148.27 201.696 146.938 204.662C145.533 207.627 143.831 210.445 141.76 212.966C139.615 215.561 137.1 217.711 134.141 219.416C131.182 220.973 128.667 221.863 126.447 221.863ZM135.694 171C135.546 171 135.028 171.075 134.141 171.594C133.253 172.113 132.513 172.78 131.921 173.521C131.33 174.337 130.812 175.227 130.442 176.19C130.072 177.229 129.776 178.341 129.554 179.527C129.332 180.787 129.258 182.048 129.184 183.382C129.036 188.128 129.036 192.947 129.184 197.618C129.184 198.953 129.332 200.065 129.48 201.029C129.628 201.992 129.924 202.511 130.146 202.808C130.294 203.03 130.516 203.105 130.664 203.105C130.886 203.105 131.404 203.03 132.291 202.511C133.179 201.992 133.919 201.325 134.511 200.584C135.102 199.768 135.62 198.878 136.064 197.915C136.434 196.877 136.804 195.764 136.952 194.652C137.174 193.392 137.248 192.131 137.322 190.723C137.47 185.829 137.47 181.084 137.322 176.487C137.248 175.227 137.1 174.114 136.952 173.076C136.804 172.261 136.582 171.668 136.286 171.223C136.064 171.075 135.916 171 135.694 171Z" fill="#E0E0E0"/>
<path d="M176.676 193.392C176.01 193.392 175.345 193.096 174.827 192.651C174.161 191.983 173.791 191.094 173.791 189.982V184.495L159.144 192.947C158.7 193.244 158.182 193.318 157.739 193.318C157.073 193.318 156.407 193.021 155.889 192.577C155.223 191.909 154.854 191.02 154.854 189.907V180.862C154.854 179.157 155.149 177.6 155.667 176.117L172.164 134.374C172.533 133.41 172.977 132.669 173.347 132.15C173.791 131.631 174.309 131.112 175.049 130.741L183.408 125.921C183.852 125.625 184.369 125.551 184.813 125.551C185.479 125.551 186.145 125.773 186.663 126.292C187.328 126.96 187.698 127.849 187.698 128.961V158.471L189.696 157.358C190.139 157.062 190.657 156.988 191.101 156.988C191.767 156.988 192.433 157.21 192.877 157.729C193.542 158.396 193.912 159.286 193.912 160.472V169.518C193.912 170.408 193.69 171.297 193.32 172.187C192.877 173.151 192.285 173.892 191.545 174.263L187.698 176.487V184.124C187.698 185.014 187.476 185.904 187.107 186.793C186.663 187.757 186.071 188.499 185.331 188.869L178.082 193.021C177.638 193.244 177.194 193.392 176.676 193.392ZM171.572 167.887L174.087 166.404V161.51L171.572 167.887Z" fill="#E0E0E0"/>
<path d="M116.978 209.708C116.904 209.634 116.83 209.634 116.756 209.56C116.534 209.412 111.134 206.298 111.134 206.298V179.606C111.134 179.013 110.986 178.494 110.69 178.272C110.617 178.197 110.543 178.197 110.543 178.123C110.321 177.975 104.625 174.713 104.551 174.639C104.329 174.49 104.033 174.49 103.663 174.713L95.3037 179.532C94.8599 179.829 94.416 180.125 94.1941 180.496C93.8982 180.867 93.6023 181.46 93.3064 182.275L76.8101 223.944C76.3662 225.204 76.0703 226.539 76.0703 228.022V237.067C76.0703 237.661 76.2183 238.18 76.5142 238.402C76.5881 238.476 76.6621 238.476 76.7361 238.55C76.958 238.699 82.6541 241.961 82.728 242.035C82.95 242.183 83.2459 242.183 83.6157 241.961L95.0078 235.362V237.067C95.0078 237.661 95.1558 238.18 95.4517 238.402C95.5257 238.476 95.5996 238.476 95.5996 238.55C95.8216 238.699 101.518 241.961 101.592 242.035C101.814 242.183 102.109 242.183 102.479 241.961L109.729 237.735C110.099 237.512 110.469 237.067 110.764 236.474C111.06 235.881 111.208 235.214 111.208 234.621V225.946L115.943 223.203C116.313 222.98 116.682 222.535 116.978 221.942C117.274 221.349 117.422 220.682 117.422 220.089V211.043C117.422 210.45 117.274 210.005 116.978 209.708Z" fill="#2EEAB1"/>
<path opacity="0.15" d="M100.113 183.985V184.059C99.8167 184.43 99.5948 184.949 99.2989 185.69L82.8025 227.359C82.5806 227.878 82.4326 228.471 82.2847 229.064L76.2188 225.579C76.3667 224.986 76.5147 224.393 76.6626 223.874L93.159 182.205C93.5288 181.39 93.8247 180.796 94.0467 180.426L100.113 183.985Z" fill="black"/>
<path opacity="0.3" d="M82.5801 242.038C81.9143 241.667 76.884 238.776 76.6621 238.628C76.5881 238.553 76.5142 238.553 76.5142 238.479C76.2183 238.183 76.0703 237.738 76.0703 237.145V228.099C76.0703 227.284 76.1443 226.468 76.2922 225.727L82.2842 229.211C82.1362 229.953 82.0623 230.768 82.0623 231.584V240.629C82.0623 241.223 82.2102 241.742 82.5061 241.964L82.5801 242.038Z" fill="black"/>
<path opacity="0.3" d="M101.222 202.449V218.168L96.1177 215.276L101.222 202.449Z" fill="black"/>
<path opacity="0.4" d="M101.221 218.165L93.1582 222.836L96.1172 215.273L101.221 218.165Z" fill="black"/>
<path opacity="0.3" d="M101.37 242.037C101.444 242.037 101.444 242.111 101.444 242.111C100.778 241.74 95.7478 238.848 95.5259 238.7C95.4519 238.7 95.3779 238.626 95.3779 238.552C95.082 238.255 94.9341 237.81 94.9341 237.217V235.438L100.926 231.953V240.628C100.926 241.295 101.074 241.74 101.37 242.037Z" fill="black"/>
<path opacity="0.15" d="M116.682 209.563C116.46 209.489 116.165 209.489 115.869 209.637L111.134 212.381V206.375C111.134 206.375 116.017 209.192 116.682 209.563Z" fill="black"/>
<path opacity="0.4" d="M110.469 178.127C110.247 177.979 109.951 178.053 109.655 178.201L101.296 183.021C100.852 183.317 100.482 183.614 100.186 183.985L94.1943 180.5C94.4902 180.129 94.8601 179.832 95.304 179.536L103.663 174.717C103.959 174.494 104.255 174.494 104.551 174.642C104.625 174.717 109.951 177.831 110.469 178.127Z" fill="white"/>
<path d="M102.406 242.109C102.036 242.332 101.666 242.332 101.37 242.035C101.074 241.739 100.926 241.294 100.926 240.701V232.026L83.542 242.109C83.1721 242.332 82.8022 242.332 82.5063 242.035C82.2104 241.739 82.0625 241.294 82.0625 240.701V231.581C82.0625 230.098 82.2844 228.764 82.8022 227.503L99.2986 185.834C99.5945 185.019 99.9644 184.426 100.186 184.055C100.482 183.684 100.852 183.388 101.296 183.091L109.655 178.272C110.025 178.049 110.395 178.049 110.691 178.346C110.987 178.643 111.135 179.087 111.135 179.681V212.452L115.869 209.709C116.239 209.486 116.609 209.486 116.905 209.783C117.201 210.079 117.348 210.524 117.348 211.117V220.163C117.348 220.756 117.201 221.423 116.905 222.017C116.609 222.61 116.239 223.055 115.869 223.277L111.135 226.02V234.695C111.135 235.288 110.987 235.956 110.691 236.549C110.395 237.142 110.025 237.587 109.655 237.809L102.406 242.109ZM101.222 218.161V202.443L93.1587 222.832L101.222 218.161Z" fill="#2EEAB1"/>
<path d="M155.668 173.825C155.52 170.785 155.15 168.116 154.558 165.669C153.892 163.223 152.931 161.369 151.599 159.96C151.155 159.515 150.638 159.071 150.12 158.774C149.084 158.181 144.646 155.586 144.128 155.289C143.092 154.696 141.982 154.4 140.725 154.325C138.728 154.251 136.36 154.993 133.623 156.55C130.886 158.181 128.519 160.183 126.522 162.555C124.524 164.928 122.897 167.597 121.565 170.415C120.234 173.306 119.272 176.272 118.606 179.46C117.941 182.648 117.571 185.836 117.497 188.95C117.423 191.471 117.423 193.992 117.423 196.661C117.423 199.331 117.423 201.777 117.497 204.076C117.645 207.116 118.015 209.785 118.606 212.232C119.272 214.678 120.234 216.532 121.565 217.941C122.009 218.385 122.527 218.83 123.045 219.127C124.081 219.72 128.593 222.315 129.185 222.686C130.147 223.205 131.256 223.575 132.514 223.575C134.511 223.65 136.878 222.908 139.615 221.351C142.352 219.72 144.72 217.718 146.717 215.346C148.714 212.973 150.342 210.304 151.673 207.486C153.005 204.595 153.966 201.629 154.632 198.441C155.298 195.253 155.668 192.064 155.742 188.95C155.816 186.578 155.816 184.057 155.816 181.388C155.816 178.793 155.742 176.272 155.668 173.825ZM133.845 204.15C133.697 203.334 133.623 202.37 133.623 201.332C133.475 196.587 133.475 191.842 133.623 187.023C133.623 185.614 133.771 184.205 133.993 182.871C134.215 181.536 134.511 180.35 134.955 179.163C135.399 178.051 135.991 177.013 136.73 176.049C137.396 175.234 138.21 174.492 139.097 173.899C139.245 174.715 139.319 175.679 139.393 176.643C139.541 181.239 139.541 186.059 139.393 190.952C139.319 192.361 139.245 193.77 139.023 195.104C138.802 196.439 138.506 197.625 138.062 198.812C137.618 199.924 137.026 201.036 136.286 201.926C135.621 202.815 134.807 203.557 133.845 204.15Z" fill="#2EEAB1"/>
<path opacity="0.15" d="M128.888 222.688C127.853 222.095 123.858 219.796 122.896 219.277C122.379 218.981 121.861 218.536 121.417 218.091C120.085 216.757 119.124 214.829 118.458 212.382C117.792 209.935 117.422 207.192 117.348 204.226C117.274 201.928 117.274 199.481 117.274 196.812C117.274 194.143 117.348 191.548 117.348 189.101C117.496 185.987 117.866 182.799 118.458 179.611C118.902 177.386 119.494 175.236 120.307 173.086L126.299 176.571C125.486 178.647 124.894 180.797 124.45 183.021C123.784 186.209 123.414 189.398 123.34 192.512C123.266 195.032 123.266 197.553 123.266 200.222C123.266 202.892 123.266 205.338 123.34 207.637C123.414 210.677 123.858 213.346 124.45 215.793C125.116 218.239 126.077 220.167 127.335 221.502C127.927 222.021 128.371 222.391 128.888 222.688Z" fill="black"/>
<path opacity="0.4" d="M149.897 158.702C148.935 158.183 147.9 157.886 146.716 157.886C144.719 157.812 142.352 158.553 139.615 160.11C136.877 161.741 134.51 163.743 132.513 166.116C130.516 168.489 128.888 171.158 127.557 173.975C127.335 174.42 127.187 174.865 126.965 175.31C126.817 175.755 126.669 176.125 126.447 176.57L120.455 173.085C120.603 172.715 120.751 172.344 120.899 171.973C121.121 171.454 121.269 171.009 121.491 170.49C122.822 167.599 124.45 165.004 126.447 162.557C128.444 160.184 130.812 158.183 133.549 156.551C136.286 154.92 138.653 154.179 140.65 154.327C141.908 154.401 143.091 154.698 144.053 155.291C144.645 155.662 148.565 157.886 149.897 158.702Z" fill="white"/>
<path opacity="0.3" d="M145.459 194.515C145.385 195.924 145.311 197.333 145.089 198.667C144.867 200.002 144.571 201.188 144.127 202.374C143.906 202.893 143.684 203.338 143.462 203.783L137.47 200.298C137.692 199.854 137.988 199.335 138.135 198.89C138.579 197.703 138.949 196.517 139.097 195.182C139.319 193.848 139.393 192.513 139.467 191.03C139.615 186.137 139.615 181.318 139.467 176.721C139.393 175.683 139.319 174.793 139.245 173.977C139.245 173.977 139.393 173.829 139.615 173.755C140.725 173.088 141.612 172.865 142.352 172.939C143.092 173.014 143.684 173.384 144.127 173.977C144.571 174.571 144.867 175.46 145.089 176.498C145.311 177.536 145.459 178.797 145.533 180.205C145.607 184.802 145.607 189.622 145.459 194.515Z" fill="black"/>
<path opacity="0.4" d="M143.461 203.786C143.166 204.379 142.796 204.972 142.352 205.491C141.612 206.455 140.724 207.196 139.615 207.864C138.505 208.531 137.617 208.753 136.878 208.679C136.138 208.605 135.546 208.234 135.102 207.641C134.658 207.048 134.289 206.158 134.141 205.12C134.067 204.824 134.067 204.527 133.993 204.23C134.954 203.637 135.768 202.896 136.434 202.08C136.878 201.561 137.248 200.968 137.543 200.375L143.461 203.786Z" fill="black"/>
<path d="M139.54 160.11C142.277 158.479 144.645 157.737 146.642 157.886C148.639 157.96 150.267 158.701 151.598 160.036C152.93 161.37 153.891 163.298 154.557 165.745C155.223 168.192 155.593 170.935 155.667 173.901C155.741 176.273 155.741 178.868 155.741 181.538C155.741 184.207 155.667 186.728 155.667 189.1C155.519 192.214 155.149 195.402 154.557 198.591C153.891 201.779 152.93 204.819 151.598 207.636C150.267 210.528 148.639 213.123 146.642 215.495C144.645 217.868 142.277 219.87 139.54 221.501C136.803 223.132 134.436 223.874 132.439 223.725C130.441 223.651 128.814 222.91 127.482 221.575C126.151 220.24 125.189 218.313 124.523 215.866C123.858 213.419 123.488 210.676 123.414 207.71C123.34 205.412 123.34 202.965 123.34 200.296C123.34 197.627 123.34 195.032 123.414 192.585C123.562 189.471 123.932 186.283 124.523 183.095C125.189 179.906 126.151 176.866 127.482 174.049C128.814 171.157 130.441 168.562 132.439 166.19C134.436 163.669 136.803 161.667 139.54 160.11ZM145.458 194.513C145.606 189.619 145.606 184.8 145.458 180.203C145.384 178.794 145.236 177.608 145.014 176.496C144.793 175.384 144.497 174.568 144.053 173.975C143.609 173.382 143.017 173.011 142.277 172.937C141.538 172.863 140.65 173.159 139.54 173.752C138.431 174.42 137.543 175.161 136.803 176.125C136.064 177.089 135.472 178.127 135.028 179.239C134.584 180.351 134.288 181.612 134.066 182.946C133.844 184.281 133.696 185.615 133.696 187.098C133.548 191.918 133.548 196.663 133.696 201.408C133.696 202.817 133.844 204.077 134.066 205.115C134.288 206.227 134.584 207.043 135.028 207.636C135.472 208.229 136.064 208.6 136.803 208.674C137.543 208.748 138.431 208.452 139.54 207.858C140.65 207.191 141.538 206.45 142.277 205.486C143.017 204.522 143.609 203.484 144.053 202.372C144.497 201.26 144.866 199.999 145.014 198.665C145.31 197.33 145.458 195.921 145.458 194.513Z" fill="#2EEAB1"/>
<path d="M198.055 162.775C197.981 162.701 197.907 162.701 197.833 162.627C197.611 162.478 192.211 159.364 192.211 159.364V132.673C192.211 132.079 192.063 131.56 191.767 131.338C191.693 131.264 191.619 131.264 191.619 131.19C191.397 131.041 185.701 127.779 185.627 127.705C185.405 127.557 185.109 127.557 184.74 127.779L176.38 132.598C175.937 132.895 175.493 133.192 175.271 133.562C174.975 133.933 174.679 134.526 174.383 135.342L157.887 177.01C157.443 178.271 157.147 179.605 157.147 181.088V190.134C157.147 190.727 157.295 191.246 157.591 191.468C157.665 191.543 157.739 191.543 157.813 191.617C158.035 191.765 163.731 195.027 163.805 195.101C164.027 195.25 164.323 195.25 164.692 195.027L176.084 188.429V190.134C176.084 190.727 176.232 191.246 176.528 191.468C176.602 191.543 176.676 191.543 176.676 191.617C176.898 191.765 182.594 195.027 182.668 195.101C182.89 195.25 183.186 195.25 183.556 195.027L190.805 190.801C191.175 190.579 191.545 190.134 191.841 189.541C192.137 188.948 192.285 188.28 192.285 187.687V179.012L197.019 176.269C197.389 176.047 197.759 175.602 198.055 175.009C198.351 174.415 198.499 173.748 198.499 173.155V164.109C198.499 163.516 198.351 163.071 198.055 162.775Z" fill="#2EEAB1"/>
<path opacity="0.15" d="M181.263 137.047V137.121C180.967 137.492 180.745 138.011 180.449 138.752L163.953 180.421C163.731 180.94 163.583 181.533 163.435 182.126L157.369 178.642C157.517 178.049 157.665 177.455 157.813 176.936L174.309 135.268C174.679 134.452 174.975 133.859 175.197 133.488L181.263 137.047Z" fill="black"/>
<path opacity="0.3" d="M163.73 195.101C163.065 194.73 158.034 191.838 157.813 191.69C157.739 191.616 157.665 191.616 157.665 191.542C157.369 191.245 157.221 190.8 157.221 190.207V181.162C157.221 180.346 157.295 179.53 157.443 178.789L163.435 182.274C163.287 183.015 163.213 183.831 163.213 184.646V193.692C163.213 194.285 163.361 194.73 163.657 195.027C163.657 195.027 163.657 195.101 163.73 195.101Z" fill="black"/>
<path opacity="0.3" d="M182.372 155.512V171.23L177.268 168.264L182.372 155.512Z" fill="black"/>
<path opacity="0.4" d="M182.372 171.227L174.309 175.898L177.268 168.262L182.372 171.227Z" fill="black"/>
<path opacity="0.3" d="M182.52 195.103C182.594 195.103 182.594 195.177 182.594 195.177C181.928 194.806 176.898 191.915 176.676 191.767C176.602 191.692 176.528 191.692 176.528 191.618C176.232 191.322 176.084 190.877 176.084 190.284V188.504L182.076 185.02V193.694C182.076 194.362 182.224 194.806 182.52 195.103Z" fill="black"/>
<path opacity="0.15" d="M197.833 162.626C197.611 162.551 197.315 162.551 197.019 162.7L192.285 165.443V159.363C192.285 159.363 197.167 162.181 197.833 162.626Z" fill="black"/>
<path opacity="0.4" d="M191.619 131.19C191.397 131.041 191.101 131.116 190.805 131.264L182.446 136.083C182.002 136.38 181.632 136.676 181.336 137.047L175.344 133.562C175.64 133.192 176.01 132.895 176.454 132.598L184.813 127.779C185.109 127.557 185.405 127.557 185.701 127.705C185.701 127.779 191.101 130.893 191.619 131.19Z" fill="white"/>
<path d="M183.556 195.176C183.186 195.398 182.816 195.398 182.52 195.102C182.224 194.805 182.076 194.36 182.076 193.767V185.092L164.692 195.176C164.323 195.398 163.953 195.398 163.657 195.102C163.361 194.805 163.213 194.36 163.213 193.767V184.722C163.213 183.239 163.435 181.904 163.953 180.644L180.449 138.975C180.745 138.16 181.115 137.566 181.337 137.196C181.633 136.825 182.002 136.528 182.446 136.232L190.805 131.412C191.175 131.19 191.545 131.19 191.841 131.487C192.137 131.783 192.285 132.228 192.285 132.821V165.593L197.019 162.849C197.389 162.627 197.759 162.627 198.055 162.923C198.351 163.22 198.499 163.665 198.499 164.258V173.304C198.499 173.897 198.351 174.564 198.055 175.157C197.759 175.75 197.389 176.195 197.019 176.418L192.285 179.161V187.836C192.285 188.429 192.137 189.096 191.841 189.689C191.545 190.282 191.175 190.727 190.805 190.95L183.556 195.176ZM182.372 171.228V155.509L174.309 175.899L182.372 171.228Z" fill="#2EEAB1"/>
<path d="M287.712 66.906L250.577 88.4077C250.059 88.7042 249.615 89.4457 249.615 90.0388V137.639C249.615 138.232 250.059 138.974 250.577 139.27L253.98 141.198C254.498 141.494 255.385 141.494 255.903 141.198L293.038 119.696C293.556 119.4 294 118.658 294 118.065V70.4649C294 69.8718 293.556 69.1303 293.038 68.8338L289.636 66.906C289.118 66.6095 288.23 66.6095 287.712 66.906Z" fill="#2EEAB1"/>
<path d="M254.941 140.676V93.0761C254.941 92.4829 255.385 91.7415 255.903 91.4449L293.038 69.9433C293.556 69.6467 294 69.8691 294 70.4623V118.137C294 118.73 293.556 119.471 293.038 119.768L255.903 141.269C255.385 141.566 254.941 141.344 254.941 140.676Z" fill="#2EEAB1"/>
<path opacity="0.2" d="M255.903 141.271C255.385 141.568 254.498 141.568 253.98 141.271L250.577 139.344C250.059 139.047 249.615 138.306 249.615 137.712V90.1123C249.615 89.8157 249.763 89.445 249.911 89.1484L255.237 92.1883C255.089 92.4849 254.941 92.8556 254.941 93.1522V140.752C254.941 141.271 255.385 141.568 255.903 141.271Z" fill="black"/>
<path opacity="0.4" d="M294.001 70.3167C293.927 69.7977 293.557 69.6494 293.039 69.946L255.904 91.4476C255.608 91.5959 255.386 91.8925 255.238 92.1891L249.912 89.1492C250.06 88.8526 250.282 88.6302 250.578 88.4819L287.713 66.9802C288.231 66.6837 289.119 66.6837 289.637 66.9802L293.039 68.908C293.557 69.1304 293.927 69.7236 294.001 70.3167Z" fill="white"/>
<path d="M249.615 104.418L241.922 112.277C241.478 112.722 241.626 113.315 242.07 113.612C242.218 113.686 247.396 116.652 247.396 116.652L254.941 107.532L249.615 104.418Z" fill="#2EEAB1"/>
<path opacity="0.1" d="M249.615 104.418L241.922 112.277C241.478 112.722 241.626 113.315 242.07 113.612C242.218 113.686 247.396 116.652 247.396 116.652L254.941 107.532L249.615 104.418Z" fill="black"/>
<path d="M254.942 107.531L247.248 115.39C246.656 115.984 247.174 116.947 247.988 116.799L254.942 115.761C255.755 115.761 255.755 107.531 254.942 107.531Z" fill="#2EEAB1"/>
<path d="M262.709 99.6758L268.257 105.014" stroke="#455A64" stroke-width="1.48393" stroke-miterlimit="10" stroke-linecap="round"/>
<path d="M262.709 108.203L268.257 96.4883" stroke="#455A64" stroke-width="1.48393" stroke-miterlimit="10" stroke-linecap="round"/>
<path d="M280.758 89.2148L286.306 94.5532" stroke="#455A64" stroke-width="1.48393" stroke-miterlimit="10" stroke-linecap="round"/>
<path d="M280.758 97.742L286.306 86.0273" stroke="#455A64" stroke-width="1.48393" stroke-miterlimit="10" stroke-linecap="round"/>
<path d="M262.486 121.466L286.528 107.527" stroke="#455A64" stroke-width="1.48393" stroke-miterlimit="10" stroke-linecap="round"/>
<path d="M277.503 112.719V119.466C277.503 121.542 278.834 122.432 280.536 121.468C282.163 120.504 283.569 118.058 283.569 116.056V109.309" stroke="#455A64" stroke-width="1.48393" stroke-miterlimit="10" stroke-linecap="round"/>
<path d="M280.536 111.016V117.54" stroke="#455A64" stroke-width="1.48393" stroke-miterlimit="10" stroke-linecap="round"/>
<g clip-path="url(#clip0_2076_56657)">
<path d="M187.692 111.61C188.478 111.156 189.114 110.051 189.114 109.142C189.114 108.233 188.478 107.865 187.692 108.319C186.906 108.774 186.27 109.878 186.27 110.788C186.27 111.697 186.906 112.065 187.692 111.61ZM187.692 112.433C186.743 112.982 184.848 114.63 184.848 115.724L184.848 116.547L190.536 113.256L190.536 112.433C190.536 111.339 188.641 111.884 187.692 112.433Z" fill="#13D99D"/>
</g>
<g clip-path="url(#clip1_2076_56657)">
<path d="M198.98 108.498L198.596 108.316C197.233 107.675 196.333 107.252 196.333 106.094C196.333 105.151 196.974 104.04 197.789 103.568C198.249 103.302 198.691 103.294 198.98 103.519C199.268 102.96 199.71 102.456 200.17 102.19C200.985 101.718 201.626 102.089 201.626 103.032C201.626 104.19 200.726 105.653 199.363 107.875L198.98 108.498Z" fill="#13D99D"/>
</g>
<path d="M211.499 97.3339L210.315 95.8466C210.264 95.7836 210.177 95.7873 210.091 95.8374C210.004 95.8875 209.918 95.9839 209.866 96.1097L208.682 98.9644L207.387 99.7139C207.238 99.8 207.116 100.019 207.116 100.202C207.116 100.231 207.119 100.26 207.127 100.285L207.814 102.958C207.876 103.2 208.084 103.285 208.333 103.141L211.848 101.106C212.097 100.963 212.305 100.637 212.37 100.321L213.057 96.8533L213.065 96.7591C213.065 96.577 212.943 96.4984 212.795 96.5844L211.499 97.3339ZM209.279 98.6186L210.091 96.6919L210.902 97.6797L209.279 98.6186ZM210.091 100.799C209.793 100.971 209.55 100.814 209.55 100.449C209.55 100.085 209.793 99.6461 210.091 99.474C210.388 99.3018 210.631 99.4591 210.631 99.8234C210.631 100.188 210.388 100.627 210.091 100.799Z" fill="#13D99D"/>
<path d="M54.4971 187.449L54.9691 187.124C55.6209 186.675 56.1492 185.74 56.1492 185.036L56.1492 184.654C56.1492 184.161 55.7794 184.016 55.3232 184.331C54.8669 184.645 54.4971 185.299 54.4971 185.792L54.4971 187.449Z" fill="#02C087"/>
<path d="M56.0703 188.359L55.5983 188.685C54.9465 189.133 54.4182 190.068 54.4182 190.772L54.4182 191.155C54.4182 191.647 54.788 191.792 55.2443 191.478C55.7005 191.164 56.0703 190.509 56.0703 190.017L56.0703 188.359Z" fill="#2EEAB1"/>
<path d="M54.4971 187.449L54.4971 187.94C54.4971 188.619 53.9687 189.518 53.317 189.948L52.9629 190.182C52.5067 190.483 52.1368 190.342 52.1368 189.867C52.1368 189.393 52.5067 188.763 52.9629 188.462L54.4971 187.449Z" fill="#13D99D"/>
<path d="M56.0703 188.359L56.0703 187.868C56.0703 187.19 56.5987 186.291 57.2504 185.861L57.6045 185.627C58.0607 185.326 58.4305 185.466 58.4305 185.941C58.4305 186.416 58.0607 187.045 57.6045 187.346L56.0703 188.359Z" fill="#08A979"/>
<path d="M148.458 364.966C148.382 366.689 147.898 367.993 147.005 368.879C146.112 369.764 144.853 370.207 143.227 370.207C141.518 370.207 140.207 369.647 139.294 368.526C138.387 367.398 137.934 365.793 137.934 363.71V361.167C137.934 359.091 138.405 357.493 139.346 356.372C140.287 355.244 141.594 354.681 143.269 354.681C144.915 354.681 146.164 355.141 147.015 356.061C147.873 356.981 148.361 358.303 148.479 360.026H145.417C145.389 358.96 145.223 358.227 144.919 357.825C144.621 357.417 144.071 357.213 143.269 357.213C142.452 357.213 141.875 357.5 141.535 358.074C141.196 358.642 141.017 359.579 140.996 360.887V363.741C140.996 365.243 141.162 366.273 141.494 366.834C141.833 367.394 142.411 367.675 143.227 367.675C144.03 367.675 144.583 367.481 144.888 367.093C145.192 366.699 145.365 365.99 145.407 364.966H148.458Z" fill="#08A979"/>
<path d="M157.851 361.188H154.966V369.999H152.029V361.188H149.164V358.77H157.851V361.188Z" fill="#08A979"/>
<path d="M167.742 364.737C167.742 366.502 167.438 367.855 166.829 368.796C166.227 369.737 165.328 370.207 164.131 370.207C163.217 370.207 162.484 369.837 161.93 369.096V374.317H158.993V358.77H161.712L161.816 359.797C162.377 358.974 163.141 358.562 164.11 358.562C165.307 358.562 166.206 358.998 166.808 359.87C167.417 360.742 167.729 362.077 167.742 363.876V364.737ZM164.816 364.001C164.816 362.914 164.695 362.146 164.452 361.697C164.217 361.247 163.816 361.022 163.248 361.022C162.646 361.022 162.207 361.274 161.93 361.78V367.042C162.193 367.526 162.64 367.768 163.269 367.768C163.85 367.768 164.252 367.522 164.473 367.031C164.701 366.54 164.816 365.775 164.816 364.737V364.001Z" fill="#08A979"/>
<path d="M174.427 369.999C174.344 369.826 174.261 369.536 174.178 369.128C173.652 369.847 172.939 370.207 172.04 370.207C171.099 370.207 170.317 369.896 169.694 369.273C169.078 368.65 168.77 367.844 168.77 366.855C168.77 365.678 169.144 364.769 169.891 364.125C170.645 363.482 171.728 363.153 173.14 363.139H174.032V362.236C174.032 361.731 173.946 361.375 173.773 361.167C173.6 360.96 173.347 360.856 173.015 360.856C172.282 360.856 171.915 361.285 171.915 362.143H168.978C168.978 361.105 169.365 360.25 170.14 359.579C170.922 358.901 171.908 358.562 173.098 358.562C174.33 358.562 175.281 358.884 175.952 359.527C176.63 360.164 176.969 361.077 176.969 362.267V367.55C176.983 368.519 177.122 369.276 177.385 369.823V369.999H174.427ZM172.693 367.903C173.019 367.903 173.295 367.837 173.524 367.706C173.752 367.574 173.922 367.419 174.032 367.239V364.904H173.327C172.828 364.904 172.434 365.063 172.143 365.381C171.86 365.699 171.718 366.125 171.718 366.658C171.718 367.488 172.043 367.903 172.693 367.903Z" fill="#08A979"/>
<path d="M187.131 369.999H184.193V365.692H181.609V369.999H178.662V358.77H181.609V363.264H184.193V358.77H187.131V369.999Z" fill="#08A979"/>
<path d="M194.406 358.77H197.333V369.999H194.406V363.098L191.791 369.999H188.843V358.77H191.791V365.661L194.406 358.77Z" fill="#08A979"/>
<path d="M199.046 358.77H201.994V367.56H204.599V358.77H207.536V367.581H209.072L208.864 373.331H206.145V369.999H199.046V358.77Z" fill="#08A979"/>
<path d="M215.486 369.999C215.403 369.826 215.32 369.536 215.237 369.128C214.711 369.847 213.999 370.207 213.099 370.207C212.158 370.207 211.376 369.896 210.754 369.273C210.138 368.65 209.83 367.844 209.83 366.855C209.83 365.678 210.204 364.769 210.951 364.125C211.705 363.482 212.788 363.153 214.199 363.139H215.092V362.236C215.092 361.731 215.005 361.375 214.832 361.167C214.659 360.96 214.407 360.856 214.075 360.856C213.341 360.856 212.975 361.285 212.975 362.143H210.037C210.037 361.105 210.425 360.25 211.2 359.579C211.982 358.901 212.968 358.562 214.158 358.562C215.389 358.562 216.341 358.884 217.012 359.527C217.69 360.164 218.029 361.077 218.029 362.267V367.55C218.043 368.519 218.181 369.276 218.444 369.823V369.999H215.486ZM213.753 367.903C214.078 367.903 214.355 367.837 214.583 367.706C214.812 367.574 214.981 367.419 215.092 367.239V364.904H214.386C213.888 364.904 213.494 365.063 213.203 365.381C212.919 365.699 212.777 366.125 212.777 366.658C212.777 367.488 213.103 367.903 213.753 367.903Z" fill="#08A979"/>
<path d="M232.664 369.999H229.727V365.692H227.142V369.999H224.195V358.77H227.142V363.264H229.727V358.77H232.664V369.999Z" fill="#08A979"/>
<path d="M239.722 369.999C239.639 369.826 239.556 369.536 239.473 369.128C238.947 369.847 238.234 370.207 237.335 370.207C236.394 370.207 235.612 369.896 234.989 369.273C234.373 368.65 234.065 367.844 234.065 366.855C234.065 365.678 234.439 364.769 235.186 364.125C235.94 363.482 237.023 363.153 238.435 363.139H239.327V362.236C239.327 361.731 239.241 361.375 239.068 361.167C238.895 360.96 238.642 360.856 238.31 360.856C237.577 360.856 237.21 361.285 237.21 362.143H234.273C234.273 361.105 234.66 360.25 235.435 359.579C236.217 358.901 237.203 358.562 238.393 358.562C239.625 358.562 240.576 358.884 241.247 359.527C241.925 360.164 242.264 361.077 242.264 362.267V367.55C242.278 368.519 242.417 369.276 242.68 369.823V369.999H239.722ZM237.988 367.903C238.314 367.903 238.59 367.837 238.819 367.706C239.047 367.574 239.217 367.419 239.327 367.239V364.904H238.622C238.123 364.904 237.729 365.063 237.438 365.381C237.155 365.699 237.013 366.125 237.013 366.658C237.013 367.488 237.338 367.903 237.988 367.903Z" fill="#08A979"/>
<path d="M256.899 369.999H253.962V365.692H251.378V369.999H248.43V358.77H251.378V363.264H253.962V358.77H256.899V369.999Z" fill="#08A979"/>
<path d="M263.957 369.999C263.874 369.826 263.791 369.536 263.708 369.128C263.182 369.847 262.469 370.207 261.57 370.207C260.629 370.207 259.847 369.896 259.224 369.273C258.609 368.65 258.301 367.844 258.301 366.855C258.301 365.678 258.674 364.769 259.422 364.125C260.176 363.482 261.259 363.153 262.67 363.139H263.563V362.236C263.563 361.731 263.476 361.375 263.303 361.167C263.13 360.96 262.878 360.856 262.546 360.856C261.812 360.856 261.445 361.285 261.445 362.143H258.508C258.508 361.105 258.896 360.25 259.671 359.579C260.453 358.901 261.438 358.562 262.629 358.562C263.86 358.562 264.812 358.884 265.483 359.527C266.161 360.164 266.5 361.077 266.5 362.267V367.55C266.514 368.519 266.652 369.276 266.915 369.823V369.999H263.957ZM262.224 367.903C262.549 367.903 262.826 367.837 263.054 367.706C263.282 367.574 263.452 367.419 263.563 367.239V364.904H262.857C262.359 364.904 261.964 365.063 261.674 365.381C261.39 365.699 261.248 366.125 261.248 366.658C261.248 367.488 261.573 367.903 262.224 367.903Z" fill="#08A979"/>
<path d="M273.755 358.77H276.682V369.999H273.755V363.098L271.139 369.999H268.192V358.77H271.139V365.661L273.755 358.77ZM276.111 354.203C276.111 355.123 275.779 355.867 275.115 356.435C274.457 357.002 273.589 357.286 272.509 357.286C271.423 357.286 270.548 357.002 269.884 356.435C269.226 355.867 268.898 355.123 268.898 354.203H271.046C271.046 354.632 271.174 354.968 271.43 355.21C271.693 355.445 272.053 355.563 272.509 355.563C272.959 355.563 273.312 355.445 273.568 355.21C273.824 354.968 273.952 354.632 273.952 354.203H276.111Z" fill="#08A979"/>
<path d="M278.633 367.56C279.118 367.007 279.464 366.45 279.671 365.889C279.879 365.329 280 364.544 280.034 363.534L280.117 358.77H287.434V367.56H288.919V373.372H285.981V369.999H280.802V373.372H277.793V367.56H278.633ZM281.892 367.56H284.508V361.271H283.013L283.003 362.382C282.982 364.526 282.612 366.253 281.892 367.56Z" fill="#08A979"/>
<path d="M294.534 370.207C293.025 370.207 291.849 369.757 291.005 368.858C290.161 367.958 289.739 366.671 289.739 364.997V364.104C289.739 362.333 290.126 360.967 290.901 360.005C291.676 359.043 292.787 358.562 294.233 358.562C295.644 358.562 296.706 359.015 297.419 359.922C298.132 360.821 298.495 362.157 298.509 363.928V365.371H292.666C292.707 366.201 292.891 366.81 293.216 367.197C293.541 367.578 294.043 367.768 294.721 367.768C295.703 367.768 296.523 367.432 297.18 366.761L298.332 368.536C297.973 369.034 297.45 369.439 296.765 369.75C296.08 370.055 295.336 370.207 294.534 370.207ZM292.686 363.316H295.624V363.046C295.61 362.375 295.499 361.866 295.291 361.52C295.084 361.174 294.724 361.001 294.212 361.001C293.7 361.001 293.326 361.184 293.091 361.551C292.863 361.918 292.728 362.506 292.686 363.316Z" fill="#08A979"/>
<path d="M308.203 369.999H305.266V365.692H302.681V369.999H299.734V358.77H302.681V363.264H305.266V358.77H308.203V369.999Z" fill="#08A979"/>
<path d="M315.261 369.999C315.178 369.826 315.095 369.536 315.012 369.128C314.486 369.847 313.773 370.207 312.874 370.207C311.933 370.207 311.151 369.896 310.528 369.273C309.912 368.65 309.604 367.844 309.604 366.855C309.604 365.678 309.978 364.769 310.725 364.125C311.479 363.482 312.562 363.153 313.974 363.139H314.866V362.236C314.866 361.731 314.78 361.375 314.607 361.167C314.434 360.96 314.181 360.856 313.849 360.856C313.116 360.856 312.749 361.285 312.749 362.143H309.812C309.812 361.105 310.199 360.25 310.974 359.579C311.756 358.901 312.742 358.562 313.932 358.562C315.164 358.562 316.115 358.884 316.786 359.527C317.465 360.164 317.804 361.077 317.804 362.267V367.55C317.817 368.519 317.956 369.276 318.219 369.823V369.999H315.261ZM313.528 367.903C313.853 367.903 314.13 367.837 314.358 367.706C314.586 367.574 314.756 367.419 314.866 367.239V364.904H314.161C313.662 364.904 313.268 365.063 312.977 365.381C312.694 365.699 312.552 366.125 312.552 366.658C312.552 367.488 312.877 367.903 313.528 367.903Z" fill="#08A979"/>
</g>
<defs>
<filter id="filter0_d_2076_56657" x="0" y="0" width="360" height="382.316" filterUnits="userSpaceOnUse" color-interpolation-filters="sRGB">
<feFlood flood-opacity="0" result="BackgroundImageFix"/>
<feColorMatrix in="SourceAlpha" type="matrix" values="0 0 0 0 0 0 0 0 0 0 0 0 0 0 0 0 0 0 127 0" result="hardAlpha"/>
<feOffset dy="4"/>
<feGaussianBlur stdDeviation="2"/>
<feComposite in2="hardAlpha" operator="out"/>
<feColorMatrix type="matrix" values="0 0 0 0 0 0 0 0 0 0 0 0 0 0 0 0 0 0 0.25 0"/>
<feBlend mode="normal" in2="BackgroundImageFix" result="effect1_dropShadow_2076_56657"/>
<feBlend mode="normal" in="SourceGraphic" in2="effect1_dropShadow_2076_56657" result="shape"/>
</filter>
<clipPath id="clip0_2076_56657">
<rect width="9.0745" height="9.09002" fill="white" transform="matrix(0.865531 -0.500855 2.19803e-08 1 183.765 109.332)"/>
</clipPath>
<clipPath id="clip1_2076_56657">
<rect width="7.94848" height="7.96207" fill="white" transform="matrix(0.865531 -0.500855 2.19803e-08 1 195.54 103.645)"/>
</clipPath>
</defs>
</svg>
