<svg width="187" height="214" viewBox="0 0 187 214" fill="none" xmlns="http://www.w3.org/2000/svg">
<path d="M30 209.581V194.861H34.5491C36.0857 194.861 37.2517 195.205 38.0469 195.893C38.8489 196.573 39.2499 197.574 39.2499 198.895C39.2499 199.643 39.0848 200.287 38.7546 200.826C38.4243 201.365 37.9728 201.76 37.3999 202.009C38.0604 202.198 38.5692 202.579 38.9264 203.152C39.2836 203.718 39.4622 204.419 39.4622 205.254C39.4622 206.683 39.0679 207.762 38.2794 208.49C37.4977 209.218 36.3621 209.581 34.8726 209.581H30ZM32.9721 203.182V207.115H34.8726C35.405 207.115 35.8094 206.949 36.0857 206.619C36.3621 206.289 36.5002 205.821 36.5002 205.214C36.5002 203.893 36.0217 203.216 35.0647 203.182H32.9721ZM32.9721 201.018H34.5188C35.6847 201.018 36.2677 200.415 36.2677 199.209C36.2677 198.541 36.1329 198.063 35.8633 197.773C35.5938 197.483 35.1557 197.338 34.5491 197.338H32.9721V201.018Z" fill="#02C087"/>
<path d="M48.6074 205.568H47.8593V209.581H45.0085V198.642H47.8593V202.747H48.5669L50.2249 198.642H53.8136L50.9325 203.687L54.036 209.581H50.2451L48.6074 205.568Z" fill="#02C087"/>
<path d="M53.5945 203.758C53.5945 202.1 53.9853 200.799 54.7671 199.856C55.5489 198.912 56.6306 198.44 58.0122 198.44C59.4072 198.44 60.4957 198.912 61.2774 199.856C62.0592 200.799 62.4501 202.107 62.4501 203.778V204.476C62.4501 206.141 62.0626 207.442 61.2876 208.378C60.5125 209.315 59.4275 209.784 58.0324 209.784C56.6306 209.784 55.5388 209.315 54.757 208.378C53.982 207.435 53.5945 206.127 53.5945 204.456V203.758ZM56.4655 204.476C56.4655 206.431 56.9878 207.408 58.0324 207.408C58.9961 207.408 59.5151 206.592 59.5892 204.961L59.5993 203.758C59.5993 202.761 59.4612 202.023 59.1848 201.544C58.9085 201.059 58.5176 200.816 58.0122 200.816C57.5269 200.816 57.1462 201.059 56.8698 201.544C56.6003 202.023 56.4655 202.761 56.4655 203.758V204.476Z" fill="#02C087"/>
<path d="M72.0369 204.456C72.0369 206.174 71.7403 207.492 71.1473 208.409C70.5609 209.325 69.6848 209.784 68.5189 209.784C67.6293 209.784 66.9149 209.423 66.3757 208.702V213.787H63.5148V198.642H66.1634L66.2645 199.643C66.8104 198.841 67.5551 198.44 68.4986 198.44C69.6646 198.44 70.5407 198.865 71.127 199.714C71.7201 200.563 72.0234 201.864 72.0369 203.617V204.456ZM69.1861 203.738C69.1861 202.68 69.0681 201.932 68.8322 201.493C68.6031 201.055 68.2122 200.836 67.6596 200.836C67.0732 200.836 66.6453 201.082 66.3757 201.574V206.7C66.6318 207.172 67.0665 207.408 67.6798 207.408C68.2459 207.408 68.6368 207.169 68.8525 206.69C69.0749 206.211 69.1861 205.467 69.1861 204.456V203.738Z" fill="#02C087"/>
<path d="M77.6911 201.878C77.6911 201.076 77.3879 200.675 76.7813 200.675C76.4511 200.675 76.1916 200.772 76.0029 200.968C75.8142 201.156 75.7198 201.433 75.7198 201.797H72.8589C72.8589 200.806 73.2094 200.001 73.9103 199.38C74.6112 198.76 75.5177 198.45 76.6297 198.45C77.8495 198.45 78.8065 198.73 79.5007 199.289C80.1948 199.842 80.5419 200.624 80.5419 201.635C80.5419 202.12 80.4172 202.569 80.1679 202.98C79.9185 203.384 79.5714 203.708 79.1266 203.95C80.178 204.395 80.7037 205.241 80.7037 206.488C80.7037 207.485 80.333 208.284 79.5917 208.884C78.8503 209.484 77.8596 209.784 76.6196 209.784C75.4671 209.784 74.527 209.474 73.7991 208.854C73.078 208.227 72.7174 207.391 72.7174 206.346H75.5783C75.5783 206.73 75.6861 207.03 75.9018 207.246C76.1175 207.462 76.4106 207.57 76.7813 207.57C77.1318 207.57 77.398 207.455 77.5799 207.226C77.7619 206.99 77.8529 206.67 77.8529 206.265C77.8529 205.409 77.5193 204.968 76.8521 204.941H75.4267V203.04H76.7813C77.3879 203.034 77.6911 202.646 77.6911 201.878Z" fill="#02C087"/>
<path d="M87.106 198.642H89.9568V209.581H87.106V202.858L84.5585 209.581H81.6875V198.642H84.5585V205.355L87.106 198.642Z" fill="#02C087"/>
<path d="M99.5638 209.581H96.7029V205.386H94.1857V209.581H91.3147V198.642H94.1857V203.02H96.7029V198.642H99.5638V209.581Z" fill="#02C087"/>
<path d="M105.349 209.784C103.88 209.784 102.735 209.346 101.912 208.469C101.09 207.593 100.679 206.34 100.679 204.708V203.839C100.679 202.114 101.056 200.782 101.811 199.846C102.566 198.909 103.648 198.44 105.056 198.44C106.431 198.44 107.466 198.882 108.16 199.765C108.854 200.641 109.208 201.942 109.221 203.667V205.072H103.53C103.57 205.881 103.749 206.474 104.066 206.852C104.382 207.222 104.871 207.408 105.531 207.408C106.488 207.408 107.287 207.081 107.927 206.427L109.049 208.156C108.699 208.641 108.19 209.036 107.523 209.339C106.856 209.635 106.131 209.784 105.349 209.784ZM103.55 203.071H106.411V202.808C106.397 202.154 106.29 201.659 106.087 201.322C105.885 200.985 105.535 200.816 105.036 200.816C104.537 200.816 104.173 200.995 103.944 201.352C103.722 201.709 103.59 202.282 103.55 203.071Z" fill="#02C087"/>
<path d="M122.42 209.581H119.559V201.028H117.022V209.581H114.151V198.642H122.42V209.581Z" fill="#02C087"/>
<path d="M127.296 204.82L128.752 198.642H131.805L128.206 211.219C127.667 213.073 126.653 214 125.163 214C124.819 214 124.429 213.935 123.99 213.807V211.573L124.324 211.583C124.769 211.583 125.102 211.496 125.325 211.32C125.554 211.152 125.726 210.855 125.84 210.431L126.063 209.693L122.909 198.642H125.982L127.296 204.82Z" fill="#02C087"/>
<path d="M136.115 207.408C136.944 207.408 137.365 206.869 137.378 205.79H140.067C140.054 206.983 139.687 207.947 138.965 208.682C138.244 209.416 137.314 209.784 136.175 209.784C134.767 209.784 133.692 209.346 132.95 208.469C132.209 207.593 131.832 206.302 131.818 204.597V203.728C131.818 202.009 132.182 200.698 132.91 199.795C133.645 198.892 134.726 198.44 136.155 198.44C137.361 198.44 138.312 198.814 139.006 199.562C139.7 200.304 140.054 201.359 140.067 202.727H137.378C137.372 202.114 137.27 201.642 137.075 201.311C136.88 200.981 136.556 200.816 136.104 200.816C135.606 200.816 135.249 200.995 135.033 201.352C134.817 201.702 134.703 202.387 134.689 203.404V204.516C134.689 205.406 134.733 206.029 134.821 206.387C134.908 206.737 135.053 206.997 135.255 207.165C135.457 207.327 135.744 207.408 136.115 207.408Z" fill="#02C087"/>
<path d="M148.835 200.998H146.025V209.581H143.164V200.998H140.374V198.642H148.835V200.998Z" fill="#02C087"/>
<path d="M149 203.758C149 202.1 149.391 200.799 150.173 199.856C150.955 198.912 152.036 198.44 153.418 198.44C154.813 198.44 155.901 198.912 156.683 199.856C157.465 200.799 157.856 202.107 157.856 203.778V204.476C157.856 206.141 157.468 207.442 156.693 208.378C155.918 209.315 154.833 209.784 153.438 209.784C152.036 209.784 150.945 209.315 150.163 208.378C149.388 207.435 149 206.127 149 204.456V203.758ZM151.871 204.476C151.871 206.431 152.394 207.408 153.438 207.408C154.402 207.408 154.921 206.592 154.995 204.961L155.005 203.758C155.005 202.761 154.867 202.023 154.591 201.544C154.314 201.059 153.923 200.816 153.418 200.816C152.933 200.816 152.552 201.059 152.276 201.544C152.006 202.023 151.871 202.761 151.871 203.758V204.476Z" fill="#02C087"/>
<ellipse opacity="0.23" cx="113.439" cy="77.2489" rx="73.5606" ry="73.5526" fill="#2EEAB1"/>
<path d="M32.8002 57.6367C32.8002 57.6868 32.8002 57.7369 32.8002 57.762C32.8002 57.7871 32.8002 57.8122 32.8002 57.8122C32.8002 57.8372 32.7751 57.8623 32.7751 57.8874C32.7751 57.9124 32.7751 57.9124 32.75 57.9375C32.725 57.9626 32.725 57.9876 32.6999 58.0127L32.6748 58.0378C32.6498 58.0629 32.6247 58.0879 32.5996 58.113L42.7292 52.2215C42.7542 52.1964 42.7793 52.1713 42.8044 52.1462L42.8294 52.1212C42.8545 52.0961 42.8545 52.071 42.8796 52.046C42.8796 52.0209 42.9047 52.0209 42.9047 51.9958C42.9047 51.9708 42.9297 51.9457 42.9297 51.9206C42.9297 51.8955 42.9297 51.8705 42.9297 51.8705C42.9297 51.8454 42.9297 51.8454 42.9297 51.8203C42.9297 51.7953 42.9297 51.7702 42.9297 51.7702V51.7451L32.8002 57.6367Z" fill="#3E3E41"/>
<path d="M32.876 31.2626L32.8008 57.6367L42.9303 51.7702L42.9805 28.5801L32.876 31.2626Z" fill="#424245"/>
<path d="M31.2959 56.7847C31.2959 57.261 31.6219 57.8376 32.0482 58.0883C32.4745 58.3391 32.8005 58.1385 32.8005 57.6621L32.8758 31.2881L31.3711 31.6892L31.2959 56.7847Z" fill="#4B4B4E"/>
<path d="M68.0793 93.3887C68.0793 93.5391 68.0793 93.7146 68.0543 93.865C68.0292 94.0154 68.0292 94.1909 68.0041 94.3413C67.979 94.4918 67.954 94.6673 67.9038 94.8177C67.8537 94.9932 67.8286 95.1436 67.7785 95.3191C67.7283 95.4946 67.6782 95.645 67.6029 95.8205C67.5528 95.9709 67.4776 96.1464 67.4024 96.2968V96.3219C67.3271 96.4723 67.2519 96.6228 67.1767 96.7982V96.8233C67.1015 96.9737 67.0263 97.1242 66.926 97.2746C66.8257 97.4501 66.7003 97.6256 66.6 97.8011C66.5248 97.9013 66.4496 98.0267 66.3744 98.127C66.249 98.2774 66.1236 98.4529 65.9983 98.6033C65.898 98.7287 65.7726 98.854 65.6723 98.9794L65.6472 99.0044C65.5219 99.1298 65.4216 99.2301 65.2962 99.3554C65.2962 99.3554 65.2962 99.3554 65.2711 99.3805C65.1458 99.5058 65.0204 99.6061 64.8951 99.7064C64.7697 99.8067 64.6443 99.907 64.4939 100.007C64.3685 100.108 64.2181 100.183 64.0927 100.258C63.9423 100.333 63.8169 100.408 63.6915 100.459C63.5662 100.509 63.4157 100.584 63.2904 100.609C63.165 100.659 63.0396 100.684 62.9143 100.709C62.7889 100.734 62.6635 100.759 62.5382 100.759C62.4128 100.759 62.3125 100.784 62.1872 100.759C62.0869 100.759 61.9615 100.734 61.8612 100.709C61.8612 100.709 61.8612 100.709 61.8361 100.709C61.7358 100.684 61.6355 100.659 61.5353 100.634C61.5353 100.634 61.5353 100.634 61.5102 100.634C61.4099 100.609 61.3347 100.559 61.2344 100.509L63.1149 101.612C63.165 101.637 63.2152 101.662 63.2653 101.687C63.2904 101.712 63.3405 101.712 63.3907 101.737C63.3907 101.737 63.3907 101.737 63.4157 101.737C63.4659 101.762 63.491 101.762 63.5411 101.787C63.5662 101.787 63.6163 101.812 63.6414 101.812C63.6665 101.812 63.6665 101.812 63.6915 101.812C63.6915 101.812 63.6915 101.812 63.7166 101.812C63.7417 101.812 63.7417 101.812 63.7668 101.812C63.7918 101.812 63.842 101.812 63.8671 101.837C63.8921 101.837 63.9172 101.837 63.9673 101.837C63.9924 101.837 64.0175 101.837 64.0426 101.837C64.0676 101.837 64.0927 101.837 64.1429 101.837C64.1679 101.837 64.193 101.837 64.2181 101.837C64.2431 101.837 64.2682 101.837 64.2933 101.837C64.3184 101.837 64.3434 101.837 64.3685 101.837C64.3936 101.837 64.4187 101.837 64.4437 101.837C64.4688 101.837 64.4939 101.837 64.519 101.837C64.544 101.837 64.5691 101.837 64.5942 101.812C64.6192 101.812 64.6443 101.812 64.6694 101.787C64.6945 101.787 64.6945 101.787 64.7195 101.787H64.7446C64.7697 101.787 64.7948 101.787 64.8198 101.762C64.8449 101.762 64.87 101.737 64.8951 101.737C64.9201 101.737 64.9452 101.712 64.9703 101.712C64.9953 101.712 65.0204 101.687 65.0455 101.687C65.0706 101.687 65.0706 101.687 65.0956 101.662H65.1207C65.1458 101.662 65.1709 101.637 65.1959 101.637C65.221 101.637 65.2461 101.612 65.2711 101.612C65.2962 101.612 65.3213 101.587 65.3464 101.587C65.3714 101.587 65.3965 101.562 65.4216 101.562C65.4467 101.562 65.4717 101.537 65.4717 101.537C65.4717 101.537 65.4717 101.537 65.4968 101.537C65.5219 101.537 65.547 101.511 65.572 101.511C65.5971 101.486 65.6222 101.486 65.6472 101.461C65.6723 101.436 65.6974 101.436 65.7225 101.411C65.7475 101.386 65.7726 101.386 65.7977 101.361C65.8228 101.336 65.8478 101.336 65.8729 101.311C65.898 101.286 65.923 101.286 65.9481 101.261C65.9732 101.236 65.9983 101.236 66.0233 101.211C66.0484 101.186 66.0735 101.186 66.0986 101.16C66.1236 101.135 66.1487 101.11 66.1738 101.11C66.1989 101.11 66.1989 101.085 66.2239 101.085L66.249 101.06C66.2741 101.035 66.2991 101.01 66.3493 100.985C66.3744 100.96 66.3994 100.935 66.4496 100.91C66.4747 100.885 66.5248 100.86 66.5499 100.835C66.575 100.81 66.6 100.784 66.6251 100.759C66.6502 100.734 66.7003 100.709 66.7254 100.684C66.7505 100.659 66.8006 100.634 66.8257 100.584C66.8758 100.559 66.9009 100.509 66.951 100.484C66.9761 100.459 66.9761 100.459 67.0012 100.433C67.0012 100.433 67.0012 100.433 67.0263 100.408C67.0513 100.383 67.0513 100.383 67.0764 100.358C67.1266 100.308 67.1767 100.258 67.2018 100.233C67.2519 100.183 67.3021 100.133 67.3271 100.082L67.3522 100.057L67.3773 100.032C67.4274 99.9822 67.4525 99.932 67.5027 99.907C67.5779 99.8318 67.628 99.7566 67.7032 99.6813C67.8286 99.5309 67.954 99.3805 68.0793 99.205L68.1044 99.1799C68.1546 99.1047 68.2047 99.0295 68.2799 98.9543C68.2799 98.9292 68.305 98.9292 68.305 98.9042C68.4304 98.7287 68.5307 98.5532 68.6309 98.3777C68.6811 98.2774 68.7312 98.2022 68.7814 98.1019C68.8065 98.0518 68.8566 97.9766 68.8817 97.9264V97.9013C68.8817 97.9013 68.8817 97.9013 68.8817 97.8763C68.9068 97.8011 68.9569 97.7509 68.982 97.6757C69.007 97.6256 69.0321 97.5504 69.0572 97.5002C69.0572 97.4751 69.0823 97.4501 69.0823 97.425V97.3999C69.0823 97.3749 69.1073 97.3498 69.1073 97.3498C69.1324 97.2997 69.1575 97.2495 69.1826 97.1994C69.2076 97.1492 69.2076 97.0991 69.2327 97.074C69.2578 97.0239 69.2578 96.9988 69.2829 96.9487C69.3079 96.8985 69.3079 96.8484 69.333 96.8233C69.3581 96.7732 69.3581 96.7481 69.3831 96.698C69.4082 96.6478 69.4082 96.6227 69.4333 96.5726C69.4584 96.5225 69.4584 96.4974 69.4584 96.4473C69.4584 96.4222 69.4834 96.372 69.4834 96.347C69.4834 96.3219 69.5085 96.2718 69.5085 96.2467C69.5085 96.2216 69.5336 96.1715 69.5336 96.1464C69.5336 96.1213 69.5587 96.0712 69.5587 96.0461C69.5587 96.0211 69.5587 95.996 69.5837 95.996V95.9709C69.5837 95.9459 69.6088 95.8957 69.6088 95.8706C69.6088 95.8456 69.6339 95.7954 69.6339 95.7704C69.6339 95.7453 69.6589 95.6952 69.6589 95.6701C69.6589 95.645 69.6589 95.5949 69.684 95.5698C69.684 95.5447 69.684 95.5447 69.684 95.5197V95.4946C69.684 95.4695 69.684 95.4194 69.7091 95.3943C69.7091 95.3692 69.7091 95.3191 69.7342 95.294C69.7342 95.269 69.7342 95.2188 69.7342 95.1937C69.7342 95.1687 69.7342 95.1185 69.7342 95.0935C69.7342 95.0684 69.7342 95.0433 69.7342 95.0182V94.9932C69.7342 94.9681 69.7342 94.918 69.7342 94.8929C69.7342 94.8678 69.7342 94.8177 69.7342 94.7926C69.7342 94.7675 69.7342 94.7174 69.7342 94.6923C69.7342 94.6673 69.7342 94.6171 69.7342 94.592C69.7342 94.567 69.7342 94.5419 69.7342 94.5168L68.0793 93.3887Z" fill="#2EEAB1"/>
<path d="M53.2109 101.988C53.2109 102.139 53.2109 102.314 53.1858 102.465C53.1607 102.615 53.1607 102.791 53.1356 102.941C53.1106 103.091 53.0855 103.267 53.0353 103.417C52.9601 103.743 52.8598 104.069 52.7345 104.42C52.6843 104.571 52.6091 104.746 52.5339 104.896V104.922C52.4587 105.072 52.3834 105.222 52.3082 105.398C52.3082 105.398 52.3082 105.423 52.2832 105.423C52.2079 105.573 52.1327 105.724 52.0324 105.874C51.9321 106.05 51.8068 106.225 51.7065 106.401C51.6313 106.501 51.556 106.626 51.4808 106.727C51.3554 106.877 51.2301 107.053 51.1047 107.203C51.0044 107.328 50.8791 107.454 50.7788 107.579L50.7537 107.604C50.6283 107.729 50.528 107.83 50.4027 107.955C50.4027 107.955 50.4027 107.955 50.3776 107.98C50.2522 108.105 50.1269 108.206 50.0015 108.306C49.8761 108.406 49.7508 108.507 49.6003 108.607C49.475 108.707 49.3245 108.782 49.1992 108.858C49.0487 108.933 48.9234 109.008 48.798 109.058C48.6726 109.108 48.5222 109.183 48.3968 109.209C48.2715 109.259 48.1461 109.284 48.0207 109.309C47.77 109.359 47.5193 109.384 47.2936 109.384C47.1933 109.384 47.0679 109.359 46.9676 109.334C46.9676 109.334 46.9677 109.334 46.9426 109.334C46.8423 109.309 46.742 109.284 46.6417 109.259C46.6417 109.259 46.6417 109.259 46.6166 109.259C46.5163 109.234 46.4411 109.183 46.3408 109.133L48.2213 110.236C48.2715 110.262 48.3216 110.287 48.3717 110.312C48.3968 110.337 48.447 110.337 48.4971 110.362C48.4971 110.362 48.4971 110.362 48.5222 110.362C48.5723 110.387 48.5974 110.387 48.6475 110.412C48.6726 110.412 48.7228 110.437 48.7478 110.437C48.7729 110.437 48.7729 110.437 48.798 110.437C48.798 110.437 48.798 110.437 48.8231 110.437C48.8481 110.437 48.8481 110.437 48.8732 110.437C48.8983 110.437 48.9484 110.437 48.9735 110.462C48.9986 110.462 49.0236 110.462 49.0738 110.462C49.0989 110.462 49.1239 110.462 49.149 110.462C49.1741 110.462 49.1992 110.462 49.2493 110.462C49.2744 110.462 49.2995 110.462 49.3245 110.462C49.3496 110.462 49.3747 110.462 49.3997 110.462C49.4248 110.462 49.4499 110.462 49.475 110.462C49.5 110.462 49.5251 110.462 49.5502 110.462C49.5753 110.462 49.6003 110.462 49.6254 110.462C49.6505 110.462 49.6755 110.462 49.7006 110.437C49.7257 110.437 49.7508 110.437 49.7758 110.412C49.8009 110.412 49.8009 110.412 49.826 110.412H49.8511C49.8761 110.412 49.9012 110.412 49.9263 110.387C49.9514 110.387 49.9764 110.362 50.0015 110.362C50.0266 110.362 50.0516 110.337 50.0767 110.337C50.1018 110.337 50.1269 110.312 50.1519 110.312C50.177 110.312 50.177 110.312 50.2021 110.287H50.2272C50.2522 110.287 50.2773 110.262 50.3024 110.262C50.3274 110.262 50.3525 110.236 50.3776 110.236C50.4027 110.236 50.4277 110.211 50.4528 110.211C50.4779 110.211 50.503 110.186 50.528 110.186C50.5531 110.186 50.5782 110.161 50.5782 110.161C50.5782 110.161 50.5782 110.161 50.6033 110.161C50.6283 110.161 50.6534 110.136 50.6785 110.136C50.7035 110.111 50.7286 110.111 50.7537 110.086C50.7788 110.061 50.8038 110.061 50.8289 110.036C50.854 110.011 50.8791 110.011 50.9041 109.986C50.9292 109.961 50.9543 109.961 50.9794 109.936C51.0044 109.911 51.0295 109.911 51.0546 109.885C51.0796 109.86 51.1047 109.86 51.1298 109.835C51.1549 109.81 51.1799 109.81 51.205 109.785C51.2301 109.76 51.2552 109.735 51.2802 109.735C51.3053 109.735 51.3053 109.71 51.3304 109.71L51.3554 109.685C51.3805 109.66 51.4056 109.635 51.4557 109.61C51.4808 109.585 51.5059 109.56 51.556 109.534C51.5811 109.509 51.6313 109.484 51.6563 109.459C51.6814 109.434 51.7065 109.409 51.7315 109.384C51.7566 109.359 51.8068 109.334 51.8318 109.309C51.8569 109.284 51.9071 109.259 51.9321 109.209C51.9823 109.183 52.0073 109.133 52.0575 109.108C52.0826 109.083 52.0826 109.083 52.1076 109.058C52.1076 109.058 52.1076 109.058 52.1327 109.033C52.1578 109.008 52.1578 109.008 52.1829 108.983C52.233 108.933 52.2832 108.883 52.3082 108.858C52.3584 108.807 52.4085 108.757 52.4336 108.707L52.4587 108.682L52.4837 108.657C52.5339 108.607 52.559 108.557 52.6091 108.532C52.6843 108.456 52.7345 108.381 52.8097 108.306C52.9351 108.156 53.0604 108.005 53.1858 107.83L53.2109 107.805C53.261 107.729 53.3112 107.654 53.3864 107.579C53.3864 107.554 53.4114 107.554 53.4114 107.529C53.5368 107.353 53.6371 107.178 53.7374 107.002C53.7875 106.902 53.8377 106.827 53.8878 106.727C53.9129 106.676 53.9631 106.601 53.9881 106.551C53.9881 106.551 53.9881 106.526 54.0132 106.526C54.0132 106.526 54.0132 106.526 54.0132 106.501C54.0383 106.426 54.0884 106.376 54.1135 106.3C54.1386 106.25 54.1636 106.175 54.1887 106.125C54.1887 106.1 54.2138 106.075 54.2138 106.05V106.025C54.2138 106 54.2389 105.974 54.2389 105.974C54.2639 105.924 54.289 105.874 54.3141 105.824C54.3392 105.774 54.3392 105.724 54.3642 105.699C54.3893 105.649 54.3893 105.623 54.4144 105.573C54.4394 105.523 54.4394 105.473 54.4645 105.448C54.4896 105.398 54.4896 105.373 54.5147 105.323C54.5397 105.273 54.5397 105.247 54.5648 105.197C54.5899 105.147 54.5899 105.122 54.5899 105.072C54.5899 105.047 54.615 104.997 54.615 104.972C54.615 104.947 54.64 104.896 54.64 104.871C54.64 104.846 54.6651 104.796 54.6651 104.771C54.6651 104.746 54.6902 104.696 54.6902 104.671C54.6902 104.646 54.6902 104.621 54.7153 104.621V104.596C54.7153 104.571 54.7403 104.52 54.7403 104.495C54.7403 104.47 54.7654 104.42 54.7654 104.395C54.7654 104.37 54.7905 104.32 54.7905 104.295C54.7905 104.27 54.7905 104.22 54.8155 104.194C54.8155 104.169 54.8155 104.169 54.8155 104.144V104.119C54.8155 104.094 54.8155 104.044 54.8406 104.019C54.8406 103.994 54.8406 103.944 54.8657 103.919C54.8657 103.894 54.8657 103.843 54.8657 103.818C54.8657 103.793 54.8657 103.743 54.8657 103.718C54.8657 103.693 54.8657 103.668 54.8657 103.643V103.618C54.8657 103.593 54.8657 103.543 54.8657 103.518C54.8657 103.493 54.8657 103.442 54.8657 103.417C54.8657 103.392 54.8657 103.342 54.8657 103.317C54.8657 103.292 54.8657 103.242 54.8657 103.217C54.8657 103.192 54.8657 103.167 54.8657 103.142L53.2109 101.988Z" fill="#2EEAB1"/>
<path d="M69.8593 60.2203L67.9785 59.1172L68.0788 93.3884L69.9596 94.4915L69.8593 60.2203Z" fill="#2EEAB1"/>
<path d="M38.8681 110.261C38.8681 110.411 38.8681 110.587 38.843 110.737C38.8179 110.888 38.8179 111.063 38.7929 111.213C38.7678 111.364 38.7427 111.539 38.6926 111.715C38.6424 111.89 38.6174 112.041 38.5672 112.216C38.5171 112.392 38.4669 112.542 38.3917 112.718C38.3415 112.868 38.2663 113.044 38.1911 113.194V113.219C38.1159 113.369 38.0407 113.52 37.9655 113.695C37.9655 113.695 37.9655 113.72 37.9404 113.72C37.8652 113.871 37.7899 114.021 37.6896 114.172C37.5894 114.347 37.464 114.523 37.3637 114.698C37.2885 114.798 37.2133 114.924 37.138 115.024C37.0127 115.175 36.8873 115.35 36.7619 115.5C36.6617 115.626 36.5363 115.751 36.436 115.877L36.4109 115.902C36.2856 116.027 36.1853 116.127 36.0599 116.253C36.0599 116.253 36.0599 116.253 36.0348 116.278C35.9095 116.403 35.7841 116.503 35.6587 116.604C35.5334 116.704 35.408 116.804 35.2576 116.904C35.1322 117.005 34.9818 117.08 34.8564 117.155C34.7059 117.23 34.5806 117.306 34.4552 117.356C34.3298 117.406 34.1794 117.481 34.054 117.506C33.9287 117.556 33.8033 117.581 33.6779 117.606C33.4272 117.657 33.1765 117.682 32.9508 117.682C32.8505 117.682 32.7252 117.657 32.6249 117.631C32.6249 117.631 32.6249 117.631 32.5998 117.631C32.4995 117.606 32.3992 117.581 32.2989 117.556C32.2989 117.556 32.2989 117.556 32.2739 117.556C32.1736 117.531 32.0983 117.481 31.998 117.431L33.8785 118.534C33.9287 118.559 33.9788 118.584 34.029 118.609C34.054 118.634 34.1042 118.634 34.1543 118.659C34.1543 118.659 34.1543 118.659 34.1794 118.659C34.2296 118.684 34.2546 118.684 34.3048 118.709C34.3298 118.709 34.38 118.735 34.4051 118.735C34.4301 118.735 34.4301 118.735 34.4552 118.735C34.4552 118.735 34.4552 118.735 34.4803 118.735C34.5054 118.735 34.5054 118.735 34.5304 118.735C34.5555 118.735 34.6057 118.735 34.6307 118.76C34.6558 118.76 34.6809 118.76 34.731 118.76C34.7561 118.76 34.7812 118.76 34.8062 118.76C34.8313 118.76 34.8564 118.76 34.9065 118.76C34.9316 118.76 34.9567 118.76 34.9818 118.76C35.0068 118.76 35.0319 118.76 35.057 118.76C35.082 118.76 35.1071 118.76 35.1322 118.76C35.1573 118.76 35.1823 118.76 35.2074 118.76C35.2325 118.76 35.2576 118.76 35.2826 118.76C35.3077 118.76 35.3328 118.76 35.3578 118.735C35.3829 118.735 35.408 118.735 35.4331 118.709C35.4581 118.709 35.4581 118.709 35.4832 118.709H35.5083C35.5334 118.709 35.5584 118.709 35.5835 118.684C35.6086 118.684 35.6337 118.659 35.6587 118.659C35.6838 118.659 35.7089 118.634 35.7339 118.634C35.759 118.634 35.7841 118.609 35.8092 118.609C35.8342 118.609 35.8342 118.609 35.8593 118.584H35.8844C35.9095 118.584 35.9345 118.559 35.9596 118.559C35.9847 118.559 36.0097 118.534 36.0348 118.534C36.0599 118.534 36.085 118.509 36.11 118.509C36.1351 118.509 36.1602 118.484 36.1853 118.484C36.2103 118.484 36.2354 118.459 36.2354 118.459C36.2354 118.459 36.2354 118.459 36.2605 118.459C36.2856 118.459 36.3106 118.434 36.3357 118.409C36.3608 118.384 36.3858 118.384 36.4109 118.358C36.436 118.333 36.4611 118.333 36.4861 118.308C36.5112 118.283 36.5363 118.283 36.5614 118.258C36.5864 118.233 36.6115 118.233 36.6366 118.208C36.6617 118.183 36.6867 118.183 36.7118 118.158C36.7369 118.133 36.7619 118.133 36.787 118.108C36.8121 118.083 36.8372 118.083 36.8622 118.058C36.8873 118.033 36.9124 118.007 36.9375 118.007C36.9625 118.007 36.9625 117.982 36.9876 117.982L37.0127 117.957C37.0377 117.932 37.0628 117.907 37.113 117.882C37.138 117.857 37.1631 117.832 37.2133 117.807C37.2383 117.782 37.2885 117.757 37.3136 117.732C37.3386 117.707 37.3637 117.682 37.3888 117.657C37.4138 117.631 37.464 117.606 37.4891 117.581C37.5141 117.556 37.5643 117.531 37.5894 117.481C37.6395 117.456 37.6646 117.406 37.7147 117.381C37.7398 117.356 37.7398 117.356 37.7649 117.331C37.7649 117.331 37.7649 117.331 37.7899 117.306C37.815 117.28 37.815 117.28 37.8401 117.255C37.8902 117.205 37.9404 117.155 37.9655 117.13C38.0156 117.08 38.0657 117.03 38.0908 116.98L38.1159 116.955L38.141 116.929C38.1911 116.879 38.2162 116.829 38.2663 116.804C38.3415 116.729 38.3917 116.654 38.4669 116.578C38.5923 116.428 38.7176 116.278 38.843 116.102L38.8681 116.077C38.9182 116.002 38.9684 115.927 39.0436 115.851C39.0436 115.826 39.0687 115.826 39.0687 115.801C39.194 115.626 39.2943 115.45 39.3946 115.275C39.4448 115.175 39.4949 115.099 39.5451 114.999C39.5701 114.949 39.6203 114.874 39.6454 114.824C39.6454 114.824 39.6454 114.798 39.6704 114.798C39.6704 114.798 39.6704 114.798 39.6704 114.773C39.6955 114.698 39.7456 114.648 39.7707 114.573C39.7958 114.523 39.8209 114.447 39.8459 114.397C39.8459 114.372 39.871 114.347 39.871 114.322V114.297C39.871 114.272 39.8961 114.247 39.8961 114.247C39.9212 114.197 39.9462 114.147 39.9713 114.097C39.9964 114.046 39.9964 113.996 40.0215 113.971C40.0465 113.921 40.0465 113.896 40.0716 113.846C40.0967 113.796 40.0967 113.746 40.1217 113.72C40.1468 113.67 40.1468 113.645 40.1719 113.595C40.197 113.545 40.197 113.52 40.222 113.47C40.2471 113.42 40.2471 113.395 40.2471 113.344C40.2471 113.319 40.2722 113.269 40.2722 113.244C40.2722 113.219 40.2973 113.169 40.2973 113.144C40.2973 113.119 40.3223 113.069 40.3223 113.044C40.3223 113.018 40.3474 112.968 40.3474 112.943C40.3474 112.918 40.3474 112.893 40.3725 112.893V112.868C40.3725 112.843 40.3975 112.793 40.3975 112.768C40.3975 112.743 40.4226 112.693 40.4226 112.668C40.4226 112.642 40.4477 112.592 40.4477 112.567C40.4477 112.542 40.4477 112.492 40.4728 112.467C40.4728 112.442 40.4728 112.442 40.4728 112.417V112.392C40.4728 112.367 40.4728 112.317 40.4978 112.291C40.4978 112.266 40.4978 112.216 40.5229 112.191C40.5229 112.166 40.5229 112.116 40.5229 112.091C40.5229 112.066 40.5229 112.016 40.5229 111.991C40.5229 111.966 40.5229 111.94 40.5229 111.915V111.89C40.5229 111.865 40.5229 111.815 40.5229 111.79C40.5229 111.765 40.5229 111.715 40.5229 111.69C40.5229 111.665 40.5229 111.615 40.5229 111.589C40.5229 111.564 40.5229 111.514 40.5229 111.489C40.5229 111.464 40.5229 111.439 40.5229 111.414L38.8681 110.261Z" fill="#2EEAB1"/>
<path d="M67.2762 56.9363C67.3013 56.9614 67.3013 56.9614 67.3264 56.9864C67.4016 57.0616 67.4518 57.1368 67.5019 57.2121L67.527 57.2371C67.5772 57.3123 67.6273 57.4126 67.6775 57.5129C67.7276 57.6132 67.7778 57.7385 67.8029 57.8388C67.8029 57.8388 67.8029 57.8388 67.8029 57.8639C67.8279 57.9892 67.8781 58.1146 67.9032 58.2399C67.9283 58.3653 67.9533 58.5157 67.9533 58.6411C67.9784 58.7915 67.9784 58.9419 67.9784 59.0923L69.8592 60.1954V60.1704C69.8592 60.1453 69.8592 60.0952 69.8592 60.0701C69.8592 60.045 69.8592 59.9949 69.8592 59.9698C69.8592 59.9447 69.8592 59.8946 69.8592 59.8695C69.8592 59.8444 69.8592 59.7943 69.8592 59.7692C69.8592 59.7442 69.8592 59.7442 69.8592 59.7191C69.8592 59.694 69.8592 59.694 69.8592 59.669C69.8592 59.6439 69.8592 59.5937 69.8592 59.5687C69.8592 59.5436 69.8592 59.4935 69.8341 59.4684C69.8341 59.4433 69.8341 59.3932 69.8091 59.3681C69.8091 59.343 69.8091 59.318 69.784 59.2929V59.2678C69.784 59.2428 69.7589 59.1926 69.7589 59.1675C69.7589 59.1425 69.7338 59.0923 69.7338 59.0673C69.7338 59.0171 69.7088 58.9921 69.7088 58.967V58.9419C69.7088 58.9419 69.7088 58.9419 69.7088 58.9168C69.7088 58.8918 69.6837 58.8667 69.6837 58.8416C69.6586 58.7915 69.6586 58.7414 69.6335 58.7163C69.6084 58.6661 69.6084 58.6411 69.5834 58.5909C69.5583 58.5408 69.5332 58.4906 69.5081 58.4405C69.4831 58.3904 69.458 58.3653 69.4329 58.3152L69.4078 58.2901C69.4078 58.2901 69.4078 58.2901 69.4078 58.265C69.3577 58.1898 69.3075 58.1146 69.2323 58.0394C69.2072 58.0143 69.2072 58.0143 69.1821 57.9892C69.132 57.9391 69.0818 57.889 69.0317 57.8388C69.0066 57.8137 68.9815 57.8137 68.9815 57.7887C68.9063 57.7385 68.831 57.6633 68.7558 57.6383L66.875 56.5352C66.9502 56.5853 67.0255 56.6354 67.1007 56.6856C67.1258 56.7106 67.1509 56.7106 67.1509 56.7357C67.1509 56.8109 67.2261 56.8611 67.2762 56.9363Z" fill="#2EEAB1"/>
<path d="M55.0162 68.7938L53.1104 67.7158L53.2107 101.987L55.0915 103.065L55.0162 68.7938Z" fill="#2EEAB1"/>
<path d="M52.409 65.5105C52.4341 65.5356 52.4341 65.5356 52.4592 65.5606C52.5344 65.6359 52.5846 65.7111 52.6347 65.7863L52.6598 65.8114C52.71 65.8866 52.7601 65.9868 52.8103 66.0871C52.8604 66.1874 52.9106 66.3128 52.9357 66.413C52.9357 66.413 52.9357 66.413 52.9357 66.4381C52.9858 66.5635 53.0109 66.6888 53.036 66.8142C53.0611 66.9395 53.0861 67.0899 53.0861 67.2153C53.1112 67.3657 53.1112 67.5161 53.1112 67.6666L54.992 68.7697V68.7446C54.992 68.7195 54.992 68.6694 54.992 68.6443C54.992 68.6192 54.992 68.5691 54.992 68.544C54.992 68.519 54.992 68.4688 54.992 68.4437C54.992 68.4187 54.992 68.3685 54.992 68.3435C54.992 68.3184 54.992 68.3184 54.992 68.2933C54.992 68.2682 54.992 68.2682 54.992 68.2432C54.992 68.2181 54.992 68.168 54.992 68.1429C54.992 68.1178 54.992 68.0677 54.967 68.0426C54.967 68.0175 54.967 67.9674 54.9419 67.9423C54.9419 67.9173 54.9419 67.8922 54.9168 67.8671V67.8421C54.9168 67.817 54.8917 67.7668 54.8917 67.7418C54.8917 67.7167 54.8666 67.6666 54.8666 67.6415C54.8666 67.5913 54.8416 67.5663 54.8416 67.5412V67.5161C54.8416 67.5161 54.8416 67.5161 54.8416 67.4911C54.8416 67.466 54.8165 67.4409 54.8165 67.4159C54.7914 67.3657 54.7914 67.3156 54.7663 67.2905C54.7413 67.2404 54.7413 67.2153 54.7162 67.1652C54.6911 67.115 54.666 67.0649 54.6409 67.0147C54.6159 66.9646 54.5908 66.9395 54.5657 66.8894L54.5406 66.8643C54.5406 66.8643 54.5406 66.8643 54.5406 66.8392C54.4905 66.764 54.4403 66.6888 54.3651 66.6136C54.34 66.5885 54.34 66.5885 54.3149 66.5635C54.2648 66.5133 54.2146 66.4632 54.1645 66.413C54.1394 66.388 54.1143 66.388 54.1143 66.3629C54.0391 66.3128 53.9639 66.2375 53.8886 66.2125L52.0078 65.1094C52.083 65.1595 52.1583 65.2097 52.2335 65.2598C52.2586 65.2849 52.2837 65.2849 52.2837 65.3099C52.3087 65.4102 52.3589 65.4604 52.409 65.5105Z" fill="#2EEAB1"/>
<path d="M40.75 111.34L38.8692 110.261L38.7939 75.9902L40.6748 77.0683L40.75 111.34Z" fill="#2EEAB1"/>
<path d="M38.0663 73.783C38.0914 73.808 38.0914 73.808 38.1164 73.8331C38.1917 73.9083 38.2418 73.9835 38.292 74.0587L38.3171 74.0838C38.3672 74.159 38.4174 74.2593 38.4675 74.3596C38.5177 74.4599 38.5678 74.5852 38.5929 74.6855C38.5929 74.6855 38.5929 74.6855 38.5929 74.7106C38.6431 74.8359 38.6681 74.9613 38.6932 75.0866C38.7183 75.212 38.7434 75.3624 38.7434 75.4878C38.7684 75.6382 38.7684 75.7886 38.7684 75.939L40.6493 77.0421V77.017C40.6493 76.992 40.6493 76.9418 40.6493 76.9168C40.6493 76.8917 40.6493 76.8416 40.6493 76.8165C40.6493 76.7914 40.6493 76.7413 40.6493 76.7162C40.6493 76.6911 40.6493 76.641 40.6493 76.6159C40.6493 76.5909 40.6493 76.5909 40.6493 76.5658C40.6493 76.5407 40.6493 76.5407 40.6493 76.5156C40.6493 76.4906 40.6493 76.4404 40.6493 76.4154C40.6493 76.3903 40.6493 76.3401 40.6242 76.3151C40.6242 76.29 40.6242 76.2399 40.5991 76.2148C40.5991 76.1897 40.5991 76.1647 40.574 76.1396V76.1145C40.574 76.0894 40.5489 76.0393 40.5489 76.0142C40.5489 75.9892 40.5239 75.939 40.5239 75.9139C40.5239 75.8638 40.4988 75.8387 40.4988 75.8137V75.7886C40.4988 75.7886 40.4988 75.7886 40.4988 75.7635C40.4988 75.7385 40.4737 75.7134 40.4737 75.6883C40.4486 75.6382 40.4486 75.588 40.4236 75.563C40.3985 75.5128 40.3985 75.4878 40.3734 75.4376C40.3483 75.3875 40.3233 75.3373 40.2982 75.2872C40.2731 75.237 40.248 75.212 40.2229 75.1618L40.1979 75.1368C40.1979 75.1368 40.1979 75.1368 40.1979 75.1117C40.1477 75.0365 40.0976 74.9613 40.0223 74.8861C39.9972 74.861 39.9972 74.861 39.9722 74.8359C39.922 74.7858 39.8719 74.7356 39.8217 74.6855C39.7966 74.6604 39.7715 74.6604 39.7715 74.6354C39.6963 74.5852 39.6211 74.51 39.5458 74.4849L37.665 73.3818C37.7403 73.432 37.8155 73.4821 37.8907 73.5323C37.9158 73.5573 37.9409 73.5573 37.9409 73.5824C37.966 73.6827 38.0161 73.7328 38.0663 73.783Z" fill="#2EEAB1"/>
<path d="M10.4609 83.4103L12.3163 138.866L89.9678 94.0401L91.4973 36.6289L10.4609 83.4103ZM36.7627 118.258C34.5562 119.537 32.751 118.509 32.751 115.977L32.6507 81.7055C32.6507 79.1734 34.4309 76.0647 36.6373 74.7861C38.8437 73.5075 40.649 74.5354 40.649 77.0675L40.7493 111.339C40.7744 113.896 38.9942 116.98 36.7627 118.258ZM51.1045 109.985C48.8981 111.263 47.0928 110.236 47.0928 107.704L46.9925 73.4323C46.9925 70.9002 48.7727 67.7914 50.9791 66.5128C53.1856 65.2342 54.9908 66.2621 54.9908 68.7942L55.0911 103.065C55.1162 105.623 53.3109 108.706 51.1045 109.985ZM65.9729 101.411C63.7664 102.689 61.9612 101.662 61.9612 99.1294L61.8609 64.8582C61.8609 62.3261 63.6411 59.2173 65.8475 57.9388C68.0539 56.6602 69.8592 57.688 69.8592 60.2202L69.9595 94.4914C69.9595 97.0235 68.1793 100.132 65.9729 101.411Z" fill="#2EEAB1"/>
<path d="M10.4609 83.411L8.58008 82.333L10.4358 137.789L12.3166 138.867L10.4609 83.411Z" fill="#2EEAB1"/>
<path d="M89.5914 35.5508L8.58008 82.3322L10.4606 83.4102L91.4719 36.6539L89.5914 35.5508Z" fill="#2EEAB1"/>
<path d="M147.36 124.375L67.0756 169.477L9.03125 136.96L90.4186 92.8867L147.36 124.375Z" fill="#137154"/>
<path d="M67.0756 169.477V170.455L9.03125 137.939V136.961L67.0756 169.477Z" fill="#7D5E00"/>
<path d="M145.579 69.2696L145.103 124.55L88.0361 92.0837L88.1364 36.6279L145.579 69.2696Z" fill="#0BDE9F"/>
<path d="M145.73 70.2971L147.836 69.0938L147.36 124.374L145.278 125.577L145.73 70.2971Z" fill="#A3A3A3"/>
<path d="M88.3115 37.6555L90.3926 36.4521L147.835 69.0938L145.729 70.2972L88.3115 37.6555Z" fill="#DEA800"/>
<path d="M95.9599 140.92C95.9599 141.07 95.9599 141.246 95.9348 141.396C95.9097 141.547 95.9097 141.722 95.8847 141.873C95.8596 142.023 95.8345 142.199 95.7844 142.374C95.7342 142.549 95.7091 142.7 95.659 142.875C95.6089 143.051 95.5587 143.201 95.4835 143.377C95.4333 143.527 95.3581 143.703 95.2829 143.853V143.878C95.2077 144.029 95.1325 144.179 95.0572 144.355C95.0572 144.355 95.0572 144.38 95.0322 144.38C94.957 144.53 94.8817 144.68 94.7814 144.831C94.6811 145.006 94.5558 145.182 94.4555 145.357C94.3803 145.458 94.3051 145.583 94.2298 145.683C94.1045 145.834 93.9791 146.009 93.8537 146.16C93.7534 146.285 93.6281 146.41 93.5278 146.536L93.5027 146.561C93.3773 146.686 93.2771 146.786 93.1517 146.912C93.1517 146.912 93.1517 146.912 93.1266 146.937C93.0012 147.062 92.8759 147.162 92.7505 147.263C92.6251 147.363 92.4998 147.463 92.3494 147.564C92.224 147.664 92.0735 147.739 91.9482 147.814C91.7977 147.889 91.6724 147.965 91.547 148.015C91.4216 148.065 91.2712 148.14 91.1458 148.165C91.0205 148.215 90.8951 148.24 90.7697 148.266C90.519 148.316 90.2683 148.341 90.0426 148.341C89.9423 148.341 89.817 148.316 89.7167 148.291C89.7167 148.291 89.7167 148.291 89.6916 148.291C89.5913 148.266 89.491 148.24 89.3907 148.215C89.3907 148.215 89.3907 148.215 89.3656 148.215C89.2653 148.19 89.1901 148.14 89.0898 148.09L90.9703 149.193C91.0205 149.218 91.0706 149.243 91.1208 149.268C91.1458 149.293 91.196 149.293 91.2461 149.319C91.2461 149.319 91.2461 149.319 91.2712 149.319C91.3213 149.344 91.3464 149.344 91.3966 149.369C91.4216 149.369 91.4718 149.394 91.4969 149.394C91.5219 149.394 91.5219 149.394 91.547 149.394C91.547 149.394 91.547 149.394 91.5721 149.394C91.5972 149.394 90.8122 148.971 90.8372 148.971C90.8623 148.971 90.9216 149.208 90.9467 149.233C90.9717 149.233 91.7818 149.656 91.8319 149.656C91.857 149.656 91.8821 149.656 91.9072 149.656C91.9322 149.656 91.9573 149.656 92.0074 149.656C92.0325 149.656 92.0576 149.656 92.0827 149.656C92.1077 149.656 92.1328 149.656 92.1579 149.656C92.183 149.656 92.208 149.656 92.2331 149.656C92.2582 149.656 92.2833 149.656 92.3083 149.656C92.3334 149.656 92.3585 149.656 92.3835 149.656C92.4086 149.656 92.4337 149.656 92.4588 149.631C92.4838 149.631 92.5089 149.631 92.534 149.606C92.5591 149.606 92.5591 149.606 92.5841 149.606H92.6092C92.6343 149.606 92.6593 149.606 92.6844 149.58C92.7095 149.58 92.7346 149.555 92.7596 149.555C92.7847 149.555 92.845 149.444 92.8701 149.444C92.8952 149.444 92.9954 149.663 92.9453 149.419C92.9704 149.419 92.9704 149.419 92.9954 149.394H93.0205C93.0456 149.394 93.0707 149.369 93.0957 149.369C93.1208 149.369 93.1459 149.344 93.171 149.344C93.196 149.344 93.2211 149.318 93.2462 149.318C93.2712 149.318 93.4195 149.382 93.4445 149.382C93.4696 149.382 93.4947 149.357 93.4947 149.357C93.4947 149.357 93.4947 149.357 93.5198 149.357C93.5448 149.357 93.5699 149.331 93.595 149.306C93.62 149.281 93.6451 149.281 93.6702 149.256C93.6953 149.231 93.7203 149.231 93.7454 149.206C93.7705 149.181 93.7956 149.181 93.8206 149.156C93.8457 149.131 93.8708 149.131 93.8959 149.106C93.9209 149.081 93.8935 149.093 93.9186 149.068C93.9436 149.043 93.9687 149.043 93.9938 149.018C94.0189 148.993 94.0439 148.993 94.069 148.968C94.0941 148.942 94.1192 148.917 94.1442 148.917C94.1693 148.917 94.1693 148.892 94.1944 148.892L94.2195 148.867C94.2445 148.842 94.2696 148.817 94.3197 148.792C94.3448 148.767 94.3699 148.742 94.42 148.717C94.4451 148.692 94.4953 148.667 94.5203 148.642C94.5454 148.617 94.5705 148.591 94.5955 148.566C94.6206 148.541 94.7609 148.484 94.786 148.459C94.8111 148.434 94.8612 148.409 94.8863 148.359C94.9364 148.334 94.9615 148.283 95.0117 148.258C95.0367 148.233 95.0367 148.233 95.0618 148.208C95.0618 148.208 95.0618 148.208 95.0869 148.183C95.112 148.158 95.112 148.158 95.137 148.133C95.1872 148.083 95.4379 148.239 95.2624 148.008C95.3125 147.958 95.3627 147.907 95.3878 147.857L95.4128 147.832L95.4379 147.807C95.4881 147.757 95.5131 147.707 95.5633 147.682C95.6385 147.607 95.6886 147.531 95.7639 147.456C95.8892 147.306 96.0464 147.117 96.1718 146.941L96.1969 146.916C96.247 146.841 96.2972 146.766 96.3724 146.69C96.3724 146.665 96.3975 146.665 96.3975 146.64C96.5228 146.465 96.6231 146.289 96.7234 146.114C96.7736 146.014 96.8237 145.938 96.8739 145.838C96.8989 145.788 96.9491 145.713 96.9742 145.663C96.9742 145.663 96.9741 145.638 96.9992 145.638C96.9992 145.638 96.9992 145.638 96.9992 145.612C97.0243 145.537 97.0744 145.487 97.0995 145.412C97.1246 145.362 97.1497 145.287 97.1747 145.236C97.1747 145.211 97.1998 145.186 97.1998 145.161V145.136C97.1998 145.111 97.2249 145.086 97.2249 145.086C97.25 145.036 97.275 144.986 97.3001 144.936C97.3252 144.885 97.3252 144.835 97.3502 144.81C97.3753 144.76 97.3753 144.735 97.4004 144.685C97.4255 144.635 97.9249 144.81 97.4505 144.559C97.4756 144.509 97.4756 144.484 97.5007 144.434C97.5258 144.384 97.5258 144.359 97.5508 144.309C97.5759 144.259 97.5759 144.234 97.5759 144.183C97.5759 144.158 97.601 144.108 97.601 144.083C97.601 144.058 97.9393 144.108 97.9393 144.083C98.8486 144.409 97.7273 143.828 97.7273 143.803C97.7273 143.778 97.7524 143.728 97.7524 143.703C97.7524 143.678 97.7524 143.653 97.7775 143.653V143.628C98.2777 143.803 97.8026 143.552 97.8026 143.527C97.8026 143.502 97.8276 143.452 97.8276 143.427C97.8276 143.402 97.8527 143.352 97.8527 143.327C97.8527 143.302 97.8527 143.251 97.8778 143.226C97.8778 143.201 97.8778 143.201 97.8778 143.176V143.151C97.8778 143.126 97.8778 143.076 97.9029 143.051C97.9029 143.026 97.9029 142.976 97.9279 142.951C97.9279 142.926 97.9279 142.875 97.9279 142.85C97.9279 142.825 97.9279 142.775 97.9279 142.75C97.9279 142.725 98.1868 142.755 98.1868 142.73C98.1868 142.705 97.8139 142.449 97.8139 142.449C97.8139 142.424 97.8139 142.31 97.8139 142.285C97.8139 142.26 97.8139 141.978 97.8139 141.978L95.9599 140.92Z" fill="#2EEAB1"/>
<path d="M110.453 132.736C110.453 132.887 110.453 133.062 110.428 133.213C110.403 133.363 110.403 133.539 110.378 133.689C110.353 133.839 110.328 134.015 110.278 134.19C110.227 134.366 110.202 134.516 110.152 134.692C110.102 134.867 110.052 135.018 109.977 135.193C109.927 135.344 109.851 135.519 109.776 135.67V135.695C109.701 135.845 109.626 135.995 109.55 136.171C109.55 136.171 109.55 136.196 109.525 136.196C109.45 136.346 109.375 136.497 109.275 136.647C109.174 136.823 109.049 136.998 108.949 137.174C108.873 137.274 108.798 137.399 108.723 137.5C108.598 137.65 108.472 137.826 108.347 137.976C108.247 138.101 108.121 138.227 108.021 138.352L107.996 138.377C107.871 138.503 107.77 138.603 107.645 138.728C107.645 138.728 107.645 138.728 107.62 138.753C107.494 138.879 107.369 138.979 107.244 139.079C107.118 139.179 106.993 139.28 106.843 139.38C106.717 139.48 106.567 139.555 106.441 139.631C106.291 139.706 106.166 139.781 106.04 139.831C105.915 139.881 105.764 139.957 105.639 139.982C105.514 140.032 105.388 140.057 105.263 140.082C105.012 140.132 104.761 140.157 104.536 140.157C104.435 140.157 104.31 140.132 104.21 140.107C104.21 140.107 104.21 140.107 104.185 140.107C104.084 140.082 103.984 140.057 103.884 140.032C103.884 140.032 103.884 140.032 103.859 140.032C103.759 140.007 103.683 139.957 103.583 139.906L105.463 141.01C105.514 141.035 105.564 141.06 105.614 141.085C105.639 141.11 105.689 141.11 105.739 141.135C105.739 141.135 105.739 141.135 105.764 141.135C105.815 141.16 105.84 141.16 105.89 141.185C105.915 141.185 105.965 141.21 105.99 141.21C106.015 141.21 106.015 141.21 106.04 141.21C106.04 141.21 106.04 141.21 106.065 141.21C106.09 141.21 105.305 140.787 105.33 140.787C105.355 140.787 105.415 141.024 105.44 141.049C105.465 141.049 106.275 141.472 106.325 141.472C106.35 141.472 106.375 141.472 106.4 141.472C106.425 141.472 106.45 141.472 106.501 141.472C106.526 141.472 106.551 141.472 106.576 141.472C106.601 141.472 106.626 141.472 106.651 141.472C106.676 141.472 106.701 141.472 106.726 141.472C106.751 141.472 106.776 141.472 106.801 141.472C106.827 141.472 106.852 141.472 106.877 141.472C106.902 141.472 106.927 141.472 106.952 141.447C106.977 141.447 107.002 141.447 107.027 141.422C107.052 141.422 107.052 141.422 107.077 141.422H107.102C107.127 141.422 107.153 141.422 107.178 141.397C107.203 141.397 107.228 141.372 107.253 141.372C107.278 141.372 107.338 141.26 107.363 141.26C107.388 141.26 107.489 141.48 107.438 141.235C107.464 141.235 107.464 141.235 107.489 141.21H107.514C107.539 141.21 107.564 141.185 107.589 141.185C107.614 141.185 107.639 141.16 107.664 141.16C107.689 141.16 107.714 141.135 107.739 141.135C107.764 141.135 107.913 141.198 107.938 141.198C107.963 141.198 107.988 141.173 107.988 141.173C107.988 141.173 107.988 141.173 108.013 141.173C108.038 141.173 108.063 141.148 108.088 141.123C108.113 141.098 108.138 141.098 108.163 141.073C108.188 141.048 108.214 141.048 108.239 141.023C108.264 140.997 108.289 140.997 108.314 140.972C108.339 140.947 108.364 140.947 108.389 140.922C108.414 140.897 108.387 140.909 108.412 140.884C108.437 140.859 108.462 140.859 108.487 140.834C108.512 140.809 108.537 140.809 108.562 140.784C108.587 140.759 108.612 140.734 108.637 140.734C108.662 140.734 108.662 140.709 108.688 140.709L108.713 140.684C108.738 140.659 108.763 140.633 108.813 140.608C108.838 140.583 108.863 140.558 108.913 140.533C108.938 140.508 108.988 140.483 109.013 140.458C109.039 140.433 109.064 140.408 109.089 140.383C109.114 140.358 109.254 140.3 109.279 140.275C109.304 140.25 109.354 140.225 109.379 140.175C109.43 140.15 109.455 140.1 109.505 140.075C109.53 140.05 109.53 140.05 109.555 140.025C109.555 140.025 109.555 140.025 109.58 140C109.605 139.975 109.605 139.975 109.63 139.949C109.68 139.899 109.931 140.055 109.756 139.824C109.806 139.774 109.856 139.724 109.881 139.674L109.906 139.649L109.931 139.624C109.981 139.573 110.006 139.523 110.056 139.498C110.132 139.423 110.182 139.348 110.257 139.273C110.382 139.122 110.54 138.933 110.665 138.758L110.69 138.733C110.74 138.657 110.79 138.582 110.866 138.507C110.866 138.482 110.891 138.482 110.891 138.457C111.016 138.281 111.116 138.106 111.217 137.93C111.267 137.83 111.317 137.755 111.367 137.654C111.392 137.604 111.442 137.529 111.467 137.479C111.467 137.479 111.467 137.454 111.492 137.454C111.492 137.454 111.492 137.454 111.492 137.429C111.517 137.354 111.568 137.304 111.593 137.228C111.618 137.178 111.643 137.103 111.668 137.053C111.668 137.028 111.693 137.003 111.693 136.978V136.953C111.693 136.927 111.718 136.902 111.718 136.902C111.743 136.852 111.768 136.802 111.793 136.752C111.818 136.702 111.818 136.652 111.843 136.627C111.868 136.576 111.868 136.551 111.894 136.501C111.919 136.451 112.418 136.627 111.944 136.376C111.969 136.326 111.969 136.301 111.994 136.251C112.019 136.2 112.019 136.175 112.044 136.125C112.069 136.075 112.069 136.05 112.069 136C112.069 135.975 112.094 135.925 112.094 135.9C112.094 135.874 112.432 135.925 112.432 135.9C113.342 136.225 112.221 135.644 112.221 135.619C112.221 135.594 112.246 135.544 112.246 135.519C112.246 135.494 112.246 135.469 112.271 135.469V135.444C112.771 135.619 112.296 135.369 112.296 135.344C112.296 135.319 112.321 135.268 112.321 135.243C112.321 135.218 112.346 135.168 112.346 135.143C112.346 135.118 112.346 135.068 112.371 135.043C112.371 135.018 112.371 135.018 112.371 134.993V134.968C112.371 134.943 112.371 134.892 112.396 134.867C112.396 134.842 112.396 134.792 112.421 134.767C112.421 134.742 112.421 134.692 112.421 134.667C112.421 134.642 112.421 134.592 112.421 134.566C112.421 134.541 112.68 134.571 112.68 134.546C112.68 134.521 112.307 134.266 112.307 134.266C112.307 134.241 112.307 134.127 112.307 134.102C112.307 134.076 112.307 133.794 112.307 133.794L110.453 132.736Z" fill="#2EEAB1"/>
<path d="M125.189 124.131C125.189 124.281 125.189 124.457 125.164 124.607C125.139 124.758 125.139 124.933 125.114 125.084C125.089 125.234 125.064 125.409 125.014 125.585C124.964 125.76 124.939 125.911 124.888 126.086C124.838 126.262 124.788 126.412 124.713 126.588C124.663 126.738 124.588 126.914 124.512 127.064V127.089C124.437 127.24 124.362 127.39 124.287 127.566C124.287 127.566 124.287 127.591 124.262 127.591C124.186 127.741 124.111 127.891 124.011 128.042C123.911 128.217 123.785 128.393 123.685 128.568C123.61 128.669 123.535 128.794 123.459 128.894C123.334 129.045 123.209 129.22 123.083 129.371C122.983 129.496 122.858 129.621 122.757 129.747L122.732 129.772C122.607 129.897 122.507 129.997 122.381 130.123C122.381 130.123 122.381 130.123 122.356 130.148C122.231 130.273 122.105 130.373 121.98 130.474C121.855 130.574 121.729 130.674 121.579 130.775C121.453 130.875 121.303 130.95 121.178 131.025C121.027 131.1 120.902 131.176 120.777 131.226C120.651 131.276 120.501 131.351 120.375 131.376C120.25 131.426 120.125 131.451 119.999 131.476C119.748 131.527 119.498 131.552 119.272 131.552C119.172 131.552 119.046 131.527 118.946 131.502C118.946 131.502 118.946 131.502 118.921 131.502C118.821 131.476 118.721 131.451 118.62 131.426C118.62 131.426 118.62 131.426 118.595 131.426C118.495 131.401 118.42 131.351 118.319 131.301L120.2 132.404C120.25 132.429 120.3 132.454 120.35 132.479C120.375 132.504 120.425 132.504 120.476 132.529C120.476 132.529 120.476 132.529 120.501 132.529C120.551 132.555 120.576 132.555 120.626 132.58C120.651 132.58 120.701 132.605 120.726 132.605C120.751 132.605 120.751 132.605 120.777 132.605C120.777 132.605 120.777 132.605 120.802 132.605C120.827 132.605 120.042 132.182 120.067 132.182C120.092 132.182 120.151 132.419 120.176 132.444C120.201 132.444 121.011 132.867 121.061 132.867C121.087 132.867 121.112 132.867 121.137 132.867C121.162 132.867 121.187 132.867 121.237 132.867C121.262 132.867 121.287 132.867 121.312 132.867C121.337 132.867 121.362 132.867 121.387 132.867C121.412 132.867 121.438 132.867 121.463 132.867C121.488 132.867 121.513 132.867 121.538 132.867C121.563 132.867 121.588 132.867 121.613 132.867C121.638 132.867 121.663 132.867 121.688 132.842C121.713 132.842 121.738 132.842 121.763 132.816C121.789 132.816 121.789 132.816 121.814 132.816H121.839C121.864 132.816 121.889 132.816 121.914 132.791C121.939 132.791 121.964 132.766 121.989 132.766C122.014 132.766 122.074 132.655 122.1 132.655C122.125 132.655 122.225 132.874 122.175 132.63C122.2 132.63 122.2 132.63 122.225 132.605H122.25C122.275 132.605 122.3 132.58 122.325 132.58C122.35 132.58 122.375 132.555 122.4 132.555C122.426 132.555 122.451 132.529 122.476 132.529C122.501 132.529 122.649 132.593 122.674 132.593C122.699 132.593 122.724 132.568 122.724 132.568C122.724 132.568 122.724 132.568 122.749 132.568C122.774 132.568 122.799 132.542 122.824 132.517C122.85 132.492 122.875 132.492 122.9 132.467C122.925 132.442 122.95 132.442 122.975 132.417C123 132.392 123.025 132.392 123.05 132.367C123.075 132.342 123.1 132.342 123.125 132.317C123.15 132.292 123.123 132.304 123.148 132.279C123.173 132.254 123.198 132.254 123.223 132.229C123.248 132.204 123.273 132.204 123.299 132.178C123.324 132.153 123.349 132.128 123.374 132.128C123.399 132.128 123.399 132.103 123.424 132.103L123.449 132.078C123.474 132.053 123.499 132.028 123.549 132.003C123.574 131.978 123.599 131.953 123.65 131.928C123.675 131.903 123.725 131.878 123.75 131.853C123.775 131.827 123.8 131.802 123.825 131.777C123.85 131.752 123.99 131.695 124.015 131.67C124.041 131.645 124.091 131.62 124.116 131.57C124.166 131.545 124.191 131.494 124.241 131.469C124.266 131.444 124.266 131.444 124.291 131.419C124.291 131.419 124.291 131.419 124.316 131.394C124.341 131.369 124.341 131.369 124.367 131.344C124.417 131.294 124.667 131.45 124.492 131.219C124.542 131.168 124.592 131.118 124.617 131.068L124.642 131.043L124.667 131.018C124.718 130.968 124.743 130.918 124.793 130.893C124.868 130.818 124.918 130.742 124.993 130.667C125.119 130.517 125.276 130.328 125.401 130.152L125.426 130.127C125.477 130.052 125.527 129.977 125.602 129.901C125.602 129.876 125.627 129.876 125.627 129.851C125.752 129.676 125.853 129.5 125.953 129.325C126.003 129.225 126.053 129.149 126.103 129.049C126.128 128.999 126.179 128.924 126.204 128.874C126.204 128.874 126.204 128.848 126.229 128.848C126.229 128.848 126.229 128.848 126.229 128.823C126.254 128.748 126.304 128.698 126.329 128.623C126.354 128.573 126.379 128.497 126.404 128.447C126.404 128.422 126.429 128.397 126.429 128.372V128.347C126.429 128.322 126.454 128.297 126.454 128.297C126.479 128.247 126.505 128.197 126.53 128.146C126.555 128.096 126.555 128.046 126.58 128.021C126.605 127.971 126.605 127.946 126.63 127.896C126.655 127.846 127.154 128.021 126.68 127.77C126.705 127.72 126.705 127.695 126.73 127.645C126.755 127.595 126.755 127.57 126.78 127.52C126.805 127.47 126.805 127.445 126.805 127.394C126.805 127.369 126.83 127.319 126.83 127.294C126.83 127.269 127.169 127.319 127.169 127.294C128.078 127.62 126.957 127.039 126.957 127.014C126.957 126.989 126.982 126.939 126.982 126.914C126.982 126.889 126.982 126.864 127.007 126.864V126.838C127.507 127.014 127.032 126.763 127.032 126.738C127.032 126.713 127.057 126.663 127.057 126.638C127.057 126.613 127.082 126.563 127.082 126.538C127.082 126.513 127.082 126.462 127.107 126.437C127.107 126.412 127.107 126.412 127.107 126.387V126.362C127.107 126.337 127.107 126.287 127.132 126.262C127.132 126.237 127.132 126.187 127.157 126.162C127.157 126.136 127.157 126.086 127.157 126.061C127.157 126.036 127.157 125.986 127.157 125.961C127.157 125.936 127.416 125.966 127.416 125.941C127.416 125.916 127.043 125.66 127.043 125.66C127.043 125.635 127.043 125.521 127.043 125.496C127.043 125.471 127.043 125.188 127.043 125.188L125.189 124.131Z" fill="#2EEAB1"/>
<path d="M124.343 87.571C124.368 87.5961 124.368 87.5961 124.393 87.6212C124.468 87.6964 124.518 87.7716 124.568 87.8468L124.593 87.8719C124.644 87.9471 124.694 88.0474 124.744 88.1477C124.794 88.248 124.844 88.3733 124.869 88.4736C124.869 88.4736 124.869 88.4736 124.869 88.4987C124.894 88.624 124.944 88.7494 124.97 88.8747C124.995 89.0001 125.02 89.1505 125.02 89.2758C125.045 89.4263 125.045 89.5767 125.045 89.7271L126.926 90.8302V90.8051C126.926 90.7801 126.926 90.7299 126.926 90.7049C126.926 90.6798 126.926 90.6296 126.926 90.6046C126.926 90.5795 126.926 90.5294 126.926 90.5043C126.926 90.4792 126.926 90.4291 126.926 90.404C126.926 90.3789 126.926 90.3789 126.926 90.3539C126.926 90.3288 126.926 90.3288 126.926 90.3037C126.926 90.2787 126.926 90.2285 126.926 90.2034C126.926 90.1784 126.926 90.1282 126.901 90.1032C126.901 90.0781 126.901 90.028 126.875 90.0029C126.875 89.9778 126.875 89.9527 126.85 89.9277V89.9026C126.85 89.8775 126.825 89.8274 126.825 89.8023C126.825 89.7772 126.8 89.7271 126.8 89.702C126.8 89.6519 126.775 89.6268 126.775 89.6018V89.5767C126.775 89.5767 126.775 89.5767 126.775 89.5516C126.775 89.5265 126.75 89.5015 126.75 89.4764C126.725 89.4263 126.725 89.3761 126.7 89.3511C126.675 89.3009 126.675 89.2758 126.65 89.2257C126.625 89.1756 126.6 89.1254 126.575 89.0753C126.549 89.0251 126.524 89.0001 126.499 88.9499L126.474 88.9249C126.474 88.9249 126.474 88.9249 126.474 88.8998C126.424 88.8246 126.374 88.7494 126.299 88.6741C126.274 88.6491 126.274 88.6491 126.249 88.624C126.198 88.5739 126.148 88.5237 126.098 88.4736C126.073 88.4485 126.048 88.4485 126.048 88.4234C125.973 88.3733 125.897 88.2981 125.822 88.273L123.941 87.1699C124.017 87.2201 124.092 87.2702 124.167 87.3203C124.192 87.3454 124.217 87.3454 124.217 87.3705C124.242 87.4708 124.292 87.5209 124.343 87.571Z" fill="#02C087"/>
<path d="M109.474 96.1707C109.5 96.1957 109.5 96.1957 109.525 96.2208C109.6 96.296 109.65 96.3712 109.7 96.4464L109.725 96.4715C109.775 96.5467 109.826 96.647 109.876 96.7473C109.926 96.8476 109.976 96.9729 110.001 97.0732C110.001 97.0732 110.001 97.0732 110.001 97.0983C110.051 97.2236 110.076 97.349 110.101 97.4743C110.126 97.5997 110.152 97.7501 110.152 97.8754C110.177 98.0259 110.177 98.1763 110.177 98.3267L112.057 99.4298V99.4047C112.057 99.3797 112.057 99.3295 112.057 99.3045C112.057 99.2794 112.057 99.2292 112.057 99.2042C112.057 99.1791 112.057 99.129 112.057 99.1039C112.057 99.0788 112.057 99.0287 112.057 99.0036C112.057 98.9785 112.057 98.9785 112.057 98.9535C112.057 98.9284 112.057 98.9284 112.057 98.9033C112.057 98.8783 112.057 98.8281 112.057 98.8031C112.057 98.778 112.057 98.7278 112.032 98.7028C112.032 98.6777 112.032 98.6276 112.007 98.6025C112.007 98.5774 112.007 98.5523 111.982 98.5273V98.5022C111.982 98.4771 111.957 98.427 111.957 98.4019C111.957 98.3769 111.932 98.3267 111.932 98.3016C111.932 98.2515 111.907 98.2264 111.907 98.2014V98.1763C111.907 98.1763 111.907 98.1763 111.907 98.1512C111.907 98.1261 111.882 98.1011 111.882 98.076C111.857 98.0259 111.857 97.9757 111.832 97.9507C111.807 97.9005 111.807 97.8754 111.782 97.8253C111.757 97.7752 111.731 97.725 111.706 97.6749C111.681 97.6247 111.656 97.5997 111.631 97.5495L111.606 97.5245C111.606 97.5245 111.606 97.5245 111.606 97.4994C111.556 97.4242 111.506 97.349 111.431 97.2738C111.405 97.2487 111.405 97.2487 111.38 97.2236C111.33 97.1735 111.28 97.1233 111.23 97.0732C111.205 97.0481 111.18 97.0481 111.18 97.0231C111.105 96.9729 111.029 96.8977 110.954 96.8726L109.073 95.7695C109.148 95.8197 109.224 95.8698 109.299 95.92C109.324 95.945 109.349 95.945 109.349 95.9701C109.374 96.0453 109.424 96.0954 109.474 96.1707Z" fill="#2EEAB1"/>
<path d="M124.212 87.5632C124.237 87.5883 124.237 87.5883 124.262 87.6134C124.337 87.6886 124.387 87.7638 124.437 87.839L124.463 87.8641C124.513 87.9393 124.563 88.0396 124.613 88.1399C124.663 88.2401 124.713 88.3655 124.738 88.4658C124.738 88.4658 124.738 88.4658 124.738 88.4908C124.789 88.6162 124.814 88.7415 124.839 88.8669C124.864 88.9922 124.889 89.1427 124.889 89.268C124.914 89.4184 124.914 89.5689 124.914 89.7193L126.795 90.8224V90.7973C126.795 90.7722 126.795 90.7221 126.795 90.697C126.795 90.672 126.795 90.6218 126.795 90.5968C126.795 90.5717 126.795 90.5215 126.795 90.4965C126.795 90.4714 126.795 90.4213 126.795 90.3962C126.795 90.3711 126.795 90.3711 126.795 90.346C126.795 90.321 126.795 90.321 126.795 90.2959C126.795 90.2708 126.795 90.2207 126.795 90.1956C126.795 90.1706 126.795 90.1204 126.77 90.0953C126.77 90.0703 126.77 90.0201 126.745 89.9951C126.745 89.97 126.745 89.9449 126.72 89.9199V89.8948C126.72 89.8697 126.694 89.8196 126.694 89.7945C126.694 89.7694 126.669 89.7193 126.669 89.6942C126.669 89.6441 126.644 89.619 126.644 89.5939V89.5689C126.644 89.5689 126.644 89.5689 126.644 89.5438C126.644 89.5187 126.619 89.4937 126.619 89.4686C126.594 89.4184 126.594 89.3683 126.569 89.3432C126.544 89.2931 126.544 89.268 126.519 89.2179C126.494 89.1677 126.469 89.1176 126.444 89.0675C126.419 89.0173 126.394 88.9923 126.368 88.9421L126.343 88.917C126.343 88.917 126.343 88.917 126.343 88.892C126.293 88.8168 126.243 88.7415 126.168 88.6663C126.143 88.6413 126.143 88.6413 126.118 88.6162C126.068 88.566 126.017 88.5159 125.967 88.4658C125.942 88.4407 125.917 88.4407 125.917 88.4156C125.842 88.3655 125.767 88.2903 125.691 88.2652L123.811 87.1621C123.886 87.2123 123.961 87.2624 124.036 87.3125C124.061 87.3376 124.086 87.3376 124.086 87.3627C124.111 87.4379 124.162 87.488 124.212 87.5632Z" fill="#2EEAB1"/>
<path d="M97.8405 141.999L95.9597 140.921L95.8594 106.649L97.7402 107.727L97.8405 141.999Z" fill="#2EEAB1"/>
<path d="M112.333 133.815L110.452 132.737L110.18 98.3184L112.246 99.4741L112.333 133.815Z" fill="#2EEAB1"/>
<path d="M127.07 125.208L125.189 124.13L124.917 89.7109L126.984 90.8667L127.07 125.208Z" fill="#2EEAB1"/>
<path d="M95.1327 104.444C95.1578 104.469 95.1578 104.469 95.1828 104.494C95.2581 104.569 95.3082 104.645 95.3584 104.72L95.3835 104.745C95.4336 104.82 95.4838 104.92 95.5339 105.021C95.5841 105.121 95.6342 105.246 95.6593 105.347C95.6593 105.347 95.6593 105.347 95.6593 105.372C95.7095 105.497 95.7345 105.622 95.7596 105.748C95.7847 105.873 95.8098 106.024 95.8098 106.149C95.8349 106.299 95.8349 106.45 95.8349 106.6L97.7157 107.703V107.678C97.7157 107.653 97.7157 107.603 97.7157 107.578C97.7157 107.553 97.7157 107.503 97.7157 107.478C97.7157 107.453 97.7157 107.402 97.7157 107.377C97.7157 107.352 97.7157 107.302 97.7157 107.277C97.7157 107.252 97.7157 107.252 97.7157 107.227C97.7157 107.202 97.7157 107.202 97.7157 107.177C97.7157 107.152 97.7157 107.102 97.7157 107.076C97.7157 107.051 97.7157 107.001 97.6906 106.976C97.6906 106.951 97.6906 106.901 97.6655 106.876C97.6655 106.851 97.6655 106.826 97.6404 106.801V106.776C97.6404 106.751 97.6154 106.7 97.6154 106.675C97.6154 106.65 97.5903 106.6 97.5903 106.575C97.5903 106.525 97.5652 106.5 97.5652 106.475V106.45C97.5652 106.45 97.5652 106.45 97.5652 106.425C97.5652 106.4 97.5401 106.375 97.5401 106.349C97.515 106.299 97.515 106.249 97.49 106.224C97.4649 106.174 97.4649 106.149 97.4398 106.099C97.4147 106.049 97.3897 105.998 97.3646 105.948C97.3395 105.898 97.3144 105.873 97.2893 105.823L97.2643 105.798C97.2643 105.798 97.2643 105.798 97.2643 105.773C97.2141 105.698 97.164 105.622 97.0887 105.547C97.0636 105.522 97.0636 105.522 97.0386 105.497C96.9884 105.447 96.9383 105.397 96.8881 105.347C96.863 105.322 96.838 105.322 96.838 105.296C96.7627 105.246 96.6875 105.171 96.6123 105.146L94.7314 104.043C94.8067 104.093 94.8819 104.143 94.9571 104.193C94.9822 104.218 95.0073 104.218 95.0073 104.244C95.0324 104.344 95.0825 104.394 95.1327 104.444Z" fill="#2EEAB1"/>
<path d="M67.6837 114.051L67.2324 170.434L147.517 124.366L148.72 67.2695L67.6837 114.051ZM93.9855 148.899C91.779 150.177 89.9738 149.149 89.9738 146.617L89.8735 112.346C89.8735 109.814 91.6537 106.705 93.8601 105.427C96.0665 104.148 97.8718 105.176 97.8718 107.708L97.9721 141.979C97.9972 144.537 96.217 147.62 93.9855 148.899ZM108.327 140.626C106.121 141.904 104.316 140.876 104.316 138.344L104.215 104.073C104.215 101.541 105.995 98.432 108.202 97.1535C110.408 95.8749 112.214 96.9027 112.214 99.4349L112.314 133.706C112.339 136.238 110.559 139.347 108.327 140.626ZM123.196 132.026C120.989 133.305 119.184 132.277 119.184 129.745L119.084 95.4737C119.084 92.9416 120.864 89.8329 123.07 88.5543C125.277 87.2757 127.082 88.3036 127.082 90.8357L127.182 125.107C127.207 127.664 125.402 130.773 123.196 132.026Z" fill="#02C087"/>
<path d="M67.5273 114.07L65.6465 112.967L67.2013 168.423L69.0069 169.275L67.5273 114.07Z" fill="#02C087"/>
<path d="M146.658 66.2109L65.6465 112.967L67.527 114.07L148.538 67.314L146.658 66.2109Z" fill="#02C087"/>
<path d="M65.9973 114.924L67.0253 170.505L8.47949 137.738L8.57978 82.2822L65.9973 114.924Z" fill="#2EEAB1"/>
<path d="M65.9971 114.923L67.7525 113.118L71.5392 167.747L67.0252 170.504L65.9971 114.923Z" fill="#02C087"/>
<path d="M8.58105 82.2815L10.6621 81.0781L68.1047 113.695L65.9985 114.923L8.58105 82.2815Z" fill="#DEA800"/>
<path d="M71.1374 106.348V106.323V106.298C71.1374 106.273 71.1374 106.248 71.1374 106.248C71.1374 106.198 71.1374 106.173 71.1123 106.122C71.1123 106.097 71.1123 106.047 71.0872 106.022C71.0872 105.997 71.0872 105.972 71.0622 105.922C71.0622 105.897 71.0622 105.872 71.0371 105.822C71.0371 105.797 71.012 105.771 71.012 105.721V105.696C71.012 105.671 71.012 105.646 70.987 105.646C70.987 105.621 70.9619 105.596 70.9619 105.571C70.9619 105.546 70.9368 105.521 70.9368 105.496C70.9368 105.471 70.9368 105.446 70.9117 105.446C70.9117 105.446 70.9117 105.446 70.9117 105.42C70.9117 105.395 70.8867 105.37 70.8867 105.345C70.8867 105.32 70.8616 105.295 70.8616 105.27C70.8616 105.245 70.8365 105.22 70.8365 105.195V105.17C70.8365 105.145 70.8365 105.145 70.8114 105.12C70.8114 105.095 70.7864 105.069 70.7864 105.044C70.7864 105.019 70.7613 104.994 70.7613 104.969C70.7613 104.944 70.7362 104.919 70.7362 104.894C70.7362 104.869 70.7111 104.844 70.7111 104.819C70.7111 104.794 70.6861 104.769 70.6861 104.744C70.661 104.718 70.661 104.693 70.6359 104.668C70.6359 104.643 70.6109 104.618 70.6109 104.618C70.6109 104.618 70.6109 104.618 70.6109 104.593C70.5858 104.568 70.5858 104.543 70.5607 104.518C70.5356 104.493 70.5356 104.468 70.5106 104.443C70.4855 104.418 70.4855 104.393 70.4604 104.368C70.4604 104.368 70.4604 104.368 70.4604 104.342C70.4353 104.317 70.4353 104.292 70.4103 104.267C70.3852 104.242 70.3852 104.217 70.3601 104.167C70.3351 104.142 70.335 104.117 70.31 104.067C70.31 104.067 70.31 104.042 70.2849 104.042C70.2849 104.042 70.2849 104.042 70.2849 104.017C70.2849 103.991 70.2598 103.966 70.2598 103.966C70.2348 103.941 70.2097 103.891 70.1846 103.866C70.1595 103.841 70.1345 103.791 70.1094 103.766C70.0843 103.741 70.0593 103.691 70.0342 103.666C70.0091 103.615 69.959 103.59 69.9339 103.54C69.9339 103.54 69.9339 103.54 69.9339 103.515L69.9088 103.49C69.8837 103.465 69.8587 103.415 69.8336 103.39C69.8085 103.365 69.7834 103.34 69.7584 103.315C69.7333 103.289 69.7082 103.264 69.6831 103.239C69.6581 103.214 69.6581 103.214 69.633 103.189C69.6079 103.164 69.5829 103.164 69.5829 103.139C69.5327 103.089 69.4826 103.039 69.4074 102.989C69.3823 102.964 69.3321 102.938 69.3071 102.913C69.282 102.888 69.282 102.888 69.2569 102.863L62.9385 106.473C62.9635 106.498 63.0137 106.524 63.0388 106.549C63.0638 106.574 63.114 106.599 63.1391 106.624C63.1892 106.674 63.2394 106.724 63.3146 106.774C63.3396 106.799 63.3898 106.849 63.4149 106.875C63.4399 106.9 63.465 106.925 63.4901 106.95C63.5402 107 63.5904 107.05 63.6405 107.125L63.6656 107.15C63.7408 107.226 63.791 107.301 63.8662 107.401C63.9163 107.476 63.9916 107.577 64.0417 107.652C64.0417 107.652 64.0417 107.652 64.0417 107.677C64.0918 107.752 64.142 107.852 64.2172 107.953C64.2674 108.053 64.3175 108.128 64.3676 108.228C64.4178 108.329 64.4679 108.429 64.493 108.504C64.5432 108.604 64.5682 108.705 64.6184 108.805C64.6435 108.905 64.6936 109.006 64.7187 109.106C64.7437 109.206 64.7688 109.306 64.7939 109.407C64.819 109.507 64.844 109.607 64.844 109.708C64.8691 109.808 64.8691 109.908 64.8691 109.983V110.008C64.8691 110.058 64.8691 110.109 64.8691 110.159L64.819 110.184L64.7939 115.022C64.7939 115.098 64.7939 115.198 64.7939 115.273C64.7939 115.298 64.7939 115.348 64.7939 115.373C64.7939 115.424 64.7688 115.474 64.7688 115.524C64.7688 115.549 64.7437 115.599 64.7437 115.624C64.7437 115.674 64.7187 115.724 64.7187 115.749C64.7187 115.775 64.6936 115.8 64.6936 115.85C64.6685 115.9 64.6685 115.925 64.6435 115.975C64.6435 116 64.6184 116.025 64.6184 116.05C64.5933 116.075 64.5682 116.126 64.5682 116.151C64.5432 116.176 64.5432 116.201 64.5181 116.226C64.493 116.251 64.4679 116.301 64.4429 116.326C64.4178 116.351 64.4178 116.376 64.3927 116.376C64.3676 116.401 64.3426 116.426 64.2924 116.451C64.2674 116.477 64.2674 116.477 64.2423 116.502C64.1921 116.552 64.142 116.577 64.0918 116.602L70.4855 112.891C70.5356 112.866 70.5858 112.816 70.6359 112.791C70.661 112.766 70.661 112.766 70.6861 112.741C70.7111 112.716 70.7362 112.691 70.7864 112.666C70.8114 112.641 70.8114 112.616 70.8365 112.616C70.8616 112.591 70.8867 112.566 70.9117 112.515C70.9368 112.49 70.9368 112.465 70.9619 112.44C70.987 112.415 71.012 112.365 71.012 112.34C71.0371 112.315 71.0371 112.29 71.0371 112.265C71.0622 112.215 71.0622 112.189 71.0872 112.139C71.0872 112.114 71.1123 112.089 71.1123 112.039C71.1374 111.989 71.1374 111.964 71.1374 111.914C71.1374 111.889 71.1625 111.838 71.1625 111.813C71.1625 111.763 71.1875 111.713 71.1875 111.663C71.1875 111.638 71.1875 111.588 71.1875 111.563V111.538C71.1875 111.488 71.1875 111.412 71.1875 111.362V111.337L71.2126 106.498L71.1374 106.549C71.1374 106.423 71.1374 106.398 71.1374 106.348Z" fill="#B68A00"/>
<path d="M62.8386 106.374C62.8135 106.399 62.8135 106.399 62.8386 106.374C62.8135 106.399 62.7885 106.424 62.7885 106.449C62.7634 106.474 62.7383 106.499 62.7133 106.524C62.6882 106.55 62.6882 106.55 62.6631 106.575C62.638 106.6 62.613 106.625 62.5879 106.65C62.5628 106.675 62.5628 106.675 62.5377 106.7C62.5377 106.725 62.5127 106.725 62.5127 106.75C62.4625 106.825 62.4124 106.875 62.3622 106.951C62.3622 106.976 62.3372 106.976 62.3372 107.001C62.3372 107.001 62.3372 107.001 62.3372 107.026C62.2619 107.126 62.2118 107.226 62.1366 107.352C62.1115 107.377 62.1115 107.402 62.0864 107.427C62.0363 107.527 61.9861 107.628 61.936 107.728C61.936 107.753 61.9109 107.753 61.9109 107.778C61.9109 107.778 61.9109 107.778 61.9109 107.803C61.8608 107.903 61.8357 108.004 61.7855 108.104V108.129C61.7605 108.179 61.7605 108.229 61.7354 108.279C61.7354 108.304 61.7103 108.33 61.7103 108.355C61.6853 108.43 61.6853 108.48 61.6602 108.555V108.58C61.6602 108.605 61.6602 108.605 61.6602 108.63C61.6602 108.655 61.6351 108.681 61.6351 108.706C61.6351 108.756 61.61 108.781 61.61 108.831C61.61 108.831 61.61 108.831 61.61 108.856C61.61 108.906 61.585 108.956 61.585 109.006C61.585 109.031 61.585 109.057 61.585 109.082V109.107V109.132C61.585 109.182 61.585 109.207 61.585 109.257C61.585 109.282 61.585 109.307 61.585 109.332L67.8532 112.968C67.8532 112.892 67.8532 112.817 67.8532 112.717V112.692C67.8532 112.617 67.8783 112.541 67.8783 112.466C67.8783 112.466 67.8783 112.466 67.8783 112.441C67.8783 112.366 67.9034 112.291 67.9285 112.215C67.9285 112.19 67.9285 112.19 67.9285 112.165C67.9535 112.09 67.9786 112.015 67.9786 111.94C67.9786 111.915 68.0037 111.89 68.0037 111.864C68.0288 111.814 68.0288 111.739 68.0538 111.689C68.0789 111.589 68.129 111.488 68.1792 111.388C68.1792 111.363 68.2043 111.363 68.2043 111.338C68.2544 111.238 68.3046 111.137 68.3547 111.037C68.3798 111.012 68.3798 110.987 68.4049 110.962C68.455 110.862 68.5302 110.736 68.6054 110.636C68.6305 110.611 68.6305 110.586 68.6556 110.561C68.7057 110.486 68.7559 110.41 68.806 110.36C68.8311 110.335 68.8562 110.285 68.8812 110.26C68.9063 110.235 68.9314 110.21 68.9565 110.185C69.0066 110.135 69.0317 110.084 69.0818 110.059C69.1069 110.034 69.1069 110.034 69.132 110.009C69.1571 109.984 69.1821 109.959 69.2072 109.934L62.9138 106.299C62.8637 106.374 62.8386 106.374 62.8386 106.374Z" fill="#CA9900"/>
<path d="M95.7594 30.7365C95.7594 29.4328 94.8317 28.8813 93.6783 29.5582L11.5638 76.9412C10.4104 77.5931 9.50781 79.1976 9.50781 80.5263L9.53289 86.0669C9.53289 87.3705 10.4606 87.9221 11.614 87.2452L93.7285 39.837C94.8819 39.1852 95.7845 37.5807 95.7845 36.252L95.7594 30.7365Z" fill="#D8D8D8"/>
<path d="M139.161 62.0743L83.7999 30.1096C82.4711 29.3324 81.3678 29.9591 81.3678 31.4884L81.3428 36.2518C81.3428 37.7811 82.4209 39.6614 83.7498 40.4386L139.111 72.4033C140.44 73.1805 141.543 72.5538 141.543 71.0245L141.568 66.2611C141.594 64.7067 140.49 62.8515 139.161 62.0743Z" fill="#D8D8D8"/>
<path d="M88.8653 25.7474C88.8151 25.7224 88.7399 25.6973 88.6898 25.6722C88.6647 25.6722 88.6647 25.6722 88.6396 25.6471C88.5895 25.6221 88.5393 25.6221 88.4892 25.6221C88.4641 25.6221 88.4641 25.6221 88.4641 25.6221H88.4391C88.414 25.6221 88.3889 25.6221 88.3388 25.6221C88.3137 25.6221 88.2886 25.6221 88.2635 25.6221H88.2385C88.2134 25.6221 88.2134 25.6221 88.1883 25.6221C88.1633 25.6221 88.1382 25.6221 88.1382 25.6221C88.1131 25.6221 88.088 25.6221 88.063 25.6471C88.0379 25.6471 88.0379 25.6471 88.0128 25.6471H87.9877C87.9376 25.6471 87.9125 25.6722 87.8624 25.6722H87.8373H87.8122C87.7872 25.6722 87.7621 25.6973 87.7621 25.6973C87.737 25.7224 87.6869 25.7224 87.6618 25.7474C87.6618 25.7474 87.6618 25.7474 87.6367 25.7474C87.6367 25.7474 87.6367 25.7474 87.6116 25.7474C87.5866 25.7474 87.5615 25.7725 87.5364 25.7976C87.5114 25.8226 87.4612 25.8477 87.4361 25.8477C87.2606 25.948 87.06 26.0733 86.8845 26.1736C86.358 26.4745 85.8315 26.8004 85.2798 27.1012C84.4274 27.5776 83.5999 28.079 82.7475 28.5553C81.6442 29.2071 80.5159 29.8339 79.4127 30.4857C78.0588 31.2629 76.7299 32.0401 75.376 32.8173C73.8214 33.7198 72.292 34.5973 70.7374 35.4998C69.0324 36.4776 67.3275 37.4553 65.6225 38.4581C63.7922 39.5111 61.9869 40.564 60.1566 41.617C58.251 42.7201 56.3454 43.8232 54.4399 44.9263C52.4842 46.0545 50.5285 47.1826 48.5978 48.3108C46.6421 49.439 44.6864 50.5671 42.7307 51.6953C40.8001 52.7984 38.8695 53.9266 36.9388 55.0297C35.0834 56.1077 33.228 57.1857 31.3475 58.2637C29.5924 59.2666 27.8373 60.2944 26.0822 61.2973C24.4775 62.2249 22.8477 63.1525 21.2431 64.0801C19.8139 64.9074 18.3847 65.7347 16.9556 66.562C15.752 67.264 14.5235 67.966 13.32 68.668C12.3672 69.2195 11.3893 69.7711 10.4365 70.3226C8.20503 71.6012 5.8983 72.8046 3.84231 74.3589C3.61665 74.5595 3.64172 74.7099 3.84231 74.8603C3.81723 74.8854 3.81723 74.9105 3.79216 74.9356C3.74201 75.0358 3.69187 75.1361 3.64172 75.2364C3.64172 75.2615 3.61665 75.2615 3.61665 75.2865C3.61665 75.2865 3.61665 75.2865 3.61665 75.3116C3.5665 75.4119 3.54143 75.5122 3.49128 75.6125V75.6375C3.44114 75.6877 3.41606 75.7378 3.41606 75.7879C3.41606 75.813 3.39099 75.8381 3.39099 75.8632C3.36592 75.9384 3.36592 75.9885 3.34084 76.0637V76.0888C3.34084 76.1139 3.34084 76.1139 3.34084 76.1389C3.34084 76.164 3.31577 76.1891 3.31577 76.2141C3.31577 76.2643 3.2907 76.2894 3.2907 76.3395C3.2907 76.3395 3.2907 76.3395 3.2907 76.3646C3.2907 76.4147 3.26562 76.4648 3.26562 76.515C3.26562 76.5401 3.26562 76.5651 3.26562 76.5902V76.6153V76.6403C3.26562 76.6905 3.26562 76.7156 3.26562 76.7657C3.26562 76.7908 3.26562 76.8158 3.26562 76.8409L9.53391 80.4761C9.53391 80.4009 9.53391 80.3257 9.53391 80.2254V80.2003C9.53391 80.1251 9.55898 80.0499 9.55898 79.9747C9.55898 79.9747 9.55898 79.9747 9.55898 79.9496C9.55898 79.8744 9.58405 79.7992 9.60913 79.724C9.60913 79.6989 9.60913 79.6989 9.60913 79.6739C9.6342 79.5987 9.65927 79.5234 9.65927 79.4482C9.65927 79.4232 9.68435 79.3981 9.68435 79.373C9.70942 79.3229 9.70942 79.2477 9.73449 79.1975C9.75957 79.0972 9.80971 78.997 9.85986 78.8967C9.85986 78.8716 9.88493 78.8716 9.88493 78.8465C9.93508 78.7463 9.98522 78.646 10.0354 78.5457C10.0604 78.5206 10.0604 78.4956 10.0855 78.4705C10.1357 78.3702 10.2109 78.2448 10.2861 78.1446C10.3112 78.1195 10.3112 78.0944 10.3362 78.0694C10.3864 77.9941 10.4365 77.9189 10.4867 77.8688C10.5118 77.8437 10.5368 77.7936 10.5619 77.7685C10.587 77.7434 10.6121 77.7184 10.6371 77.6933C10.6873 77.6432 10.7123 77.593 10.7625 77.5679C10.7876 77.5429 10.7876 77.5429 10.8126 77.5178C10.8628 77.4677 8.48084 80.802 8.50591 80.7519L60.2569 109.157C60.3321 109.207 61.5105 111.237 61.5607 111.263C61.5857 111.288 61.2849 106.474 61.3099 106.499C61.335 106.524 64.7951 111.714 64.8202 111.739C64.8452 111.764 67.7537 110.21 67.7537 110.21C67.7788 110.185 67.8039 110.159 67.8289 110.134L67.854 110.109C67.9042 110.059 67.9794 110.009 68.0295 109.959C68.1048 109.909 68.1549 109.859 68.2301 109.808C68.3053 109.758 68.3805 109.708 68.4307 109.683L141.569 67.5147V70.9995C141.569 71.0747 141.569 71.175 141.569 71.2502C141.569 71.2753 141.569 71.3254 141.569 71.3505C141.569 71.4006 141.569 71.4508 141.544 71.5009C141.544 71.526 141.519 71.5761 141.519 71.6012C141.519 71.6513 141.494 71.6764 141.494 71.7265C141.494 71.7516 141.469 71.7767 141.469 71.8268C141.444 71.877 141.444 71.902 141.419 71.9522C141.419 71.9772 141.393 72.0023 141.393 72.0274C141.368 72.0525 141.368 72.1026 141.343 72.1277C141.318 72.1527 141.318 72.1778 141.293 72.2029C141.268 72.228 141.243 72.2781 141.218 72.3032C141.193 72.3282 141.193 72.3533 141.168 72.3533C141.143 72.3784 141.118 72.4034 141.068 72.4285C141.042 72.4536 141.042 72.4536 141.017 72.4787C140.967 72.5288 140.917 72.5539 140.867 72.5789L147.135 68.9437C147.185 68.9187 147.236 68.8685 147.286 68.8435C147.311 68.8435 147.311 68.8184 147.336 68.7933C147.361 68.7682 147.386 68.7432 147.436 68.7181C147.461 68.693 147.461 68.668 147.486 68.668C147.511 68.6429 147.536 68.6178 147.561 68.5677C147.587 68.5426 147.587 68.5175 147.612 68.4925C147.637 68.4674 147.662 68.4172 147.662 68.3922C147.687 68.3671 147.687 68.342 147.687 68.317C147.712 68.2919 147.712 68.2418 147.737 68.1916C147.737 68.1665 147.762 68.1415 147.762 68.0913C147.762 68.0412 147.787 68.0161 147.787 67.966C147.787 67.9409 147.812 67.8908 147.812 67.8657C147.812 67.8156 147.837 67.7654 147.837 67.7153C147.837 67.6902 147.837 67.6401 147.837 67.615V67.5899C147.837 67.5398 147.837 67.4646 147.837 67.4144V67.3894V63.9296L150.545 62.3753C150.62 62.3251 150.671 62.3001 150.746 62.275C150.746 62.275 150.746 62.275 150.771 62.275C150.821 62.2499 150.896 62.2249 150.946 62.1998H150.971C151.022 62.1747 151.097 62.1747 151.147 62.1497C151.172 62.1497 151.172 62.1497 151.197 62.1497C151.247 62.1497 151.272 62.1246 151.322 62.1246C151.348 62.1246 151.373 62.1246 151.373 62.1246C151.398 62.1246 151.448 62.1246 151.473 62.1246C151.498 62.1246 151.523 62.1246 151.573 62.1246C151.598 62.1246 151.623 62.1246 151.623 62.1246C151.673 62.1246 151.724 62.1497 151.774 62.1497C151.799 62.1497 151.824 62.1497 151.824 62.1747C151.899 62.1998 151.949 62.2249 151.999 62.2499L88.8653 25.7474ZM67.6033 102.964C67.6033 102.964 67.5782 102.964 67.5782 102.939C67.5531 102.914 17.0809 73.7572 17.0809 73.7572L88.2635 32.6669L138.811 61.8488L67.6033 102.964Z" fill="#F8F8F8"/>
<path d="M152.325 63.5285C152.325 62.2248 151.397 61.6733 150.244 62.3502L68.1293 109.733C67.9036 109.859 67.703 110.009 67.5025 110.21L59.3537 105.622L5.34616 74.4592C4.01728 73.682 2.91406 74.3088 2.91406 75.838V76.891V78.7462V80.6014C2.91406 80.7017 2.91406 80.7769 2.91406 80.8772V82.4316C2.91406 82.4566 2.91406 82.4566 2.91406 82.4817C2.91406 82.5318 2.91406 82.5569 2.91406 82.6071C2.91406 82.6321 2.91406 82.6321 2.91406 82.6572V82.6823V82.7073C2.91406 82.7575 2.91406 82.7825 2.93914 82.8327C2.93914 82.8578 2.93914 82.8578 2.93914 82.8828V82.9079C2.93914 82.933 2.93914 82.933 2.93914 82.958C2.93914 83.0082 2.96421 83.0333 2.96421 83.0834C2.96421 83.0834 2.96421 83.0834 2.96421 83.1085V83.1335C2.96421 83.1586 2.98928 83.1837 2.98928 83.2087C2.98928 83.2338 3.01436 83.2589 3.01436 83.284C3.01436 83.284 3.01436 83.309 3.03943 83.309C3.03943 83.309 3.03943 83.309 3.03943 83.3341C3.0645 83.3842 3.08957 83.4093 3.11465 83.4594C3.13972 83.5096 3.18987 83.5597 3.21494 83.6099C3.24001 83.6349 3.26509 83.66 3.29016 83.6851C3.31523 83.7102 3.31523 83.7102 3.34031 83.7352C3.39045 83.7603 3.41553 83.8104 3.46567 83.8355L9.73396 87.4707C9.68381 87.4456 9.63366 87.4206 9.60859 87.3704C9.58352 87.3454 9.58352 87.3454 9.55844 87.3203L53.7875 112.767C53.8376 112.817 53.9128 112.892 54.0131 112.942L55.3921 113.694L64.6943 118.784C66.4745 119.761 68.6057 119.736 70.3608 118.734L71.7398 117.956C71.9153 117.881 72.0658 117.831 72.1911 117.756C73.8209 116.803 75.4506 115.875 77.0804 114.923C81.6688 112.265 86.2572 109.608 90.8706 106.975C96.4619 103.741 102.053 100.507 107.67 97.2732C113.336 93.989 119.028 90.7299 124.694 87.4456C129.533 84.6628 134.373 81.8549 139.187 79.0721C142.245 77.2921 145.329 75.5372 148.388 73.7572C148.99 73.4062 149.617 73.0552 150.219 72.7042C151.372 72.0524 152.275 70.4479 152.275 69.1192L152.325 63.5285Z" fill="#DAE2E5"/>
<path d="M43.0557 7.94727L32.9261 13.8137L32.876 31.2627L42.9805 28.5802L43.0557 7.94727Z" fill="#424245"/>
<path d="M43.0553 7.6214C43.0553 7.52111 43.0804 7.4459 43.1055 7.34562C43.1055 7.32055 43.1055 7.29548 43.1305 7.27041C43.1556 7.22027 43.1556 7.14506 43.1807 7.09492C43.1807 7.06985 43.2058 7.04478 43.2058 7.01971C43.2308 6.96957 43.2308 6.91942 43.2559 6.89435C43.2559 6.86928 43.281 6.84421 43.3061 6.81914C43.3311 6.769 43.3562 6.74393 43.3813 6.69379C43.4064 6.66872 43.4064 6.64365 43.4314 6.61858C43.4565 6.59351 43.4816 6.54337 43.5066 6.5183C43.5317 6.49323 43.5317 6.46816 43.5568 6.46816C43.5819 6.44309 43.632 6.39295 43.6571 6.36788C43.6822 6.34281 43.6822 6.34281 43.7072 6.31773C43.7574 6.26759 43.8075 6.24252 43.8577 6.19238L33.7281 12.0839C33.678 12.109 33.6278 12.1591 33.5777 12.2093C33.5526 12.2344 33.5526 12.2344 33.5275 12.2594C33.5025 12.2845 33.4523 12.3096 33.4272 12.3597C33.4022 12.3848 33.4022 12.4098 33.3771 12.4098C33.352 12.4349 33.327 12.4851 33.3019 12.5101C33.2768 12.5352 33.2768 12.5603 33.2517 12.5853C33.2267 12.6104 33.2016 12.6605 33.1765 12.7107C33.1514 12.7358 33.1514 12.7608 33.1264 12.7859C33.1013 12.836 33.1013 12.8862 33.0762 12.9113C33.0762 12.9363 33.0511 12.9614 33.0511 12.9865C33.0261 13.0366 33.0261 13.0867 33.001 13.162C33.001 13.187 32.9759 13.2121 32.9759 13.2372C32.9509 13.3124 32.9509 13.4127 32.9258 13.4879C32.9258 13.4879 32.9258 13.4879 32.9258 13.5129C32.9258 13.5882 32.9258 13.6383 32.9258 13.7135C32.9258 13.7386 32.9258 13.7636 32.9258 13.8138L43.0553 7.92224C43.0553 7.84703 43.0553 7.74675 43.0553 7.6214C43.0553 7.64647 43.0553 7.64647 43.0553 7.6214Z" fill="#3F3F42"/>
<path d="M33.9036 5.91662C33.9287 5.91662 33.9287 5.91662 33.9036 5.91662C34.0791 5.89155 34.2295 5.86647 34.38 5.86647C34.5304 5.86647 34.7059 5.86647 34.8564 5.86647H34.8814C35.0319 5.89155 35.2074 5.91662 35.3829 5.94169H35.408C35.5835 5.96676 35.759 6.0169 35.9345 6.09211H35.9596C36.1351 6.14225 36.3106 6.21746 36.4861 6.31774C36.5112 6.31774 36.5112 6.34281 36.5363 6.34281C36.7118 6.41802 36.9124 6.51831 37.0879 6.64366L47.2174 0.752112C47.1673 0.727042 47.1422 0.701971 47.0921 0.676901C46.9918 0.62676 46.8915 0.576619 46.8163 0.526479C46.7661 0.501408 46.716 0.476338 46.6658 0.451267C46.6407 0.451267 46.6407 0.426197 46.6157 0.426197C46.5906 0.426197 46.5906 0.401126 46.5655 0.401126C46.4903 0.376056 46.4151 0.325915 46.3399 0.300845C46.2646 0.275774 46.2145 0.250704 46.1393 0.225634C46.1142 0.225634 46.1142 0.225634 46.0891 0.200563H46.0641C46.039 0.200563 45.9888 0.175493 45.9638 0.175493C45.9136 0.150422 45.8384 0.150422 45.7883 0.125352C45.7381 0.100282 45.6629 0.100282 45.6127 0.0752112C45.5877 0.0752112 45.5877 0.0752112 45.5626 0.0752112H45.5375C45.5124 0.0752112 45.4623 0.0501408 45.4372 0.0501408C45.3871 0.0501408 45.3369 0.0250704 45.2868 0.0250704C45.2366 0.0250704 45.1865 0 45.1363 0C45.1113 0 45.0862 0 45.0611 0H45.0361C45.011 0 45.011 0 44.9859 0C44.9358 0 44.8856 0 44.8355 0C44.7853 0 44.7352 0 44.685 0C44.6349 0 44.5847 0 44.5346 0C44.4844 0 44.4343 0 44.3842 0C44.334 0 44.2839 0 44.2337 0.0250704C44.1836 0.0250704 44.1334 0.0501408 44.0833 0.0501408C44.0582 0.0501408 44.0582 0.0501408 44.0331 0.0501408H44.0081C43.983 0.0501408 43.9579 0.0501408 43.9328 0.0752112C43.8827 0.0752112 43.8325 0.100282 43.8075 0.100282C43.7573 0.125352 43.7072 0.125352 43.6821 0.150422C43.657 0.150422 43.632 0.175493 43.6069 0.175493H43.5818C43.5567 0.175493 43.5567 0.175493 43.5317 0.200563C43.4815 0.225634 43.4314 0.250704 43.4063 0.250704C43.3562 0.275774 43.306 0.300845 43.2809 0.325915C43.2559 0.350986 43.2308 0.350986 43.2057 0.376056L33.0762 6.24253C33.2015 6.16732 33.3269 6.11718 33.4773 6.06704H33.5024C33.6278 5.99183 33.7782 5.94169 33.9036 5.91662Z" fill="#4D4D51"/>
<path d="M102.053 97.624C102.053 97.6741 102.053 97.7242 102.053 97.7493C102.053 97.7744 102.053 97.7995 102.053 97.7995C102.053 97.8245 102.028 97.8496 102.028 97.8747C102.028 97.8997 102.028 97.8997 102.003 97.9248C101.978 97.9499 101.978 97.975 101.953 98L101.928 98.0251C101.903 98.0502 101.878 98.0752 101.853 98.1003L111.982 92.2088C112.007 92.1837 112.032 92.1586 112.057 92.1335L112.082 92.1085C112.107 92.0834 112.107 92.0583 112.133 92.0333C112.133 92.0082 112.158 92.0082 112.158 91.9831C112.158 91.9581 112.183 91.933 112.183 91.9079C112.183 91.8828 112.183 91.8578 112.183 91.8578C112.183 91.8327 112.183 91.8327 112.183 91.8076C112.183 91.7826 112.183 91.7575 112.183 91.7575V91.7324L102.053 97.624Z" fill="#3E3E41"/>
<path d="M102.173 50.5798L112.21 44.7402L112.182 91.733L102.053 97.6246L102.173 50.5798Z" fill="#424245"/>
<path d="M47.2187 0.751953L37.1143 6.61843L96.628 41.0143L106.711 35.1519L47.2187 0.751953Z" fill="#58575C"/>
<path d="M97.6657 41.7169C97.6908 41.742 97.7409 41.767 97.766 41.8172C97.8914 41.9174 98.0167 42.0428 98.1421 42.1431C98.1923 42.1932 98.2424 42.2434 98.2925 42.2935C98.3928 42.3938 98.5182 42.5191 98.6185 42.6194C98.6686 42.6696 98.7188 42.7197 98.7689 42.7698C98.8943 42.9203 99.0447 43.0707 99.1701 43.2211C99.1952 43.2462 99.1952 43.2462 99.2203 43.2712C99.3707 43.4467 99.5211 43.6222 99.6465 43.8228C99.6716 43.8479 99.6716 43.8729 99.6966 43.8729C99.8471 44.0735 99.9724 44.2741 100.098 44.4746C100.223 44.6752 100.349 44.9008 100.474 45.1014C100.474 45.1265 100.499 45.1265 100.499 45.1515C100.624 45.3521 100.725 45.5777 100.85 45.7783C100.85 45.7783 100.85 45.8034 100.875 45.8034C100.975 46.029 101.101 46.2546 101.176 46.4552C101.176 46.4552 101.176 46.4552 101.176 46.4803C101.276 46.7059 101.377 46.9315 101.452 47.1572V47.1822C101.527 47.4079 101.602 47.6335 101.677 47.8591V47.8842C101.753 48.1098 101.803 48.3355 101.853 48.5611V48.5862C101.903 48.8118 101.953 49.0374 101.978 49.2631V49.2881C102.003 49.5138 102.028 49.7143 102.054 49.94C102.054 49.965 102.054 49.9901 102.054 49.9901C102.079 50.2157 102.079 50.4163 102.079 50.6419L112.208 44.7504C112.208 44.7003 112.208 44.625 112.208 44.5749C112.208 44.4746 112.208 44.3493 112.183 44.249C112.183 44.1989 112.183 44.1487 112.183 44.0986C112.183 44.0735 112.183 44.0735 112.183 44.0484C112.183 44.0234 112.183 43.9983 112.183 43.9732C112.183 43.8729 112.158 43.7977 112.158 43.6974C112.158 43.6222 112.133 43.522 112.133 43.4467C112.133 43.4217 112.133 43.4217 112.133 43.3966V43.3715C112.133 43.3214 112.108 43.2462 112.108 43.196C112.083 43.1208 112.083 43.0456 112.058 42.9704C112.033 42.8952 112.033 42.82 112.008 42.7448V42.7197V42.6946C111.982 42.6445 111.982 42.5943 111.957 42.5191C111.932 42.4439 111.932 42.3687 111.907 42.2935C111.882 42.2183 111.857 42.1431 111.857 42.0679C111.857 42.0428 111.832 42.0177 111.832 41.9927V41.9676C111.832 41.9425 111.807 41.8924 111.807 41.8673C111.782 41.7921 111.757 41.7169 111.732 41.6667C111.707 41.5915 111.682 41.5163 111.657 41.4662C111.631 41.416 111.631 41.3659 111.606 41.3158V41.2907C111.606 41.2907 111.606 41.2656 111.581 41.2656C111.556 41.1904 111.531 41.1152 111.506 41.0651C111.481 40.9898 111.456 40.9146 111.431 40.8645C111.406 40.7893 111.381 40.7141 111.331 40.6639V40.6389C111.331 40.6389 111.331 40.6389 111.331 40.6138C111.306 40.5636 111.28 40.4884 111.255 40.4383C111.23 40.3631 111.18 40.2879 111.155 40.2377C111.13 40.1625 111.08 40.0873 111.055 40.0121C111.055 39.987 111.03 39.962 111.03 39.962C111.03 39.962 111.03 39.9369 111.005 39.9369C110.98 39.8867 110.954 39.8617 110.954 39.8115C110.904 39.7363 110.879 39.6611 110.829 39.5859C110.779 39.5107 110.754 39.4355 110.704 39.3603C110.704 39.3352 110.679 39.3101 110.679 39.2851C110.679 39.26 110.654 39.26 110.654 39.2349C110.629 39.1848 110.603 39.1346 110.578 39.1096C110.528 39.0344 110.478 38.9591 110.428 38.8589C110.378 38.7836 110.328 38.6834 110.278 38.6082C110.227 38.5329 110.177 38.4327 110.102 38.3575C110.027 38.2572 109.977 38.1569 109.901 38.0817C109.876 38.0566 109.876 38.0315 109.851 38.0315C109.826 38.0065 109.826 37.9814 109.801 37.9814C109.751 37.9313 109.701 37.856 109.676 37.8059C109.575 37.6805 109.475 37.5552 109.4 37.4549C109.375 37.4298 109.375 37.4298 109.35 37.4048C109.25 37.2794 109.124 37.1541 109.024 37.0287C108.999 37.0036 108.974 36.9786 108.949 36.9535C108.898 36.9034 108.848 36.8532 108.798 36.8031C108.698 36.6777 108.573 36.5775 108.472 36.4772C108.422 36.427 108.372 36.3769 108.322 36.3267C108.196 36.2014 108.071 36.1011 107.946 36.0008C107.921 35.9758 107.87 35.9507 107.845 35.9005C107.695 35.7752 107.545 35.6498 107.369 35.5496C107.344 35.5496 107.344 35.5245 107.319 35.5245C107.269 35.4994 107.244 35.4744 107.194 35.4493C107.093 35.3991 107.018 35.3239 106.918 35.2738C106.842 35.2236 106.767 35.1735 106.692 35.1484L96.5625 41.04C96.738 41.1403 96.8884 41.2405 97.0389 41.3408C97.089 41.3659 97.1141 41.391 97.1643 41.416C97.3398 41.4662 97.5153 41.5915 97.6657 41.7169Z" fill="#484849"/>
<path d="M96.5616 40.9649L37.1132 6.61844C34.0041 4.81337 31.4717 6.26745 31.4466 9.85252L31.3965 31.6638L32.9009 31.2626L32.951 13.8136C32.951 12.1089 34.1796 11.4069 35.6589 12.2843L98.0158 48.2854C99.4951 49.1378 100.699 51.2187 100.699 52.9485L100.548 96.7465C100.548 97.2229 100.874 97.7995 101.3 98.0502C101.727 98.3009 102.053 98.1003 102.053 97.624L102.178 50.7173C102.203 47.1071 99.6706 42.7449 96.5616 40.9649Z" fill="#4B4B4E"/>
<path d="M19.917 108.666L28.2403 123.081" stroke="#137154" stroke-width="1.47886" stroke-linecap="round"/>
<path d="M44.8877 123.08L53.211 137.495" stroke="#137154" stroke-width="1.47886" stroke-linecap="round"/>
<path d="M28.2422 113.472L19.9189 118.277" stroke="#137154" stroke-width="1.47886" stroke-linecap="round"/>
<path d="M53.2109 127.886L44.8876 132.691" stroke="#137154" stroke-width="1.47886" stroke-linecap="round"/>
<path d="M28.79 135.278L39.0348 141.193" stroke="#137154" stroke-width="1.47886" stroke-linecap="round"/>
<ellipse cx="128.573" cy="6.52299" rx="5.65349" ry="5.65287" fill="#2EEAB1"/>
<ellipse cx="3.32686" cy="48.5492" rx="3.32686" ry="3.3265" fill="#0BDE9F"/>
<ellipse cx="168.583" cy="124.211" rx="3.32686" ry="3.3265" fill="#02C087"/>
</svg>
