<svg width="32" height="32" viewBox="0 0 32 32" fill="none" xmlns="http://www.w3.org/2000/svg">
<path d="M16.0001 20.2667C18.3565 20.2667 20.2667 18.3565 20.2667 16.0001C20.2667 13.6436 18.3565 11.7334 16.0001 11.7334C13.6436 11.7334 11.7334 13.6436 11.7334 16.0001C11.7334 18.3565 13.6436 20.2667 16.0001 20.2667Z" fill="#DAE2E5"/>
<path d="M12.0003 2.66699L9.56033 5.33366H5.33366C3.86699 5.33366 2.66699 6.53366 2.66699 8.00033V24.0003C2.66699 25.467 3.86699 26.667 5.33366 26.667H26.667C28.1337 26.667 29.3337 25.467 29.3337 24.0003V8.00033C29.3337 6.53366 28.1337 5.33366 26.667 5.33366H22.4403L20.0003 2.66699H12.0003ZM16.0003 22.667C12.3203 22.667 9.33366 19.6803 9.33366 16.0003C9.33366 12.3203 12.3203 9.33366 16.0003 9.33366C19.6803 9.33366 22.667 12.3203 22.667 16.0003C22.667 19.6803 19.6803 22.667 16.0003 22.667Z" fill="#DAE2E5"/>
</svg>
