<svg width="24" height="24" viewBox="0 0 24 24" fill="none" xmlns="http://www.w3.org/2000/svg">
<circle cx="12" cy="12" r="12" fill="#02C087"/>
<path d="M17.0909 9.45457H15.1818V6.90912H6.27273C5.57273 6.90912 5 7.48185 5 8.18185V15.1818H6.27273C6.27273 16.2382 7.12545 17.0909 8.18182 17.0909C9.23818 17.0909 10.0909 16.2382 10.0909 15.1818H13.9091C13.9091 16.2382 14.7618 17.0909 15.8182 17.0909C16.8745 17.0909 17.7273 16.2382 17.7273 15.1818H19V12L17.0909 9.45457ZM8.18182 16.1364C7.65364 16.1364 7.22727 15.71 7.22727 15.1818C7.22727 14.6537 7.65364 14.2273 8.18182 14.2273C8.71 14.2273 9.13636 14.6537 9.13636 15.1818C9.13636 15.71 8.71 16.1364 8.18182 16.1364ZM16.7727 10.4091L18.02 12H15.1818V10.4091H16.7727ZM15.8182 16.1364C15.29 16.1364 14.8636 15.71 14.8636 15.1818C14.8636 14.6537 15.29 14.2273 15.8182 14.2273C16.3464 14.2273 16.7727 14.6537 16.7727 15.1818C16.7727 15.71 16.3464 16.1364 15.8182 16.1364Z" fill="white"/>
</svg>
