<svg width="106" height="30" viewBox="0 0 106 30" fill="none" xmlns="http://www.w3.org/2000/svg">
<path d="M0 15C0 6.71573 6.71573 0 15 0H106V0C106 16.5685 92.5685 30 76 30H15C6.71573 30 0 23.2843 0 15V15Z" fill="#C1EADD"/>
<path d="M25.2734 14.8906H23.8906V20H22.3906V8.625H23.8906V13.6406H25.0625L29.0391 8.625H30.9062L26.5625 14.1406L31.2266 20H29.3906L25.2734 14.8906ZM31.7734 15.6953C31.7734 14.8672 31.9349 14.1224 32.2578 13.4609C32.5859 12.7995 33.0391 12.2891 33.6172 11.9297C34.2005 11.5703 34.8646 11.3906 35.6094 11.3906C36.7604 11.3906 37.6901 11.7891 38.3984 12.5859C39.112 13.3828 39.4688 14.4427 39.4688 15.7656V15.8672C39.4688 16.6901 39.3099 17.4297 38.9922 18.0859C38.6797 18.737 38.2292 19.2448 37.6406 19.6094C37.0573 19.974 36.3854 20.1562 35.625 20.1562C34.4792 20.1562 33.5495 19.7578 32.8359 18.9609C32.1276 18.1641 31.7734 17.1094 31.7734 15.7969V15.6953ZM33.2266 15.8672C33.2266 16.8047 33.4427 17.5573 33.875 18.125C34.3125 18.6927 34.8958 18.9766 35.625 18.9766C36.3594 18.9766 36.9427 18.6901 37.375 18.1172C37.8073 17.5391 38.0234 16.7318 38.0234 15.6953C38.0234 14.7682 37.8021 14.0182 37.3594 13.4453C36.9219 12.8672 36.3385 12.5781 35.6094 12.5781C34.8958 12.5781 34.3203 12.862 33.8828 13.4297C33.4453 13.9974 33.2266 14.8099 33.2266 15.8672ZM48.1875 20H46.7422V16.3906H42.8594V20H41.4062V11.5469H42.8594V15.2109H46.7422V11.5469H48.1875V20ZM53.1484 16.3984H52.0938V20H50.6406V11.5469H52.0938V15.125H53.0391L55.8828 11.5469H57.6328L54.2891 15.6094L57.9141 20H56.0781L53.1484 16.3984ZM61.9219 17.8828L63.8906 11.5469H65.4375L62.0391 21.3047C61.513 22.7109 60.6771 23.4141 59.5312 23.4141L59.2578 23.3906L58.7188 23.2891V22.1172L59.1094 22.1484C59.599 22.1484 59.9792 22.0495 60.25 21.8516C60.526 21.6536 60.7526 21.2917 60.9297 20.7656L61.25 19.9062L58.2344 11.5469H59.8125L61.9219 17.8828ZM73.875 15.8672C73.875 17.1536 73.5807 18.1901 72.9922 18.9766C72.4036 19.763 71.6068 20.1562 70.6016 20.1562C69.5755 20.1562 68.7682 19.8307 68.1797 19.1797V23.25H66.7344V11.5469H68.0547L68.125 12.4844C68.7135 11.7552 69.5312 11.3906 70.5781 11.3906C71.5938 11.3906 72.3958 11.7734 72.9844 12.5391C73.5781 13.3047 73.875 14.3698 73.875 15.7344V15.8672ZM72.4297 15.7031C72.4297 14.75 72.2266 13.9974 71.8203 13.4453C71.4141 12.8932 70.8568 12.6172 70.1484 12.6172C69.2734 12.6172 68.6172 13.0052 68.1797 13.7812V17.8203C68.612 18.5911 69.2734 18.9766 70.1641 18.9766C70.8568 18.9766 71.4062 18.7031 71.8125 18.1562C72.224 17.6042 72.4297 16.7865 72.4297 15.7031ZM79.1094 18.9766C79.625 18.9766 80.0755 18.8203 80.4609 18.5078C80.8464 18.1953 81.0599 17.8047 81.1016 17.3359H82.4688C82.4427 17.8203 82.276 18.2812 81.9688 18.7188C81.6615 19.1562 81.25 19.5052 80.7344 19.7656C80.224 20.026 79.6823 20.1562 79.1094 20.1562C77.9583 20.1562 77.0417 19.7734 76.3594 19.0078C75.6823 18.237 75.3438 17.1849 75.3438 15.8516V15.6094C75.3438 14.7865 75.4948 14.0547 75.7969 13.4141C76.099 12.7734 76.5312 12.276 77.0938 11.9219C77.6615 11.5677 78.3307 11.3906 79.1016 11.3906C80.0495 11.3906 80.8359 11.6745 81.4609 12.2422C82.0911 12.8099 82.4271 13.5469 82.4688 14.4531H81.1016C81.0599 13.9062 80.8516 13.4583 80.4766 13.1094C80.1068 12.7552 79.6484 12.5781 79.1016 12.5781C78.3672 12.5781 77.7969 12.8438 77.3906 13.375C76.9896 13.901 76.7891 14.6641 76.7891 15.6641V15.9375C76.7891 16.9115 76.9896 17.6615 77.3906 18.1875C77.7917 18.7135 78.3646 18.9766 79.1094 18.9766Z" fill="#252525"/>
</svg>
