<svg width="50" height="50" viewBox="0 0 50 50" fill="none" xmlns="http://www.w3.org/2000/svg">
<path d="M49.7278 22.8288C50.4842 19.8591 49.6404 16.7097 47.5004 14.5162C47.0397 14.0438 46.6359 13.5227 46.2942 12.9642C43.4704 14.4757 39.802 12.653 39.5187 9.24766C36.2023 8.97159 34.3874 5.48519 35.691 2.69497C35.6211 2.63101 35.552 2.56597 35.484 2.49956C33.2903 0.359733 30.141 -0.484109 27.1713 0.272331C25.7468 0.63522 24.2539 0.63522 22.8293 0.272331C19.8596 -0.484109 16.7103 0.359733 14.5167 2.49966C13.4643 3.52622 12.1716 4.2726 10.7564 4.67064C7.80636 5.50042 5.50091 7.80588 4.67113 10.756C4.27308 12.1712 3.5267 13.4638 2.50015 14.5162C0.36022 16.7098 -0.483622 19.8591 0.272818 22.8288C0.635707 24.2533 0.635707 25.7462 0.272818 27.1708C-0.483622 30.1405 0.36022 33.2899 2.50015 35.4834C3.5267 36.5358 4.27308 37.8285 4.67113 39.2437C5.50091 42.1937 7.80636 44.4992 10.7564 45.329C12.1717 45.727 13.4643 46.4734 14.5167 47.5C16.7103 49.6399 19.8596 50.4837 22.8293 49.7273C24.2538 49.3644 25.7467 49.3644 27.1713 49.7273C30.141 50.4837 33.2903 49.6399 35.4839 47.5C36.5362 46.4734 37.829 45.727 39.2441 45.329C42.1942 44.4992 44.4997 42.1937 45.3295 39.2437C45.7275 37.8284 46.4739 36.5358 47.5004 35.4834C49.6404 33.2898 50.4842 30.1405 49.7278 27.1708C49.3649 25.7462 49.3649 24.2535 49.7278 22.8288Z" fill="#F6B778"/>
<path d="M18.5403 47.501C17.4879 46.4745 16.1952 45.7281 14.78 45.33C11.83 44.5003 9.52452 42.1947 8.69474 39.2447C8.29669 37.8296 7.55031 36.5368 6.52375 35.4845C4.38383 33.2909 3.53998 30.1416 4.29642 27.1719C4.65931 25.7474 4.65931 24.2545 4.29642 22.8299C3.53998 19.8602 4.38383 16.7108 6.52375 14.5173C7.55031 13.4649 8.29669 12.1721 8.69474 10.757C9.52452 7.80705 11.83 5.5015 14.78 4.67172C16.1953 4.27367 17.4879 3.52729 18.5403 2.50073C19.7036 1.36568 21.136 0.595473 22.6676 0.235026C19.7454 -0.451103 16.6702 0.399283 14.5162 2.50073C13.4638 3.52729 12.1711 4.27367 10.756 4.67172C7.80587 5.5015 5.50042 7.80705 4.67064 10.757C4.2726 12.1722 3.52621 13.4649 2.49966 14.5173C0.359732 16.7108 -0.48411 19.8601 0.27233 22.8298C0.635218 24.2543 0.635218 25.7472 0.27233 27.1718C-0.48411 30.1415 0.359732 33.2909 2.49966 35.4844C3.52621 36.5366 4.2726 37.8296 4.67064 39.2446C5.50042 42.1947 7.80587 44.5002 10.756 45.3299C12.1712 45.728 13.4638 46.4743 14.5162 47.5009C16.6702 49.6022 19.7456 50.4528 22.6676 49.7666C21.136 49.4062 19.7036 48.6359 18.5403 47.501Z" fill="#DDA46C"/>
<path d="M15.9547 25.9673C15.5379 25.9673 15.2002 25.6295 15.2002 25.2128V23.5758C15.2002 23.1591 15.5379 22.8213 15.9547 22.8213C16.3715 22.8213 16.7092 23.1591 16.7092 23.5758V25.2128C16.7093 25.6294 16.3714 25.9673 15.9547 25.9673Z" fill="#252525"/>
<path d="M34.0455 25.967C33.6287 25.967 33.291 25.6292 33.291 25.2125V23.5755C33.291 23.1588 33.6287 22.821 34.0455 22.821C34.4623 22.821 34.8 23.1588 34.8 23.5755V25.2125C34.8 25.6291 34.4623 25.967 34.0455 25.967Z" fill="#252525"/>
<path d="M25 27.1767C23.7132 27.1767 22.5063 26.6403 21.6889 25.7051C21.4146 25.3914 21.4467 24.9147 21.7604 24.6405C22.0742 24.3663 22.5508 24.3983 22.8251 24.712C23.3558 25.3193 24.1485 25.6676 24.9999 25.6676C25.8511 25.6676 26.6439 25.3194 27.1748 24.712C27.449 24.3982 27.9255 24.3663 28.2394 24.6406C28.5531 24.9148 28.5852 25.3915 28.3108 25.7052C27.4935 26.6404 26.2867 27.1767 25 27.1767Z" fill="#252525"/>
<path d="M18.7877 11.7855C20.6735 11.7855 22.2023 10.6103 22.2023 9.16076C22.2023 7.71119 20.6735 6.53607 18.7877 6.53607C16.9018 6.53607 15.373 7.71119 15.373 9.16076C15.373 10.6103 16.9018 11.7855 18.7877 11.7855Z" fill="#FF9F0C"/>
<path d="M11.8643 36.1845C13.7502 36.1845 15.279 35.0094 15.279 33.5598C15.279 32.1102 13.7502 30.9351 11.8643 30.9351C9.97849 30.9351 8.44971 32.1102 8.44971 33.5598C8.44971 35.0094 9.97849 36.1845 11.8643 36.1845Z" fill="#FF9F0C"/>
<path d="M35.5513 40.412C37.4372 40.412 38.966 39.2369 38.966 37.7873C38.966 36.3377 37.4372 35.1626 35.5513 35.1626C33.6655 35.1626 32.1367 36.3377 32.1367 37.7873C32.1367 39.2369 33.6655 40.412 35.5513 40.412Z" fill="#FF9F0C"/>
<path d="M22.2564 42.2467C23.5746 42.2467 24.6432 41.4255 24.6432 40.4124C24.6432 39.3994 23.5746 38.5782 22.2564 38.5782C20.9382 38.5782 19.8696 39.3994 19.8696 40.4124C19.8696 41.4255 20.9382 42.2467 22.2564 42.2467Z" fill="#654D3B"/>
<path d="M32.0743 14.7377C33.3925 14.7377 34.4611 13.9164 34.4611 12.9034C34.4611 11.8903 33.3925 11.0691 32.0743 11.0691C30.7561 11.0691 29.6875 11.8903 29.6875 12.9034C29.6875 13.9164 30.7561 14.7377 32.0743 14.7377Z" fill="#654D3B"/>
<path d="M8.4493 21.6933C9.76749 21.6933 10.8361 20.8721 10.8361 19.859C10.8361 18.846 9.76749 18.0247 8.4493 18.0247C7.13111 18.0247 6.0625 18.846 6.0625 19.859C6.0625 20.8721 7.13111 21.6933 8.4493 21.6933Z" fill="#654D3B"/>
<path d="M42.7872 28.2579C44.1054 28.2579 45.174 27.4367 45.174 26.4236C45.174 25.4106 44.1054 24.5894 42.7872 24.5894C41.469 24.5894 40.4004 25.4106 40.4004 26.4236C40.4004 27.4367 41.469 28.2579 42.7872 28.2579Z" fill="#654D3B"/>
</svg>
