<svg width="47" height="37" viewBox="0 0 47 37" fill="none" xmlns="http://www.w3.org/2000/svg">
<path d="M46.9936 8.01437V7.94914C46.9757 7.90378 46.9539 7.86015 46.9283 7.81867L46.8794 7.75343L46.7816 7.64742L46.7245 7.5985L46.6185 7.54957H46.5777L28.8664 0.308499C28.6703 0.229198 28.451 0.229198 28.2549 0.308499L10.5844 7.42726H10.5436L10.4376 7.47618L10.3805 7.52511L10.2826 7.63111L10.2337 7.69635C10.2081 7.73784 10.1863 7.78146 10.1685 7.82682V7.89206C10.1599 7.95974 10.1599 8.02823 10.1685 8.09591V14.6194H0.815436C0.365111 14.6194 0 14.9845 0 15.4348C0 15.8852 0.365111 16.2503 0.815436 16.2503V16.3563H10.0706V19.1451H6.89859C6.44826 19.1451 6.08315 19.5102 6.08315 19.9605C6.08315 20.4108 6.44826 20.7759 6.89859 20.7759H10.0706V23.5647H2.55231C2.10199 23.5647 1.73688 23.9298 1.73688 24.3802C1.73688 24.8305 2.10199 25.1956 2.55231 25.1956H10.0706V28.6041C10.0723 28.9334 10.2717 29.2293 10.5762 29.3543L28.2549 36.6933C28.3432 36.7283 28.4371 36.7476 28.5321 36.7503C28.6271 36.7476 28.721 36.7283 28.8094 36.6933L46.488 29.3543C46.7925 29.2293 46.992 28.9334 46.9936 28.6041V8.21823C47.0021 8.15055 47.0021 8.08205 46.9936 8.01437ZM28.5566 1.96383L35.2595 4.64662L20.0108 11.0967L13.0388 8.19377L28.5566 1.96383ZM27.7167 34.7281L11.7015 28.0578V25.1875H15.0856C15.5359 25.1875 15.901 24.8223 15.901 24.372C15.901 23.9217 15.5359 23.5566 15.0856 23.5566H11.7015V20.7678H19.4482C19.8985 20.7678 20.2636 20.4027 20.2636 19.9524C20.2636 19.502 19.8985 19.1369 19.4482 19.1369H11.7015V16.3563H13.3324C13.7827 16.3563 14.1478 15.9912 14.1478 15.5408C14.1478 15.0905 13.7827 14.7254 13.3324 14.7254H11.7015V9.40877L17.9314 11.9855L27.7167 16.0627V34.7281ZM28.5647 14.6846L22.1228 11.9855L37.3877 5.51098L44.0662 8.20192L34.338 12.2791L28.5647 14.6846ZM29.372 34.7281V16.0627L33.9629 14.1546L45.379 9.39246L45.4198 28.0578L29.372 34.7281Z" fill="#58575C"/>
</svg>
