<svg width="409" height="358" viewBox="0 0 409 358" fill="none" xmlns="http://www.w3.org/2000/svg">
<rect x="89.5" width="319" height="319" rx="159.5" fill="#F9F9F9"/>
<path d="M104.437 144.434C103.692 144.434 103.04 143.782 103.04 143.037V142.571C103.04 141.826 103.692 141.174 104.437 141.174C105.182 141.174 105.834 141.826 105.834 142.571V143.037C105.834 143.782 105.182 144.434 104.437 144.434Z" fill="#58575C"/>
<path d="M212.507 305C211.762 305 211.11 304.348 211.11 303.603V302.671C211.11 301.926 211.762 301.274 212.507 301.274C213.253 301.274 213.905 301.926 213.905 302.671V303.603C213.905 304.348 213.346 305 212.507 305ZM212.507 299.412C211.762 299.412 211.11 298.76 211.11 298.015V297.083C211.11 296.338 211.762 295.686 212.507 295.686C213.253 295.686 213.905 296.338 213.905 297.083V298.015C213.905 298.76 213.346 299.412 212.507 299.412ZM212.507 293.823C211.762 293.823 211.11 293.171 211.11 292.426V291.495C211.11 290.75 211.762 290.098 212.507 290.098C213.253 290.098 213.905 290.75 213.905 291.495V292.426C213.905 293.171 213.346 293.823 212.507 293.823ZM212.507 288.235C211.762 288.235 211.11 287.583 211.11 286.838V285.907C211.11 285.162 211.762 284.51 212.507 284.51C213.253 284.51 213.905 285.162 213.905 285.907V286.838C213.905 287.676 213.346 288.235 212.507 288.235ZM212.507 282.647C211.762 282.647 211.11 281.995 211.11 281.25V280.319C211.11 279.574 211.762 278.922 212.507 278.922C213.253 278.922 213.905 279.574 213.905 280.319V281.25C213.905 282.088 213.346 282.647 212.507 282.647ZM212.507 277.059C211.762 277.059 211.11 276.407 211.11 275.662V274.731C211.11 273.986 211.762 273.334 212.507 273.334C213.253 273.334 213.905 273.986 213.905 274.731V275.662C213.905 276.5 213.346 277.059 212.507 277.059ZM212.507 271.564C211.762 271.564 211.11 270.912 211.11 270.167V269.701C211.11 269.515 211.11 269.329 211.11 269.143C211.11 268.397 211.762 267.746 212.507 267.746C213.253 267.746 213.905 268.397 213.905 269.143C213.905 269.329 213.905 269.515 213.905 269.608V269.981C213.905 270.912 213.346 271.564 212.507 271.564ZM213.066 265.976C212.973 265.976 212.88 265.976 212.787 265.976C212.041 265.79 211.576 265.045 211.762 264.3C211.855 264.02 211.948 263.648 211.948 263.368C212.135 262.623 212.88 262.157 213.625 262.344C214.371 262.53 214.836 263.275 214.65 264.02C214.557 264.299 214.557 264.579 214.464 264.858C214.277 265.51 213.718 265.976 213.066 265.976ZM214.93 260.76C214.743 260.76 214.557 260.76 214.371 260.667C213.718 260.295 213.346 259.55 213.718 258.805C213.905 258.525 213.998 258.246 214.184 257.966C214.557 257.314 215.395 257.035 216.048 257.408C216.7 257.78 216.979 258.618 216.607 259.27C216.513 259.55 216.327 259.829 216.234 260.015C215.954 260.388 215.395 260.76 214.93 260.76ZM217.818 256.01C217.538 256.01 217.166 255.917 216.979 255.731C216.42 255.265 216.234 254.334 216.793 253.775C216.979 253.496 217.166 253.31 217.445 253.03C217.911 252.471 218.842 252.378 219.401 252.844C219.96 253.31 220.054 254.241 219.588 254.8C219.401 254.986 219.215 255.265 219.029 255.452C218.656 255.824 218.284 256.01 217.818 256.01ZM221.731 252.099C221.358 252.099 220.892 251.913 220.613 251.54C220.147 250.981 220.24 250.05 220.799 249.584C221.078 249.398 221.358 249.212 221.544 249.025C222.196 248.56 223.035 248.746 223.501 249.305C223.966 249.957 223.78 250.795 223.221 251.261C222.942 251.447 222.755 251.633 222.569 251.819C222.383 252.006 222.103 252.099 221.731 252.099ZM226.482 249.118C225.923 249.118 225.457 248.839 225.178 248.28C224.805 247.628 225.178 246.79 225.83 246.418C226.109 246.231 226.389 246.138 226.761 246.045C227.507 245.766 228.252 246.045 228.625 246.79C228.904 247.535 228.625 248.28 227.879 248.653C227.6 248.746 227.32 248.932 227.041 249.025C226.948 249.118 226.668 249.118 226.482 249.118ZM231.792 247.349C231.14 247.349 230.581 246.883 230.395 246.231C230.209 245.486 230.674 244.741 231.513 244.555C231.792 244.462 232.165 244.462 232.444 244.369C233.19 244.275 233.935 244.741 234.028 245.486C234.121 246.231 233.656 246.976 232.91 247.069C232.631 247.163 232.351 247.163 232.072 247.256C231.979 247.349 231.885 247.349 231.792 247.349ZM288.436 246.883H287.504C286.759 246.883 286.107 246.231 286.107 245.486C286.107 244.741 286.759 244.089 287.504 244.089H288.436C289.181 244.089 289.833 244.741 289.833 245.486C289.833 246.231 289.275 246.883 288.436 246.883ZM282.939 246.883H282.008C281.262 246.883 280.61 246.231 280.61 245.486C280.61 244.741 281.262 244.089 282.008 244.089H282.939C283.685 244.089 284.337 244.741 284.337 245.486C284.337 246.231 283.685 246.883 282.939 246.883ZM277.35 246.883H276.418C275.673 246.883 275.02 246.231 275.02 245.486C275.02 244.741 275.673 244.089 276.418 244.089H277.35C278.095 244.089 278.747 244.741 278.747 245.486C278.747 246.231 278.095 246.883 277.35 246.883ZM271.76 246.883H270.828C270.083 246.883 269.431 246.231 269.431 245.486C269.431 244.741 270.083 244.089 270.828 244.089H271.76C272.505 244.089 273.157 244.741 273.157 245.486C273.157 246.231 272.505 246.883 271.76 246.883ZM266.17 246.883H265.238C264.493 246.883 263.841 246.231 263.841 245.486C263.841 244.741 264.493 244.089 265.238 244.089H266.17C266.915 244.089 267.567 244.741 267.567 245.486C267.567 246.231 266.915 246.883 266.17 246.883ZM260.58 246.883H259.648C258.903 246.883 258.251 246.231 258.251 245.486C258.251 244.741 258.903 244.089 259.648 244.089H260.58C261.325 244.089 261.977 244.741 261.977 245.486C261.977 246.231 261.325 246.883 260.58 246.883ZM254.99 246.883H254.059C253.313 246.883 252.661 246.231 252.661 245.486C252.661 244.741 253.313 244.089 254.059 244.089H254.99C255.735 244.089 256.388 244.741 256.388 245.486C256.388 246.231 255.735 246.883 254.99 246.883ZM249.4 246.883H248.469C247.723 246.883 247.071 246.231 247.071 245.486C247.071 244.741 247.723 244.089 248.469 244.089H249.4C250.146 244.089 250.798 244.741 250.798 245.486C250.798 246.231 250.146 246.883 249.4 246.883ZM243.81 246.883H242.879C242.133 246.883 241.481 246.231 241.481 245.486C241.481 244.741 242.133 244.089 242.879 244.089H243.81C244.556 244.089 245.208 244.741 245.208 245.486C245.208 246.231 244.649 246.883 243.81 246.883ZM238.221 246.883H237.289C236.544 246.883 235.892 246.231 235.892 245.486C235.892 244.741 236.544 244.089 237.289 244.089H238.221C238.966 244.089 239.618 244.741 239.618 245.486C239.618 246.231 239.059 246.883 238.221 246.883ZM293.094 246.511C292.442 246.511 291.79 246.045 291.697 245.393C291.604 244.648 292.069 243.903 292.815 243.81C293.094 243.717 293.374 243.717 293.653 243.623C294.399 243.437 295.144 243.903 295.33 244.741C295.516 245.486 295.051 246.231 294.212 246.418C293.933 246.511 293.56 246.511 293.281 246.604C293.281 246.511 293.187 246.511 293.094 246.511ZM298.405 244.927C297.846 244.927 297.38 244.648 297.1 244.089C296.821 243.344 297.1 242.599 297.846 242.226C298.125 242.133 298.405 241.947 298.684 241.854C299.336 241.481 300.175 241.854 300.547 242.506C300.92 243.158 300.547 243.996 299.895 244.369C299.616 244.462 299.336 244.648 298.964 244.741C298.777 244.834 298.591 244.927 298.405 244.927ZM303.249 242.133C302.783 242.133 302.411 241.947 302.131 241.574C301.665 240.923 301.852 240.084 302.411 239.619C302.69 239.432 302.876 239.246 303.156 239.06C303.715 238.594 304.647 238.687 305.112 239.246C305.578 239.805 305.485 240.736 304.926 241.202C304.647 241.388 304.367 241.574 304.181 241.761C303.901 242.04 303.529 242.133 303.249 242.133ZM307.348 238.408C307.069 238.408 306.696 238.315 306.417 238.035C305.858 237.57 305.765 236.638 306.23 236.079C306.417 235.893 306.603 235.614 306.789 235.428C307.255 234.869 308.187 234.682 308.746 235.241C309.305 235.707 309.491 236.638 308.932 237.197C308.746 237.477 308.559 237.663 308.28 237.942C308.187 238.222 307.721 238.408 307.348 238.408ZM310.516 233.751C310.33 233.751 310.05 233.658 309.864 233.565C309.212 233.192 308.932 232.354 309.305 231.702C309.398 231.423 309.584 231.143 309.677 230.957C310.05 230.305 310.795 229.933 311.541 230.305C312.193 230.678 312.566 231.423 312.193 232.168C312.007 232.447 311.913 232.727 311.727 233.099C311.448 233.472 310.982 233.751 310.516 233.751ZM312.472 228.536C312.379 228.536 312.286 228.536 312.1 228.536C311.354 228.349 310.889 227.604 311.075 226.859C311.168 226.58 311.168 226.3 311.261 226.021C311.448 225.276 312.193 224.81 312.938 224.996C313.683 225.183 314.149 225.928 314.056 226.673C313.963 226.952 313.87 227.325 313.87 227.604C313.683 228.163 313.124 228.536 312.472 228.536ZM313.218 223.041C312.379 223.041 311.82 222.389 311.82 221.643C311.82 221.457 311.82 221.364 311.82 221.178V220.712C311.82 219.967 312.472 219.315 313.218 219.315C313.963 219.315 314.615 219.967 314.615 220.712V221.178C314.615 221.364 314.615 221.55 314.615 221.737C314.615 222.482 313.963 223.041 313.218 223.041ZM313.218 217.452C312.472 217.452 311.82 216.8 311.82 216.055V215.124C311.82 214.379 312.472 213.727 313.218 213.727C313.963 213.727 314.615 214.379 314.615 215.124V216.055C314.615 216.8 313.963 217.452 313.218 217.452ZM313.218 211.864C312.472 211.864 311.82 211.212 311.82 210.467V209.536C311.82 208.791 312.472 208.139 313.218 208.139C313.963 208.139 314.615 208.791 314.615 209.536V210.467C314.615 211.305 313.963 211.864 313.218 211.864ZM313.218 206.276C312.472 206.276 311.82 205.624 311.82 204.879V203.948C311.82 203.203 312.472 202.551 313.218 202.551C313.963 202.551 314.615 203.203 314.615 203.948V204.879C314.615 205.717 313.963 206.276 313.218 206.276ZM313.218 200.781C312.472 200.781 311.82 200.129 311.82 199.384V198.453C311.82 197.708 312.472 197.056 313.218 197.056C313.963 197.056 314.615 197.708 314.615 198.453V199.384C314.615 200.129 313.963 200.781 313.218 200.781ZM313.218 195.193C312.472 195.193 311.82 194.541 311.82 193.796V192.865C311.82 192.12 312.472 191.468 313.218 191.468C313.963 191.468 314.615 192.12 314.615 192.865V193.796C314.615 194.541 313.963 195.193 313.218 195.193ZM313.218 189.605C312.472 189.605 311.82 188.953 311.82 188.208V187.277C311.82 186.531 312.472 185.88 313.218 185.88C313.963 185.88 314.615 186.531 314.615 187.277V188.208C314.615 188.953 313.963 189.605 313.218 189.605ZM313.218 184.017C312.472 184.017 311.82 183.365 311.82 182.62V181.688C311.82 180.943 312.472 180.291 313.218 180.291C313.963 180.291 314.615 180.943 314.615 181.688V182.62C314.615 183.365 313.963 184.017 313.218 184.017ZM313.218 178.429C312.472 178.429 311.82 177.777 311.82 177.032V176.1C311.82 175.355 312.472 174.703 313.218 174.703C313.963 174.703 314.615 175.355 314.615 176.1V177.032C314.615 177.777 313.963 178.429 313.218 178.429ZM313.218 172.841C312.472 172.841 311.82 172.189 311.82 171.444V170.512C311.82 169.767 312.472 169.115 313.218 169.115C313.963 169.115 314.615 169.767 314.615 170.512V171.444C314.615 172.189 313.963 172.841 313.218 172.841ZM313.218 167.252C312.472 167.252 311.82 166.6 311.82 165.855V164.924C311.82 164.179 312.472 163.527 313.218 163.527C313.963 163.527 314.615 164.179 314.615 164.924V165.855C314.615 166.6 313.963 167.252 313.218 167.252ZM313.218 161.664C312.472 161.664 311.82 161.012 311.82 160.267V159.336C311.82 158.591 312.472 157.939 313.218 157.939C313.963 157.939 314.615 158.591 314.615 159.336V160.267C314.615 161.106 313.963 161.664 313.218 161.664ZM313.125 156.076C312.379 156.076 311.82 155.517 311.727 154.772C311.727 154.493 311.634 154.213 311.634 153.934C311.541 153.189 312.1 152.444 312.845 152.351C313.59 152.258 314.336 152.816 314.429 153.562C314.429 153.841 314.522 154.213 314.522 154.493C314.615 155.238 314.056 155.983 313.311 155.983C313.218 156.076 313.125 156.076 313.125 156.076ZM311.913 150.674C311.354 150.674 310.795 150.302 310.609 149.743C310.516 149.464 310.423 149.184 310.33 148.905C310.05 148.16 310.423 147.415 311.168 147.135C311.913 146.856 312.659 147.228 312.938 147.973C313.031 148.253 313.124 148.625 313.311 148.905C313.59 149.65 313.124 150.395 312.472 150.674C312.286 150.674 312.1 150.674 311.913 150.674ZM309.584 145.645C309.118 145.645 308.653 145.366 308.373 144.993C308.187 144.714 308.094 144.527 307.907 144.248C307.441 143.596 307.628 142.758 308.28 142.292C308.932 141.826 309.771 142.013 310.236 142.665C310.423 142.944 310.609 143.224 310.795 143.503C311.168 144.155 310.982 144.993 310.33 145.459C310.05 145.552 309.771 145.645 309.584 145.645ZM306.137 141.268C305.765 141.268 305.392 141.175 305.112 140.895C304.926 140.709 304.74 140.523 304.46 140.243C303.901 139.684 303.901 138.846 304.367 138.287C304.926 137.729 305.765 137.729 306.324 138.194C306.603 138.38 306.789 138.66 307.069 138.846C307.628 139.405 307.628 140.243 307.069 140.802C306.789 141.175 306.417 141.268 306.137 141.268ZM104.437 139.312C103.692 139.312 103.04 138.66 103.04 137.915V136.983C103.04 136.238 103.692 135.586 104.437 135.586C105.182 135.586 105.834 136.238 105.834 136.983V137.915C105.834 138.66 105.182 139.312 104.437 139.312ZM301.758 137.822C301.479 137.822 301.293 137.729 301.013 137.635C300.734 137.449 300.547 137.356 300.268 137.17C299.616 136.797 299.336 135.959 299.709 135.307C300.082 134.655 300.92 134.376 301.572 134.748C301.852 134.934 302.131 135.121 302.411 135.214C303.063 135.586 303.249 136.518 302.876 137.17C302.69 137.635 302.224 137.822 301.758 137.822ZM296.728 135.493C296.541 135.493 296.448 135.493 296.262 135.4C295.982 135.307 295.703 135.214 295.423 135.121C294.678 134.934 294.305 134.096 294.492 133.351C294.678 132.606 295.516 132.234 296.262 132.42C296.541 132.513 296.914 132.606 297.193 132.699C297.939 132.979 298.311 133.724 298.032 134.469C297.846 135.121 297.287 135.493 296.728 135.493ZM291.231 134.283H291.138C290.858 134.283 290.579 134.189 290.299 134.189C289.554 134.189 288.902 133.444 288.995 132.699C288.995 131.954 289.74 131.302 290.486 131.395C290.858 131.395 291.138 131.395 291.51 131.488C292.256 131.582 292.815 132.234 292.815 132.979C292.535 133.724 291.976 134.283 291.231 134.283ZM285.641 134.189H284.709C283.964 134.189 283.312 133.537 283.312 132.792C283.312 132.047 283.964 131.395 284.709 131.395H285.641C286.386 131.395 287.039 132.047 287.039 132.792C287.039 133.537 286.48 134.189 285.641 134.189ZM280.051 134.189H279.12C278.374 134.189 277.722 133.537 277.722 132.792C277.722 132.047 278.374 131.395 279.12 131.395H280.051C280.797 131.395 281.449 132.047 281.449 132.792C281.449 133.537 280.89 134.189 280.051 134.189ZM274.555 134.189H273.623C272.878 134.189 272.225 133.537 272.225 132.792C272.225 132.047 272.878 131.395 273.623 131.395H274.555C275.3 131.395 275.952 132.047 275.952 132.792C275.952 133.537 275.3 134.189 274.555 134.189ZM268.965 134.189H268.033C267.288 134.189 266.636 133.537 266.636 132.792C266.636 132.047 267.288 131.395 268.033 131.395H268.965C269.71 131.395 270.362 132.047 270.362 132.792C270.362 133.537 269.71 134.189 268.965 134.189ZM263.375 134.189H262.443C261.698 134.189 261.046 133.537 261.046 132.792C261.046 132.047 261.698 131.395 262.443 131.395H263.375C264.12 131.395 264.772 132.047 264.772 132.792C264.772 133.537 264.12 134.189 263.375 134.189ZM257.785 134.189H256.853C256.108 134.189 255.456 133.537 255.456 132.792C255.456 132.047 256.108 131.395 256.853 131.395H257.785C258.53 131.395 259.183 132.047 259.183 132.792C259.183 133.537 258.53 134.189 257.785 134.189ZM252.195 134.189H251.264C250.518 134.189 249.866 133.537 249.866 132.792C249.866 132.047 250.518 131.395 251.264 131.395H252.195C252.941 131.395 253.593 132.047 253.593 132.792C253.593 133.537 252.941 134.189 252.195 134.189ZM246.605 134.189H245.674C244.928 134.189 244.276 133.537 244.276 132.792C244.276 132.047 244.928 131.395 245.674 131.395H246.605C247.351 131.395 248.003 132.047 248.003 132.792C248.003 133.537 247.351 134.189 246.605 134.189ZM241.016 134.096H240.922C240.55 134.096 240.27 134.003 239.898 134.003C239.152 133.91 238.593 133.258 238.686 132.42C238.78 131.675 239.432 131.116 240.27 131.209C240.55 131.209 240.829 131.302 241.109 131.302C241.854 131.395 242.413 132.047 242.413 132.792C242.413 133.537 241.761 134.096 241.016 134.096ZM104.437 133.724C103.692 133.724 103.04 133.072 103.04 132.327V131.395C103.04 130.65 103.692 129.998 104.437 129.998C105.182 129.998 105.834 130.65 105.834 131.395V132.327C105.834 133.072 105.182 133.724 104.437 133.724ZM235.612 133.072C235.426 133.072 235.333 133.072 235.146 132.979C234.867 132.885 234.494 132.792 234.215 132.699C233.469 132.42 233.097 131.675 233.376 130.93C233.656 130.185 234.401 129.812 235.146 130.091C235.426 130.185 235.705 130.278 235.985 130.371C236.73 130.65 237.103 131.395 236.916 132.14C236.73 132.699 236.171 133.072 235.612 133.072ZM230.488 130.743C230.208 130.743 230.022 130.65 229.743 130.557C229.463 130.371 229.184 130.185 228.904 129.998C228.252 129.533 228.066 128.694 228.532 128.042C228.997 127.39 229.836 127.204 230.488 127.67C230.767 127.856 230.954 127.949 231.233 128.136C231.885 128.508 232.072 129.346 231.699 130.091C231.42 130.557 230.954 130.743 230.488 130.743ZM104.437 128.136C103.692 128.136 103.04 127.484 103.04 126.739V125.807C103.04 125.062 103.692 124.41 104.437 124.41C105.182 124.41 105.834 125.062 105.834 125.807V126.739C105.834 127.577 105.182 128.136 104.437 128.136ZM226.109 127.39C225.737 127.39 225.364 127.297 225.178 127.018C224.898 126.832 224.712 126.552 224.525 126.366C223.966 125.807 223.966 124.969 224.525 124.41C225.084 123.851 225.923 123.851 226.482 124.41C226.668 124.596 226.855 124.783 227.134 125.062C227.693 125.621 227.693 126.459 227.134 127.018C226.855 127.204 226.482 127.39 226.109 127.39ZM222.569 123.106C222.103 123.106 221.637 122.92 221.358 122.454C221.172 122.175 220.985 121.896 220.799 121.616C220.426 120.964 220.613 120.126 221.265 119.66C221.917 119.288 222.755 119.474 223.221 120.126C223.408 120.405 223.501 120.592 223.687 120.871C224.153 121.523 223.873 122.361 223.314 122.827C223.035 123.013 222.849 123.106 222.569 123.106ZM104.437 122.547C103.692 122.547 103.04 121.896 103.04 121.15V120.219C103.04 119.474 103.692 118.822 104.437 118.822C105.182 118.822 105.834 119.474 105.834 120.219V121.15C105.834 121.989 105.182 122.547 104.437 122.547ZM220.054 118.077C219.495 118.077 218.936 117.704 218.749 117.146C218.656 116.866 218.563 116.494 218.47 116.214C218.284 115.469 218.656 114.724 219.401 114.445C220.147 114.258 220.892 114.631 221.172 115.376C221.265 115.655 221.358 115.935 221.451 116.214C221.731 116.959 221.358 117.704 220.613 117.984C220.426 118.077 220.24 118.077 220.054 118.077ZM104.437 116.959C103.692 116.959 103.04 116.307 103.04 115.562V114.631C103.04 113.886 103.692 113.234 104.437 113.234C105.182 113.234 105.834 113.886 105.834 114.631V115.562C105.834 116.401 105.182 116.959 104.437 116.959ZM218.842 112.675C218.097 112.675 217.538 112.116 217.445 111.464C217.445 111.185 217.352 110.812 217.352 110.44C217.259 109.695 217.911 109.043 218.656 108.95C219.401 108.857 220.054 109.509 220.147 110.254C220.147 110.533 220.24 110.812 220.24 111.092C220.333 111.837 219.774 112.582 219.029 112.675C218.936 112.675 218.842 112.675 218.842 112.675ZM104.437 111.464C103.692 111.464 103.04 110.812 103.04 110.067V109.136C103.04 108.391 103.692 107.739 104.437 107.739C105.182 107.739 105.834 108.391 105.834 109.136V110.067C105.834 110.812 105.182 111.464 104.437 111.464ZM218.656 107.087C217.911 107.087 217.259 106.435 217.259 105.69V104.759C217.259 104.014 217.911 103.362 218.656 103.362C219.401 103.362 220.054 104.014 220.054 104.759V105.69C220.054 106.435 219.401 107.087 218.656 107.087ZM104.437 105.876C103.692 105.876 103.04 105.224 103.04 104.479V103.548C103.04 102.803 103.692 102.151 104.437 102.151C105.182 102.151 105.834 102.803 105.834 103.548V104.479C105.834 105.224 105.182 105.876 104.437 105.876ZM218.656 101.499C217.911 101.499 217.259 100.847 217.259 100.102V99.1705C217.259 98.4254 217.911 97.7734 218.656 97.7734C219.401 97.7734 220.054 98.4254 220.054 99.1705V100.102C220.054 100.847 219.401 101.499 218.656 101.499ZM104.437 100.288C103.692 100.288 103.04 99.6361 103.04 98.8911V97.9597C103.04 97.2146 103.692 96.5627 104.437 96.5627C105.182 96.5627 105.834 97.2146 105.834 97.9597V98.8911C105.834 99.6361 105.182 100.288 104.437 100.288ZM218.656 95.9107C217.911 95.9107 217.259 95.2588 217.259 94.5137V93.5823C217.259 92.8373 217.911 92.1853 218.656 92.1853C219.401 92.1853 220.054 92.8373 220.054 93.5823V94.5137C220.054 95.2588 219.401 95.9107 218.656 95.9107ZM104.437 94.7C103.692 94.7 103.04 94.048 103.04 93.3029V92.3716C103.04 91.6265 103.692 90.9746 104.437 90.9746C105.182 90.9746 105.834 91.6265 105.834 92.3716V93.3029C105.834 94.048 105.182 94.7 104.437 94.7ZM218.656 90.3226C217.911 90.3226 217.259 89.6707 217.259 88.9256V87.9942C217.259 87.2491 217.911 86.5972 218.656 86.5972C219.401 86.5972 220.054 87.2491 220.054 87.9942V88.9256C220.054 89.7638 219.401 90.3226 218.656 90.3226ZM104.437 89.1118C103.692 89.1118 103.04 88.4599 103.04 87.7148V86.7835C103.04 86.0384 103.692 85.3864 104.437 85.3864C105.182 85.3864 105.834 86.0384 105.834 86.7835V87.7148C105.834 88.4599 105.182 89.1118 104.437 89.1118ZM218.656 84.7345C217.911 84.7345 217.259 84.0825 217.259 83.3375C217.259 83.0581 217.259 82.7786 217.259 82.4992C217.259 81.7542 217.818 81.1022 218.563 81.0091C219.308 81.0091 219.96 81.5679 220.054 82.313C220.054 82.5924 220.054 82.9649 220.054 83.3375C220.054 84.1757 219.495 84.7345 218.656 84.7345ZM104.437 83.5237C103.599 83.4306 103.04 82.7786 103.04 82.0336C103.04 81.661 103.04 81.3816 103.133 81.1022C103.226 80.3571 103.878 79.7983 104.623 79.7983C105.369 79.8914 105.928 80.5434 105.928 81.2885C105.928 81.5679 105.834 81.8473 105.834 82.1267C105.834 82.9649 105.182 83.5237 104.437 83.5237ZM218.004 79.2395C217.352 79.2395 216.793 78.7738 216.607 78.215C216.513 77.9356 216.42 77.6562 216.42 77.3768C216.234 76.6317 216.607 75.8866 217.352 75.6072C218.097 75.4209 218.842 75.7935 219.122 76.5386C219.215 76.818 219.308 77.1905 219.401 77.4699C219.588 78.215 219.122 78.9601 218.377 79.1464C218.19 79.2395 218.097 79.2395 218.004 79.2395ZM105.369 78.0287C105.275 78.0287 105.089 78.0287 104.996 77.9356C104.251 77.7493 103.878 76.9111 104.064 76.166C104.158 75.8866 104.251 75.5141 104.344 75.2347C104.623 74.4896 105.369 74.1171 106.114 74.3965C106.859 74.6759 107.232 75.4209 106.952 76.166C106.859 76.4454 106.766 76.7248 106.673 77.0042C106.58 77.6562 106.021 78.0287 105.369 78.0287ZM216.048 74.0239C215.582 74.0239 215.023 73.7445 214.836 73.2788C214.743 72.9994 214.557 72.72 214.464 72.5337C214.091 71.8818 214.371 71.0436 215.023 70.671C215.675 70.2985 216.513 70.5779 216.886 71.2299C217.072 71.5093 217.166 71.7887 217.352 72.0681C217.725 72.72 217.445 73.5582 216.7 73.9308C216.513 73.9308 216.327 74.0239 216.048 74.0239ZM107.605 72.9063C107.325 72.9063 107.139 72.8132 106.952 72.72C106.3 72.3475 106.021 71.5093 106.393 70.8573C106.58 70.5779 106.766 70.2985 106.859 70.0191C107.232 69.3671 108.164 69.1809 108.816 69.5534C109.468 69.926 109.654 70.8573 109.282 71.5093C109.095 71.7887 109.002 71.9749 108.816 72.2543C108.536 72.72 108.07 72.9063 107.605 72.9063ZM213.066 69.3671C212.694 69.3671 212.228 69.1809 211.948 68.9015C211.762 68.7152 211.576 68.4358 211.389 68.2495C210.83 67.6907 210.924 66.7594 211.483 66.2937C212.042 65.7349 212.973 65.828 213.439 66.3868C213.625 66.6662 213.905 66.8525 214.091 67.1319C214.557 67.6907 214.464 68.6221 213.905 69.0877C213.625 69.274 213.346 69.3671 213.066 69.3671ZM110.865 68.4358C110.493 68.4358 110.213 68.3427 109.934 68.0633C109.375 67.5044 109.375 66.6662 109.841 66.1074C110.027 65.828 110.306 65.6417 110.493 65.3623C111.052 64.8035 111.89 64.8035 112.449 65.3623C113.008 65.9211 113.008 66.7594 112.449 67.3182C112.263 67.5044 112.076 67.6907 111.797 67.9701C111.611 68.2495 111.238 68.4358 110.865 68.4358ZM208.967 65.5486C208.688 65.5486 208.408 65.4555 208.129 65.2692C207.849 65.0829 207.663 64.8967 207.383 64.7104C206.731 64.2447 206.638 63.4065 207.011 62.7545C207.476 62.1026 208.315 62.0095 208.967 62.382C209.247 62.5683 209.526 62.7545 209.806 62.9408C210.458 63.4065 210.551 64.2447 210.085 64.8966C209.806 65.3623 209.433 65.5486 208.967 65.5486ZM115.151 64.8035C114.685 64.8035 114.219 64.6172 114.033 64.1516C113.567 63.4996 113.753 62.6614 114.406 62.1957C114.685 62.0095 114.965 61.8232 115.244 61.6369C115.896 61.2644 116.735 61.4506 117.2 62.1026C117.573 62.7545 117.387 63.5928 116.735 64.0584C116.455 64.2447 116.269 64.3378 115.989 64.5241C115.617 64.7104 115.337 64.8035 115.151 64.8035ZM204.216 62.7545C204.029 62.7545 203.843 62.7545 203.657 62.6614C203.377 62.5683 203.098 62.4751 202.818 62.2889C202.073 62.0095 201.793 61.1712 202.073 60.5193C202.352 59.7742 203.191 59.4948 203.843 59.7742C204.123 59.8673 204.495 60.0536 204.775 60.1467C205.52 60.4262 205.8 61.2644 205.52 62.0095C205.241 62.382 204.682 62.7545 204.216 62.7545ZM119.995 62.2889C119.436 62.2889 118.877 61.9163 118.691 61.3575C118.412 60.6124 118.784 59.8673 119.53 59.5879C119.809 59.4948 120.182 59.4017 120.461 59.2154C121.207 58.936 121.952 59.4017 122.231 60.0536C122.511 60.7987 122.045 61.5438 121.393 61.8232C121.113 61.9163 120.834 62.0095 120.554 62.1026C120.368 62.1957 120.182 62.2889 119.995 62.2889ZM198.905 61.0781C198.812 61.0781 198.719 61.0781 198.626 61.0781C198.346 60.985 198.067 60.985 197.787 60.8918C197.042 60.7987 196.483 60.0536 196.576 59.3085C196.669 58.5634 197.415 58.0046 198.16 58.0978C198.44 58.1909 198.812 58.1909 199.092 58.284C199.837 58.4703 200.396 59.1223 200.21 59.9605C200.117 60.6124 199.558 61.0781 198.905 61.0781ZM125.399 60.8918C124.747 60.8918 124.095 60.4262 124.001 59.6811C123.908 58.936 124.467 58.1909 125.213 58.0978C125.492 58.0978 125.865 58.0046 126.144 58.0046C126.89 57.9115 127.635 58.4703 127.635 59.3085C127.728 60.0536 127.169 60.7987 126.331 60.7987C126.051 60.7987 125.772 60.8918 125.492 60.8918C125.585 60.8918 125.492 60.8918 125.399 60.8918ZM193.316 60.6124H192.384C191.639 60.6124 190.986 59.9605 190.986 59.2154C190.986 58.4703 191.639 57.8184 192.384 57.8184H193.316C194.061 57.8184 194.713 58.4703 194.713 59.2154C194.713 60.0536 194.061 60.6124 193.316 60.6124ZM187.726 60.6124H186.794C186.049 60.6124 185.397 59.9605 185.397 59.2154C185.397 58.4703 186.049 57.8184 186.794 57.8184H187.726C188.471 57.8184 189.123 58.4703 189.123 59.2154C189.123 60.0536 188.471 60.6124 187.726 60.6124ZM182.136 60.6124H181.204C180.459 60.6124 179.807 59.9605 179.807 59.2154C179.807 58.4703 180.459 57.8184 181.204 57.8184H182.136C182.881 57.8184 183.533 58.4703 183.533 59.2154C183.533 60.0536 182.881 60.6124 182.136 60.6124ZM176.546 60.6124H175.614C174.869 60.6124 174.217 59.9605 174.217 59.2154C174.217 58.4703 174.869 57.8184 175.614 57.8184H176.546C177.291 57.8184 177.943 58.4703 177.943 59.2154C177.943 60.0536 177.384 60.6124 176.546 60.6124ZM170.956 60.6124H170.025C169.279 60.6124 168.627 59.9605 168.627 59.2154C168.627 58.4703 169.279 57.8184 170.025 57.8184H170.956C171.701 57.8184 172.354 58.4703 172.354 59.2154C172.354 60.0536 171.795 60.6124 170.956 60.6124ZM165.459 60.6124H164.528C163.783 60.6124 163.13 59.9605 163.13 59.2154C163.13 58.4703 163.783 57.8184 164.528 57.8184H165.459C166.205 57.8184 166.857 58.4703 166.857 59.2154C166.857 60.0536 166.205 60.6124 165.459 60.6124ZM159.87 60.6124H158.938C158.193 60.6124 157.541 59.9605 157.541 59.2154C157.541 58.4703 158.193 57.8184 158.938 57.8184H159.87C160.615 57.8184 161.267 58.4703 161.267 59.2154C161.267 60.0536 160.615 60.6124 159.87 60.6124ZM154.28 60.6124H153.348C152.603 60.6124 151.951 59.9605 151.951 59.2154C151.951 58.4703 152.603 57.8184 153.348 57.8184H154.28C155.025 57.8184 155.677 58.4703 155.677 59.2154C155.677 60.0536 155.025 60.6124 154.28 60.6124ZM148.69 60.6124H147.758C147.013 60.6124 146.361 59.9605 146.361 59.2154C146.361 58.4703 147.013 57.8184 147.758 57.8184H148.69C149.435 57.8184 150.087 58.4703 150.087 59.2154C150.087 60.0536 149.435 60.6124 148.69 60.6124ZM143.1 60.6124H142.168C141.423 60.6124 140.771 59.9605 140.771 59.2154C140.771 58.4703 141.423 57.8184 142.168 57.8184H143.1C143.845 57.8184 144.498 58.4703 144.498 59.2154C144.498 60.0536 143.845 60.6124 143.1 60.6124ZM137.51 60.6124H136.579C135.833 60.6124 135.181 59.9605 135.181 59.2154C135.181 58.4703 135.833 57.8184 136.579 57.8184H137.51C138.256 57.8184 138.908 58.4703 138.908 59.2154C138.908 60.0536 138.256 60.6124 137.51 60.6124ZM131.92 60.6124H130.989C130.243 60.6124 129.591 59.9605 129.591 59.2154C129.591 58.4703 130.243 57.8184 130.989 57.8184H131.92C132.666 57.8184 133.318 58.4703 133.318 59.2154C133.318 60.0536 132.666 60.6124 131.92 60.6124Z" fill="#58575C"/>
<path d="M113.474 291.309C112.729 291.309 112.076 290.657 112.076 289.912C112.076 289.167 112.729 288.515 113.474 288.515C113.753 288.515 114.033 288.515 114.312 288.515C115.058 288.515 115.71 289.074 115.803 289.819C115.803 290.564 115.244 291.216 114.499 291.309C114.126 291.309 113.753 291.309 113.474 291.309ZM108.722 290.936C108.629 290.936 108.536 290.936 108.443 290.936C108.07 290.843 107.791 290.843 107.511 290.75C106.766 290.564 106.3 289.819 106.393 289.073C106.58 288.328 107.325 287.863 108.07 287.956C108.35 288.049 108.629 288.049 108.909 288.142C109.654 288.235 110.213 288.98 110.027 289.725C110.027 290.471 109.468 290.936 108.722 290.936ZM118.971 290.657C118.318 290.657 117.759 290.191 117.573 289.632C117.387 288.887 117.853 288.142 118.598 287.956C118.877 287.863 119.157 287.77 119.436 287.77C120.182 287.583 120.927 287.956 121.206 288.701C121.393 289.446 121.02 290.191 120.275 290.471C119.995 290.564 119.623 290.657 119.343 290.75C119.25 290.657 119.064 290.657 118.971 290.657ZM103.412 289.353C103.226 289.353 103.039 289.353 102.853 289.26C102.574 289.167 102.201 288.98 101.921 288.887C101.269 288.515 100.897 287.676 101.269 287.025C101.642 286.373 102.48 286 103.133 286.373C103.412 286.466 103.692 286.652 103.971 286.745C104.716 287.025 104.996 287.863 104.716 288.608C104.437 289.073 103.878 289.353 103.412 289.353ZM124.281 288.701C123.815 288.701 123.256 288.422 123.07 287.956C122.697 287.304 122.977 286.466 123.722 286.093C124.001 286 124.281 285.814 124.467 285.721C125.119 285.348 125.958 285.534 126.33 286.279C126.703 286.931 126.517 287.77 125.771 288.142C125.492 288.328 125.213 288.422 124.933 288.608C124.654 288.608 124.467 288.701 124.281 288.701ZM98.4744 286.559C98.1949 286.559 97.9154 286.466 97.6359 286.279C97.3564 286.093 97.077 285.907 96.8906 285.627C96.3316 285.162 96.2385 284.23 96.7043 283.672C97.1701 283.113 98.1018 283.02 98.6607 283.485C98.8471 283.672 99.1266 283.858 99.4061 284.044C100.058 284.51 100.151 285.348 99.6855 286C99.4061 286.373 98.9402 286.559 98.4744 286.559ZM128.939 285.534C128.566 285.534 128.194 285.348 127.914 285.069C127.448 284.51 127.448 283.579 128.101 283.113C128.287 282.927 128.566 282.74 128.753 282.554C129.312 281.995 130.243 282.088 130.709 282.647C131.268 283.206 131.175 284.137 130.616 284.603C130.337 284.789 130.15 285.069 129.871 285.255C129.591 285.441 129.219 285.534 128.939 285.534ZM94.4684 282.74C94.0957 282.74 93.6299 282.554 93.4436 282.275C93.2572 281.995 92.9777 281.809 92.7914 281.53C92.3256 280.878 92.4188 280.039 93.0709 279.574C93.723 279.108 94.5615 279.201 95.0273 279.853C95.2137 280.039 95.4 280.319 95.5863 280.505C96.0521 281.064 96.0521 281.995 95.4 282.461C95.0273 282.647 94.7479 282.74 94.4684 282.74ZM132.759 281.436C132.479 281.436 132.2 281.343 131.92 281.157C131.268 280.691 131.175 279.853 131.641 279.201C131.827 278.922 132.013 278.735 132.107 278.456C132.572 277.804 133.411 277.618 134.063 278.084C134.715 278.549 134.902 279.387 134.436 280.039C134.249 280.319 134.063 280.598 133.877 280.878C133.597 281.25 133.225 281.436 132.759 281.436ZM91.3008 278.084C90.835 278.084 90.276 277.804 90.0896 277.338C89.9033 277.059 89.8102 276.78 89.6238 276.407C89.3443 275.662 89.6238 274.917 90.276 274.544C91.0213 274.265 91.7666 274.544 92.1393 275.196C92.2324 275.476 92.4188 275.755 92.5119 276.035C92.8846 276.686 92.6051 277.525 91.8598 277.897C91.7666 277.99 91.4871 278.084 91.3008 278.084ZM135.554 276.593C135.367 276.593 135.181 276.593 134.995 276.5C134.249 276.221 133.97 275.383 134.249 274.637C134.343 274.358 134.436 274.079 134.622 273.799C134.902 273.054 135.74 272.682 136.392 272.961C137.137 273.24 137.51 274.079 137.231 274.731C137.137 275.01 136.951 275.383 136.858 275.662C136.579 276.314 136.113 276.593 135.554 276.593ZM89.3443 272.775C88.6922 272.775 88.1332 272.309 87.9469 271.75C87.8537 271.471 87.7605 271.098 87.7605 270.819C87.5742 270.074 88.1332 269.329 88.8785 269.143C89.6238 268.956 90.3691 269.515 90.5555 270.26C90.6486 270.54 90.6486 270.819 90.7418 271.098C90.9281 271.843 90.4623 272.589 89.717 272.775C89.6238 272.775 89.4375 272.775 89.3443 272.775ZM137.137 271.192C137.044 271.192 136.951 271.192 136.858 271.192C136.113 271.098 135.554 270.353 135.74 269.608C135.833 269.329 135.833 269.049 135.833 268.77C135.926 268.025 136.672 267.466 137.417 267.559C138.162 267.652 138.721 268.397 138.628 269.143C138.628 269.515 138.535 269.794 138.442 270.167C138.442 270.726 137.79 271.192 137.137 271.192ZM88.6922 267.187C87.9469 267.187 87.2947 266.535 87.2947 265.79V264.858C87.2947 264.113 87.9469 263.461 88.6922 263.461C89.4375 263.461 90.0896 264.113 90.0896 264.858V265.79C90.0896 266.535 89.4375 267.187 88.6922 267.187ZM137.51 265.603C136.765 265.603 136.113 264.951 136.113 264.206V263.275C136.113 262.53 136.765 261.878 137.51 261.878C138.255 261.878 138.908 262.53 138.908 263.275V264.206C138.908 264.951 138.255 265.603 137.51 265.603ZM88.6922 261.599C87.9469 261.599 87.2947 260.947 87.2947 260.202V259.27C87.2947 258.525 87.9469 257.873 88.6922 257.873C89.4375 257.873 90.0896 258.525 90.0896 259.27V260.202C90.0896 260.947 89.4375 261.599 88.6922 261.599ZM137.51 260.015C136.765 260.015 136.113 259.363 136.113 258.618V257.687C136.113 256.942 136.765 256.29 137.51 256.29C138.255 256.29 138.908 256.942 138.908 257.687V258.618C138.908 259.363 138.255 260.015 137.51 260.015ZM88.6922 255.917C87.9469 255.917 87.2947 255.265 87.2947 254.52V253.589C87.2947 252.844 87.9469 252.192 88.6922 252.192C89.4375 252.192 90.0896 252.844 90.0896 253.589V254.52C90.0896 255.358 89.4375 255.917 88.6922 255.917ZM137.51 254.334C136.765 254.334 136.113 253.682 136.113 252.937V252.006C136.113 251.261 136.765 250.609 137.51 250.609C138.255 250.609 138.908 251.261 138.908 252.006V252.937C138.908 253.682 138.255 254.334 137.51 254.334ZM88.6922 250.329C87.9469 250.329 87.2947 249.677 87.2947 248.932V248.001C87.2947 247.256 87.9469 246.604 88.6922 246.604C89.4375 246.604 90.0896 247.256 90.0896 248.001V248.932C90.0896 249.677 89.4375 250.329 88.6922 250.329ZM137.51 248.746C136.765 248.746 136.113 248.094 136.113 247.349V246.417C136.113 245.672 136.765 245.02 137.51 245.02C138.255 245.02 138.908 245.672 138.908 246.417V247.349C138.908 248.094 138.255 248.746 137.51 248.746ZM88.6922 244.648C87.9469 244.648 87.2947 243.996 87.2947 243.251V242.32C87.2947 241.574 87.9469 240.923 88.6922 240.923C89.4375 240.923 90.0896 241.574 90.0896 242.32V243.251C90.0896 244.089 89.4375 244.648 88.6922 244.648ZM137.51 243.065C136.765 243.065 136.113 242.413 136.113 241.668V240.736C136.113 239.991 136.765 239.339 137.51 239.339C138.255 239.339 138.908 239.991 138.908 240.736V241.668C138.908 242.413 138.255 243.065 137.51 243.065ZM88.6922 239.06C87.9469 239.06 87.2947 238.408 87.2947 237.663V236.731C87.2947 235.986 87.9469 235.334 88.6922 235.334C89.4375 235.334 90.0896 235.986 90.0896 236.731V237.663C90.0896 238.408 89.4375 239.06 88.6922 239.06ZM137.51 237.476C136.765 237.476 136.113 236.825 136.113 236.079V235.148C136.113 234.403 136.765 233.751 137.51 233.751C138.255 233.751 138.908 234.403 138.908 235.148V236.079C138.908 236.825 138.255 237.476 137.51 237.476ZM88.6922 233.472C87.9469 233.472 87.2947 232.82 87.2947 232.075V231.143C87.2947 230.398 87.9469 229.746 88.6922 229.746C89.4375 229.746 90.0896 230.398 90.0896 231.143V232.075C90.0896 232.82 89.4375 233.472 88.6922 233.472ZM137.51 231.795C136.765 231.795 136.113 231.143 136.113 230.398V229.467C136.113 228.722 136.765 228.07 137.51 228.07C138.255 228.07 138.908 228.722 138.908 229.467V230.398C138.908 231.236 138.255 231.795 137.51 231.795ZM88.6922 227.79C87.9469 227.79 87.2947 227.138 87.2947 226.393V225.462C87.2947 224.717 87.9469 224.065 88.6922 224.065C89.4375 224.065 90.0896 224.717 90.0896 225.462V226.393C90.0896 227.138 89.4375 227.79 88.6922 227.79ZM137.51 226.207C136.765 226.207 136.113 225.555 136.113 224.81V223.879C136.113 223.134 136.765 222.482 137.51 222.482C138.255 222.482 138.908 223.134 138.908 223.879V224.81C138.908 225.555 138.255 226.207 137.51 226.207ZM88.6922 222.202C87.9469 222.202 87.2947 221.55 87.2947 220.805V219.874C87.2947 219.129 87.9469 218.477 88.6922 218.477C89.4375 218.477 90.0896 219.129 90.0896 219.874V220.805C90.0896 221.55 89.4375 222.202 88.6922 222.202ZM137.51 220.526C136.765 220.526 136.113 219.874 136.113 219.129V218.197C136.113 217.452 136.765 216.8 137.51 216.8C138.255 216.8 138.908 217.452 138.908 218.197V219.129C138.908 219.967 138.255 220.526 137.51 220.526ZM88.6922 216.521C87.9469 216.521 87.2947 215.869 87.2947 215.124V214.193C87.2947 213.448 87.9469 212.796 88.6922 212.796C89.4375 212.796 90.0896 213.448 90.0896 214.193V215.124C90.0896 215.962 89.4375 216.521 88.6922 216.521ZM137.51 214.938C136.765 214.938 136.113 214.286 136.113 213.541V212.609C136.113 211.864 136.765 211.212 137.51 211.212C138.255 211.212 138.908 211.864 138.908 212.609V213.541C138.908 214.286 138.255 214.938 137.51 214.938ZM88.6922 210.933C87.9469 210.933 87.2947 210.281 87.2947 209.536V208.605C87.2947 207.859 87.9469 207.207 88.6922 207.207C89.4375 207.207 90.0896 207.859 90.0896 208.605V209.536C90.0896 210.281 89.4375 210.933 88.6922 210.933ZM137.51 209.35C136.765 209.35 136.113 208.698 136.113 207.953V207.021C136.113 206.276 136.765 205.624 137.51 205.624C138.255 205.624 138.908 206.276 138.908 207.021V207.953C138.908 208.698 138.255 209.35 137.51 209.35ZM88.3195 205.345C87.6674 205.345 87.1084 204.879 86.9221 204.227C86.8289 203.948 86.8289 203.668 86.7357 203.389C86.5494 202.644 87.0152 201.899 87.7605 201.713C88.5059 201.526 89.2512 201.992 89.4375 202.737C89.5307 203.016 89.6238 203.389 89.6238 203.668C89.8102 204.413 89.2512 205.159 88.5059 205.345C88.4127 205.345 88.3195 205.345 88.3195 205.345ZM137.51 203.668C136.765 203.668 136.113 203.016 136.113 202.271V201.34C136.113 200.595 136.765 199.943 137.51 199.943C138.255 199.943 138.908 200.595 138.908 201.34V202.271C138.908 203.016 138.255 203.668 137.51 203.668ZM86.6426 199.943C86.0836 199.943 85.6178 199.664 85.3383 199.105C85.2451 198.825 85.0588 198.546 84.9656 198.266C84.593 197.615 84.8725 196.776 85.6178 196.404C86.2699 196.031 87.1084 196.311 87.4811 197.056C87.6674 197.335 87.7606 197.615 87.8537 197.987C88.1332 198.732 87.8537 199.477 87.1084 199.85C87.0152 199.943 86.8289 199.943 86.6426 199.943ZM137.51 198.08C136.765 198.08 136.113 197.428 136.113 196.683V195.752C136.113 195.007 136.765 194.355 137.51 194.355C138.255 194.355 138.908 195.007 138.908 195.752V196.683C138.908 197.428 138.255 198.08 137.51 198.08ZM83.7545 195.1C83.2887 195.1 82.916 194.914 82.6365 194.541C82.4502 194.262 82.2639 194.075 82.0775 193.889C81.6117 193.33 81.7049 192.399 82.2639 191.933C82.8229 191.468 83.7545 191.561 84.2203 192.12C84.4066 192.399 84.593 192.585 84.8725 192.865C85.3383 193.517 85.2451 194.355 84.593 194.82C84.3135 195.007 84.034 195.1 83.7545 195.1ZM79.8416 191.095C79.5621 191.095 79.1895 191.002 78.91 190.816C78.7236 190.629 78.4441 190.443 78.2578 190.257C77.6057 189.791 77.5125 188.953 77.9783 188.301C78.4441 187.649 79.2826 187.556 79.9348 188.022C80.2143 188.208 80.4938 188.394 80.6801 188.674C81.2391 189.139 81.3322 190.071 80.8664 190.629C80.6801 190.909 80.2143 191.095 79.8416 191.095ZM75.1834 188.022C74.9971 188.022 74.7176 188.022 74.5312 187.835C74.2518 187.742 73.9723 187.556 73.6928 187.463C72.9475 187.183 72.668 186.345 72.9475 185.6C73.227 184.855 74.0654 184.576 74.8107 184.855C75.0902 184.948 75.3697 185.134 75.7424 185.321C76.3945 185.693 76.674 186.531 76.3945 187.183C76.115 187.742 75.6492 188.022 75.1834 188.022ZM69.873 186.159C69.7799 186.159 69.6867 186.159 69.5936 186.159C69.3141 186.066 69.0346 186.066 68.7551 185.973C68.0098 185.786 67.5439 185.134 67.6371 184.296C67.8234 183.551 68.4756 182.992 69.3141 183.179C69.6867 183.272 69.9662 183.272 70.2457 183.365C70.991 183.551 71.4568 184.296 71.2705 185.041C71.0842 185.693 70.5252 186.159 69.873 186.159ZM64.2832 185.507H63.3516C62.6063 185.507 61.9541 184.855 61.9541 184.11C61.9541 183.365 62.6063 182.713 63.3516 182.713H64.2832C65.0285 182.713 65.6807 183.365 65.6807 184.11C65.6807 184.948 65.0285 185.507 64.2832 185.507ZM58.6002 185.507H57.6686C56.9232 185.507 56.2711 184.855 56.2711 184.11C56.2711 183.365 56.9232 182.713 57.6686 182.713H58.6002C59.3455 182.713 59.9977 183.365 59.9977 184.11C59.9977 184.948 59.4387 185.507 58.6002 185.507ZM53.0104 185.507H52.0787C51.3334 185.507 50.6813 184.855 50.6813 184.11C50.6813 183.365 51.3334 182.713 52.0787 182.713H53.0104C53.7557 182.713 54.4078 183.365 54.4078 184.11C54.4078 184.948 53.7557 185.507 53.0104 185.507ZM47.4205 185.507H46.4889C45.7436 185.507 45.0914 184.855 45.0914 184.11C45.0914 183.365 45.7436 182.713 46.4889 182.713H47.4205C48.1658 182.713 48.818 183.365 48.818 184.11C48.818 184.948 48.1658 185.507 47.4205 185.507ZM41.7375 185.507H40.8059C40.0605 185.507 39.4084 184.855 39.4084 184.11C39.4084 183.365 40.0605 182.713 40.8059 182.713H41.7375C42.4828 182.713 43.135 183.365 43.135 184.11C43.135 184.948 42.4828 185.507 41.7375 185.507ZM36.1477 185.507H35.216C34.4707 185.507 33.8186 184.855 33.8186 184.11C33.8186 183.365 34.4707 182.713 35.216 182.713H36.1477C36.893 182.713 37.5451 183.365 37.5451 184.11C37.5451 184.948 36.893 185.507 36.1477 185.507ZM30.4646 185.507H29.533C28.7877 185.507 28.1355 184.855 28.1355 184.11C28.1355 183.365 28.7877 182.713 29.533 182.713H30.4646C31.21 182.713 31.8621 183.365 31.8621 184.11C31.8621 184.948 31.21 185.507 30.4646 185.507ZM24.8748 185.507H23.9432C23.1979 185.507 22.5457 184.855 22.5457 184.11C22.5457 183.365 23.1979 182.713 23.9432 182.713H24.8748C25.6201 182.713 26.2723 183.365 26.2723 184.11C26.2723 184.948 25.6201 185.507 24.8748 185.507ZM19.1918 185.507H18.2602C17.5148 185.507 16.8627 184.855 16.8627 184.11C16.8627 183.365 17.5148 182.713 18.2602 182.713H19.1918C19.9371 182.713 20.5893 183.365 20.5893 184.11C20.5893 184.948 20.0303 185.507 19.1918 185.507ZM13.602 185.507H12.6703C11.925 185.507 11.2729 184.855 11.2729 184.11C11.2729 183.365 11.925 182.713 12.6703 182.713H13.602C14.3473 182.713 14.9994 183.365 14.9994 184.11C14.9994 184.948 14.3473 185.507 13.602 185.507ZM7.91895 185.507H6.9873C6.24199 185.507 5.58984 184.855 5.58984 184.11C5.58984 183.365 6.24199 182.713 6.9873 182.713H7.91895C8.66426 182.713 9.31641 183.365 9.31641 184.11C9.31641 184.948 8.75742 185.507 7.91895 185.507ZM2.3291 185.507H1.39746C0.652148 185.507 0 184.855 0 184.11C0 183.365 0.652148 182.713 1.39746 182.713H2.3291C3.07441 182.713 3.72656 183.365 3.72656 184.11C3.72656 184.948 3.07441 185.507 2.3291 185.507Z" fill="#58575C"/>
<path d="M137.51 192.398C136.765 192.398 136.113 191.746 136.113 191.001V190.536C136.113 189.791 136.765 189.139 137.51 189.139C138.256 189.139 138.908 189.791 138.908 190.536V191.001C138.908 191.746 138.256 192.398 137.51 192.398Z" fill="#58575C"/>
<path d="M80.8663 87.0616C80.9595 86.0372 81.0526 85.0127 81.0526 83.895C81.0526 82.8706 80.9595 81.7529 80.8663 80.7284L77.2329 79.7039C76.8603 77.655 76.2081 75.606 75.2765 73.8364L77.6056 70.8561C76.5808 68.9934 75.3696 67.3169 73.879 65.7336L70.3388 67.0375C68.8481 65.6405 67.1712 64.3366 65.3079 63.4053L65.4011 59.5867C63.5378 58.7485 61.4882 58.0965 59.4386 57.6309L57.2958 60.7975C56.271 60.7043 55.2462 60.6112 54.2214 60.6112C53.1966 60.6112 52.1718 60.7043 51.147 60.7975L49.0042 57.6309C46.9546 58.0034 44.905 58.7485 43.0417 59.5867L43.1349 63.4053C41.2716 64.4297 39.5946 65.6405 38.104 67.0375L34.5638 65.7336C33.1663 67.3169 31.862 68.9934 30.8372 70.8561L33.1663 73.8364C32.2347 75.6991 31.6757 77.655 31.2099 79.7039L27.5765 80.7284C27.4833 81.7529 27.3901 82.7774 27.3901 83.895C27.3901 84.9195 27.4833 86.0372 27.5765 87.0616L31.2099 88.0861C31.5825 90.1351 32.2347 92.1841 33.1663 93.9537L30.8372 96.934C31.862 98.7967 33.0731 100.473 34.5638 102.056L38.104 100.753C39.5946 102.15 41.2716 103.453 43.1349 104.385L43.0417 108.203C44.905 109.042 46.9546 109.694 49.0042 110.159L51.147 106.993C52.1718 107.086 53.1966 107.179 54.2214 107.179C55.2462 107.179 56.271 107.086 57.2958 106.993L59.4386 110.159C61.4882 109.787 63.5378 109.042 65.4011 108.203L65.3079 104.385C67.1712 103.36 68.8481 102.15 70.3388 100.753L73.879 102.056C75.2765 100.473 76.5808 98.7967 77.6056 96.934L75.2765 93.9537C76.2081 92.091 76.7671 90.1351 77.2329 88.0861L80.8663 87.0616ZM54.3146 102.056C44.2528 102.056 36.1476 93.9537 36.1476 83.895C36.1476 73.8364 44.2528 65.7336 54.3146 65.7336C64.3763 65.7336 72.4815 73.8364 72.4815 83.895C72.4815 93.9537 64.2831 102.056 54.3146 102.056Z" fill="#13D99D"/>
<path d="M78.6304 59.4942C78.2577 59.1217 77.6987 59.1217 77.3261 59.4942C76.9534 59.8668 76.9534 60.4256 77.3261 60.7981C89.9964 73.4646 89.9964 94.1406 77.3261 106.807C71.1773 112.954 62.9788 116.307 54.3146 116.307C45.6503 116.307 37.4519 112.954 31.303 106.807C19.0054 94.6994 18.5396 75.141 29.8124 62.3814L30.0919 65.4549C30.0919 65.9206 30.5577 66.2931 31.0235 66.2931H31.1167C31.6757 66.2931 32.0484 65.8275 31.9552 65.2686L31.4894 60.1462V60.0531C31.4894 59.9599 31.4894 59.9599 31.3962 59.8668C31.3962 59.7737 31.303 59.7737 31.303 59.6805C31.303 59.6805 31.303 59.5874 31.2099 59.5874L31.1167 59.4942C31.0235 59.4942 31.0235 59.4011 30.9304 59.4011C30.8372 59.4011 30.8372 59.4011 30.7441 59.4011C30.6509 59.4011 30.6509 59.4011 30.5577 59.4011L25.3405 59.8668C24.7816 59.8668 24.4089 60.3325 24.5021 60.8913C24.5021 61.4501 24.9679 61.8226 25.5269 61.7295L28.3218 61.5432C16.5831 75.0479 17.1421 95.6308 29.9987 108.483C36.7066 115.189 45.5571 118.542 54.3146 118.542C63.1651 118.542 71.9226 115.189 78.6304 108.483C92.046 94.7926 92.046 72.9057 78.6304 59.4942Z" fill="#13D99D"/>
<path d="M187.073 200.593C186.049 200.22 185.117 199.941 183.999 199.755C182.974 199.568 181.949 199.382 180.831 199.289L179.061 202.642C176.919 202.549 174.869 202.828 172.913 203.294L170.49 200.407C168.441 201.059 166.577 201.897 164.714 203.014L165.273 206.74C163.596 207.951 162.012 209.348 160.708 210.931L157.075 210.093C155.863 211.769 154.746 213.632 154 215.588L156.609 218.289C156.236 219.22 155.957 220.245 155.77 221.269C155.584 222.294 155.398 223.318 155.304 224.342L151.857 225.833C151.857 227.975 152.044 230.024 152.51 232.073L156.236 232.725C156.795 234.681 157.727 236.636 158.845 238.406L156.888 241.666C158.099 243.342 159.497 244.925 161.081 246.322L164.435 244.646C166.018 245.857 167.882 246.881 169.838 247.719L170.118 251.445C171.142 251.817 172.074 252.097 173.192 252.283C174.217 252.469 175.242 252.656 176.36 252.749L178.13 249.396C180.272 249.489 182.322 249.21 184.279 248.744L186.701 251.631C188.75 250.979 190.614 250.141 192.477 249.023L191.918 245.298C193.595 244.087 195.179 242.69 196.483 241.107L200.116 241.945C201.328 240.269 202.446 238.406 203.191 236.45L200.582 233.749C200.955 232.818 201.234 231.793 201.421 230.769C201.607 229.744 201.793 228.72 201.887 227.695L205.334 226.205C205.334 224.063 205.147 222.014 204.681 219.965L200.955 219.313C200.396 217.357 199.464 215.401 198.346 213.632L200.303 210.372C199.092 208.696 197.694 207.112 196.11 205.715L192.756 207.392C191.173 206.181 189.309 205.157 187.353 204.318L187.073 200.593ZM196.39 229.744C194.34 239.617 184.744 245.95 174.869 243.901C164.994 241.852 158.658 232.259 160.708 222.387C162.758 212.514 172.354 206.181 182.229 208.23C192.104 210.279 198.439 219.872 196.39 229.744Z" fill="#13D99D"/>
<path d="M159.683 197.241C159.217 197.52 159.124 198.079 159.404 198.545C159.683 199.01 160.242 199.103 160.708 198.824C175.708 188.952 195.924 193.143 205.8 208.137C210.551 215.402 212.228 224.064 210.458 232.632C208.688 241.107 203.75 248.465 196.483 253.215C182.043 262.715 162.851 259.176 152.603 245.578L155.677 245.95C156.143 246.044 156.609 245.671 156.702 245.205V245.112C156.795 244.647 156.423 244.181 155.864 244.088L150.646 243.436H150.553C150.46 243.436 150.46 243.436 150.367 243.436C150.274 243.436 150.274 243.436 150.181 243.529C150.181 243.529 150.087 243.529 150.087 243.622L149.994 243.715L149.901 243.808C149.901 243.901 149.808 243.901 149.808 243.995C149.808 244.088 149.715 244.088 149.715 244.181L149.063 249.396C148.969 249.862 149.342 250.328 149.901 250.421C150.367 250.514 150.926 250.142 150.926 249.583L151.299 246.789C162.199 261.038 182.415 264.671 197.601 254.705C205.52 249.49 210.644 241.573 212.414 232.912C214.184 224.25 212.694 214.936 207.476 207.02C196.856 191.28 175.521 186.809 159.683 197.241Z" fill="#13D99D"/>
<path d="M253.313 229.559H63.0719C58.2273 229.559 54.3145 225.647 54.3145 220.804V98.9832C54.3145 94.1402 58.2273 90.2285 63.0719 90.2285H253.313C258.157 90.2285 262.07 94.1402 262.07 98.9832V220.804C262.07 225.647 258.157 229.559 253.313 229.559Z" fill="#DFFFF5"/>
<path d="M253.313 90.2285H63.0719C58.2273 90.2285 54.3145 94.1402 54.3145 98.9832V110.159H262.07V98.9832C262.07 94.1402 258.157 90.2285 253.313 90.2285Z" fill="#08A979"/>
<path d="M68.475 103.546C70.3273 103.546 71.8289 102.044 71.8289 100.193C71.8289 98.341 70.3273 96.8398 68.475 96.8398C66.6227 96.8398 65.1211 98.341 65.1211 100.193C65.1211 102.044 66.6227 103.546 68.475 103.546Z" fill="#FF4832"/>
<path d="M80.5863 103.546C82.4386 103.546 83.9402 102.044 83.9402 100.193C83.9402 98.341 82.4386 96.8398 80.5863 96.8398C78.734 96.8398 77.2324 98.341 77.2324 100.193C77.2324 102.044 78.734 103.546 80.5863 103.546Z" fill="#FFB632"/>
<path d="M96.0516 100.193C96.0516 102.055 94.5609 103.546 92.6977 103.546C90.8344 103.546 89.3438 102.055 89.3438 100.193C89.3438 98.33 90.8344 96.8398 92.6977 96.8398C94.5609 96.8398 96.0516 98.33 96.0516 100.193Z" fill="#A0C14F"/>
<path d="M139.56 217.449H71.3637C66.1465 217.449 61.9541 213.258 61.9541 208.042V135.676C61.9541 130.461 66.1465 126.27 71.3637 126.27H139.56C144.777 126.27 148.969 130.461 148.969 135.676V208.042C148.969 213.258 144.777 217.449 139.56 217.449Z" fill="#C1EADD"/>
<path d="M244.463 161.568H166.95C161.733 161.568 157.541 157.377 157.541 152.161V135.676C157.541 130.461 161.733 126.27 166.95 126.27H244.463C249.68 126.27 253.872 130.461 253.872 135.676V152.161C253.872 157.377 249.68 161.568 244.463 161.568Z" fill="#C1EADD"/>
<path d="M244.462 215.586H166.95C161.732 215.586 157.54 211.395 157.54 206.179V179.45C157.54 174.234 161.732 170.043 166.95 170.043H244.462C249.679 170.043 253.872 174.234 253.872 179.45V206.179C253.872 211.395 249.679 215.586 244.462 215.586Z" fill="#C1EADD"/>
<path d="M198.905 80.0762H127.169C124.654 80.0762 122.604 78.0272 122.604 75.5126V39.6554C122.604 37.1408 124.654 35.0918 127.169 35.0918H198.905C201.421 35.0918 203.47 37.1408 203.47 39.6554V75.5126C203.564 78.0272 201.514 80.0762 198.905 80.0762Z" fill="#DFFFF5"/>
<path d="M198.905 35H127.169C124.654 35 122.604 37.049 122.604 39.5636V45.4312H203.564V39.6568C203.564 37.1421 201.514 35 198.905 35Z" fill="#08A979"/>
<path d="M131.827 40.2129C131.827 41.1443 131.082 41.9825 130.057 41.9825C129.126 41.9825 128.287 41.2374 128.287 40.2129C128.287 39.1884 129.032 38.4434 130.057 38.4434C130.989 38.5365 131.827 39.2816 131.827 40.2129Z" fill="#FF4832"/>
<path d="M138.163 40.2129C138.163 41.1443 137.417 41.9825 136.393 41.9825C135.461 41.9825 134.623 41.2374 134.623 40.2129C134.623 39.1884 135.368 38.4434 136.393 38.4434C137.417 38.5365 138.163 39.2816 138.163 40.2129Z" fill="#FFB632"/>
<path d="M144.498 40.2129C144.498 41.1443 143.752 41.9825 142.728 41.9825C141.796 41.9825 140.958 41.2374 140.958 40.2129C140.958 39.1884 141.703 38.4434 142.728 38.4434C143.752 38.5365 144.498 39.2816 144.498 40.2129Z" fill="#A0C14F"/>
<path d="M150.068 58.2313C149.007 58.2313 148.185 58.6315 147.603 59.4319C147.021 60.2262 146.729 61.3359 146.729 62.7608C146.729 65.7258 147.842 67.2084 150.068 67.2084C151.002 67.2084 152.134 66.9749 153.462 66.508V68.8728C152.37 69.3275 151.151 69.5549 149.805 69.5549C147.87 69.5549 146.39 68.9698 145.365 67.7995C144.34 66.6232 143.827 64.9376 143.827 62.7426C143.827 61.3601 144.079 60.1504 144.582 59.1136C145.086 58.0707 145.807 57.2733 146.748 56.7215C147.694 56.1637 148.801 55.8848 150.068 55.8848C151.36 55.8848 152.658 56.197 153.962 56.8216L153.053 59.1136C152.555 58.8771 152.055 58.6709 151.551 58.4951C151.048 58.3193 150.554 58.2313 150.068 58.2313Z" fill="#58575C"/>
<path d="M161.932 69.373L158.73 58.9408H158.648C158.763 61.063 158.821 62.4788 158.821 63.1883V69.373H156.301V56.0758H160.14L163.288 66.2443H163.342L166.681 56.0758H170.521V69.373H167.891V63.0791C167.891 62.782 167.895 62.4394 167.901 62.0513C167.913 61.6633 167.955 60.6325 168.028 58.959H167.946L164.516 69.373H161.932Z" fill="#58575C"/>
<path d="M181.73 65.6804C181.73 66.8809 181.296 67.8268 180.429 68.5181C179.567 69.2093 178.366 69.5549 176.826 69.5549C175.406 69.5549 174.151 69.2881 173.059 68.7545V66.1351C173.957 66.5353 174.715 66.8173 175.334 66.981C175.958 67.1447 176.529 67.2265 177.044 67.2265C177.663 67.2265 178.136 67.1083 178.463 66.8718C178.797 66.6354 178.964 66.2837 178.964 65.8168C178.964 65.5561 178.891 65.3256 178.745 65.1255C178.6 64.9194 178.385 64.7223 178.1 64.5344C177.821 64.3464 177.247 64.0462 176.38 63.6339C175.567 63.2519 174.958 62.8851 174.551 62.5334C174.145 62.1817 173.82 61.7724 173.578 61.3055C173.335 60.8386 173.214 60.2929 173.214 59.6684C173.214 58.4921 173.611 57.5674 174.406 56.8943C175.206 56.2213 176.31 55.8848 177.717 55.8848C178.409 55.8848 179.067 55.9666 179.692 56.1303C180.322 56.2941 180.981 56.5245 181.666 56.8216L180.756 59.0135C180.046 58.7225 179.458 58.5194 178.991 58.4042C178.53 58.2889 178.075 58.2313 177.626 58.2313C177.093 58.2313 176.683 58.3556 176.398 58.6042C176.113 58.8528 175.971 59.1772 175.971 59.5774C175.971 59.826 176.028 60.0443 176.143 60.2323C176.259 60.4142 176.441 60.5931 176.689 60.7689C176.944 60.9387 177.541 61.2479 178.482 61.6966C179.725 62.2909 180.577 62.8881 181.038 63.4884C181.499 64.0826 181.73 64.8133 181.73 65.6804Z" fill="#58575C"/>
<path d="M249.214 41.9856C249.214 43.662 247.816 45.059 246.139 45.059C244.462 45.059 243.065 43.662 243.065 41.9856C243.065 40.3091 244.462 38.9121 246.139 38.9121C247.816 38.9121 249.214 40.3091 249.214 41.9856Z" fill="#08A979"/>
<path d="M36.893 218.757C36.893 220.433 35.4955 221.831 33.8186 221.831C32.1416 221.831 30.7441 220.433 30.7441 218.757C30.7441 217.081 32.1416 215.684 33.8186 215.684C35.4955 215.684 36.893 217.081 36.893 218.757Z" fill="#08A979"/>
<path d="M96.0522 50.4604C96.0522 51.4849 95.2138 52.3231 94.189 52.3231C93.1642 52.3231 92.3257 51.4849 92.3257 50.4604C92.3257 49.4359 93.1642 48.5977 94.189 48.5977C95.2138 48.5977 96.0522 49.529 96.0522 50.4604Z" fill="#08A979"/>
<path d="M36.0546 137.728C36.0546 138.846 35.123 139.87 33.9118 139.87C32.7939 139.87 31.769 138.939 31.769 137.728C31.769 136.61 32.7007 135.586 33.9118 135.586C35.123 135.586 36.0546 136.517 36.0546 137.728Z" fill="#08A979"/>
<path d="M273.157 258.618C273.157 260.667 271.48 262.343 269.431 262.343C267.381 262.343 265.704 260.667 265.704 258.618C265.704 256.569 267.381 254.893 269.431 254.893C271.48 254.893 273.157 256.569 273.157 258.618Z" fill="#08A979"/>
<path d="M300.92 184.948C300.92 186.997 299.243 188.673 297.193 188.673C295.144 188.673 293.467 186.997 293.467 184.948C293.467 182.899 295.144 181.223 297.193 181.223C299.243 181.223 300.92 182.899 300.92 184.948Z" fill="#08A979"/>
<path d="M337.015 142.23C340.321 128.054 331.504 113.882 317.323 110.578C303.142 107.274 288.966 116.087 285.661 130.264C282.355 144.441 291.172 158.612 305.353 161.917C319.534 165.221 333.71 156.407 337.015 142.23Z" fill="#08A979"/>
<path d="M305.841 143.129L294.778 138.251V136.658L305.841 131.134V133.807L298.221 137.337L305.841 140.467V143.129Z" fill="white"/>
<path d="M316.145 129.107L310.074 145.389H306.988L313.059 129.107H316.145Z" fill="white"/>
<path d="M317.237 140.467L324.857 137.337L317.237 133.807V131.134L328.299 136.658V138.251L317.237 143.129V140.467Z" fill="white"/>
<path d="M108.759 282.928C119.055 272.635 119.055 255.947 108.759 245.654C98.4628 235.361 81.7693 235.361 71.4731 245.654C61.1768 255.947 61.1768 272.635 71.4731 282.928C81.7693 293.221 98.4628 293.221 108.759 282.928Z" fill="#DFFFF5"/>
<path d="M74.4417 269.621C74.4417 268.975 74.1967 268.481 73.7065 268.14C73.2237 267.798 72.5182 267.627 71.5898 267.627V264.966C72.5256 264.966 73.2349 264.802 73.7176 264.476C74.2004 264.149 74.4417 263.681 74.4417 263.072V262.983V259.442C74.4417 258.306 74.8019 257.508 75.5223 257.047C76.2427 256.58 77.509 256.346 79.3211 256.346V258.851C78.5859 258.874 78.0772 259.015 77.7949 259.275C77.5201 259.535 77.3827 259.917 77.3827 260.422V263.752C77.3382 265.147 76.4693 265.972 74.7759 266.224V266.358C76.5138 266.618 77.3827 267.405 77.3827 268.719V268.819V272.149C77.3827 272.654 77.5201 273.036 77.7949 273.296C78.0697 273.556 78.5785 273.697 79.3211 273.719V276.236C77.509 276.236 76.2427 276.002 75.5223 275.534C74.8019 275.074 74.4417 274.272 74.4417 273.129V269.621Z" fill="#58575C"/>
<path d="M81.5492 271.035C81.5492 270.411 81.7163 269.94 82.0505 269.621C82.3847 269.301 82.8712 269.142 83.5099 269.142C84.1263 269.142 84.6016 269.305 84.9358 269.632C85.2774 269.959 85.4483 270.426 85.4483 271.035C85.4483 271.622 85.2774 272.086 84.9358 272.427C84.5942 272.761 84.1189 272.928 83.5099 272.928C82.886 272.928 82.4033 272.765 82.0616 272.438C81.72 272.104 81.5492 271.636 81.5492 271.035Z" fill="#58575C"/>
<path d="M88.0551 271.035C88.0551 270.411 88.2222 269.94 88.5564 269.621C88.8906 269.301 89.377 269.142 90.0157 269.142C90.6322 269.142 91.1075 269.305 91.4417 269.632C91.7833 269.959 91.9541 270.426 91.9541 271.035C91.9541 271.622 91.7833 272.086 91.4417 272.427C91.1001 272.761 90.6247 272.928 90.0157 272.928C89.3919 272.928 88.9091 272.765 88.5675 272.438C88.2259 272.104 88.0551 271.636 88.0551 271.035Z" fill="#58575C"/>
<path d="M94.5609 271.035C94.5609 270.411 94.728 269.94 95.0623 269.621C95.3965 269.301 95.8829 269.142 96.5216 269.142C97.138 269.142 97.6134 269.305 97.9476 269.632C98.2892 269.959 98.46 270.426 98.46 271.035C98.46 271.622 98.2892 272.086 97.9476 272.427C97.6059 272.761 97.1306 272.928 96.5216 272.928C95.8978 272.928 95.415 272.765 95.0734 272.438C94.7318 272.104 94.5609 271.636 94.5609 271.035Z" fill="#58575C"/>
<path d="M105.556 273.129C105.556 273.96 105.404 274.588 105.1 275.011C104.795 275.434 104.29 275.742 103.585 275.935C102.886 276.136 101.917 276.236 100.677 276.236V273.719C101.412 273.704 101.917 273.571 102.192 273.318C102.474 273.066 102.615 272.676 102.615 272.149V268.819V268.696C102.615 268.058 102.834 267.542 103.273 267.148C103.711 266.747 104.357 266.484 105.211 266.358V266.224C103.525 265.972 102.66 265.147 102.615 263.752V260.422C102.615 259.902 102.478 259.516 102.203 259.264C101.928 259.011 101.42 258.874 100.677 258.851V256.346C101.917 256.346 102.89 256.446 103.596 256.646C104.301 256.839 104.803 257.151 105.1 257.582C105.404 258.005 105.556 258.625 105.556 259.442V262.983V263.095C105.556 263.718 105.783 264.186 106.236 264.498C106.696 264.81 107.42 264.966 108.408 264.966V267.627C107.48 267.627 106.771 267.779 106.28 268.084C105.798 268.388 105.556 268.901 105.556 269.621V273.129Z" fill="#58575C"/>
<path d="M88.8203 348.026C88.7451 349.728 88.2666 351.017 87.3848 351.892C86.5029 352.767 85.2588 353.204 83.6523 353.204C81.9639 353.204 80.6685 352.65 79.7661 351.543C78.8706 350.429 78.4229 348.843 78.4229 346.785V344.273C78.4229 342.222 78.8877 340.643 79.8174 339.536C80.7471 338.421 82.0391 337.864 83.6934 337.864C85.3203 337.864 86.5542 338.319 87.395 339.228C88.2427 340.137 88.7246 341.443 88.8408 343.145H85.8159C85.7886 342.092 85.6245 341.368 85.3237 340.971C85.0298 340.568 84.4863 340.366 83.6934 340.366C82.8867 340.366 82.3159 340.65 81.981 341.217C81.646 341.778 81.4683 342.704 81.4478 343.996V346.816C81.4478 348.299 81.6118 349.318 81.9399 349.872C82.2749 350.425 82.8457 350.702 83.6523 350.702C84.4453 350.702 84.9922 350.511 85.293 350.128C85.5938 349.738 85.7646 349.038 85.8057 348.026H88.8203Z" fill="#08A979"/>
<path d="M97.6805 344.293H94.8299V352.999H91.9281V344.293H89.098V341.904H97.6805V344.293Z" fill="#08A979"/>
<path d="M107.033 347.8C107.033 349.543 106.732 350.88 106.131 351.81C105.536 352.739 104.647 353.204 103.465 353.204C102.562 353.204 101.838 352.838 101.291 352.107V357.265H98.3888V341.904H101.075L101.178 342.919C101.732 342.106 102.487 341.699 103.444 341.699C104.627 341.699 105.515 342.13 106.11 342.991C106.712 343.853 107.019 345.172 107.033 346.949V347.8ZM104.141 347.072C104.141 345.999 104.022 345.24 103.782 344.796C103.55 344.352 103.153 344.129 102.593 344.129C101.998 344.129 101.564 344.379 101.291 344.878V350.077C101.55 350.555 101.991 350.794 102.613 350.794C103.188 350.794 103.584 350.552 103.803 350.066C104.028 349.581 104.141 348.826 104.141 347.8V347.072Z" fill="#08A979"/>
<path d="M113.217 352.999C113.135 352.828 113.053 352.541 112.971 352.138C112.451 352.849 111.747 353.204 110.858 353.204C109.929 353.204 109.156 352.896 108.541 352.281C107.933 351.666 107.628 350.87 107.628 349.892C107.628 348.73 107.998 347.831 108.736 347.195C109.481 346.56 110.551 346.235 111.945 346.221H112.827V345.329C112.827 344.83 112.742 344.478 112.571 344.273C112.4 344.068 112.15 343.965 111.822 343.965C111.098 343.965 110.735 344.389 110.735 345.237H107.834C107.834 344.211 108.216 343.367 108.982 342.704C109.754 342.034 110.729 341.699 111.904 341.699C113.121 341.699 114.061 342.017 114.724 342.653C115.394 343.282 115.729 344.184 115.729 345.36V350.579C115.743 351.536 115.879 352.285 116.139 352.825V352.999H113.217ZM111.504 350.928C111.826 350.928 112.099 350.863 112.325 350.733C112.55 350.603 112.718 350.449 112.827 350.271V347.964H112.13C111.638 347.964 111.248 348.122 110.961 348.436C110.681 348.75 110.541 349.171 110.541 349.697C110.541 350.518 110.862 350.928 111.504 350.928Z" fill="#08A979"/>
<path d="M125.348 352.999H122.446V348.744H119.893V352.999H116.981V341.904H119.893V346.344H122.446V341.904H125.348V352.999Z" fill="#08A979"/>
<path d="M132.116 341.904H135.008V352.999H132.116V346.18L129.532 352.999H126.62V341.904H129.532V348.713L132.116 341.904Z" fill="#08A979"/>
<path d="M136.28 341.904H139.192V350.589H141.766V341.904H144.668V350.61H146.186L145.981 356.291H143.294V352.999H136.28V341.904Z" fill="#08A979"/>
<path d="M152.103 352.999C152.021 352.828 151.939 352.541 151.857 352.138C151.337 352.849 150.633 353.204 149.745 353.204C148.815 353.204 148.042 352.896 147.427 352.281C146.819 351.666 146.515 350.87 146.515 349.892C146.515 348.73 146.884 347.831 147.622 347.195C148.367 346.56 149.437 346.235 150.831 346.221H151.713V345.329C151.713 344.83 151.628 344.478 151.457 344.273C151.286 344.068 151.037 343.965 150.708 343.965C149.984 343.965 149.621 344.389 149.621 345.237H146.72C146.72 344.211 147.102 343.367 147.868 342.704C148.641 342.034 149.615 341.699 150.79 341.699C152.007 341.699 152.947 342.017 153.61 342.653C154.28 343.282 154.615 344.184 154.615 345.36V350.579C154.629 351.536 154.766 352.285 155.025 352.825V352.999H152.103ZM150.391 350.928C150.712 350.928 150.985 350.863 151.211 350.733C151.436 350.603 151.604 350.449 151.713 350.271V347.964H151.016C150.524 347.964 150.134 348.122 149.847 348.436C149.567 348.75 149.427 349.171 149.427 349.697C149.427 350.518 149.748 350.928 150.391 350.928Z" fill="#08A979"/>
<path d="M160.062 352.999V341.904H164.091C165.383 341.904 166.375 342.171 167.065 342.704C167.762 343.237 168.111 344.003 168.111 345.001C168.111 345.514 167.961 345.975 167.66 346.385C167.366 346.789 166.935 347.1 166.368 347.318C167.058 347.462 167.602 347.752 167.998 348.19C168.401 348.621 168.603 349.167 168.603 349.831C168.603 351.943 167.273 352.999 164.614 352.999H160.062ZM162.953 348.405V350.61H164.686C165.062 350.61 165.325 350.518 165.476 350.333C165.626 350.148 165.701 349.878 165.701 349.523C165.701 349.113 165.619 348.826 165.455 348.662C165.291 348.498 165.055 348.412 164.748 348.405H162.953ZM162.953 346.406H164.132C164.522 346.406 164.795 346.324 164.953 346.16C165.117 345.989 165.199 345.739 165.199 345.411C165.199 344.693 164.864 344.321 164.194 344.293H162.953V346.406Z" fill="#08A979"/>
<path d="M182.14 347.8C182.14 349.543 181.839 350.88 181.238 351.81C180.643 352.739 179.754 353.204 178.572 353.204C177.669 353.204 176.945 352.838 176.398 352.107V357.265H173.496V341.904H176.182L176.285 342.919C176.839 342.106 177.594 341.699 178.551 341.699C179.734 341.699 180.622 342.13 181.217 342.991C181.819 343.853 182.126 345.172 182.14 346.949V347.8ZM179.248 347.072C179.248 345.999 179.129 345.24 178.889 344.796C178.657 344.352 178.26 344.129 177.7 344.129C177.105 344.129 176.671 344.379 176.398 344.878V350.077C176.657 350.555 177.098 350.794 177.72 350.794C178.295 350.794 178.691 350.552 178.91 350.066C179.135 349.581 179.248 348.826 179.248 347.8V347.072Z" fill="#08A979"/>
<path d="M188.324 352.999C188.242 352.828 188.16 352.541 188.078 352.138C187.558 352.849 186.854 353.204 185.965 353.204C185.036 353.204 184.263 352.896 183.648 352.281C183.04 351.666 182.735 350.87 182.735 349.892C182.735 348.73 183.105 347.831 183.843 347.195C184.588 346.56 185.658 346.235 187.052 346.221H187.934V345.329C187.934 344.83 187.849 344.478 187.678 344.273C187.507 344.068 187.257 343.965 186.929 343.965C186.205 343.965 185.842 344.389 185.842 345.237H182.941C182.941 344.211 183.323 343.367 184.089 342.704C184.861 342.034 185.836 341.699 187.011 341.699C188.228 341.699 189.168 342.017 189.831 342.653C190.501 343.282 190.836 344.184 190.836 345.36V350.579C190.85 351.536 190.986 352.285 191.246 352.825V352.999H188.324ZM186.611 350.928C186.933 350.928 187.206 350.863 187.432 350.733C187.657 350.603 187.825 350.449 187.934 350.271V347.964H187.237C186.745 347.964 186.355 348.122 186.068 348.436C185.788 348.75 185.648 349.171 185.648 349.697C185.648 350.518 185.969 350.928 186.611 350.928Z" fill="#08A979"/>
<path d="M196.815 345.186C196.815 344.372 196.507 343.965 195.892 343.965C195.557 343.965 195.294 344.064 195.102 344.263C194.911 344.454 194.815 344.734 194.815 345.104H191.913C191.913 344.099 192.269 343.282 192.98 342.653C193.691 342.024 194.61 341.709 195.738 341.709C196.976 341.709 197.946 341.993 198.65 342.561C199.354 343.121 199.706 343.914 199.706 344.939C199.706 345.432 199.58 345.886 199.327 346.303C199.074 346.713 198.722 347.042 198.271 347.288C199.337 347.739 199.871 348.597 199.871 349.861C199.871 350.873 199.495 351.683 198.743 352.292C197.991 352.9 196.986 353.204 195.728 353.204C194.559 353.204 193.605 352.89 192.867 352.261C192.136 351.625 191.77 350.777 191.77 349.718H194.672C194.672 350.107 194.781 350.412 195 350.63C195.219 350.849 195.516 350.958 195.892 350.958C196.247 350.958 196.518 350.842 196.702 350.61C196.887 350.371 196.979 350.046 196.979 349.636C196.979 348.768 196.641 348.32 195.964 348.292H194.518V346.365H195.892C196.507 346.358 196.815 345.965 196.815 345.186Z" fill="#08A979"/>
<path d="M209.418 347.8C209.418 349.543 209.117 350.88 208.515 351.81C207.921 352.739 207.032 353.204 205.849 353.204C204.947 353.204 204.222 352.838 203.676 352.107V357.265H200.774V341.904H203.46L203.563 342.919C204.116 342.106 204.872 341.699 205.829 341.699C207.011 341.699 207.9 342.13 208.495 342.991C209.096 343.853 209.404 345.172 209.418 346.949V347.8ZM206.526 347.072C206.526 345.999 206.406 345.24 206.167 344.796C205.935 344.352 205.538 344.129 204.978 344.129C204.383 344.129 203.949 344.379 203.676 344.878V350.077C203.935 350.555 204.376 350.794 204.998 350.794C205.573 350.794 205.969 350.552 206.188 350.066C206.413 349.581 206.526 348.826 206.526 347.8V347.072Z" fill="#08A979"/>
<path d="M215.602 352.999C215.52 352.828 215.438 352.541 215.356 352.138C214.836 352.849 214.132 353.204 213.243 353.204C212.314 353.204 211.541 352.896 210.926 352.281C210.317 351.666 210.013 350.87 210.013 349.892C210.013 348.73 210.382 347.831 211.121 347.195C211.866 346.56 212.936 346.235 214.33 346.221H215.212V345.329C215.212 344.83 215.127 344.478 214.956 344.273C214.785 344.068 214.535 343.965 214.207 343.965C213.483 343.965 213.12 344.389 213.12 345.237H210.218C210.218 344.211 210.601 343.367 211.367 342.704C212.139 342.034 213.113 341.699 214.289 341.699C215.506 341.699 216.446 342.017 217.109 342.653C217.779 343.282 218.114 344.184 218.114 345.36V350.579C218.128 351.536 218.264 352.285 218.524 352.825V352.999H215.602ZM213.889 350.928C214.211 350.928 214.484 350.863 214.71 350.733C214.935 350.603 215.103 350.449 215.212 350.271V347.964H214.515C214.023 347.964 213.633 348.122 213.346 348.436C213.066 348.75 212.925 349.171 212.925 349.697C212.925 350.518 213.247 350.928 213.889 350.928Z" fill="#08A979"/>
<path d="M224.247 342.52C225.443 342.52 226.39 342.991 227.087 343.935C227.791 344.871 228.143 346.149 228.143 347.77V347.923C228.143 349.537 227.743 350.822 226.943 351.779C226.143 352.736 225.057 353.214 223.683 353.214C222.302 353.214 221.211 352.695 220.412 351.656C219.619 350.617 219.222 349.191 219.222 347.38V346.918C219.236 344.444 219.591 342.492 220.289 341.063C220.986 339.628 222.035 338.729 223.436 338.367C224.106 338.162 224.537 337.967 224.728 337.782C224.92 337.591 225.016 337.338 225.016 337.023H227.333C227.333 338.117 227.087 338.934 226.595 339.474C226.102 340.007 225.224 340.414 223.959 340.694C223.255 340.872 222.712 341.21 222.329 341.709C221.946 342.202 221.69 342.885 221.56 343.76C222.332 342.933 223.228 342.52 224.247 342.52ZM223.672 344.929C222.681 344.929 222.168 345.801 222.134 347.544V347.923C222.134 348.942 222.264 349.677 222.524 350.128C222.79 350.579 223.177 350.805 223.683 350.805C224.687 350.805 225.207 349.913 225.241 348.128V347.708C225.241 345.855 224.718 344.929 223.672 344.929Z" fill="#08A979"/>
<path d="M228.739 347.093C228.739 345.411 229.135 344.092 229.928 343.135C230.721 342.178 231.818 341.699 233.22 341.699C234.635 341.699 235.739 342.178 236.532 343.135C237.324 344.092 237.721 345.418 237.721 347.113V347.821C237.721 349.509 237.328 350.829 236.542 351.779C235.756 352.729 234.655 353.204 233.24 353.204C231.818 353.204 230.711 352.729 229.918 351.779C229.132 350.822 228.739 349.496 228.739 347.8V347.093ZM231.651 347.821C231.651 349.803 232.18 350.794 233.24 350.794C234.218 350.794 234.744 349.967 234.819 348.313L234.829 347.093C234.829 346.081 234.689 345.333 234.409 344.847C234.129 344.355 233.732 344.109 233.22 344.109C232.727 344.109 232.341 344.355 232.061 344.847C231.787 345.333 231.651 346.081 231.651 347.093V347.821Z" fill="#08A979"/>
<path d="M246.376 344.293H243.526V352.999H240.624V344.293H237.794V341.904H246.376V344.293Z" fill="#08A979"/>
<path d="M250.94 348.928H250.181V352.999H247.29V341.904H250.181V346.067H250.899L252.581 341.904H256.221L253.298 347.021L256.446 352.999H252.601L250.94 348.928Z" fill="#08A979"/>
<path d="M261.143 353.204C259.653 353.204 258.491 352.76 257.657 351.871C256.823 350.982 256.406 349.711 256.406 348.057V347.175C256.406 345.425 256.789 344.075 257.554 343.125C258.32 342.174 259.417 341.699 260.846 341.699C262.241 341.699 263.29 342.147 263.994 343.042C264.698 343.931 265.057 345.25 265.071 347V348.426H259.298C259.339 349.246 259.52 349.848 259.841 350.23C260.162 350.606 260.658 350.794 261.328 350.794C262.299 350.794 263.109 350.463 263.758 349.8L264.896 351.553C264.541 352.045 264.025 352.445 263.348 352.753C262.671 353.054 261.936 353.204 261.143 353.204ZM259.318 346.396H262.22V346.129C262.206 345.466 262.097 344.963 261.892 344.622C261.687 344.28 261.331 344.109 260.825 344.109C260.32 344.109 259.95 344.29 259.718 344.652C259.492 345.015 259.359 345.596 259.318 346.396Z" fill="#08A979"/>
</svg>
