<svg width="21.99" height="19" viewBox="0 0 22 19" fill="none" xmlns="http://www.w3.org/2000/svg">
<path d="M11.0001 4.41667C13.5301 4.41667 15.5834 6.47 15.5834 9C15.5834 9.59583 15.4642 10.155 15.2534 10.6775L17.9301 13.3542C19.3142 12.1992 20.4051 10.705 21.0742 9C19.4884 4.97583 15.5742 2.125 10.9909 2.125C9.70758 2.125 8.47925 2.35417 7.34258 2.76667L9.32258 4.74667C9.84508 4.53583 10.4042 4.41667 11.0001 4.41667ZM1.83341 1.91417L3.92342 4.00417L4.34508 4.42583C2.82341 5.60833 1.63175 7.185 0.916748 9C2.50258 13.0242 6.41675 15.875 11.0001 15.875C12.4209 15.875 13.7776 15.6 15.0151 15.105L15.4001 15.49L18.0859 18.1667L19.2501 17.0025L2.99758 0.75L1.83341 1.91417ZM6.90258 6.98333L8.32342 8.40417C8.27758 8.59667 8.25008 8.79833 8.25008 9C8.25008 10.5217 9.47842 11.75 11.0001 11.75C11.2017 11.75 11.4034 11.7225 11.5959 11.6767L13.0167 13.0975C12.4026 13.4 11.7242 13.5833 11.0001 13.5833C8.47008 13.5833 6.41675 11.53 6.41675 9C6.41675 8.27583 6.60008 7.5975 6.90258 6.98333ZM10.8534 6.26833L13.7409 9.15583L13.7592 9.00917C13.7592 7.4875 12.5309 6.25917 11.0092 6.25917L10.8534 6.26833Z" fill="#DAE2E5"/>
</svg>
