<svg width="69" height="31" viewBox="0 0 69 31" fill="none" xmlns="http://www.w3.org/2000/svg">
<path d="M0.548808 27.1297C0.553334 12.554 12.3727 0.741205 26.9484 0.744812L53.9229 0.751486C62.2495 0.753546 68.9976 7.50543 68.995 15.8321C68.9924 24.1584 62.2407 30.9064 53.9143 30.9043L0.547639 30.8911L0.548808 27.1297Z" fill="#FF9F0C"/>
<path d="M26.0344 14.9856L28.7622 10.6269L30.5278 10.6274L26.9325 16.2671L30.6106 22.0024L28.8293 22.0019L26.0337 17.5637L23.2199 22.0005L21.4465 22.0001L25.1356 16.2666L21.5357 10.6251L23.2935 10.6256L26.0344 14.9856ZM39.3678 10.6295L40.8678 10.6299L40.8646 22.0049L39.3646 22.0045L39.3671 13.2389L33.7631 22.0032L32.2553 22.0028L32.2585 10.6278L33.7663 10.6282L33.7638 19.3938L39.3678 10.6295ZM51.0669 11.8668L47.4106 11.8659L47.4078 22.0065L45.9156 22.0062L45.9184 11.8655L42.27 11.8646L42.2703 10.6303L51.0672 10.6324L51.0669 11.8668Z" fill="white"/>
</svg>
