<svg width="39" height="23" viewBox="0 0 39 23" fill="none" xmlns="http://www.w3.org/2000/svg">
<path d="M0.00189481 15C0.00408438 6.71573 6.72159 0.001775 15.0059 0.00396457L27.9 0.00737254C33.9751 0.00897822 38.8987 4.93515 38.8971 11.0103C38.8955 17.0854 33.9693 22.009 27.8942 22.0074L4.46795e-05 22L0.00189481 15Z" fill="#FF9F0C"/>
<path d="M11.4363 10.3046L13.0776 7.60486L14.5542 7.60525L12.1333 11.2618L14.6274 15.0018L13.1645 15.0014L11.4563 12.2324L9.74656 15.0005L8.27684 15.0001L10.7729 11.2615L8.35399 7.60361L9.81688 7.604L11.4363 10.3046ZM20.966 7.60694L22.2307 7.60728L22.2287 15.0038L20.9641 15.0034L20.9655 9.60987L17.5529 15.0025L16.2883 15.0022L16.2902 7.60571L17.5549 7.60604L17.5535 13.0064L20.966 7.60694ZM30.0368 8.63473L27.5553 8.63408L27.5536 15.0052L26.289 15.0048L26.2907 8.63374L23.8571 8.6331L23.8573 7.60771L30.037 7.60934L30.0368 8.63473Z" fill="white"/>
</svg>
