<svg width="106" height="30" viewBox="0 0 106 30" fill="none" xmlns="http://www.w3.org/2000/svg">
<path d="M0 15C0 6.71573 6.71573 0 15 0H106C106 16.5685 92.5685 30 76 30H15C6.71573 30 0 23.2843 0 15Z" fill="#C1EADD"/>
<path d="M31.0625 20H29.5547V14.7422H23.8203V20H22.3203V8.625H23.8203V13.5156H29.5547V8.625H31.0625V20ZM33.1172 15.6953C33.1172 14.8672 33.2786 14.1224 33.6016 13.4609C33.9297 12.7995 34.3828 12.2891 34.9609 11.9297C35.5443 11.5703 36.2083 11.3906 36.9531 11.3906C38.1042 11.3906 39.0339 11.7891 39.7422 12.5859C40.4557 13.3828 40.8125 14.4427 40.8125 15.7656V15.8672C40.8125 16.6901 40.6536 17.4297 40.3359 18.0859C40.0234 18.737 39.5729 19.2448 38.9844 19.6094C38.401 19.974 37.7292 20.1562 36.9688 20.1562C35.8229 20.1562 34.8932 19.7578 34.1797 18.9609C33.4714 18.1641 33.1172 17.1094 33.1172 15.7969V15.6953ZM34.5703 15.8672C34.5703 16.8047 34.7865 17.5573 35.2188 18.125C35.6562 18.6927 36.2396 18.9766 36.9688 18.9766C37.7031 18.9766 38.2865 18.6901 38.7188 18.1172C39.151 17.5391 39.3672 16.7318 39.3672 15.6953C39.3672 14.7682 39.1458 14.0182 38.7031 13.4453C38.2656 12.8672 37.6823 12.5781 36.9531 12.5781C36.2396 12.5781 35.6641 12.862 35.2266 13.4297C34.7891 13.9974 34.5703 14.8099 34.5703 15.8672ZM42.7578 20V11.5469H46.0547C47.1797 11.5469 48.0417 11.7448 48.6406 12.1406C49.2448 12.5312 49.5469 13.1068 49.5469 13.8672C49.5469 14.2578 49.4297 14.612 49.1953 14.9297C48.9609 15.2422 48.6146 15.4818 48.1562 15.6484C48.6667 15.7682 49.0755 16.0026 49.3828 16.3516C49.6953 16.7005 49.8516 17.1172 49.8516 17.6016C49.8516 18.3776 49.5651 18.9714 48.9922 19.3828C48.4245 19.7943 47.6198 20 46.5781 20H42.7578ZM44.2031 16.2891V18.8359H46.5938C47.1979 18.8359 47.6484 18.724 47.9453 18.5C48.2474 18.276 48.3984 17.9609 48.3984 17.5547C48.3984 16.7109 47.7786 16.2891 46.5391 16.2891H44.2031ZM44.2031 15.1328H46.0703C47.4245 15.1328 48.1016 14.737 48.1016 13.9453C48.1016 13.1536 47.4609 12.7448 46.1797 12.7188H44.2031V15.1328ZM51.3828 15.6953C51.3828 14.8672 51.5443 14.1224 51.8672 13.4609C52.1953 12.7995 52.6484 12.2891 53.2266 11.9297C53.8099 11.5703 54.474 11.3906 55.2188 11.3906C56.3698 11.3906 57.2995 11.7891 58.0078 12.5859C58.7214 13.3828 59.0781 14.4427 59.0781 15.7656V15.8672C59.0781 16.6901 58.9193 17.4297 58.6016 18.0859C58.2891 18.737 57.8385 19.2448 57.25 19.6094C56.6667 19.974 55.9948 20.1562 55.2344 20.1562C54.0885 20.1562 53.1589 19.7578 52.4453 18.9609C51.737 18.1641 51.3828 17.1094 51.3828 15.7969V15.6953ZM52.8359 15.8672C52.8359 16.8047 53.0521 17.5573 53.4844 18.125C53.9219 18.6927 54.5052 18.9766 55.2344 18.9766C55.9688 18.9766 56.5521 18.6901 56.9844 18.1172C57.4167 17.5391 57.6328 16.7318 57.6328 15.6953C57.6328 14.7682 57.4115 14.0182 56.9688 13.4453C56.5312 12.8672 55.9479 12.5781 55.2188 12.5781C54.5052 12.5781 53.9297 12.862 53.4922 13.4297C53.0547 13.9974 52.8359 14.8099 52.8359 15.8672ZM64.2812 18.9766C64.7969 18.9766 65.2474 18.8203 65.6328 18.5078C66.0182 18.1953 66.2318 17.8047 66.2734 17.3359H67.6406C67.6146 17.8203 67.4479 18.2812 67.1406 18.7188C66.8333 19.1562 66.4219 19.5052 65.9062 19.7656C65.3958 20.026 64.8542 20.1562 64.2812 20.1562C63.1302 20.1562 62.2135 19.7734 61.5312 19.0078C60.8542 18.237 60.5156 17.1849 60.5156 15.8516V15.6094C60.5156 14.7865 60.6667 14.0547 60.9688 13.4141C61.2708 12.7734 61.7031 12.276 62.2656 11.9219C62.8333 11.5677 63.5026 11.3906 64.2734 11.3906C65.2214 11.3906 66.0078 11.6745 66.6328 12.2422C67.263 12.8099 67.599 13.5469 67.6406 14.4531H66.2734C66.2318 13.9062 66.0234 13.4583 65.6484 13.1094C65.2786 12.7552 64.8203 12.5781 64.2734 12.5781C63.5391 12.5781 62.9688 12.8438 62.5625 13.375C62.1615 13.901 61.9609 14.6641 61.9609 15.6641V15.9375C61.9609 16.9115 62.1615 17.6615 62.5625 18.1875C62.9635 18.7135 63.5365 18.9766 64.2812 18.9766ZM75.5469 12.7188H72.7109V20H71.2656V12.7188H68.4844V11.5469H75.5469V12.7188ZM78.5312 14.4609H80.7266C81.6849 14.4714 82.4427 14.7214 83 15.2109C83.5573 15.7005 83.8359 16.3646 83.8359 17.2031C83.8359 18.0469 83.5495 18.724 82.9766 19.2344C82.4036 19.7448 81.6328 20 80.6641 20H77.0859V11.5469H78.5312V14.4609ZM78.5312 15.6406V18.8203H80.6797C81.2214 18.8203 81.6406 18.6823 81.9375 18.4062C82.2344 18.125 82.3828 17.7422 82.3828 17.2578C82.3828 16.7891 82.237 16.4062 81.9453 16.1094C81.6589 15.8073 81.2552 15.651 80.7344 15.6406H78.5312Z" fill="#252525"/>
</svg>
