<svg width="24" height="24" viewBox="0 0 24 24" fill="none" xmlns="http://www.w3.org/2000/svg">
<circle cx="12" cy="12" r="12" fill="#02C087"/>
<path d="M11.7289 4.57198C11.8373 4.34329 12.1627 4.34329 12.2711 4.57198L14.2245 8.69354C14.2683 8.78581 14.3559 8.8495 14.4572 8.86258L18.9807 9.44679C19.2317 9.4792 19.3322 9.78869 19.1482 9.96244L15.8321 13.0939C15.7578 13.164 15.7243 13.2671 15.7432 13.3674L16.5854 17.8501C16.6321 18.0988 16.3689 18.29 16.1468 18.1687L12.1438 15.9825C12.0542 15.9336 11.9458 15.9336 11.8562 15.9825L7.85324 18.1687C7.63113 18.29 7.36787 18.0988 7.4146 17.8501L8.25682 13.3674C8.27568 13.2671 8.24219 13.164 8.16795 13.0939L4.85176 9.96244C4.66776 9.78869 4.76832 9.4792 5.0193 9.44679L9.54279 8.86258C9.64406 8.8495 9.73173 8.78581 9.77546 8.69354L11.7289 4.57198Z" fill="white"/>
</svg>
