<svg width="360" height="383" fill="none" xmlns="http://www.w3.org/2000/svg"><g filter="url(#filter0_d_2076_56657)"><path d="M4 176C4 78.798 82.798 0 180 0s176 78.798 176 176-78.798 176-176 176S4 273.202 4 176z" fill="#F9F9F9"/><path d="M157.96 287.256s6.732-3.856 15.017-8.675c8.285-4.819 22.192-4.523 31.069.593l3.995 2.299c8.877 5.116 8.877 13.42 0 18.536L152.93 331.89c-8.877 5.116-23.154 5.116-32.031 0l-16.053-9.268c-8.877-5.115-23.154-5.115-32.031 0l-3.995 2.299c-8.877 5.116-9.32 13.123-.961 17.943l15.017 8.674" stroke="#58575C" stroke-width="2.226" stroke-miterlimit="10" stroke-linecap="round" stroke-linejoin="round"/><path d="M73.555 355.102v1.261c0 2.076 1.405 4.522 3.18 5.56l11.837 6.822 11.983-6.97v-10.454l-11.688-5.413c-1.849-.889-4.808-.741-6.583.297l-5.622 3.262c-1.702 1.112-3.107 3.559-3.107 5.635z" fill="#37474F"/><path d="M88.867 345.983c-1.849-.89-4.808-.742-6.583.296l-5.622 3.263c-1.776 1.038-1.702 2.52.147 3.41l11.689 5.413 12.057-6.97-11.688-5.412z" fill="#455A64"/><path opacity=".1" d="M87.388 355.846c-.888.519-1.627 1.779-1.627 2.817v8.601l2.737 1.557 11.984-6.97v-10.454l-3.033-1.409-10.06 5.858z" fill="#000"/><path d="M101.591 349.617c-.296-.148-.666-.148-1.11.148l-11.835 6.821c-.888.519-1.628 1.78-1.628 2.818v10.232c0 .519.148.889.444 1.038.296.148 1.257.741 1.48.889.295.149.665.149 1.109-.074l11.836-6.821c.888-.519 1.627-1.779 1.627-2.817v-10.232c0-.519-.148-.89-.443-1.038-.222-.297-1.184-.816-1.48-.964z" fill="#37474F"/><path d="M90.125 357.408l11.836-6.822c.888-.519 1.627-.074 1.627.89v10.232c0 1.038-.739 2.298-1.627 2.817l-11.836 6.822c-.888.519-1.627.074-1.627-.89v-10.232c.073-1.038.74-2.298 1.627-2.817z" fill="#455A64"/><path d="M102.405 365.115l-9.765-5.635-1.035.594v6.969l9.764 5.635c.592.371 1.184.371 1.554.148.148-.074.887-.519 1.035-.593.37-.222.666-.741.666-1.483v-1.779c0-1.409-.962-3.114-2.219-3.856zm-1.776 1.854c.814.445 1.48 1.631 1.48 2.595 0 .148 0 .297-.074.445-.148 0-.222-.074-.37-.148-.814-.445-1.479-1.632-1.479-2.595 0-.149 0-.297.074-.445.074 0 .221.074.369.148z" fill="#2EEAB1"/><path opacity=".85" d="M102.405 365.115l-9.765-5.635-1.035.594 9.764 5.635c1.258.741 2.219 2.446 2.219 3.855v1.779c0 .742-.295 1.261-.665 1.483h.074c.148-.148.887-.519 1.035-.593.37-.222.666-.741.666-1.483v-1.779c-.074-1.409-1.11-3.114-2.293-3.856z" fill="#fff"/><path d="M104.624 369.045v1.779c0 .741-.222 1.186-.666 1.483-.148.074-.887.519-1.035.593h-.074c.443-.222.665-.741.665-1.483v-1.779c0-.742-.222-1.483-.665-2.225l1.035-.593c.518.668.74 1.483.74 2.225z" fill="#2EEAB1"/><path opacity=".6" d="M104.624 369.045v1.779c0 .741-.222 1.186-.666 1.483-.148.074-.887.519-1.035.593h-.074c.443-.222.665-.741.665-1.483v-1.779c0-.742-.222-1.483-.665-2.225l1.035-.593c.518.668.74 1.483.74 2.225z" fill="#fff"/><path opacity=".05" d="M104.624 369.045v1.779c0 .741-.222 1.186-.666 1.483-.148.074-.887.519-1.035.593h-.074c.443-.222.665-.741.665-1.483v-1.779c0-.742-.222-1.483-.665-2.225l1.035-.593c.518.668.74 1.483.74 2.225z" fill="#000"/><path opacity=".6" d="M100.185 367.266c0-.148 0-.297.074-.445-.666-.148-1.11.222-1.11 1.038 0 .964.666 2.15 1.48 2.595.666.445 1.257.223 1.479-.445-.148 0-.222-.074-.369-.148-.888-.519-1.554-1.631-1.554-2.595z" fill="#fff"/><path opacity=".1" d="M100.185 367.266c0-.148 0-.297.074-.445-.666-.148-1.11.222-1.11 1.038 0 .964.666 2.15 1.48 2.595.666.445 1.257.223 1.479-.445-.148 0-.222-.074-.369-.148-.888-.519-1.554-1.631-1.554-2.595z" fill="#000"/><path opacity=".7" d="M101.295 365.709l-9.765-5.635v6.97l9.765 5.635c1.258.741 2.219.148 2.219-1.335v-1.779c.074-1.335-.961-3.114-2.219-3.856zm-.666 4.745c-.814-.445-1.48-1.631-1.48-2.595 0-.964.666-1.334 1.48-.889.814.444 1.48 1.631 1.48 2.595 0 .963-.666 1.408-1.48.889z" fill="#fff"/><path d="M110.32 360.514l-9.765-5.635-1.036.593v6.97l9.765 5.634c.592.371 1.184.371 1.554.149.148-.074.887-.519 1.035-.593.37-.223.666-.742.666-1.483v-1.78c.074-1.408-.962-3.114-2.219-3.855zm-1.776 1.853c.814.445 1.48 1.632 1.48 2.595 0 .149 0 .297-.074.445-.148 0-.222-.074-.37-.148-.814-.445-1.479-1.631-1.479-2.595 0-.148 0-.297.074-.445.074 0 .222.074.369.148z" fill="#2EEAB1"/><path opacity=".85" d="M110.32 360.514l-9.765-5.635-1.036.593 9.765 5.635c1.258.741 2.219 2.447 2.219 3.855v1.78c0 .741-.295 1.26-.739 1.483h.074c.148-.074.887-.519 1.035-.593.444-.223.666-.742.666-1.483v-1.78c.074-1.408-.962-3.114-2.219-3.855z" fill="#fff"/><path d="M112.613 364.443v1.779c0 .742-.222 1.187-.665 1.483-.148.075-.888.519-1.036.594h-.074c.444-.223.666-.742.666-1.483v-1.78c0-.741-.222-1.483-.666-2.224l1.036-.593c.443.667.739 1.483.739 2.224z" fill="#2EEAB1"/><path opacity=".6" d="M112.613 364.443v1.779c0 .742-.222 1.187-.665 1.483-.148.075-.888.519-1.036.594h-.074c.444-.223.666-.742.666-1.483v-1.78c0-.741-.222-1.483-.666-2.224l1.036-.593c.443.667.739 1.483.739 2.224z" fill="#fff"/><path opacity=".05" d="M112.613 364.443v1.779c0 .742-.222 1.187-.665 1.483-.148.075-.888.519-1.036.594h-.074c.444-.223.666-.742.666-1.483v-1.78c0-.741-.222-1.483-.666-2.224l1.036-.593c.443.667.739 1.483.739 2.224z" fill="#000"/><path opacity=".6" d="M108.101 362.664c0-.148 0-.296.074-.445-.666-.148-1.11.223-1.11 1.039 0 .963.666 2.15 1.479 2.595.666.444 1.258.222 1.48-.445-.148 0-.222-.074-.37-.149-.888-.519-1.553-1.631-1.553-2.595z" fill="#fff"/><path opacity=".1" d="M108.101 362.664c0-.148 0-.296.074-.445-.666-.148-1.11.223-1.11 1.039 0 .963.666 2.15 1.479 2.595.666.444 1.258.222 1.48-.445-.148 0-.222-.074-.37-.149-.888-.519-1.553-1.631-1.553-2.595z" fill="#000"/><path opacity=".7" d="M109.284 361.108l-9.765-5.635v6.969l9.765 5.635c1.258.742 2.219.148 2.219-1.335v-1.779c0-1.335-.961-3.114-2.219-3.855zm-.74 4.745c-.813-.445-1.479-1.631-1.479-2.595 0-.964.666-1.335 1.479-.89.814.445 1.48 1.631 1.48 2.595 0 .964-.666 1.409-1.48.89z" fill="#fff"/><path d="M143.979 321.578l27.815-16.09c2.885-1.631 4.29-3.855 4.29-6.005v-3.856l-28.85-16.311c-1.553-.89-2.737-3.04-2.737-4.82v-34.402l-48.602 28.174v34.403c0 1.779 1.258 3.93 2.738 4.819l24.559 14.162c5.77 3.188 15.091 3.188 20.787-.074z" fill="#13D99D"/><path opacity=".6" d="M143.979 321.578l27.815-16.09c2.885-1.631 4.29-3.855 4.29-6.005v-3.856l-28.85-16.311c-1.553-.89-2.737-3.04-2.737-4.82v-34.402l-48.602 28.174v34.403c0 1.779 1.258 3.93 2.738 4.819l24.559 14.162c5.77 3.188 15.091 3.188 20.787-.074z" fill="#000"/><path opacity=".3" d="M107.584 308.676v3.856l-8.877-5.116c-1.554-.89-2.737-3.04-2.737-4.82v-34.402l9.247-5.339c.221 2.373.369 4.82.591 7.192l-6.51 3.782v26.84c0 1.779 1.258 3.929 2.738 4.819l5.548 3.188z" fill="#000"/><path d="M99.298 300.597c0 1.779 1.258 3.929 2.737 4.819l21.231 12.234c5.77 3.336 15.017 3.336 20.787 0l27.815-16.09c5.77-3.336 5.77-8.674 0-12.011l-21.231-12.233c-1.554-.89-2.737-3.04-2.737-4.82v-26.84l-48.602 28.175v26.766z" fill="#13D99D"/><path opacity=".3" d="M99.298 300.597c0 1.779 1.258 3.929 2.737 4.819l21.231 12.234c5.77 3.336 15.017 3.336 20.787 0l27.815-16.09c5.77-3.336 5.77-8.674 0-12.011l-21.231-12.233c-1.554-.89-2.737-3.04-2.737-4.82v-26.84l-48.602 28.175v26.766z" fill="#000"/><path opacity=".5" d="M156.259 280.578l-5.622-3.262c-1.554-.89-2.737-3.04-2.737-4.82v-26.84l-48.602 28.175v26.84c0 1.779 1.258 3.929 2.737 4.819l5.549 3.188 48.675-28.1z" fill="#000"/><path d="M176.158 295.551v3.855c0 2.15-1.405 4.375-4.29 6.006l-27.815 16.089c-2.737 1.631-6.288 2.373-9.912 2.447v-3.856c3.624-.074 7.175-.889 9.912-2.446l27.815-16.164c2.811-1.557 4.29-3.781 4.29-5.931z" fill="#13D99D"/><path opacity=".5" d="M176.158 295.551v3.855c0 2.15-1.405 4.375-4.29 6.006l-27.815 16.089c-2.737 1.631-6.288 2.373-9.912 2.447v-3.856c3.624-.074 7.175-.889 9.912-2.446l27.815-16.164c2.811-1.557 4.29-3.781 4.29-5.931z" fill="#000"/><path d="M21.255 334.04c1.775 1.038 4.808.963 6.732-.149 23.893-13.79 164.002-94.903 187.895-108.768 1.924-1.113 3.477-3.782 3.477-3.04V50.589c0-5.19-1.479-7.785-3.255-8.823-1.775-1.038-4.808-.964-6.731.148L21.477 150.608C19.553 151.721 18 154.39 18 156.614v171.494c0 2.224 1.48 4.894 3.255 5.932z" fill="#13D99D"/><path d="M27.987 333.889L215.882 225.12c1.924-1.112 3.477-3.781 3.477-3.04V50.586c0-5.19-1.553-6.08-3.477-4.968L27.987 154.387c-1.924 1.112-3.477 3.781-3.477 6.006v171.494c0 2.224 1.553 3.114 3.477 2.002z" fill="#27DEBF"/><path opacity=".5" d="M27.987 333.889L215.882 225.12c1.924-1.112 3.477-3.781 3.477-3.04V50.586c0-5.19-1.553-6.08-3.477-4.968L27.987 154.387c-1.924 1.112-3.477 3.781-3.477 6.006v171.494c0 2.224 1.553 3.114 3.477 2.002z" fill="#000"/><path d="M27.469 337.823c-1.924.815-4.587.815-6.214-.149-1.775-1.038-3.255-3.633-3.255-5.931v-10.899l6.51 3.781v10.899c0 2.076 1.257 2.966 2.959 2.299z" fill="#13D99D"/><path opacity=".5" d="M27.469 337.823c-1.924.815-4.587.815-6.214-.149-1.775-1.038-3.255-3.633-3.255-5.931v-10.899l6.51 3.781v10.899c0 2.076 1.257 2.966 2.959 2.299z" fill="#000"/><path d="M24.51 324.698v10.899c0 2.225 1.553 3.114 3.477 2.002l187.895-108.768c1.924-1.113 3.477-3.782 3.477-6.006v-10.899L24.509 324.698z" fill="#08A979"/><path opacity=".3" d="M24.51 324.624v10.899c0 2.224 1.553 3.114 3.477 2.002l187.895-108.769c1.924-1.112 3.477-3.781 3.477-6.005v-10.899L24.509 324.624z" fill="#000"/><path d="M31.02 310.977V162.542c0-1.335.961-2.966 2.07-3.633L210.779 56.146c1.184-.668 2.071-.148 2.071 1.186v148.436c0 1.334-.961 2.965-2.071 3.633L33.091 312.164c-1.184.667-2.072.148-2.072-1.187z" fill="#27DEBF"/><path d="M31.02 310.977V162.542c0-1.335.961-2.966 2.07-3.633L210.779 56.146c1.184-.668 2.071-.148 2.071 1.186v148.436c0 1.334-.961 2.965-2.071 3.633L33.091 312.164c-1.184.667-2.072.148-2.072-1.187z" fill="#0F1010"/><path opacity=".7" d="M25.557 156.93c-.592 1.112-1.035 2.298-1.035 3.41v164.303l-6.51-3.782V156.559c0-1.112.37-2.373 1.035-3.411l6.51 3.782z" fill="#000"/><path opacity=".3" d="M219.21 48.08c-.222-1.78-1.133-3.806-3.32-2.45L27.988 154.356c-.962.519-1.775 1.483-2.441 2.595l-6.51-3.781c.666-1.038 1.48-2.002 2.441-2.595L209.38 41.889c1.924-1.112 4.786-1.198 6.636-.16 1.786 1.002 3.035 3.552 3.194 6.351z" fill="#000"/><path d="M48.848 320.021s-.444.296-1.332.445c-.74.074-1.48-.075-1.997-.371-.888-.519-1.627-1.854-1.627-2.966V182.484l3.255 1.854v134.719c0 .815.37 1.26.961 1.26.074-.074.37-.074.74-.296z" fill="#F0F0F0"/><path d="M48.108 319.871c-.518 0-.592-.593-.592-.815V173.363l4.513-2.595c.591-.296 1.035-1.779 1.923-4.967.444-1.706 1.184-4.226 1.553-4.523l41.056-23.8c.37.148 1.11 1.557 1.554 2.373 1.035 1.779 1.627 2.743 2.293 2.743.148 0 .222 0 .296-.074l126.275-73.032v145.173c0 .964-.666 2.151-1.554 2.67l-176.8 102.318c-.221.148-.37.222-.517.222z" fill="#FAFAFA"/><path d="M226.609 70.155V214.66c0 .815-.592 1.927-1.332 2.298L48.404 319.351c-.222.149-.296.149-.37.149-.148 0-.148-.445-.148-.445v-145.47l4.364-2.521c.666-.37 1.11-1.779 2.072-5.19.443-1.557 1.11-3.855 1.405-4.3l40.76-23.578c.37.371.962 1.409 1.332 2.076 1.11 1.928 1.701 2.966 2.663 2.966.148 0 .37-.074.518-.148l125.609-72.735zm.813-1.335l-126.866 73.402h-.148c-.962 0-2.885-5.19-3.92-5.19h-.149l-41.13 23.8c-.961.52-2.515 8.898-3.477 9.491l-4.734 2.743v145.989c0 .815.37 1.26.962 1.26.222 0 .517-.074.74-.222l176.873-102.392c.962-.519 1.701-1.928 1.701-2.966V68.82h.148z" fill="#E0E0E0"/><path d="M45.519 178.477c-.888-.519-1.627-1.854-1.627-2.966v-13.494c0-1.112.74-2.447 1.701-2.966L222.467 56.659c.961-.52 2.441-.593 3.328-.074.888.519 1.628 1.853 1.628 2.965v13.495c0 1.112-.74 2.446-1.701 2.965L48.848 178.403c-.962.519-2.441.593-3.329.074z" fill="#13D99D"/><path opacity=".4" d="M227.423 59.254c-.148-.89-.814-1.186-1.702-.742L48.848 160.905a3.87 3.87 0 00-1.184 1.26l-3.255-1.854c.296-.519.74-1.038 1.184-1.26L222.466 56.659c.962-.52 2.442-.593 3.329-.074.814.519 1.554 1.63 1.628 2.669z" fill="#fff"/><path opacity=".1" d="M47.59 162.24c-.296.519-.518 1.187-.518 1.706v20.463l-3.255-1.853V161.87c0-.149 0-.297.074-.445.074-.371.222-.742.444-1.038l3.255 1.853z" fill="#000"/><path d="M227.423 59.548v9.268l-126.867 73.402c-.962.519-1.701.074-1.701-.964v-3.485c0-1.112-.74-1.557-1.702-.964l-41.796 24.171c-.961.519-1.701 1.928-1.701 2.966v3.485c0 1.112-.74 2.446-1.701 2.965l-4.735 2.744v-9.268c0-1.112.74-2.447 1.702-2.966L225.72 58.584c.962-.593 1.702-.148 1.702.964z" fill="#13D99D"/><path d="M219.359 65.328c1.184-.668 2.145-.149 2.145 1.26s-.961 3.04-2.145 3.781c-1.183.668-2.145.149-2.145-1.26s.962-3.04 2.145-3.781zm-7.841 4.523c1.183-.667 2.145-.148 2.145 1.26 0 1.41-.962 3.04-2.145 3.782-1.184.667-2.145.148-2.145-1.26 0-1.41.961-3.115 2.145-3.782zm-7.767 4.519c1.183-.667 2.145-.148 2.145 1.261 0 1.409-.962 3.04-2.145 3.781-1.184.668-2.146.149-2.146-1.26-.074-1.409.962-3.114 2.146-3.781z" fill="#fff"/><path d="M227.423 68.82v11.27L47.147 184.41v-11.27l3.55-2.076c.962-.519 1.258-1.408 1.702-2.965l1.183-4.152c.37-1.483.74-2.447 1.702-2.966l41.13-23.8c.961-.519 1.701-.593 2.44.593l1.48 2.669c.518.964.814 1.483 1.776.964L227.423 68.82z" fill="#E6E6E6"/><path d="M47.147 173.139v11.27l-3.255-1.928v-11.196l3.255 1.854z" fill="#E0E0E0"/><path opacity=".5" d="M55.062 173.958l-2.737 1.557 1.035-2.002a.634.634 0 000-.519c-.074-.074-.222 0-.296.148l-1.48 2.818s0 .074-.073.074v.296s0 .075.074.075l1.48 1.112h.147c.074 0 .148-.074.148-.223.074-.222.074-.37 0-.445l-1.035-.815 2.736-1.557c.148-.074.222-.297.222-.445 0-.148-.148-.148-.221-.074zm2.218-1.336l2.738-1.557-1.036-.815c-.074-.074-.074-.297 0-.445.074-.223.222-.297.296-.223l1.48 1.113.073.074v.296s0 .075-.074.075l-1.48 2.817c-.073.074-.073.148-.147.148h-.148c-.074-.074-.074-.296 0-.519l1.036-2.002-2.737 1.557c-.148.075-.222 0-.222-.222 0 0 .074-.222.222-.297zm8.878-7.784c0-.149-.148-.149-.222 0l-.37.889c-.666-.074-1.405.52-1.923 1.632-.666 1.408-.666 3.114 0 3.781.37.297.74.297 1.183.074.444-.222.888-.741 1.184-1.483.074-.148.074-.37 0-.445-.074-.074-.222 0-.296.149-.518 1.038-1.331 1.557-1.85 1.038-.517-.519-.517-1.706 0-2.818.37-.741.889-1.186 1.332-1.26l-.296.667c-.074.148 0 .371.074.297l1.11-.742c.074-.074.148-.222.148-.296l-.074-1.483zm29.072-22.613l.962-2.076c.148-.223.148-.519 0-.667-.148-.149-.296 0-.444.222l-.962 2.076-.962-.964c-.148-.148-.296 0-.444.223-.147.222-.147.519 0 .667l.962.964-.888 2.15c-.147.222-.147.519 0 .667.074.074.148.074.222 0l.222-.222.962-2.076.962.964c.074.074.148.074.222 0l.222-.223c.147-.222.147-.519 0-.667l-1.036-1.038z" fill="#455A64"/><path d="M69.783 167.431v-3.485c0-1.112.74-2.447 1.701-2.966l144.547-83.634c.961-.519 1.701-.074 1.701.964v3.485c0 1.112-.74 2.447-1.701 2.966L71.484 168.395c-.962.593-1.701.148-1.701-.964z" fill="#FAFAFA"/><path d="M214.995 79.204l.444.964c0 .074.074.074.148.074l1.035-.37c.148-.075.222.147.074.37l-.739 1.408c-.074.075-.074.223-.074.297l.148 1.26c0 .223-.148.445-.296.445l-.888-.148c-.074 0-.148 0-.148.074l-.888 1.186c-.148.149-.296.149-.296-.148l.148-1.483c0-.074 0-.148-.074-.222l-.739-.519c-.148-.074-.074-.37.074-.52l1.109-.815c.074-.074.148-.148.148-.222l.444-1.483c.074-.222.296-.37.37-.148z" stroke="#E0E0E0" stroke-width=".599" stroke-miterlimit="10"/><path opacity=".5" d="M219.73 76.898c-.222 0-.444-.074-.518-.296-.148-.297-.074-.668.222-.816l4.882-2.817c.296-.149.666-.075.814.222.148.297.074.667-.222.816l-4.883 2.817c-.074.074-.148.074-.295.074zm0 2.817c-.222 0-.444-.075-.518-.297-.148-.297-.074-.667.222-.816l4.882-2.817c.296-.148.666-.074.814.222.148.297.074.668-.222.816l-4.883 2.818c-.074 0-.148.074-.295.074zm0 2.824c-.222 0-.444-.074-.518-.297-.148-.296-.074-.667.222-.815l4.882-2.818c.296-.148.666-.074.814.223.148.296.074.667-.222.815l-4.883 2.818c-.074 0-.148.074-.295.074z" fill="#455A64"/><path d="M95.452 162.757v4.3c0 .89.591 1.26 1.405.816l57.627-33.439v-7.489l-57.627 33.439c-.74.445-1.405 1.483-1.405 2.373z" fill="#E6E6E6"/><path d="M161.807 122.724c.74-.445 1.406-.074 1.406.815v4.301c0 .889-.592 1.927-1.406 2.372l-7.249 4.226v-7.488l7.249-4.226z" fill="#13D99D"/><path d="M161.215 128.655l-.814-.223c.074-.37.148-.667.148-1.038 0-.815-.296-1.483-.739-1.705-.37-.222-.74-.148-1.184.074-.888.519-1.627 2.002-1.627 3.411 0 .815.295 1.483.739 1.705.148.074.296.148.518.148.222 0 .444-.074.666-.222.518-.297 1.036-.964 1.331-1.78l.814.223h.074c.148 0 .222-.074.296-.223.074-.148-.074-.296-.222-.37zm-2.589 1.557c-.222.148-.444.148-.592.074-.296-.148-.444-.593-.444-1.186 0-1.113.592-2.447 1.332-2.892.148-.074.222-.148.37-.148.074 0 .148 0 .222.074.296.148.444.593.444 1.186 0 1.186-.592 2.521-1.332 2.892z" fill="#FAFAFA"/><path d="M71.484 175.069l-8.36 4.82c-.739.445-1.405 1.483-1.405 2.372v4.301c0 .889.592 1.26 1.406.815l8.359-4.819c.74-.445 1.405-1.483 1.405-2.373v-4.3c0-.964-.591-1.26-1.405-.816z" fill="#13D99D"/><path d="M95.526 240.4c-.666 0-1.332-.297-1.85-.742-.666-.667-1.035-1.557-1.035-2.669v-5.486l-14.647 8.452c-.444.297-.962.371-1.406.371-.666 0-1.331-.297-1.85-.742-.665-.667-1.035-1.557-1.035-2.669v-9.045a14.2 14.2 0 01.814-4.746l16.718-41.817c.37-.963.814-1.705 1.184-2.224.444-.519.961-1.038 1.701-1.409l8.359-4.819c.444-.296.962-.371 1.406-.371.666 0 1.331.223 1.849.742.666.667 1.036 1.557 1.036 2.669v29.509l1.997-1.112c.444-.297.962-.371 1.406-.371.665 0 1.331.223 1.775.742.666.667 1.036 1.557 1.036 2.743v9.046c0 .889-.222 1.779-.592 2.669-.444.964-1.036 1.705-1.775 2.076l-3.847 2.224v7.637c0 .89-.222 1.779-.592 2.669-.444.964-1.036 1.705-1.775 2.076l-7.25 4.152c-.592.297-1.11.445-1.627.445zm-5.03-25.58l2.514-1.483v-4.893l-2.515 6.376zm35.951 7.043h-.444c-2.441-.148-4.512-1.038-6.213-2.743-1.554-1.557-2.664-3.782-3.403-6.525-.666-2.521-1.11-5.412-1.184-8.601-.074-2.298-.148-4.819-.148-7.488 0-2.669.074-5.339.074-7.785.148-3.263.518-6.525 1.184-9.787a44.416 44.416 0 013.033-9.491c1.405-2.965 3.107-5.783 5.178-8.304a27.787 27.787 0 017.619-6.45c2.885-1.705 5.4-2.521 7.694-2.521h.444c2.441.148 4.512 1.038 6.213 2.743 1.554 1.557 2.664 3.782 3.403 6.525a37.697 37.697 0 011.184 8.601c.074 2.446.148 5.041.148 7.711 0 2.669-.074 5.19-.074 7.636-.148 3.263-.518 6.525-1.184 9.787a44.416 44.416 0 01-3.033 9.491c-1.405 2.965-3.107 5.783-5.178 8.304a27.787 27.787 0 01-7.619 6.45c-2.959 1.557-5.474 2.447-7.694 2.447zM135.694 171c-.148 0-.666.075-1.553.594a8.03 8.03 0 00-2.22 1.927c-.591.816-1.109 1.706-1.479 2.669a22.004 22.004 0 00-.888 3.337c-.222 1.26-.296 2.521-.37 3.855a228.277 228.277 0 000 14.236c0 1.335.148 2.447.296 3.411.148.963.444 1.482.666 1.779.148.222.37.297.518.297.222 0 .74-.075 1.627-.594a8.03 8.03 0 002.22-1.927 15.85 15.85 0 001.553-2.669c.37-1.038.74-2.151.888-3.263.222-1.26.296-2.521.37-3.929.148-4.894.148-9.639 0-14.236-.074-1.26-.222-2.373-.37-3.411-.148-.815-.37-1.408-.666-1.853-.222-.148-.37-.223-.592-.223zm40.982 22.392c-.666 0-1.331-.296-1.849-.741-.666-.668-1.036-1.557-1.036-2.669v-5.487l-14.647 8.452c-.444.297-.962.371-1.405.371-.666 0-1.332-.297-1.85-.741-.666-.668-1.035-1.557-1.035-2.67v-9.045c0-1.705.295-3.262.813-4.745l16.497-41.743a9.982 9.982 0 011.183-2.224c.444-.519.962-1.038 1.702-1.409l8.359-4.82c.444-.296.961-.37 1.405-.37.666 0 1.332.222 1.85.741.665.668 1.035 1.557 1.035 2.669v29.51l1.998-1.113c.443-.296.961-.37 1.405-.37.666 0 1.332.222 1.776.741.665.667 1.035 1.557 1.035 2.743v9.046c0 .89-.222 1.779-.592 2.669-.443.964-1.035 1.705-1.775 2.076l-3.847 2.224v7.637c0 .89-.222 1.78-.591 2.669-.444.964-1.036 1.706-1.776 2.076l-7.249 4.152c-.444.223-.888.371-1.406.371zm-5.104-25.505l2.515-1.483v-4.894l-2.515 6.377z" fill="#E0E0E0"/><path d="M116.978 209.708c-.074-.074-.148-.074-.222-.148-.222-.148-5.622-3.262-5.622-3.262v-26.692c0-.593-.148-1.112-.444-1.334-.073-.075-.147-.075-.147-.149-.222-.148-5.918-3.41-5.992-3.484-.222-.149-.518-.149-.888.074l-8.36 4.819c-.443.297-.887.593-1.109.964-.296.371-.592.964-.888 1.779L76.81 223.944c-.444 1.26-.74 2.595-.74 4.078v9.045c0 .594.148 1.113.444 1.335.074.074.148.074.222.148.222.149 5.918 3.411 5.992 3.485.222.148.518.148.888-.074l11.392-6.599v1.705c0 .594.148 1.113.444 1.335.074.074.148.074.148.148.222.149 5.918 3.411 5.992 3.485.222.148.517.148.887-.074l7.25-4.226c.37-.223.74-.668 1.035-1.261.296-.593.444-1.26.444-1.853v-8.675l4.735-2.743c.37-.223.739-.668 1.035-1.261.296-.593.444-1.26.444-1.853v-9.046c0-.593-.148-1.038-.444-1.335z" fill="#2EEAB1"/><path opacity=".15" d="M100.113 183.985v.074c-.296.371-.518.89-.814 1.631l-16.497 41.669c-.221.519-.37 1.112-.517 1.705l-6.066-3.485c.148-.593.296-1.186.444-1.705l16.496-41.669c.37-.815.666-1.409.888-1.779l6.066 3.559z" fill="#000"/><path opacity=".3" d="M82.58 242.038c-.666-.371-5.696-3.262-5.918-3.41-.074-.075-.148-.075-.148-.149-.296-.296-.444-.741-.444-1.334v-9.046c0-.815.074-1.631.222-2.372l5.992 3.484a12.3 12.3 0 00-.222 2.373v9.045c0 .594.148 1.113.444 1.335l.074.074zm18.642-39.589v15.719l-5.104-2.892 5.104-12.827z" fill="#000"/><path opacity=".4" d="M101.221 218.165l-8.063 4.671 2.96-7.563 5.103 2.892z" fill="#000"/><path opacity=".3" d="M101.37 242.037c.074 0 .074.074.074.074-.666-.371-5.696-3.263-5.918-3.411a.16.16 0 01-.148-.148c-.296-.297-.444-.742-.444-1.335v-1.779l5.992-3.485v8.675c0 .667.148 1.112.444 1.409z" fill="#000"/><path opacity=".15" d="M116.682 209.563a1.07 1.07 0 00-.813.074l-4.735 2.744v-6.006s4.883 2.817 5.548 3.188z" fill="#000"/><path opacity=".4" d="M110.469 178.127c-.222-.148-.518-.074-.814.074l-8.359 4.82c-.444.296-.814.593-1.11.964l-5.992-3.485c.296-.371.666-.668 1.11-.964l8.359-4.819c.296-.223.592-.223.888-.075.074.075 5.4 3.189 5.918 3.485z" fill="#fff"/><path d="M102.406 242.109c-.37.223-.74.223-1.036-.074-.296-.296-.444-.741-.444-1.334v-8.675l-17.384 10.083c-.37.223-.74.223-1.036-.074-.296-.296-.444-.741-.444-1.334v-9.12c0-1.483.222-2.817.74-4.078L99.3 185.834c.295-.815.665-1.408.887-1.779.296-.371.666-.667 1.11-.964l8.359-4.819c.37-.223.74-.223 1.036.074.296.297.444.741.444 1.335v32.771l4.734-2.743c.37-.223.74-.223 1.036.074.296.296.443.741.443 1.334v9.046c0 .593-.147 1.26-.443 1.854-.296.593-.666 1.038-1.036 1.26l-4.734 2.743v8.675a4.26 4.26 0 01-.444 1.854c-.296.593-.666 1.038-1.036 1.26l-7.249 4.3zm-1.184-23.948v-15.718l-8.063 20.389 8.063-4.671zm54.446-44.336c-.148-3.04-.518-5.709-1.11-8.156-.666-2.446-1.627-4.3-2.959-5.709-.444-.445-.961-.889-1.479-1.186-1.036-.593-5.474-3.188-5.992-3.485-1.036-.593-2.146-.889-3.403-.964-1.997-.074-4.365.668-7.102 2.225-2.737 1.631-5.104 3.633-7.101 6.005-1.998 2.373-3.625 5.042-4.957 7.86-1.331 2.891-2.293 5.857-2.959 9.045a52.711 52.711 0 00-1.109 9.49c-.074 2.521-.074 5.042-.074 7.711 0 2.67 0 5.116.074 7.415.148 3.04.518 5.709 1.109 8.156.666 2.446 1.628 4.3 2.959 5.709.444.444.962.889 1.48 1.186 1.036.593 5.548 3.188 6.14 3.559.962.519 2.071.889 3.329.889 1.997.075 4.364-.667 7.101-2.224 2.737-1.631 5.105-3.633 7.102-6.005 1.997-2.373 3.625-5.042 4.956-7.86 1.332-2.891 2.293-5.857 2.959-9.045a52.634 52.634 0 001.11-9.491c.074-2.372.074-4.893.074-7.562 0-2.595-.074-5.116-.148-7.563zm-21.823 30.325c-.148-.816-.222-1.78-.222-2.818-.148-4.745-.148-9.49 0-14.309 0-1.409.148-2.818.37-4.152.222-1.335.518-2.521.962-3.708a13.056 13.056 0 011.775-3.114 10.95 10.95 0 012.367-2.15c.148.816.222 1.78.296 2.744.148 4.596.148 9.416 0 14.309-.074 1.409-.148 2.818-.37 4.152-.221 1.335-.517 2.521-.961 3.708-.444 1.112-1.036 2.224-1.776 3.114a8.757 8.757 0 01-2.441 2.224z" fill="#2EEAB1"/><path opacity=".15" d="M128.888 222.688c-1.035-.593-5.03-2.892-5.992-3.411-.517-.296-1.035-.741-1.479-1.186-1.332-1.334-2.293-3.262-2.959-5.709-.666-2.447-1.036-5.19-1.11-8.156-.074-2.298-.074-4.745-.074-7.414 0-2.669.074-5.264.074-7.711a70.451 70.451 0 011.11-9.49 40.903 40.903 0 011.849-6.525l5.992 3.485c-.813 2.076-1.405 4.226-1.849 6.45a52.634 52.634 0 00-1.11 9.491c-.074 2.52-.074 5.041-.074 7.71 0 2.67 0 5.116.074 7.415.074 3.04.518 5.709 1.11 8.156.666 2.446 1.627 4.374 2.885 5.709.592.519 1.036.889 1.553 1.186z" fill="#000"/><path opacity=".4" d="M149.897 158.702a6.546 6.546 0 00-3.181-.816c-1.997-.074-4.364.667-7.101 2.224-2.738 1.631-5.105 3.633-7.102 6.006-1.997 2.373-3.625 5.042-4.956 7.859-.222.445-.37.89-.592 1.335a9.05 9.05 0 01-.518 1.26l-5.992-3.485.444-1.112c.222-.519.37-.964.592-1.483a36.602 36.602 0 014.956-7.933c1.997-2.373 4.365-4.374 7.102-6.006 2.737-1.631 5.104-2.372 7.101-2.224 1.258.074 2.441.371 3.403.964.592.371 4.512 2.595 5.844 3.411z" fill="#fff"/><path opacity=".3" d="M145.459 194.515c-.074 1.409-.148 2.818-.37 4.152-.222 1.335-.518 2.521-.962 3.707-.221.519-.443.964-.665 1.409l-5.992-3.485c.222-.444.518-.963.665-1.408.444-1.187.814-2.373.962-3.708.222-1.334.296-2.669.37-4.152.148-4.893.148-9.712 0-14.309a140.606 140.606 0 00-.222-2.744s.148-.148.37-.222c1.11-.667 1.997-.89 2.737-.816.74.075 1.332.445 1.775 1.038.444.594.74 1.483.962 2.521.222 1.038.37 2.299.444 3.707.074 4.597.074 9.417-.074 14.31z" fill="#000"/><path opacity=".4" d="M143.461 203.786a8.375 8.375 0 01-1.109 1.705c-.74.964-1.628 1.705-2.737 2.373-1.11.667-1.998.889-2.737.815-.74-.074-1.332-.445-1.776-1.038-.444-.593-.813-1.483-.961-2.521-.074-.296-.074-.593-.148-.89a9.8 9.8 0 002.441-2.15 8.375 8.375 0 001.109-1.705l5.918 3.411z" fill="#000"/><path d="M139.54 160.11c2.737-1.631 5.105-2.373 7.102-2.224 1.997.074 3.625.815 4.956 2.15 1.332 1.334 2.293 3.262 2.959 5.709.666 2.447 1.036 5.19 1.11 8.156.074 2.372.074 4.967.074 7.637 0 2.669-.074 5.19-.074 7.562a70.484 70.484 0 01-1.11 9.491c-.666 3.188-1.627 6.228-2.959 9.045-1.331 2.892-2.959 5.487-4.956 7.859-1.997 2.373-4.365 4.375-7.102 6.006-2.737 1.631-5.104 2.373-7.101 2.224-1.998-.074-3.625-.815-4.957-2.15-1.331-1.335-2.293-3.262-2.959-5.709-.665-2.447-1.035-5.19-1.109-8.156-.074-2.298-.074-4.745-.074-7.414 0-2.669 0-5.264.074-7.711a70.61 70.61 0 011.109-9.49c.666-3.189 1.628-6.229 2.959-9.046 1.332-2.892 2.959-5.487 4.957-7.859a24.231 24.231 0 017.101-6.08zm5.918 34.403c.148-4.894.148-9.713 0-14.31a25.447 25.447 0 00-.444-3.707c-.221-1.112-.517-1.928-.961-2.521-.444-.593-1.036-.964-1.776-1.038-.739-.074-1.627.222-2.737.815-1.109.668-1.997 1.409-2.737 2.373a13.056 13.056 0 00-1.775 3.114c-.444 1.112-.74 2.373-.962 3.707-.222 1.335-.37 2.669-.37 4.152-.148 4.82-.148 9.565 0 14.31 0 1.409.148 2.669.37 3.707.222 1.112.518 1.928.962 2.521.444.593 1.036.964 1.775 1.038.74.074 1.628-.222 2.737-.816 1.11-.667 1.998-1.408 2.737-2.372a13.025 13.025 0 001.776-3.114c.444-1.112.813-2.373.961-3.707.296-1.335.444-2.744.444-4.152zm52.597-31.738c-.074-.074-.148-.074-.222-.148-.222-.149-5.622-3.263-5.622-3.263v-26.691c0-.594-.148-1.113-.444-1.335-.074-.074-.148-.074-.148-.148-.222-.149-5.918-3.411-5.992-3.485-.222-.148-.518-.148-.887.074l-8.36 4.819c-.443.297-.887.594-1.109.964-.296.371-.592.964-.888 1.78l-16.496 41.668c-.444 1.261-.74 2.595-.74 4.078v9.046c0 .593.148 1.112.444 1.334.074.075.148.075.222.149.222.148 5.918 3.41 5.992 3.484.222.149.518.149.887-.074l11.392-6.598v1.705c0 .593.148 1.112.444 1.334.074.075.148.075.148.149.222.148 5.918 3.41 5.992 3.484.222.149.518.149.888-.074l7.249-4.226c.37-.222.74-.667 1.036-1.26a4.26 4.26 0 00.444-1.854v-8.675l4.734-2.743c.37-.222.74-.667 1.036-1.26a4.263 4.263 0 00.444-1.854v-9.046c0-.593-.148-1.038-.444-1.334z" fill="#2EEAB1"/><path opacity=".15" d="M181.263 137.047v.074c-.296.371-.518.89-.814 1.631l-16.496 41.669c-.222.519-.37 1.112-.518 1.705l-6.066-3.484c.148-.593.296-1.187.444-1.706l16.496-41.668c.37-.816.666-1.409.888-1.78l6.066 3.559z" fill="#000"/><path opacity=".3" d="M163.73 195.101c-.665-.371-5.696-3.263-5.917-3.411-.074-.074-.148-.074-.148-.148-.296-.297-.444-.742-.444-1.335v-9.045c0-.816.074-1.632.222-2.373l5.992 3.485a12.29 12.29 0 00-.222 2.372v9.046c0 .593.148 1.038.444 1.335 0 0 0 .074.073.074zm18.642-39.589v15.718l-5.104-2.966 5.104-12.752z" fill="#000"/><path opacity=".4" d="M182.372 171.227l-8.063 4.671 2.959-7.636 5.104 2.965z" fill="#000"/><path opacity=".3" d="M182.52 195.103c.074 0 .074.074.074.074-.666-.371-5.696-3.262-5.918-3.41-.074-.075-.148-.075-.148-.149-.296-.296-.444-.741-.444-1.334v-1.78l5.992-3.484v8.674c0 .668.148 1.112.444 1.409z" fill="#000"/><path opacity=".15" d="M197.833 162.626a1.063 1.063 0 00-.814.074l-4.734 2.743v-6.08s4.882 2.818 5.548 3.263z" fill="#000"/><path opacity=".4" d="M191.619 131.19c-.222-.149-.518-.074-.814.074l-8.359 4.819c-.444.297-.814.593-1.11.964l-5.992-3.485c.296-.37.666-.667 1.11-.964l8.359-4.819c.296-.222.592-.222.888-.074 0 .074 5.4 3.188 5.918 3.485z" fill="#fff"/><path d="M183.556 195.176c-.37.222-.74.222-1.036-.074-.296-.297-.444-.742-.444-1.335v-8.675l-17.384 10.084c-.369.222-.739.222-1.035-.074-.296-.297-.444-.742-.444-1.335v-9.045c0-1.483.222-2.818.74-4.078l16.496-41.669c.296-.815.666-1.409.888-1.779.296-.371.665-.668 1.109-.964l8.359-4.82c.37-.222.74-.222 1.036.075.296.296.444.741.444 1.334v32.772l4.734-2.744c.37-.222.74-.222 1.036.074.296.297.444.742.444 1.335v9.046c0 .593-.148 1.26-.444 1.853-.296.593-.666 1.038-1.036 1.261l-4.734 2.743v8.675c0 .593-.148 1.26-.444 1.853-.296.593-.666 1.038-1.036 1.261l-7.249 4.226zm-1.184-23.948v-15.719l-8.063 20.39 8.063-4.671zm105.34-104.322l-37.135 21.502c-.518.296-.962 1.038-.962 1.63v47.601c0 .593.444 1.335.962 1.631l3.403 1.928c.518.296 1.405.296 1.923 0l37.135-21.502c.518-.296.962-1.038.962-1.631v-47.6c0-.593-.444-1.335-.962-1.631l-3.402-1.928c-.518-.297-1.406-.297-1.924 0z" fill="#2EEAB1"/><path d="M254.941 140.676v-47.6c0-.593.444-1.334.962-1.631l37.135-21.502c.518-.296.962-.074.962.52v47.674c0 .593-.444 1.334-.962 1.631l-37.135 21.501c-.518.297-.962.075-.962-.593z" fill="#2EEAB1"/><path opacity=".2" d="M255.903 141.271c-.518.297-1.405.297-1.923 0l-3.403-1.927c-.518-.297-.962-1.038-.962-1.632v-47.6c0-.296.148-.667.296-.964l5.326 3.04c-.148.297-.296.668-.296.964v47.6c0 .519.444.816.962.519z" fill="#000"/><path opacity=".4" d="M294.001 70.317c-.074-.52-.444-.668-.962-.371l-37.135 21.502c-.296.148-.518.445-.666.741l-5.326-3.04c.148-.296.37-.519.666-.667l37.135-21.502c.518-.296 1.406-.296 1.924 0l3.402 1.928c.518.222.888.816.962 1.409z" fill="#fff"/><path d="M249.615 104.418l-7.693 7.859c-.444.445-.296 1.038.148 1.335.148.074 5.326 3.04 5.326 3.04l7.545-9.12-5.326-3.114z" fill="#2EEAB1"/><path opacity=".1" d="M249.615 104.418l-7.693 7.859c-.444.445-.296 1.038.148 1.335.148.074 5.326 3.04 5.326 3.04l7.545-9.12-5.326-3.114z" fill="#000"/><path d="M254.942 107.531l-7.694 7.859a.83.83 0 00.74 1.409l6.954-1.038c.813 0 .813-8.23 0-8.23z" fill="#2EEAB1"/><path d="M262.709 99.676l5.548 5.338m-5.548 3.189l5.548-11.715m12.501-7.273l5.548 5.338m-5.548 3.189l5.548-11.715m-23.82 35.439l24.042-13.939m-9.025 5.192v6.747c0 2.076 1.331 2.966 3.033 2.002 1.627-.964 3.033-3.41 3.033-5.412v-6.747m-3.033 1.707v6.524" stroke="#455A64" stroke-width="1.484" stroke-miterlimit="10" stroke-linecap="round"/><g clip-path="url(#clip0_2076_56657)"><path d="M187.692 111.61c.786-.454 1.422-1.559 1.422-2.468s-.636-1.277-1.422-.823c-.786.455-1.422 1.559-1.422 2.469 0 .909.636 1.277 1.422.822zm0 .823c-.949.549-2.844 2.197-2.844 3.291v.823l5.688-3.291v-.823c0-1.094-1.895-.549-2.844 0z" fill="#13D99D"/></g><g clip-path="url(#clip1_2076_56657)"><path d="M198.98 108.498l-.384-.182c-1.363-.641-2.263-1.064-2.263-2.222 0-.943.641-2.054 1.456-2.526.46-.266.902-.274 1.191-.049.288-.559.73-1.063 1.19-1.329.815-.472 1.456-.101 1.456.842 0 1.158-.9 2.621-2.263 4.843l-.383.623z" fill="#13D99D"/></g><path d="M211.499 97.334l-1.184-1.487c-.051-.063-.138-.06-.224-.01a.564.564 0 00-.225.273l-1.184 2.854-1.295.75a.62.62 0 00-.271.488c0 .029.003.058.011.083l.687 2.673c.062.242.27.327.519.183l3.515-2.035c.249-.143.457-.469.522-.785l.687-3.468.008-.094c0-.182-.122-.26-.27-.175l-1.296.75zm-2.22 1.285l.812-1.927.811.988-1.623.939zm.812 2.18c-.298.172-.541.015-.541-.35 0-.364.243-.803.541-.975.297-.172.54-.015.54.35 0 .364-.243.803-.54.975z" fill="#13D99D"/><path d="M54.497 187.449l.472-.325c.652-.449 1.18-1.384 1.18-2.088v-.382c0-.493-.37-.638-.826-.323-.456.314-.826.968-.826 1.461v1.657z" fill="#02C087"/><path d="M56.07 188.359l-.472.326c-.651.448-1.18 1.383-1.18 2.087v.383c0 .492.37.637.826.323.456-.314.826-.969.826-1.461v-1.658z" fill="#2EEAB1"/><path d="M54.497 187.449v.491c0 .679-.528 1.578-1.18 2.008l-.354.234c-.456.301-.826.16-.826-.315 0-.474.37-1.104.826-1.405l1.534-1.013z" fill="#13D99D"/><path d="M56.07 188.359v-.491c0-.678.529-1.577 1.18-2.007l.355-.234c.456-.301.826-.161.826.314s-.37 1.104-.826 1.405l-1.535 1.013zm92.388 176.607c-.076 1.723-.56 3.027-1.453 3.913-.893.885-2.152 1.328-3.778 1.328-1.709 0-3.02-.56-3.933-1.681-.907-1.128-1.36-2.733-1.36-4.816v-2.543c0-2.076.471-3.674 1.412-4.795.941-1.128 2.248-1.691 3.923-1.691 1.646 0 2.895.46 3.746 1.38.858.92 1.346 2.242 1.464 3.965h-3.062c-.028-1.066-.194-1.799-.498-2.201-.298-.408-.848-.612-1.65-.612-.817 0-1.394.287-1.734.861-.339.568-.518 1.505-.539 2.813v2.854c0 1.502.166 2.532.498 3.093.339.56.917.841 1.733.841.803 0 1.356-.194 1.661-.582.304-.394.477-1.103.519-2.127h3.051zm9.393-3.778h-2.885v8.811h-2.937v-8.811h-2.865v-2.418h8.687v2.418zm9.891 3.549c0 1.765-.304 3.118-.913 4.059-.602.941-1.501 1.411-2.698 1.411-.914 0-1.647-.37-2.201-1.111v5.221h-2.937V358.77h2.719l.104 1.027c.561-.823 1.325-1.235 2.294-1.235 1.197 0 2.096.436 2.698 1.308.609.872.921 2.207.934 4.006v.861zm-2.926-.736c0-1.087-.121-1.855-.364-2.304-.235-.45-.636-.675-1.204-.675-.602 0-1.041.252-1.318.758v5.262c.263.484.71.726 1.339.726.581 0 .983-.246 1.204-.737.228-.491.343-1.256.343-2.294v-.736zm9.611 5.998c-.083-.173-.166-.463-.249-.871-.526.719-1.239 1.079-2.138 1.079-.941 0-1.723-.311-2.346-.934-.616-.623-.924-1.429-.924-2.418 0-1.177.374-2.086 1.121-2.73.754-.643 1.837-.972 3.249-.986h.892v-.903c0-.505-.086-.861-.259-1.069-.173-.207-.426-.311-.758-.311-.733 0-1.1.429-1.1 1.287h-2.937c0-1.038.387-1.893 1.162-2.564.782-.678 1.768-1.017 2.958-1.017 1.232 0 2.183.322 2.854.965.678.637 1.017 1.55 1.017 2.74v5.283c.014.969.153 1.726.416 2.273v.176h-2.958zm-1.734-2.096c.326 0 .602-.066.831-.197.228-.132.398-.287.508-.467v-2.335h-.705c-.499 0-.893.159-1.184.477-.283.318-.425.744-.425 1.277 0 .83.325 1.245.975 1.245zm14.438 2.096h-2.938v-4.307h-2.584v4.307h-2.947V358.77h2.947v4.494h2.584v-4.494h2.938v11.229zm7.275-11.229h2.927v11.229h-2.927v-6.901l-2.615 6.901h-2.948V358.77h2.948v6.891l2.615-6.891zm4.64 0h2.948v8.79h2.605v-8.79h2.937v8.811h1.536l-.208 5.75h-2.719v-3.332h-7.099V358.77zm16.44 11.229c-.083-.173-.166-.463-.249-.871-.526.719-1.238 1.079-2.138 1.079-.941 0-1.723-.311-2.345-.934-.616-.623-.924-1.429-.924-2.418 0-1.177.374-2.086 1.121-2.73.754-.643 1.837-.972 3.248-.986h.893v-.903c0-.505-.087-.861-.26-1.069-.173-.207-.425-.311-.757-.311-.734 0-1.1.429-1.1 1.287h-2.938c0-1.038.388-1.893 1.163-2.564.782-.678 1.768-1.017 2.958-1.017 1.231 0 2.183.322 2.854.965.678.637 1.017 1.55 1.017 2.74v5.283c.014.969.152 1.726.415 2.273v.176h-2.958zm-1.733-2.096c.325 0 .602-.066.83-.197.229-.132.398-.287.509-.467v-2.335h-.706c-.498 0-.892.159-1.183.477-.284.318-.426.744-.426 1.277 0 .83.326 1.245.976 1.245zm18.911 2.096h-2.937v-4.307h-2.585v4.307h-2.947V358.77h2.947v4.494h2.585v-4.494h2.937v11.229zm7.058 0c-.083-.173-.166-.463-.249-.871-.526.719-1.239 1.079-2.138 1.079-.941 0-1.723-.311-2.346-.934-.616-.623-.924-1.429-.924-2.418 0-1.177.374-2.086 1.121-2.73.754-.643 1.837-.972 3.249-.986h.892v-.903c0-.505-.086-.861-.259-1.069-.173-.207-.426-.311-.758-.311-.733 0-1.1.429-1.1 1.287h-2.937c0-1.038.387-1.893 1.162-2.564.782-.678 1.768-1.017 2.958-1.017 1.232 0 2.183.322 2.854.965.678.637 1.017 1.55 1.017 2.74v5.283c.014.969.153 1.726.416 2.273v.176h-2.958zm-1.734-2.096c.326 0 .602-.066.831-.197.228-.132.398-.287.508-.467v-2.335h-.705c-.499 0-.893.159-1.184.477-.283.318-.425.744-.425 1.277 0 .83.325 1.245.975 1.245zm18.911 2.096h-2.937v-4.307h-2.584v4.307h-2.948V358.77h2.948v4.494h2.584v-4.494h2.937v11.229zm7.058 0c-.083-.173-.166-.463-.249-.871-.526.719-1.239 1.079-2.138 1.079-.941 0-1.723-.311-2.346-.934-.615-.623-.923-1.429-.923-2.418 0-1.177.373-2.086 1.121-2.73.754-.643 1.837-.972 3.248-.986h.893v-.903c0-.505-.087-.861-.26-1.069-.173-.207-.425-.311-.757-.311-.734 0-1.101.429-1.101 1.287h-2.937c0-1.038.388-1.893 1.163-2.564.782-.678 1.767-1.017 2.958-1.017 1.231 0 2.183.322 2.854.965.678.637 1.017 1.55 1.017 2.74v5.283c.014.969.152 1.726.415 2.273v.176h-2.958zm-1.733-2.096c.325 0 .602-.066.83-.197.228-.132.398-.287.509-.467v-2.335h-.706c-.498 0-.893.159-1.183.477-.284.318-.426.744-.426 1.277 0 .83.325 1.245.976 1.245zm11.531-9.133h2.927v11.229h-2.927v-6.901l-2.616 6.901h-2.947V358.77h2.947v6.891l2.616-6.891zm2.356-4.567c0 .92-.332 1.664-.996 2.232-.658.567-1.526.851-2.606.851-1.086 0-1.961-.284-2.625-.851-.658-.568-.986-1.312-.986-2.232h2.148c0 .429.128.765.384 1.007.263.235.623.353 1.079.353.45 0 .803-.118 1.059-.353.256-.242.384-.578.384-1.007h2.159zm2.522 13.357c.485-.553.831-1.11 1.038-1.671.208-.56.329-1.345.363-2.355l.083-4.764h7.317v8.79h1.485v5.812h-2.938v-3.373h-5.179v3.373h-3.009v-5.812h.84zm3.259 0h2.616v-6.289h-1.495l-.01 1.111c-.021 2.144-.391 3.871-1.111 5.178zm12.642 2.647c-1.509 0-2.685-.45-3.529-1.349-.844-.9-1.266-2.187-1.266-3.861v-.893c0-1.771.387-3.137 1.162-4.099.775-.962 1.886-1.443 3.332-1.443 1.411 0 2.473.453 3.186 1.36.713.899 1.076 2.235 1.09 4.006v1.443h-5.843c.041.83.225 1.439.55 1.826.325.381.827.571 1.505.571.982 0 1.802-.336 2.459-1.007l1.152 1.775c-.359.498-.882.903-1.567 1.214a5.423 5.423 0 01-2.231.457zm-1.848-6.891h2.938v-.27c-.014-.671-.125-1.18-.333-1.526-.207-.346-.567-.519-1.079-.519s-.886.183-1.121.55c-.228.367-.363.955-.405 1.765zm15.517 6.683h-2.937v-4.307h-2.585v4.307h-2.947V358.77h2.947v4.494h2.585v-4.494h2.937v11.229zm7.058 0c-.083-.173-.166-.463-.249-.871-.526.719-1.239 1.079-2.138 1.079-.941 0-1.723-.311-2.346-.934-.616-.623-.924-1.429-.924-2.418 0-1.177.374-2.086 1.121-2.73.754-.643 1.837-.972 3.249-.986h.892v-.903c0-.505-.086-.861-.259-1.069-.173-.207-.426-.311-.758-.311-.733 0-1.1.429-1.1 1.287h-2.937c0-1.038.387-1.893 1.162-2.564.782-.678 1.768-1.017 2.958-1.017 1.232 0 2.183.322 2.854.965.679.637 1.018 1.55 1.018 2.74v5.283c.013.969.152 1.726.415 2.273v.176h-2.958zm-1.733-2.096c.325 0 .602-.066.83-.197.228-.132.398-.287.508-.467v-2.335h-.705c-.499 0-.893.159-1.184.477-.283.318-.425.744-.425 1.277 0 .83.325 1.245.976 1.245z" fill="#08A979"/></g><defs><clipPath id="clip0_2076_56657"><path fill="#fff" transform="matrix(.86553 -.50086 0 1 183.765 109.332)" d="M0 0h9.075v9.09H0z"/></clipPath><clipPath id="clip1_2076_56657"><path fill="#fff" transform="matrix(.86553 -.50086 0 1 195.54 103.645)" d="M0 0h7.948v7.962H0z"/></clipPath><filter id="filter0_d_2076_56657" x="0" y="0" width="360" height="382.316" filterUnits="userSpaceOnUse" color-interpolation-filters="sRGB"><feFlood flood-opacity="0" result="BackgroundImageFix"/><feColorMatrix in="SourceAlpha" values="0 0 0 0 0 0 0 0 0 0 0 0 0 0 0 0 0 0 127 0" result="hardAlpha"/><feOffset dy="4"/><feGaussianBlur stdDeviation="2"/><feComposite in2="hardAlpha" operator="out"/><feColorMatrix values="0 0 0 0 0 0 0 0 0 0 0 0 0 0 0 0 0 0 0.25 0"/><feBlend in2="BackgroundImageFix" result="effect1_dropShadow_2076_56657"/><feBlend in="SourceGraphic" in2="effect1_dropShadow_2076_56657" result="shape"/></filter></defs></svg>