<svg width="187" height="214" fill="none" xmlns="http://www.w3.org/2000/svg"><path d="M30 209.581v-14.72h4.55c1.536 0 2.702.344 3.497 1.032.802.68 1.203 1.681 1.203 3.002 0 .748-.165 1.392-.495 1.931-.33.539-.782.934-1.355 1.183.66.189 1.17.57 1.526 1.143.358.566.536 1.267.536 2.102 0 1.429-.394 2.508-1.183 3.236-.781.728-1.917 1.091-3.406 1.091H30zm2.972-6.399v3.933h1.9c.533 0 .937-.166 1.214-.496.276-.33.414-.798.414-1.405 0-1.321-.478-1.998-1.435-2.032h-2.093zm0-2.164h1.547c1.166 0 1.749-.603 1.749-1.809 0-.668-.135-1.146-.405-1.436-.27-.29-.707-.435-1.314-.435h-1.577v3.68zm15.635 4.55h-.748v4.013h-2.85v-10.939h2.85v4.105h.708l1.658-4.105h3.589l-2.882 5.045 3.104 5.894h-3.79l-1.639-4.013z" fill="#02C087"/><path d="M53.594 203.758c0-1.658.391-2.959 1.173-3.902.782-.944 1.864-1.416 3.245-1.416 1.395 0 2.484.472 3.265 1.416.782.943 1.173 2.251 1.173 3.922v.698c0 1.665-.387 2.966-1.162 3.902-.775.937-1.86 1.406-3.256 1.406-1.401 0-2.493-.469-3.275-1.406-.775-.943-1.163-2.251-1.163-3.922v-.698zm2.871.718c0 1.955.523 2.932 1.567 2.932.964 0 1.483-.816 1.557-2.447l.01-1.203c0-.997-.138-1.735-.414-2.214-.277-.485-.667-.728-1.173-.728-.485 0-.866.243-1.142.728-.27.479-.404 1.217-.404 2.214v.718zm15.572-.02c0 1.718-.297 3.036-.89 3.953-.586.916-1.462 1.375-2.628 1.375-.89 0-1.604-.361-2.143-1.082v5.085h-2.861v-15.145h2.648l.102 1.001c.545-.802 1.29-1.203 2.234-1.203 1.166 0 2.042.425 2.628 1.274.593.849.896 2.15.91 3.903v.839zm-2.85-.718c0-1.058-.119-1.806-.355-2.245-.229-.438-.62-.657-1.172-.657-.587 0-1.015.246-1.284.738v5.126c.256.472.69.708 1.304.708.566 0 .957-.239 1.172-.718.223-.479.334-1.223.334-2.234v-.718zm8.504-1.86c0-.802-.303-1.203-.91-1.203-.33 0-.59.097-.778.293-.189.188-.283.465-.283.829h-2.861c0-.991.35-1.796 1.051-2.417.701-.62 1.608-.93 2.72-.93 1.22 0 2.177.28 2.87.839.695.553 1.042 1.335 1.042 2.346 0 .485-.125.934-.374 1.345-.25.404-.597.728-1.041.97 1.051.445 1.577 1.291 1.577 2.538 0 .997-.371 1.796-1.112 2.396-.742.6-1.732.9-2.972.9-1.153 0-2.093-.31-2.82-.93-.722-.627-1.083-1.463-1.083-2.508h2.861c0 .384.108.684.324.9.216.216.509.324.88.324.35 0 .616-.115.798-.344.182-.236.273-.556.273-.961 0-.856-.334-1.297-1-1.324h-1.426v-1.901h1.354c.607-.006.91-.394.91-1.162zm9.415-3.236h2.85v10.939h-2.85v-6.723l-2.547 6.723h-2.871v-10.939h2.87v6.713l2.548-6.713zm12.458 10.939h-2.861v-4.195h-2.517v4.195h-2.871v-10.939h2.87v4.378h2.518v-4.378h2.86v10.939zm5.785.203c-1.469 0-2.614-.438-3.437-1.315-.822-.876-1.233-2.129-1.233-3.761v-.869c0-1.725.377-3.057 1.132-3.993.755-.937 1.837-1.406 3.245-1.406 1.375 0 2.41.442 3.104 1.325.694.876 1.048 2.177 1.061 3.902v1.405h-5.691c.04.809.219 1.402.536 1.78.316.37.805.556 1.465.556.957 0 1.756-.327 2.396-.981l1.122 1.729c-.35.485-.859.88-1.526 1.183a5.3 5.3 0 01-2.174.445zm-1.799-6.713h2.861v-.263c-.014-.654-.121-1.149-.324-1.486-.202-.337-.552-.506-1.051-.506-.499 0-.863.179-1.092.536-.222.357-.354.93-.394 1.719zm18.87 6.51h-2.861v-8.553h-2.537v8.553h-2.871v-10.939h8.269v10.939zm4.876-4.761l1.456-6.178h3.053l-3.599 12.577c-.539 1.854-1.553 2.781-3.043 2.781-.344 0-.734-.065-1.173-.193v-2.234l.334.01c.445 0 .778-.087 1.001-.263.229-.168.401-.465.515-.889l.223-.738-3.154-11.051h3.073l1.314 6.178zm8.819 2.588c.829 0 1.25-.539 1.263-1.618h2.689c-.013 1.193-.38 2.157-1.102 2.892-.721.734-1.651 1.102-2.79 1.102-1.408 0-2.483-.438-3.225-1.315-.741-.876-1.118-2.167-1.132-3.872v-.869c0-1.719.364-3.03 1.092-3.933.735-.903 1.816-1.355 3.245-1.355 1.206 0 2.157.374 2.851 1.122.694.742 1.048 1.797 1.061 3.165h-2.689c-.006-.613-.108-1.085-.303-1.416-.195-.33-.519-.495-.971-.495-.498 0-.855.179-1.071.536-.216.35-.33 1.035-.344 2.052v1.112c0 .89.044 1.513.132 1.871.087.35.232.61.434.778.202.162.489.243.86.243zm12.72-6.41h-2.81v8.583h-2.861v-8.583h-2.79v-2.356h8.461v2.356zm.165 2.76c0-1.658.391-2.959 1.173-3.902.782-.944 1.863-1.416 3.245-1.416 1.395 0 2.483.472 3.265 1.416.782.943 1.173 2.251 1.173 3.922v.698c0 1.665-.388 2.966-1.163 3.902-.775.937-1.86 1.406-3.255 1.406-1.402 0-2.493-.469-3.275-1.406-.775-.943-1.163-2.251-1.163-3.922v-.698zm2.871.718c0 1.955.523 2.932 1.567 2.932.964 0 1.483-.816 1.557-2.447l.01-1.203c0-.997-.138-1.735-.414-2.214-.277-.485-.668-.728-1.173-.728-.485 0-.866.243-1.142.728-.27.479-.405 1.217-.405 2.214v.718z" fill="#02C087"/><ellipse opacity=".23" cx="113.439" cy="77.249" rx="73.561" ry="73.553" fill="#2EEAB1"/><path d="M32.8 57.637v.175c0 .025-.025.05-.025.075 0 .025 0 .025-.025.05-.025.026-.025.05-.05.076l-.025.025-.075.075 10.13-5.892.074-.075.025-.025c.026-.025.026-.05.05-.075 0-.025.026-.025.026-.05s.025-.05.025-.075v-.176L32.8 57.637z" fill="#3E3E41"/><path d="M32.876 31.263l-.075 26.374 10.13-5.867.05-23.19-10.105 2.683z" fill="#424245"/><path d="M31.296 56.785c0 .476.326 1.053.752 1.303.426.251.752.05.752-.426l.076-26.374-1.505.401-.075 25.096z" fill="#4B4B4E"/><path d="M68.08 93.389c0 .15 0 .326-.026.476-.025.15-.025.326-.05.476-.025.15-.05.326-.1.477-.05.175-.075.326-.126.501-.05.176-.1.326-.175.501-.05.15-.125.326-.2.477v.025c-.076.15-.151.3-.226.476v.025c-.076.15-.15.301-.251.452-.1.175-.226.35-.326.526-.075.1-.15.226-.226.326-.125.15-.25.326-.376.476-.1.126-.225.251-.326.376l-.025.025-.35.351-.026.025c-.125.126-.25.226-.376.326-.125.1-.25.201-.401.301-.126.101-.276.176-.401.251-.15.075-.276.15-.402.201-.125.05-.275.125-.4.15-.126.05-.251.075-.377.1-.125.025-.25.05-.376.05-.125 0-.225.025-.35 0-.101 0-.227-.025-.327-.05h-.025l-.3-.075h-.026c-.1-.025-.175-.075-.276-.125l1.88 1.103.151.075c.025.025.075.025.126.05h.025c.05.025.075.025.125.05.025 0 .075.025.1.025h.126c.025 0 .075 0 .1.025h.653c.025 0 .05 0 .075-.025.025 0 .05 0 .075-.025h.076c.025 0 .05 0 .075-.025.025 0 .05-.025.075-.025.025 0 .05-.025.075-.025.025 0 .05-.025.076-.025.025 0 .025 0 .05-.025h.025c.025 0 .05-.025.075-.025.025 0 .05-.025.075-.025.025 0 .05-.025.075-.025.025 0 .05-.025.076-.025.025 0 .05-.025.05-.025h.025c.025 0 .05-.026.075-.026.025-.025.05-.025.075-.05.025-.025.05-.025.075-.05.026-.025.05-.025.076-.05.025-.025.05-.025.075-.05.025-.025.05-.025.075-.05.025-.025.05-.025.075-.05.025-.025.05-.025.076-.051.025-.025.05-.05.075-.05.025 0 .025-.025.05-.025l.025-.025a.345.345 0 01.1-.075.345.345 0 01.1-.075c.026-.025.076-.05.1-.075l.076-.076c.025-.025.075-.05.1-.075.026-.025.076-.05.1-.1.05-.025.076-.075.126-.1l.05-.051.025-.025.05-.05.126-.125c.05-.05.1-.1.125-.151l.025-.025.025-.025c.05-.05.076-.1.126-.125.075-.075.125-.15.2-.226.126-.15.251-.3.376-.476l.025-.025c.05-.075.1-.15.176-.226 0-.025.025-.025.025-.05.125-.175.226-.35.326-.526.05-.1.1-.176.15-.276.025-.05.076-.125.1-.176v-.05c.026-.075.076-.125.101-.2.025-.05.05-.126.075-.176 0-.025.025-.05.025-.075V97.4c0-.025.025-.05.025-.05l.076-.15c.025-.05.025-.1.05-.126.025-.05.025-.075.05-.125s.025-.1.05-.126c.025-.05.025-.075.05-.125s.025-.075.05-.125.025-.076.025-.126c0-.025.025-.075.025-.1 0-.025.025-.075.025-.1 0-.025.026-.076.026-.1 0-.026.025-.076.025-.1 0-.026 0-.051.025-.051v-.025c0-.025.025-.075.025-.1 0-.025.025-.076.025-.1 0-.026.025-.076.025-.1 0-.026 0-.076.025-.101v-.075c0-.026 0-.076.025-.1 0-.026 0-.076.025-.101v-.777l-1.655-1.128zm-14.87 8.599c0 .151 0 .326-.024.477-.025.15-.025.326-.05.476-.025.15-.05.326-.1.476a8.958 8.958 0 01-.302 1.003 3.8 3.8 0 01-.2.476v.026c-.075.15-.15.3-.226.476 0 0 0 .025-.025.025-.075.15-.15.301-.25.451-.1.176-.226.351-.327.527-.075.1-.15.225-.225.326-.126.15-.25.326-.376.476-.1.125-.226.251-.326.376l-.025.025-.351.351-.025.025a4.38 4.38 0 01-.377.326c-.125.1-.25.201-.4.301-.126.1-.276.175-.402.251-.15.075-.276.15-.401.2-.125.05-.276.125-.401.151a2.07 2.07 0 01-.376.1 3.78 3.78 0 01-.727.075c-.1 0-.226-.025-.326-.05h-.025l-.301-.075h-.025c-.1-.025-.176-.076-.276-.126l1.88 1.103.15.076c.026.025.076.025.126.05h.025c.05.025.075.025.126.05.025 0 .075.025.1.025h.125c.025 0 .075 0 .1.025h.653c.026 0 .05 0 .076-.025.025 0 .05 0 .075-.025h.073c.025 0 .05 0 .075-.025.025 0 .05-.025.075-.025.026 0 .05-.025.076-.025.025 0 .05-.025.075-.025.025 0 .025 0 .05-.025h.025c.025 0 .05-.025.075-.025.025 0 .05-.026.076-.026.025 0 .05-.025.075-.025.025 0 .05-.025.075-.025.025 0 .05-.025.05-.025h.025c.025 0 .05-.025.075-.025.026-.025.05-.025.076-.05.025-.025.05-.025.075-.05.025-.025.05-.025.075-.05.025-.025.05-.025.075-.05.025-.025.05-.025.076-.051.025-.025.05-.025.075-.05.025-.025.05-.025.075-.05.025-.025.05-.05.075-.05.025 0 .025-.025.05-.025l.025-.025a.347.347 0 01.1-.075.366.366 0 01.101-.076c.025-.025.075-.05.1-.075l.075-.075c.026-.025.076-.05.1-.075.026-.025.076-.05.101-.1.05-.026.075-.076.125-.101l.05-.05.026-.025.05-.05.125-.125c.05-.051.1-.101.126-.151l.025-.025.025-.025c.05-.05.075-.1.125-.125.075-.076.125-.151.2-.226.126-.15.251-.301.377-.476l.025-.025c.05-.076.1-.151.175-.226 0-.025.025-.025.025-.05.126-.176.226-.351.326-.527.05-.1.1-.175.15-.275.026-.051.076-.126.101-.176 0 0 0-.025.025-.025v-.025c.025-.075.075-.125.1-.201.026-.05.05-.125.076-.175 0-.025.025-.05.025-.075v-.025c0-.025.025-.051.025-.051l.075-.15c.025-.05.025-.1.05-.125.025-.05.025-.076.05-.126s.025-.1.05-.125c.026-.05.026-.075.05-.125.026-.05.026-.076.05-.126.026-.05.026-.075.026-.125 0-.025.025-.075.025-.1 0-.025.025-.076.025-.101 0-.025.025-.075.025-.1 0-.025.025-.075.025-.1 0-.025 0-.05.025-.05v-.025c0-.025.025-.076.025-.101 0-.025.025-.075.025-.1 0-.025.026-.075.026-.1 0-.025 0-.075.025-.101v-.075c0-.025 0-.075.025-.1 0-.025 0-.075.025-.1v-.777l-1.655-1.154z" fill="#2EEAB1"/><path d="M69.86 60.22l-1.882-1.103.1 34.271 1.882 1.103-.1-34.27zm-30.992 50.041c0 .15 0 .326-.025.476-.025.151-.025.326-.05.476-.025.151-.05.326-.1.502-.05.175-.076.326-.126.501-.05.176-.1.326-.175.502a4.02 4.02 0 01-.2.476v.025c-.076.15-.151.301-.227.476 0 0 0 .025-.025.025-.075.151-.15.301-.25.452-.1.175-.226.351-.326.526-.075.1-.15.226-.226.326-.125.151-.25.326-.376.476-.1.126-.226.251-.326.377l-.025.025-.351.351-.025.025c-.125.125-.25.225-.376.326-.126.1-.251.2-.401.3-.126.101-.276.176-.402.251-.15.075-.275.151-.4.201-.126.05-.277.125-.402.15a2.07 2.07 0 01-.376.1c-.25.051-.502.076-.727.076-.1 0-.226-.025-.326-.051H32.6l-.301-.075h-.025c-.1-.025-.176-.075-.276-.125l1.88 1.103.151.075c.025.025.075.025.125.05h.025c.05.025.076.025.126.05.025 0 .075.026.1.026h.125c.026 0 .076 0 .1.025h.654c.025 0 .05 0 .075-.025.025 0 .05 0 .075-.026h.074c.025 0 .05 0 .075-.025.026 0 .05-.025.076-.025.025 0 .05-.025.075-.025.025 0 .05-.025.075-.025.025 0 .025 0 .05-.025h.025c.026 0 .05-.025.076-.025.025 0 .05-.025.075-.025.025 0 .05-.025.075-.025.025 0 .05-.025.075-.025.025 0 .05-.025.05-.025h.026c.025 0 .05-.025.075-.05.025-.025.05-.025.075-.051.025-.025.05-.025.075-.05.025-.025.05-.025.075-.05.025-.025.05-.025.076-.05.025-.025.05-.025.075-.05.025-.025.05-.025.075-.05.025-.025.05-.025.075-.05.025-.025.05-.051.075-.051.026 0 .026-.025.05-.025l.026-.025a.344.344 0 01.1-.075.344.344 0 01.1-.075c.025-.025.075-.05.1-.075l.076-.075c.025-.026.075-.051.1-.076.025-.025.075-.05.1-.1.05-.025.076-.075.126-.1l.05-.05.025-.025.05-.051.125-.125c.05-.05.1-.1.126-.15l.025-.025.025-.026c.05-.05.075-.1.125-.125.076-.075.126-.15.2-.226.126-.15.252-.3.377-.476l.025-.025c.05-.075.1-.15.176-.226 0-.025.025-.025.025-.05.125-.175.225-.351.326-.526.05-.1.1-.176.15-.276.025-.05.075-.125.1-.175 0 0 0-.026.025-.026v-.025c.026-.075.076-.125.1-.2.026-.05.05-.126.076-.176 0-.025.025-.05.025-.075v-.025c0-.025.025-.05.025-.05l.075-.15c.025-.051.025-.101.05-.126.026-.05.026-.075.05-.125.026-.05.026-.1.05-.126.026-.05.026-.075.05-.125.026-.05.026-.075.051-.125.025-.05.025-.075.025-.126 0-.025.025-.075.025-.1 0-.025.025-.075.025-.1 0-.025.025-.075.025-.1 0-.026.025-.076.025-.101 0-.025 0-.05.026-.05v-.025c0-.025.025-.075.025-.1 0-.025.025-.075.025-.1 0-.026.025-.076.025-.101 0-.025 0-.075.025-.1v-.075c0-.025 0-.075.025-.101 0-.025 0-.075.025-.1v-.777l-1.655-1.153zm28.408-53.325l.05.05c.076.076.126.15.176.226l.025.025c.05.075.1.176.15.276.05.1.1.226.126.326v.025c.025.125.075.25.1.376.025.125.05.276.05.401.025.15.025.3.025.451l1.881 1.103v-.626c0-.025 0-.076-.025-.1 0-.026 0-.076-.025-.1 0-.026 0-.051-.025-.076v-.025c0-.025-.025-.075-.025-.1 0-.026-.025-.076-.025-.1 0-.05-.025-.076-.025-.101v-.05c0-.025-.025-.05-.025-.075-.025-.05-.025-.1-.05-.126-.026-.05-.026-.075-.05-.125l-.076-.15c-.025-.05-.05-.076-.075-.126l-.025-.025v-.025c-.05-.075-.1-.15-.176-.226l-.05-.05-.15-.15c-.025-.025-.05-.025-.05-.05-.076-.05-.151-.126-.226-.15l-1.881-1.104.226.15c.025.026.05.026.05.05 0 .076.075.126.125.201zm-12.26 11.858l-1.906-1.078.1 34.271 1.882 1.078-.076-34.271zm-2.607-3.284l.05.05c.075.076.126.151.176.226l.025.025c.05.076.1.176.15.276.05.1.1.226.126.326v.025c.05.126.075.25.1.376.025.126.05.276.05.401.025.15.025.301.025.452l1.881 1.103v-.627c0-.025 0-.075-.025-.1 0-.026 0-.076-.025-.1 0-.026 0-.05-.025-.076v-.025c0-.025-.025-.075-.025-.1 0-.025-.025-.075-.025-.1 0-.05-.025-.076-.025-.1v-.051c0-.025-.026-.05-.026-.075-.025-.05-.025-.1-.05-.126-.025-.05-.025-.075-.05-.125l-.075-.15c-.025-.05-.05-.076-.075-.126l-.025-.025v-.025c-.05-.075-.1-.15-.176-.225l-.05-.05-.15-.151c-.026-.025-.05-.025-.05-.05-.076-.05-.151-.126-.226-.15l-1.881-1.104.225.15c.026.026.05.026.05.05.026.101.076.151.126.201zM40.75 111.34l-1.88-1.079-.076-34.27 1.88 1.077.076 34.272zm-2.684-37.557l.05.05c.076.075.126.15.176.226l.025.025a2.644 2.644 0 01.276.602v.025c.05.125.075.25.1.376.025.125.05.275.05.4.025.151.025.302.025.452l1.881 1.103v-.626c0-.026 0-.076-.025-.1 0-.026 0-.076-.025-.101 0-.025 0-.05-.025-.075v-.025c0-.026-.025-.076-.025-.1 0-.026-.025-.076-.025-.101 0-.05-.025-.075-.025-.1v-.051c0-.025-.025-.05-.025-.075-.025-.05-.025-.1-.05-.125-.026-.05-.026-.075-.05-.125l-.076-.15c-.025-.051-.05-.076-.075-.126l-.025-.025v-.025c-.05-.075-.1-.15-.176-.226l-.05-.05-.15-.15c-.025-.026-.05-.026-.05-.05-.076-.05-.15-.126-.226-.151l-1.881-1.103.226.15c.025.025.05.025.05.05.025.1.075.15.125.201z" fill="#2EEAB1"/><path d="M10.46 83.41l1.856 55.456L89.968 94.04l1.53-57.411L10.46 83.41zm26.303 34.848c-2.207 1.279-4.012.251-4.012-2.281l-.1-34.272c0-2.532 1.78-5.64 3.986-6.919 2.207-1.279 4.012-.25 4.012 2.281l.1 34.272c.025 2.557-1.755 5.641-3.986 6.919zm14.342-8.273c-2.207 1.278-4.012.251-4.012-2.281l-.1-34.272c0-2.532 1.78-5.64 3.986-6.92 2.207-1.278 4.012-.25 4.012 2.282l.1 34.271c.025 2.558-1.78 5.641-3.986 6.92zm14.868-8.574c-2.207 1.278-4.012.251-4.012-2.282l-.1-34.27c0-2.533 1.78-5.642 3.986-6.92 2.207-1.279 4.012-.251 4.012 2.281l.1 34.271c0 2.532-1.78 5.641-3.986 6.92z" fill="#2EEAB1"/><path d="M10.46 83.411l-1.88-1.078 1.856 55.456 1.88 1.078-1.855-55.456z" fill="#2EEAB1"/><path d="M89.591 35.55L8.581 82.333l1.88 1.078 81.01-46.756-1.88-1.103z" fill="#2EEAB1"/><path d="M147.36 124.375l-80.284 45.102L9.03 136.96l81.39-44.073 56.941 31.488z" fill="#137154"/><path d="M67.076 169.477v.978L9.03 137.939v-.978l58.045 32.516z" fill="#7D5E00"/><path d="M145.579 69.27l-.476 55.28-57.067-32.466.1-55.456L145.58 69.27z" fill="#0BDE9F"/><path d="M145.73 70.297l2.106-1.203-.476 55.28-2.082 1.203.452-55.28z" fill="#A3A3A3"/><path d="M88.311 37.656l2.082-1.204 57.442 32.642-2.106 1.203-57.418-32.641z" fill="#DEA800"/><path d="M95.96 140.92c0 .15 0 .326-.025.476-.025.151-.025.326-.05.477-.025.15-.05.326-.1.501s-.076.326-.126.501c-.05.176-.1.326-.175.502-.05.15-.126.326-.201.476v.025c-.075.151-.15.301-.226.477 0 0 0 .025-.025.025-.075.15-.15.3-.25.451-.1.175-.226.351-.326.526-.076.101-.15.226-.226.326-.126.151-.25.326-.376.477-.1.125-.226.25-.326.376l-.025.025-.351.351-.025.025c-.126.125-.251.225-.376.326-.126.1-.251.2-.402.301-.125.1-.276.175-.4.25-.151.075-.277.151-.402.201-.125.05-.276.125-.401.15-.126.05-.25.075-.376.101a3.78 3.78 0 01-.727.075c-.1 0-.226-.025-.326-.05h-.025l-.301-.076h-.025c-.1-.025-.176-.075-.276-.125l1.88 1.103.15.075c.026.025.076.025.126.051h.025c.05.025.075.025.126.05.025 0 .075.025.1.025h.075c.025 0-.76-.423-.735-.423.025 0 .085.237.11.262.025 0 .835.423.885.423h.551c.026 0 .05 0 .076-.025.025 0 .05 0 .075-.025h.075c.025 0 .05 0 .075-.026.026 0 .05-.025.076-.025.025 0 .085-.111.11-.111.025 0 .125.219.075-.025.025 0 .025 0 .05-.025h.025c.026 0 .05-.025.076-.025.025 0 .05-.025.075-.025.025 0 .05-.026.075-.026.025 0 .174.064.199.064.025 0 .05-.025.05-.025h.025c.025 0 .05-.026.075-.051.025-.025.05-.025.075-.05.025-.025.05-.025.075-.05.025-.025.05-.025.076-.05.025-.025.05-.025.075-.05.025-.025-.002-.013.023-.038s.05-.025.075-.05c.025-.025.05-.025.075-.05.025-.026.05-.051.075-.051.025 0 .025-.025.05-.025l.025-.025a.345.345 0 01.1-.075c.026-.025.05-.05.101-.075.025-.025.075-.05.1-.075l.076-.076c.025-.025.165-.082.19-.107.025-.025.075-.05.1-.1.05-.025.076-.076.126-.101l.05-.05.025-.025.05-.05c.05-.05.3.106.125-.125a.7.7 0 00.126-.151l.025-.025.025-.025c.05-.05.075-.1.125-.125.075-.075.126-.151.2-.226.126-.15.283-.339.409-.515l.025-.025c.05-.075.1-.15.175-.226 0-.025.025-.025.025-.05.126-.175.226-.351.326-.526.05-.1.1-.176.15-.276.026-.05.076-.125.101-.175 0 0 0-.025.025-.025v-.026c.025-.075.075-.125.1-.2.026-.05.05-.125.076-.176 0-.025.025-.05.025-.075v-.025c0-.025.025-.05.025-.05l.075-.15c.025-.051.025-.101.05-.126.025-.05.025-.075.05-.125s.525.125.05-.126c.026-.05.026-.075.05-.125.026-.05.026-.075.05-.125.026-.05.026-.075.026-.126 0-.025.025-.075.025-.1 0-.025.338.025.338 0 .91.326-.212-.255-.212-.28 0-.025.025-.075.025-.1 0-.025 0-.05.026-.05v-.025c.5.175.025-.076.025-.101 0-.025.025-.075.025-.1 0-.025.025-.075.025-.1 0-.025 0-.076.025-.101v-.075c0-.025 0-.075.025-.1 0-.025 0-.075.025-.1v-.201c0-.025.259.005.259-.02s-.373-.281-.373-.281v-.471l-1.854-1.058zm14.493-8.184c0 .151 0 .326-.025.477-.025.15-.025.326-.05.476-.025.15-.05.326-.1.501-.051.176-.076.326-.126.502-.05.175-.1.326-.175.501a3.88 3.88 0 01-.201.477v.025c-.075.15-.15.3-.226.476 0 0 0 .025-.025.025-.075.15-.15.301-.25.451-.101.176-.226.351-.326.527-.076.1-.151.225-.226.326-.125.15-.251.326-.376.476-.1.125-.226.251-.326.376l-.025.025-.351.351-.025.025a4.348 4.348 0 01-.376.326c-.126.1-.251.201-.401.301-.126.1-.276.175-.402.251-.15.075-.275.15-.401.2-.125.05-.276.126-.401.151-.125.05-.251.075-.376.1-.251.05-.502.075-.727.075-.101 0-.226-.025-.326-.05h-.025l-.301-.075h-.025c-.1-.025-.176-.075-.276-.126l1.88 1.104.151.075c.025.025.075.025.125.05h.025c.051.025.076.025.126.05.025 0 .075.025.1.025h.075c.025 0-.76-.423-.735-.423.025 0 .085.237.11.262.025 0 .835.423.885.423h.552c.025 0 .05 0 .075-.025.025 0 .05 0 .075-.025h.075c.025 0 .051 0 .076-.025.025 0 .05-.025.075-.025.025 0 .085-.112.11-.112.025 0 .126.22.075-.025.026 0 .026 0 .051-.025h.025c.025 0 .05-.025.075-.025.025 0 .05-.025.075-.025.025 0 .05-.025.075-.025.025 0 .174.063.199.063.025 0 .05-.025.05-.025h.025c.025 0 .05-.025.075-.05.025-.025.05-.025.075-.05.025-.025.051-.025.076-.05.025-.026.05-.026.075-.051.025-.025.05-.025.075-.05.025-.025-.002-.013.023-.038s.05-.025.075-.05c.025-.025.05-.025.075-.05.025-.025.05-.05.075-.05.025 0 .025-.025.051-.025l.025-.025c.025-.025.05-.051.1-.076a.345.345 0 01.1-.075c.025-.025.075-.05.1-.075l.076-.075c.025-.025.165-.083.19-.108.025-.025.075-.05.1-.1.051-.025.076-.075.126-.1l.05-.05.025-.025.05-.051c.05-.05.301.106.126-.125.05-.05.1-.1.125-.15l.025-.025.025-.025c.05-.051.075-.101.125-.126.076-.075.126-.15.201-.225.125-.151.283-.34.408-.515l.025-.025c.05-.076.1-.151.176-.226 0-.025.025-.025.025-.05.125-.176.225-.351.326-.527.05-.1.1-.175.15-.276.025-.05.075-.125.1-.175 0 0 0-.025.025-.025v-.025c.025-.075.076-.125.101-.201.025-.05.05-.125.075-.175 0-.025.025-.05.025-.075v-.025c0-.026.025-.051.025-.051l.075-.15c.025-.05.025-.1.05-.125.025-.051.025-.076.051-.126.025-.05.524.126.05-.125.025-.05.025-.075.05-.125.025-.051.025-.076.05-.126s.025-.075.025-.125c0-.025.025-.075.025-.1 0-.026.338.025.338 0 .91.325-.211-.256-.211-.281 0-.025.025-.075.025-.1 0-.025 0-.05.025-.05v-.025c.5.175.025-.075.025-.1 0-.025.025-.076.025-.101 0-.025.025-.075.025-.1 0-.025 0-.075.025-.1v-.075c0-.025 0-.076.025-.101 0-.025 0-.075.025-.1v-.201c0-.025.259.005.259-.02s-.373-.28-.373-.28v-.472l-1.854-1.058zm14.736-8.605c0 .15 0 .326-.025.476-.025.151-.025.326-.05.477-.025.15-.05.325-.1.501-.05.175-.075.326-.126.501-.05.176-.1.326-.175.502a3.72 3.72 0 01-.201.476v.025c-.075.151-.15.301-.225.477 0 0 0 .025-.025.025-.076.15-.151.3-.251.451-.1.175-.226.351-.326.526-.075.101-.15.226-.226.326-.125.151-.25.326-.376.477-.1.125-.225.25-.326.376l-.025.025-.351.351-.025.025c-.125.125-.251.225-.376.326-.125.1-.251.2-.401.301-.126.1-.276.175-.401.25-.151.075-.276.151-.401.201-.126.05-.276.125-.402.15a2.07 2.07 0 01-.376.1 3.706 3.706 0 01-.727.076c-.1 0-.226-.025-.326-.05h-.025l-.301-.076h-.025c-.1-.025-.175-.075-.276-.125l1.881 1.103.15.075c.025.025.075.025.126.05h.025c.05.026.075.026.125.051.025 0 .075.025.1.025h.076c.025 0-.76-.423-.735-.423.025 0 .084.237.109.262.025 0 .835.423.885.423h.552c.025 0 .05 0 .075-.025.025 0 .05 0 .075-.026h.076c.025 0 .05 0 .075-.025.025 0 .05-.025.075-.025.025 0 .085-.111.111-.111.025 0 .125.219.075-.025.025 0 .025 0 .05-.025h.025c.025 0 .05-.025.075-.025.025 0 .05-.025.075-.025.026 0 .051-.026.076-.026s.173.064.198.064c.025 0 .05-.025.05-.025h.025c.025 0 .05-.026.075-.051.026-.025.051-.025.076-.05s.05-.025.075-.05c.025-.025.05-.025.075-.05.025-.025.05-.025.075-.05.025-.025-.002-.013.023-.038s.05-.025.075-.05c.025-.025.05-.025.076-.051.025-.025.05-.05.075-.05.025 0 .025-.025.05-.025l.025-.025a.345.345 0 01.1-.075.338.338 0 01.101-.075c.025-.025.075-.05.1-.075a5.41 5.41 0 01.075-.076c.025-.025.165-.082.19-.107.026-.025.076-.05.101-.1.05-.025.075-.076.125-.101l.05-.05.025-.025.051-.05c.05-.05.3.106.125-.125.05-.051.1-.101.125-.151l.025-.025.025-.025c.051-.05.076-.1.126-.125.075-.075.125-.151.2-.226.126-.15.283-.339.408-.515l.025-.025c.051-.075.101-.15.176-.226 0-.025.025-.025.025-.05a6.01 6.01 0 00.326-.526c.05-.1.1-.176.15-.276.025-.05.076-.125.101-.175 0 0 0-.026.025-.026v-.025c.025-.075.075-.125.1-.2.025-.05.05-.126.075-.176 0-.025.025-.05.025-.075v-.025c0-.025.025-.05.025-.05l.076-.151c.025-.05.025-.1.05-.125.025-.05.025-.075.05-.125s.524.125.05-.126c.025-.05.025-.075.05-.125s.025-.075.05-.125.025-.075.025-.126c0-.025.025-.075.025-.1 0-.025.339.025.339 0 .909.326-.212-.255-.212-.28 0-.025.025-.075.025-.1 0-.025 0-.05.025-.05v-.026c.5.176.025-.075.025-.1 0-.025.025-.075.025-.1 0-.025.025-.075.025-.1 0-.025 0-.076.025-.101v-.075c0-.025 0-.075.025-.1 0-.025 0-.075.025-.1v-.201c0-.025.259.005.259-.02s-.373-.281-.373-.281v-.472l-1.854-1.057z" fill="#2EEAB1"/><path d="M124.343 87.571l.05.05c.075.075.125.15.175.226l.025.025a2.544 2.544 0 01.276.602v.025c.025.125.075.25.101.376a2.2 2.2 0 01.05.4c.025.151.025.302.025.452l1.881 1.103v-.626c0-.026 0-.076-.025-.1 0-.026 0-.076-.026-.101 0-.025 0-.05-.025-.075v-.025c0-.026-.025-.076-.025-.1 0-.026-.025-.076-.025-.101 0-.05-.025-.075-.025-.1v-.05c0-.026-.025-.05-.025-.076-.025-.05-.025-.1-.05-.125-.025-.05-.025-.075-.05-.125l-.075-.15c-.026-.05-.051-.076-.076-.126l-.025-.025V88.9c-.05-.075-.1-.15-.175-.226l-.05-.05-.151-.15c-.025-.026-.05-.026-.05-.05-.075-.05-.151-.126-.226-.151l-1.881-1.103.226.15c.025.025.05.025.05.05.025.1.075.15.126.201z" fill="#02C087"/><path d="M109.474 96.17l.051.05c.075.076.125.151.175.226l.025.026c.05.075.101.175.151.275.05.1.1.226.125.326v.025c.05.126.075.251.1.376.025.126.051.276.051.401.025.15.025.301.025.452l1.88 1.103v-.626c0-.026 0-.076-.025-.101 0-.025 0-.075-.025-.1 0-.026 0-.05-.025-.076v-.025c0-.025-.025-.075-.025-.1 0-.025-.025-.075-.025-.1 0-.05-.025-.076-.025-.1v-.051c0-.025-.025-.05-.025-.075-.025-.05-.025-.1-.05-.125-.025-.05-.025-.076-.05-.126l-.076-.15c-.025-.05-.05-.075-.075-.126l-.025-.025V97.5c-.05-.075-.1-.15-.175-.225l-.051-.05-.15-.15c-.025-.026-.05-.026-.05-.05-.075-.051-.151-.126-.226-.151l-1.881-1.104.226.151c.025.025.05.025.05.05.025.075.075.125.125.2zm14.738-8.607l.05.05c.075.076.125.15.175.226l.026.025c.05.075.1.176.15.276.05.1.1.225.125.326v.025c.051.125.076.25.101.376a2.2 2.2 0 01.05.401c.025.15.025.3.025.451l1.881 1.103v-.626c0-.025 0-.076-.025-.1 0-.026 0-.076-.025-.1 0-.026 0-.051-.025-.076v-.025c0-.025-.026-.075-.026-.1 0-.026-.025-.076-.025-.1 0-.05-.025-.076-.025-.101v-.05c0-.025-.025-.05-.025-.075-.025-.05-.025-.1-.05-.126-.025-.05-.025-.075-.05-.125l-.075-.15c-.025-.05-.05-.076-.076-.126l-.025-.025v-.025c-.05-.075-.1-.15-.175-.226l-.05-.05-.151-.15c-.025-.025-.05-.025-.05-.05-.075-.05-.15-.126-.226-.15l-1.88-1.104.225.15c.025.026.05.026.05.05.025.076.076.126.126.201zM97.84 141.999l-1.88-1.078-.1-34.272 1.88 1.078.1 34.272z" fill="#2EEAB1"/><path d="M112.333 133.815l-1.881-1.078-.272-34.419 2.066 1.156.087 34.341zm14.737-8.607l-1.881-1.078-.272-34.42 2.067 1.157.086 34.341zm-31.937-20.764l.05.05c.075.075.125.151.175.226l.025.025a2.642 2.642 0 01.276.602v.025c.05.125.075.25.1.376.026.125.05.276.05.401.026.15.026.301.026.451l1.88 1.103v-.627c0-.025 0-.075-.024-.1 0-.025 0-.075-.026-.1 0-.025 0-.05-.025-.075v-.025c0-.025-.025-.076-.025-.101 0-.025-.025-.075-.025-.1 0-.05-.025-.075-.025-.1v-.05c0-.025-.025-.05-.025-.076-.025-.05-.025-.1-.05-.125-.025-.05-.025-.075-.05-.125l-.075-.151c-.025-.05-.05-.075-.076-.125l-.025-.025v-.025c-.05-.075-.1-.151-.175-.226l-.05-.05-.15-.15c-.026-.025-.051-.025-.051-.051-.075-.05-.15-.125-.226-.15l-1.88-1.103.225.15c.025.025.05.025.05.051.025.1.075.15.126.2z" fill="#2EEAB1"/><path d="M67.684 114.051l-.452 56.383 80.285-46.068 1.203-57.097-81.036 46.782zm26.302 34.848c-2.207 1.278-4.012.25-4.012-2.282l-.1-34.271c0-2.532 1.78-5.641 3.986-6.919 2.207-1.279 4.012-.251 4.012 2.281l.1 34.271c.025 2.558-1.755 5.641-3.986 6.92zm14.341-8.273c-2.206 1.278-4.011.25-4.011-2.282l-.101-34.271c0-2.532 1.78-5.641 3.987-6.92 2.206-1.278 4.012-.25 4.012 2.282l.1 34.271c.025 2.532-1.755 5.641-3.987 6.92zm14.869-8.6c-2.207 1.279-4.012.251-4.012-2.281l-.1-34.271c0-2.532 1.78-5.641 3.986-6.92 2.207-1.278 4.012-.25 4.012 2.282l.1 34.271c.025 2.557-1.78 5.666-3.986 6.919z" fill="#02C087"/><path d="M67.527 114.07l-1.88-1.103 1.554 55.456 1.806.852-1.48-55.205zm79.131-47.86l-81.011 46.757 1.88 1.103 81.011-46.756-1.88-1.103z" fill="#02C087"/><path d="M65.997 114.924l1.028 55.581L8.48 137.738l.1-55.456 57.418 32.642z" fill="#2EEAB1"/><path d="M65.997 114.923l1.755-1.805 3.787 54.629-4.514 2.757-1.028-55.581z" fill="#02C087"/><path d="M8.581 82.281l2.081-1.203 57.443 32.617-2.106 1.228L8.58 82.281z" fill="#DEA800"/><path d="M71.137 106.348v-.1c0-.05 0-.075-.025-.126 0-.025 0-.075-.025-.1 0-.025 0-.05-.025-.1 0-.025 0-.05-.025-.1 0-.025-.025-.051-.025-.101v-.025c0-.025 0-.05-.025-.05 0-.025-.025-.05-.025-.075 0-.025-.025-.05-.025-.075 0-.025 0-.05-.025-.05v-.026c0-.025-.025-.05-.025-.075 0-.025-.025-.05-.025-.075 0-.025-.025-.05-.025-.075v-.025c0-.025 0-.025-.026-.05 0-.025-.025-.051-.025-.076s-.025-.05-.025-.075c0-.025-.025-.05-.025-.075 0-.025-.025-.05-.025-.075 0-.025-.025-.05-.025-.075-.025-.026-.025-.051-.05-.076 0-.025-.025-.05-.025-.05v-.025c-.025-.025-.025-.05-.05-.075-.025-.025-.025-.05-.05-.075-.025-.025-.025-.05-.05-.075v-.026c-.026-.025-.026-.05-.05-.075-.026-.025-.026-.05-.05-.1-.026-.025-.026-.05-.051-.1 0 0 0-.025-.025-.025v-.025c0-.026-.025-.051-.025-.051-.025-.025-.05-.075-.075-.1-.026-.025-.05-.075-.076-.1-.025-.025-.05-.075-.075-.1-.025-.051-.075-.076-.1-.126v-.025l-.025-.025c-.025-.025-.05-.075-.075-.1l-.076-.075a5.42 5.42 0 00-.075-.076l-.05-.05c-.025-.025-.05-.025-.05-.05-.05-.05-.1-.1-.176-.15-.025-.025-.075-.051-.1-.076l-.05-.05-6.319 3.61c.026.025.076.051.1.076.026.025.076.05.101.075.05.05.1.1.176.15l.1.101.075.075c.05.05.1.1.15.175l.026.025c.075.076.125.151.2.251.05.075.126.176.176.251v.025c.05.075.1.175.175.276.05.1.1.175.15.275.05.101.1.201.126.276.05.1.075.201.125.301.026.1.076.201.1.301l.076.301c.025.1.05.2.05.301.025.1.025.2.025.275v.176l-.05.025-.025 4.838v.351c0 .051-.025.101-.025.151 0 .025-.025.075-.025.1 0 .05-.025.1-.025.125 0 .026-.025.051-.025.101-.026.05-.026.075-.05.125 0 .025-.026.05-.026.075a.192.192 0 00-.05.101c-.025.025-.025.05-.05.075-.025.025-.05.075-.075.1-.025.025-.025.05-.05.05a.345.345 0 01-.1.075l-.05.051c-.05.05-.101.075-.151.1l6.394-3.711c.05-.025.1-.075.15-.1l.05-.05a.344.344 0 01.1-.075c.025-.025.025-.05.05-.05a.339.339 0 00.076-.101c.025-.025.025-.05.05-.075a.189.189 0 00.05-.1c.025-.025.025-.05.025-.075.025-.05.025-.076.05-.126 0-.025.025-.05.025-.1.025-.05.025-.075.025-.125 0-.025.025-.076.025-.101 0-.05.025-.1.025-.15v-.326l.026-4.839-.076.051v-.201z" fill="#B68A00"/><path d="M62.839 106.374c-.026.025-.026.025 0 0-.026.025-.05.05-.05.075l-.076.075-.05.051-.075.075-.05.05c0 .025-.025.025-.025.05-.05.075-.1.125-.15.201 0 .025-.026.025-.026.05v.025c-.075.1-.125.2-.2.326-.026.025-.026.05-.05.075l-.151.301c0 .025-.025.025-.025.05v.025c-.05.1-.075.201-.126.301v.025c-.024.05-.024.1-.05.15 0 .025-.025.051-.025.076-.025.075-.025.125-.05.2v.075c0 .025-.025.051-.025.076 0 .05-.025.075-.025.125v.025c0 .05-.025.1-.025.15v.326l6.268 3.636v-.276c0-.075.025-.151.025-.226v-.025c0-.075.025-.15.05-.226v-.05a.702.702 0 00.05-.225c0-.025.026-.05.026-.076.025-.05.025-.125.05-.175.025-.1.075-.201.125-.301 0-.025.025-.025.025-.05l.15-.301c.026-.025.026-.05.05-.075.051-.1.126-.226.201-.326.025-.025.025-.05.05-.075.05-.075.1-.151.151-.201.025-.025.05-.075.075-.1l.076-.075c.05-.05.075-.101.125-.126l.05-.05.075-.075-6.293-3.635c-.05.075-.075.075-.075.075z" fill="#CA9900"/><path d="M95.76 30.736c0-1.303-.928-1.855-2.082-1.178L11.564 76.941c-1.154.652-2.056 2.257-2.056 3.585l.025 5.54c0 1.305.928 1.856 2.081 1.18l82.114-47.409c1.154-.652 2.056-2.256 2.056-3.585l-.025-5.516z" fill="#D8D8D8"/><path d="M139.161 62.074L83.8 30.11c-1.329-.778-2.432-.15-2.432 1.378l-.025 4.764c0 1.53 1.078 3.41 2.407 4.187l55.361 31.964c1.329.777 2.432.15 2.432-1.379l.025-4.763c.026-1.554-1.078-3.41-2.407-4.187z" fill="#D8D8D8"/><path d="M88.865 25.747c-.05-.025-.125-.05-.175-.075-.025 0-.025 0-.05-.025-.05-.025-.1-.025-.15-.025h-.353c-.025 0-.05 0-.075.025h-.074c-.05 0-.076.025-.126.025h-.05c-.025 0-.05.025-.05.025-.025.025-.075.025-.1.05h-.05c-.025 0-.05.026-.076.05a.19.19 0 01-.1.05c-.175.101-.376.226-.552.327-.526.3-1.052.626-1.604.927-.853.477-1.68.978-2.532 1.454-1.104.652-2.232 1.279-3.335 1.93-1.354.778-2.683 1.555-4.037 2.332-1.555.903-3.084 1.78-4.639 2.683-1.705.978-3.41 1.955-5.114 2.958-1.83 1.053-3.636 2.106-5.466 3.159l-5.717 3.31a1134.16 1134.16 0 00-5.842 3.384l-5.867 3.384c-1.93 1.103-3.861 2.232-5.792 3.335-1.856 1.078-3.711 2.156-5.591 3.234-1.756 1.003-3.51 2.03-5.266 3.033-1.605.928-3.234 1.856-4.839 2.783l-4.287 2.482c-1.204.702-2.432 1.404-3.636 2.106-.953.551-1.93 1.103-2.883 1.655-2.232 1.278-4.539 2.482-6.595 4.036-.225.2-.2.35 0 .501-.025.025-.025.05-.05.076l-.15.3c0 .025-.025.025-.025.05v.026c-.05.1-.076.2-.126.3v.026c-.05.05-.075.1-.075.15 0 .025-.025.05-.025.075-.025.075-.025.126-.05.2v.076c0 .025-.025.05-.025.075 0 .05-.025.075-.025.126v.025c0 .05-.025.1-.025.15v.326l6.268 3.635V80.2c0-.075.025-.15.025-.225v-.025c0-.076.025-.15.05-.226v-.05a.732.732 0 00.05-.226c0-.025.025-.05.025-.075.025-.05.025-.125.05-.175.026-.1.076-.201.126-.301 0-.025.025-.025.025-.05l.15-.301c.025-.025.025-.05.05-.076.05-.1.126-.225.201-.325.025-.025.025-.05.05-.076.05-.075.1-.15.15-.2.026-.025.05-.075.076-.1l.075-.076c.05-.05.075-.1.125-.125l.05-.05c.05-.05-2.331 3.284-2.306 3.234l51.75 28.405c.076.05 1.255 2.08 1.305 2.106.025.025-.276-4.789-.251-4.764.025.025 3.485 5.215 3.51 5.24.025.025 2.934-1.529 2.934-1.529l.075-.076.025-.025c.05-.05.125-.1.175-.15.076-.05.126-.1.201-.151.075-.05.15-.1.2-.125l73.139-42.168v3.835c0 .05 0 .1-.025.15 0 .026-.025.076-.025.101 0 .05-.025.075-.025.126 0 .025-.025.05-.025.1-.025.05-.025.075-.05.125 0 .025-.026.05-.026.075-.025.025-.025.076-.05.1-.025.026-.025.05-.05.076-.025.025-.05.075-.075.1-.025.025-.025.05-.05.05a.345.345 0 01-.1.076l-.051.05c-.05.05-.1.075-.15.1l6.268-3.635c.05-.025.101-.076.151-.1.025 0 .025-.026.05-.05a.345.345 0 01.1-.076c.025-.025.025-.05.05-.05a.345.345 0 00.075-.1c.026-.025.026-.05.051-.075a.19.19 0 00.05-.1c.025-.026.025-.051.025-.076.025-.025.025-.075.05-.125 0-.025.025-.05.025-.1s.025-.076.025-.126c0-.025.025-.075.025-.1 0-.05.025-.1.025-.15v-3.787l2.708-1.554a.752.752 0 01.201-.1h.025c.05-.025.125-.05.175-.075h.025c.051-.025.126-.025.176-.05h.05c.05 0 .075-.025.125-.025h.301c.05 0 .101.025.151.025.025 0 .05 0 .05.025.075.025.125.05.175.075L88.865 25.747zm-21.262 77.217s-.025 0-.025-.025c-.025-.025-50.497-29.182-50.497-29.182l71.182-41.09 50.548 29.182-71.208 41.115z" fill="#F8F8F8"/><path d="M152.325 63.529c0-1.304-.928-1.856-2.081-1.179l-82.115 47.383a2.772 2.772 0 00-.627.477l-8.148-4.588L5.346 74.459c-1.329-.777-2.432-.15-2.432 1.379v6.869c0 .05 0 .076.025.126v.125c0 .05.025.075.025.125v.051c0 .025.025.05.025.075 0 .025.025.05.025.075 0 0 0 .025.025.025v.025c.025.05.05.075.076.125.025.05.075.1.1.15l.075.076.05.05c.05.025.076.075.126.1l6.268 3.636c-.05-.025-.1-.05-.125-.1l-.05-.05 44.229 25.446a.88.88 0 00.225.175l1.38.752 9.301 5.09a5.78 5.78 0 005.667-.05l1.379-.778c.175-.075.326-.125.451-.2 1.63-.953 3.26-1.881 4.89-2.833 4.588-2.658 9.176-5.315 13.79-7.948a9290 9290 0 0116.799-9.702c5.666-3.284 11.358-6.543 17.024-9.827 4.839-2.783 9.679-5.591 14.493-8.374 3.058-1.78 6.142-3.535 9.201-5.315.602-.35 1.229-.702 1.831-1.053 1.153-.652 2.056-2.256 2.056-3.585l.05-5.59z" fill="#DAE2E5"/><path d="M43.056 7.947l-10.13 5.867-.05 17.449 10.105-2.683.075-20.633z" fill="#424245"/><path d="M43.055 7.621c0-.1.025-.175.05-.275 0-.025 0-.05.026-.076.025-.05.025-.125.05-.175 0-.025.025-.05.025-.075.025-.05.025-.1.05-.126 0-.025.025-.05.05-.075.025-.05.05-.075.075-.125.025-.025.025-.05.05-.075.026-.025.05-.076.076-.1.025-.026.025-.05.05-.05l.1-.101.05-.05c.05-.05.1-.075.15-.126l-10.129 5.892a.664.664 0 00-.15.125l-.05.05c-.026.025-.076.05-.1.1-.026.026-.026.05-.05.05-.026.026-.051.076-.076.101-.025.025-.025.05-.05.075a.551.551 0 00-.076.126c-.025.025-.025.05-.05.075-.025.05-.025.1-.05.125 0 .025-.025.05-.025.075-.025.05-.025.1-.05.176 0 .025-.025.05-.025.075-.025.075-.025.176-.05.25v.326l10.13-5.89V7.62c0 .025 0 .025 0 0z" fill="#3F3F42"/><path d="M33.904 5.917c.025 0 .025 0 0 0 .175-.025.325-.05.476-.05h.501c.15.025.326.05.502.075h.025c.175.025.351.075.526.15h.026c.175.05.35.125.526.226.025 0 .025.025.05.025a3 3 0 01.552.3l10.13-5.89c-.05-.026-.076-.051-.126-.076-.1-.05-.2-.1-.276-.15l-.15-.076c-.025 0-.025-.025-.05-.025s-.025-.025-.05-.025c-.076-.025-.15-.075-.226-.1-.075-.025-.126-.05-.2-.075-.026 0-.026 0-.05-.025h-.026c-.025 0-.075-.026-.1-.026-.05-.025-.126-.025-.176-.05-.05-.025-.125-.025-.175-.05h-.076c-.025 0-.075-.025-.1-.025-.05 0-.1-.025-.15-.025-.05 0-.1-.025-.15-.025h-.753a.32.32 0 00-.151.025c-.05 0-.1.025-.15.025h-.076c-.025 0-.05 0-.075.025-.05 0-.1.025-.126.025-.05.025-.1.025-.125.05-.025 0-.05.025-.075.025h-.025c-.025 0-.025 0-.05.026-.05.025-.1.05-.126.05-.05.025-.1.05-.125.075-.025.025-.05.025-.075.05l-10.13 5.867a1.94 1.94 0 01.401-.176h.025c.126-.075.276-.125.402-.15z" fill="#4D4D51"/><path d="M102.053 97.624v.175c0 .025-.025.05-.025.076 0 .025 0 .025-.025.05s-.025.05-.05.075l-.025.025-.075.075 10.129-5.891.075-.076.025-.024c.025-.026.025-.05.051-.076 0-.025.025-.025.025-.05s.025-.05.025-.075v-.176l-10.13 5.892z" fill="#3E3E41"/><path d="M102.173 50.58l10.037-5.84-.028 46.993-10.129 5.892.12-47.045z" fill="#424245"/><path d="M47.219.752L37.114 6.618l59.514 34.396 10.083-5.862L47.219.752z" fill="#58575C"/><path d="M97.666 41.717c.025.025.075.05.1.1.125.1.25.226.376.326l.15.15.326.326.15.15c.126.151.277.302.402.452l.05.05c.15.176.301.351.427.552.025.025.025.05.05.05.15.2.275.401.401.602.125.2.251.426.376.626 0 .026.025.026.025.05.125.201.226.427.351.627 0 0 0 .025.025.025.1.226.226.452.301.652v.025c.1.226.201.452.276.677v.025l.225.677v.025c.076.226.126.452.176.677v.025c.05.226.1.451.125.677v.025c.025.226.05.426.076.652v.05c.025.226.025.426.025.652l10.129-5.892v-.175c0-.1 0-.226-.025-.326v-.276c0-.1-.025-.175-.025-.276 0-.075-.025-.175-.025-.25v-.076c0-.05-.025-.125-.025-.175-.025-.075-.025-.15-.05-.226-.025-.075-.025-.15-.05-.225v-.05c-.026-.05-.026-.1-.051-.176-.025-.075-.025-.15-.05-.225-.025-.076-.05-.15-.05-.226 0-.025-.025-.05-.025-.075v-.025c0-.026-.025-.076-.025-.1a1.677 1.677 0 00-.075-.201c-.025-.075-.05-.15-.075-.2-.026-.051-.026-.101-.051-.151v-.025s0-.025-.025-.025a1.655 1.655 0 00-.075-.2 1.722 1.722 0 00-.075-.202.505.505 0 00-.1-.2v-.05c-.025-.05-.051-.126-.076-.176-.025-.075-.075-.15-.1-.2-.025-.075-.075-.15-.1-.226 0-.025-.025-.05-.025-.05s0-.025-.025-.025c-.025-.05-.051-.075-.051-.125-.05-.076-.075-.15-.125-.226-.05-.075-.075-.15-.125-.226 0-.025-.025-.05-.025-.075 0-.025-.025-.025-.025-.05a.546.546 0 00-.076-.125c-.05-.076-.1-.15-.15-.251-.05-.075-.1-.176-.15-.25-.051-.076-.101-.176-.176-.252-.075-.1-.125-.2-.201-.275-.025-.025-.025-.05-.05-.05-.025-.025-.025-.05-.05-.05a.762.762 0 01-.125-.176 13.45 13.45 0 01-.276-.351l-.05-.05c-.1-.126-.226-.25-.326-.376l-.075-.076-.151-.15c-.1-.125-.225-.225-.326-.326l-.15-.15c-.126-.126-.251-.226-.376-.326-.025-.025-.076-.05-.101-.1-.15-.126-.3-.251-.476-.351-.025 0-.025-.025-.05-.025-.05-.026-.075-.05-.125-.076-.101-.05-.176-.125-.276-.175-.076-.05-.151-.1-.226-.126l-10.13 5.892c.176.1.326.2.477.3.05.026.075.051.125.076.176.05.351.176.502.3z" fill="#484849"/><path d="M96.562 40.965L37.113 6.618c-3.109-1.805-5.641-.35-5.666 3.235l-.05 21.81 1.504-.4.05-17.45c0-1.704 1.229-2.406 2.708-1.529l62.357 36.001c1.48.853 2.683 2.934 2.683 4.664l-.151 43.797c0 .477.326 1.053.752 1.304.427.25.753.05.753-.426l.125-46.907c.025-3.61-2.507-7.972-5.616-9.752z" fill="#4B4B4E"/><path d="M19.917 108.666l8.323 14.415m16.648-.001l8.323 14.415m-24.969-24.023l-8.323 4.805m33.291 9.609l-8.322 4.805m-16.098 2.587l10.245 5.915" stroke="#137154" stroke-width="1.479" stroke-linecap="round"/><circle cx="128.573" cy="6.523" fill="#2EEAB1" r="5.653"/><ellipse cx="3.327" cy="48.549" rx="3.327" ry="3.326" fill="#0BDE9F"/><ellipse cx="168.583" cy="124.211" rx="3.327" ry="3.326" fill="#02C087"/></svg>