<svg width="24" height="24" fill="none" xmlns="http://www.w3.org/2000/svg"><circle cx="12" cy="12" r="12" fill="#02C087"/><path d="M17.09 9.455h-1.908V6.909h-8.91A1.277 1.277 0 005 8.182v7h1.273c0 1.056.852 1.909 1.909 1.909a1.907 1.907 0 001.909-1.91h3.818c0 1.057.853 1.91 1.91 1.91a1.906 1.906 0 001.908-1.91H19V12l-1.91-2.545zm-8.908 6.681a.953.953 0 110-1.909c.528 0 .954.427.954.955a.953.953 0 01-.954.954zm8.59-5.727L18.02 12h-2.838v-1.59h1.59zm-.954 5.727a.953.953 0 110-1.909c.528 0 .955.427.955.955a.953.953 0 01-.955.954z" fill="#fff"/></svg>