<svg width="106" height="30" fill="none" xmlns="http://www.w3.org/2000/svg"><path d="M0 15C0 6.716 6.716 0 15 0h91c0 16.569-13.431 30-30 30H15C6.716 30 0 23.284 0 15z" fill="#C1EADD"/><path d="M25.273 14.89h-1.382V20h-1.5V8.625h1.5v5.016h1.172l3.976-5.016h1.867l-4.343 5.516L31.227 20H29.39l-4.118-5.11zm6.5.805c0-.828.162-1.573.485-2.234.328-.662.781-1.172 1.36-1.531.582-.36 1.247-.54 1.991-.54 1.151 0 2.081.4 2.79 1.196.713.797 1.07 1.857 1.07 3.18v.101c0 .823-.16 1.563-.477 2.219a3.56 3.56 0 01-1.351 1.523c-.584.365-1.256.547-2.016.547-1.146 0-2.075-.398-2.79-1.195-.707-.797-1.062-1.852-1.062-3.164v-.102zm1.454.172c0 .938.216 1.69.648 2.258.438.568 1.02.852 1.75.852.734 0 1.318-.287 1.75-.86.432-.578.648-1.385.648-2.422 0-.927-.22-1.677-.664-2.25-.437-.578-1.02-.867-1.75-.867-.713 0-1.289.284-1.726.852-.438.567-.656 1.38-.656 2.437zM48.187 20h-1.445v-3.61H42.86V20h-1.453v-8.453h1.453v3.664h3.883v-3.664h1.446V20zm4.961-3.602h-1.054V20H50.64v-8.453h1.453v3.578h.945l2.844-3.578h1.75l-3.344 4.062L57.914 20h-1.836l-2.93-3.602zm8.774 1.485l1.969-6.336h1.547l-3.399 9.758c-.526 1.406-1.362 2.11-2.508 2.11l-.273-.024-.54-.102v-1.172l.391.031c.49 0 .87-.099 1.141-.296.276-.198.503-.56.68-1.086l.32-.86-3.016-8.36h1.578l2.11 6.337zm11.953-2.016c0 1.287-.294 2.323-.883 3.11-.588.786-1.385 1.18-2.39 1.18-1.026 0-1.834-.326-2.422-.977v4.07h-1.446V11.547h1.32l.071.937c.588-.729 1.406-1.093 2.453-1.093 1.016 0 1.818.382 2.406 1.148.594.766.891 1.83.891 3.195v.133zm-1.445-.164c0-.953-.203-1.706-.61-2.258-.406-.552-.963-.828-1.672-.828-.875 0-1.53.388-1.968 1.164v4.04c.432.77 1.093 1.156 1.984 1.156.693 0 1.242-.274 1.648-.82.412-.553.618-1.37.618-2.454zm6.68 3.274c.515 0 .966-.157 1.35-.47.386-.312.6-.702.642-1.171h1.367a2.623 2.623 0 01-.5 1.383 3.287 3.287 0 01-1.235 1.047 3.53 3.53 0 01-1.625.39c-1.15 0-2.067-.383-2.75-1.148-.677-.771-1.015-1.823-1.015-3.156v-.243c0-.822.15-1.554.453-2.195a3.459 3.459 0 011.297-1.492c.568-.354 1.237-.531 2.008-.531.947 0 1.734.284 2.359.851.63.568.966 1.305 1.008 2.211h-1.367c-.042-.547-.25-.995-.625-1.344-.37-.354-.829-.53-1.375-.53-.735 0-1.305.265-1.711.796-.401.526-.602 1.29-.602 2.29v.273c0 .973.2 1.723.602 2.25.4.526.974.789 1.718.789z" fill="#252525"/></svg>