<svg width="50" height="50" fill="none" xmlns="http://www.w3.org/2000/svg"><path d="M49.728 22.829a8.795 8.795 0 00-2.228-8.313 8.8 8.8 0 01-1.206-1.552c-2.824 1.512-6.492-.311-6.775-3.716-3.317-.276-5.132-3.763-3.828-6.553a8.754 8.754 0 01-.207-.195A8.796 8.796 0 0027.171.272a8.795 8.795 0 01-4.342 0A8.795 8.795 0 0014.517 2.5a8.796 8.796 0 01-3.76 2.17 8.795 8.795 0 00-6.086 6.086 8.795 8.795 0 01-2.17 3.76A8.795 8.795 0 00.272 22.83a8.795 8.795 0 010 4.342A8.795 8.795 0 002.5 35.483a8.796 8.796 0 012.171 3.76 8.795 8.795 0 006.085 6.086 8.794 8.794 0 013.76 2.171 8.795 8.795 0 008.313 2.227 8.795 8.795 0 014.342 0 8.795 8.795 0 008.313-2.227 8.794 8.794 0 013.76-2.171 8.796 8.796 0 006.086-6.085 8.795 8.795 0 012.17-3.76 8.795 8.795 0 002.228-8.313 8.795 8.795 0 010-4.342z" fill="#F6B778"/><path d="M18.54 47.501a8.797 8.797 0 00-3.76-2.171 8.795 8.795 0 01-6.085-6.085 8.795 8.795 0 00-2.171-3.76 8.795 8.795 0 01-2.228-8.313 8.795 8.795 0 000-4.342 8.795 8.795 0 012.228-8.313 8.796 8.796 0 002.17-3.76 8.796 8.796 0 016.086-6.085A8.795 8.795 0 0018.54 2.5 8.79 8.79 0 0122.668.235a8.794 8.794 0 00-8.152 2.266 8.796 8.796 0 01-3.76 2.17 8.795 8.795 0 00-6.085 6.086 8.796 8.796 0 01-2.171 3.76A8.795 8.795 0 00.272 22.83a8.795 8.795 0 010 4.342A8.795 8.795 0 002.5 35.484a8.795 8.795 0 012.17 3.76 8.795 8.795 0 006.086 6.086 8.795 8.795 0 013.76 2.17 8.794 8.794 0 008.152 2.267A8.79 8.79 0 0118.54 47.5z" fill="#DDA46C"/><path d="M15.955 25.967a.754.754 0 01-.755-.754v-1.637a.754.754 0 111.51 0v1.637a.754.754 0 01-.755.754zm18.09 0a.754.754 0 01-.754-.755v-1.636a.754.754 0 111.509 0v1.636a.754.754 0 01-.755.755zM25 27.177c-1.287 0-2.494-.537-3.311-1.472a.754.754 0 111.136-.993c.53.607 1.323.956 2.175.956.851 0 1.644-.349 2.175-.956a.754.754 0 111.136.993c-.817.935-2.024 1.472-3.311 1.472z" fill="#252525"/><path d="M18.788 11.786c1.886 0 3.414-1.176 3.414-2.625 0-1.45-1.529-2.625-3.414-2.625-1.886 0-3.415 1.175-3.415 2.625s1.529 2.625 3.415 2.625zm-6.924 24.398c1.886 0 3.415-1.175 3.415-2.624 0-1.45-1.529-2.625-3.415-2.625-1.886 0-3.414 1.175-3.414 2.625s1.528 2.624 3.414 2.624zm23.687 4.228c1.886 0 3.415-1.175 3.415-2.625s-1.529-2.624-3.415-2.624c-1.886 0-3.414 1.175-3.414 2.624 0 1.45 1.529 2.625 3.414 2.625z" fill="#FF9F0C"/><path d="M22.256 42.247c1.319 0 2.387-.822 2.387-1.835s-1.068-1.834-2.387-1.834c-1.318 0-2.386.821-2.386 1.834 0 1.014 1.068 1.835 2.386 1.835zm9.818-27.509c1.319 0 2.387-.822 2.387-1.835s-1.069-1.834-2.387-1.834-2.386.821-2.386 1.834c0 1.013 1.068 1.835 2.386 1.835zM8.45 21.693c1.317 0 2.386-.82 2.386-1.834 0-1.013-1.069-1.834-2.387-1.834s-2.386.821-2.386 1.834c0 1.013 1.068 1.834 2.386 1.834zm34.337 6.565c1.318 0 2.387-.821 2.387-1.834 0-1.013-1.069-1.835-2.387-1.835s-2.387.822-2.387 1.835 1.069 1.834 2.387 1.834z" fill="#654D3B"/></svg>