<svg width="106" height="30" fill="none" xmlns="http://www.w3.org/2000/svg"><path d="M0 15C0 6.716 6.716 0 15 0h91c0 16.569-13.431 30-30 30H15C6.716 30 0 23.284 0 15z" fill="#C1EADD"/><path d="M31.063 20h-1.508v-5.258H23.82V20h-1.5V8.625h1.5v4.89h5.735v-4.89h1.508V20zm2.054-4.305c0-.828.162-1.573.485-2.234.328-.662.78-1.172 1.359-1.531.583-.36 1.247-.54 1.992-.54 1.151 0 2.08.4 2.79 1.196.713.797 1.07 1.857 1.07 3.18v.101c0 .823-.16 1.563-.477 2.219a3.56 3.56 0 01-1.352 1.523c-.583.365-1.255.547-2.015.547-1.146 0-2.076-.398-2.79-1.195-.708-.797-1.062-1.852-1.062-3.164v-.102zm1.453.172c0 .938.216 1.69.649 2.258.437.568 1.02.852 1.75.852.734 0 1.317-.287 1.75-.86.432-.578.648-1.385.648-2.422 0-.927-.221-1.677-.664-2.25-.437-.578-1.02-.867-1.75-.867-.713 0-1.289.284-1.726.852-.438.567-.657 1.38-.657 2.437zM42.758 20v-8.453h3.297c1.125 0 1.987.198 2.586.594.604.39.906.966.906 1.726 0 .39-.117.745-.352 1.063-.234.312-.58.552-1.039.718.51.12.92.355 1.227.704.312.349.469.765.469 1.25 0 .776-.287 1.37-.86 1.78-.567.412-1.372.618-2.414.618h-3.82zm1.445-3.71v2.546h2.39c.605 0 1.055-.112 1.352-.336.302-.224.453-.54.453-.945 0-.844-.62-1.266-1.859-1.266h-2.336zm0-1.157h1.867c1.355 0 2.032-.396 2.032-1.188 0-.791-.641-1.2-1.922-1.226h-1.977v2.414zm7.18.562c0-.828.161-1.573.484-2.234.328-.662.781-1.172 1.36-1.531.583-.36 1.247-.54 1.992-.54 1.15 0 2.08.4 2.789 1.196.713.797 1.07 1.857 1.07 3.18v.101c0 .823-.159 1.563-.476 2.219a3.56 3.56 0 01-1.352 1.523c-.583.365-1.255.547-2.016.547-1.145 0-2.075-.398-2.789-1.195-.708-.797-1.062-1.852-1.062-3.164v-.102zm1.453.172c0 .938.216 1.69.648 2.258.438.568 1.021.852 1.75.852.735 0 1.318-.287 1.75-.86.433-.578.649-1.385.649-2.422 0-.927-.222-1.677-.664-2.25-.438-.578-1.021-.867-1.75-.867-.714 0-1.29.284-1.727.852-.437.567-.656 1.38-.656 2.437zm11.445 3.11c.516 0 .966-.157 1.352-.47.385-.312.599-.702.64-1.171h1.368a2.621 2.621 0 01-.5 1.383 3.286 3.286 0 01-1.235 1.047 3.53 3.53 0 01-1.625.39c-1.15 0-2.068-.383-2.75-1.148-.677-.771-1.015-1.823-1.015-3.156v-.243c0-.822.15-1.554.453-2.195a3.458 3.458 0 011.297-1.492c.567-.354 1.237-.531 2.007-.531.948 0 1.735.284 2.36.851.63.568.966 1.305 1.008 2.211h-1.368c-.041-.547-.25-.995-.625-1.344-.37-.354-.828-.53-1.375-.53-.734 0-1.304.265-1.71.796-.402.526-.602 1.29-.602 2.29v.273c0 .973.2 1.723.602 2.25.4.526.973.789 1.718.789zm11.266-6.258H72.71V20h-1.445v-7.281h-2.782v-1.172h7.063v1.172zm2.984 1.742h2.196c.958.01 1.716.26 2.273.75.557.49.836 1.154.836 1.992 0 .844-.287 1.521-.86 2.031-.572.51-1.343.766-2.312.766h-3.578v-8.453h1.445v2.914zm0 1.18v3.18h2.149c.541 0 .96-.139 1.257-.415.297-.281.446-.664.446-1.148 0-.469-.146-.852-.438-1.149-.286-.302-.69-.458-1.21-.468H78.53z" fill="#252525"/></svg>