<svg width="409" height="358" fill="none" xmlns="http://www.w3.org/2000/svg"><rect x="89.5" width="319" height="319" rx="159.5" fill="#F9F9F9"/><path d="M104.437 144.434c-.745 0-1.397-.652-1.397-1.397v-.466c0-.745.652-1.397 1.397-1.397s1.397.652 1.397 1.397v.466c0 .745-.652 1.397-1.397 1.397zM212.507 305c-.745 0-1.397-.652-1.397-1.397v-.932c0-.745.652-1.397 1.397-1.397.746 0 1.398.652 1.398 1.397v.932c0 .745-.559 1.397-1.398 1.397zm0-5.588c-.745 0-1.397-.652-1.397-1.397v-.932c0-.745.652-1.397 1.397-1.397.746 0 1.398.652 1.398 1.397v.932c0 .745-.559 1.397-1.398 1.397zm0-5.589c-.745 0-1.397-.652-1.397-1.397v-.931c0-.745.652-1.397 1.397-1.397.746 0 1.398.652 1.398 1.397v.931c0 .745-.559 1.397-1.398 1.397zm0-5.588c-.745 0-1.397-.652-1.397-1.397v-.931c0-.745.652-1.397 1.397-1.397.746 0 1.398.652 1.398 1.397v.931c0 .838-.559 1.397-1.398 1.397zm0-5.588c-.745 0-1.397-.652-1.397-1.397v-.931c0-.745.652-1.397 1.397-1.397.746 0 1.398.652 1.398 1.397v.931c0 .838-.559 1.397-1.398 1.397zm0-5.588c-.745 0-1.397-.652-1.397-1.397v-.931c0-.745.652-1.397 1.397-1.397.746 0 1.398.652 1.398 1.397v.931c0 .838-.559 1.397-1.398 1.397zm0-5.495c-.745 0-1.397-.652-1.397-1.397v-1.024c0-.746.652-1.397 1.397-1.397.746 0 1.398.651 1.398 1.397v.838c0 .931-.559 1.583-1.398 1.583zm.559-5.588h-.279a1.388 1.388 0 01-1.025-1.676c.093-.28.186-.652.186-.932.187-.745.932-1.211 1.677-1.024a1.388 1.388 0 011.025 1.676c-.093.279-.093.559-.186.838-.187.652-.746 1.118-1.398 1.118zm1.864-5.216c-.187 0-.373 0-.559-.093-.653-.372-1.025-1.117-.653-1.862.187-.28.28-.559.466-.839.373-.652 1.211-.931 1.864-.558.652.372.931 1.21.559 1.862-.094.28-.28.559-.373.745-.28.373-.839.745-1.304.745zm2.888-4.75c-.28 0-.652-.093-.839-.279-.559-.466-.745-1.397-.186-1.956.186-.279.373-.465.652-.745.466-.559 1.397-.652 1.956-.186.559.466.653 1.397.187 1.956-.187.186-.373.465-.559.652-.373.372-.745.558-1.211.558zm3.913-3.911c-.373 0-.839-.186-1.118-.559-.466-.559-.373-1.49.186-1.956.279-.186.559-.372.745-.559.652-.465 1.491-.279 1.957.28.465.652.279 1.49-.28 1.956a4.056 4.056 0 00-.652.558c-.186.187-.466.28-.838.28zm4.751-2.981c-.559 0-1.025-.279-1.304-.838-.373-.652 0-1.49.652-1.862.279-.187.559-.28.931-.373.746-.279 1.491 0 1.864.745.279.745 0 1.49-.746 1.863-.279.093-.559.279-.838.372-.093.093-.373.093-.559.093zm5.31-1.769c-.652 0-1.211-.466-1.397-1.118-.186-.745.279-1.49 1.118-1.676.279-.093.652-.093.931-.186.746-.094 1.491.372 1.584 1.117.093.745-.372 1.49-1.118 1.583-.279.094-.559.094-.838.187-.093.093-.187.093-.28.093zm56.644-.466h-.932c-.745 0-1.397-.652-1.397-1.397s.652-1.397 1.397-1.397h.932c.745 0 1.397.652 1.397 1.397s-.558 1.397-1.397 1.397zm-5.497 0h-.931c-.746 0-1.398-.652-1.398-1.397s.652-1.397 1.398-1.397h.931c.746 0 1.398.652 1.398 1.397s-.652 1.397-1.398 1.397zm-5.589 0h-.932c-.745 0-1.398-.652-1.398-1.397s.653-1.397 1.398-1.397h.932c.745 0 1.397.652 1.397 1.397s-.652 1.397-1.397 1.397zm-5.59 0h-.932c-.745 0-1.397-.652-1.397-1.397s.652-1.397 1.397-1.397h.932c.745 0 1.397.652 1.397 1.397s-.652 1.397-1.397 1.397zm-5.59 0h-.932c-.745 0-1.397-.652-1.397-1.397s.652-1.397 1.397-1.397h.932c.745 0 1.397.652 1.397 1.397s-.652 1.397-1.397 1.397zm-5.59 0h-.932c-.745 0-1.397-.652-1.397-1.397s.652-1.397 1.397-1.397h.932c.745 0 1.397.652 1.397 1.397s-.652 1.397-1.397 1.397zm-5.59 0h-.931c-.746 0-1.398-.652-1.398-1.397s.652-1.397 1.398-1.397h.931c.745 0 1.398.652 1.398 1.397s-.653 1.397-1.398 1.397zm-5.59 0h-.931c-.746 0-1.398-.652-1.398-1.397s.652-1.397 1.398-1.397h.931c.746 0 1.398.652 1.398 1.397s-.652 1.397-1.398 1.397zm-5.59 0h-.931c-.746 0-1.398-.652-1.398-1.397s.652-1.397 1.398-1.397h.931c.746 0 1.398.652 1.398 1.397s-.559 1.397-1.398 1.397zm-5.589 0h-.932c-.745 0-1.397-.652-1.397-1.397s.652-1.397 1.397-1.397h.932c.745 0 1.397.652 1.397 1.397s-.559 1.397-1.397 1.397zm54.873-.372c-.652 0-1.304-.466-1.397-1.118-.093-.745.372-1.49 1.118-1.583.279-.093.559-.093.838-.187.746-.186 1.491.28 1.677 1.118.186.745-.279 1.49-1.118 1.677-.279.093-.652.093-.931.186 0-.093-.094-.093-.187-.093zm5.311-1.584c-.559 0-1.025-.279-1.305-.838-.279-.745 0-1.49.746-1.863.279-.093.559-.279.838-.372.652-.373 1.491 0 1.863.652.373.652 0 1.49-.652 1.863-.279.093-.559.279-.931.372-.187.093-.373.186-.559.186zm4.844-2.794c-.466 0-.838-.186-1.118-.559-.466-.651-.279-1.49.28-1.955.279-.187.465-.373.745-.559.559-.466 1.491-.373 1.956.186.466.559.373 1.49-.186 1.956-.279.186-.559.372-.745.559-.28.279-.652.372-.932.372zm4.099-3.725c-.279 0-.652-.093-.931-.373-.559-.465-.652-1.397-.187-1.956.187-.186.373-.465.559-.651.466-.559 1.398-.746 1.957-.187.559.466.745 1.397.186 1.956-.186.28-.373.466-.652.745-.093.28-.559.466-.932.466zm3.168-4.657c-.186 0-.466-.093-.652-.186-.652-.373-.932-1.211-.559-1.863.093-.279.279-.559.372-.745.373-.652 1.118-1.024 1.864-.652.652.373 1.025 1.118.652 1.863-.186.279-.28.559-.466.931-.279.373-.745.652-1.211.652zm1.956-5.215h-.372a1.39 1.39 0 01-1.025-1.677c.093-.279.093-.559.186-.838a1.39 1.39 0 011.677-1.025c.745.187 1.211.932 1.118 1.677-.093.279-.186.652-.186.931-.187.559-.746.932-1.398.932zm.746-5.495c-.839 0-1.398-.652-1.398-1.398v-.931c0-.745.652-1.397 1.398-1.397.745 0 1.397.652 1.397 1.397v1.025c0 .745-.652 1.304-1.397 1.304zm0-5.589c-.746 0-1.398-.652-1.398-1.397v-.931c0-.745.652-1.397 1.398-1.397.745 0 1.397.652 1.397 1.397v.931c0 .745-.652 1.397-1.397 1.397zm0-5.588c-.746 0-1.398-.652-1.398-1.397v-.931c0-.745.652-1.397 1.398-1.397.745 0 1.397.652 1.397 1.397v.931c0 .838-.652 1.397-1.397 1.397zm0-5.588c-.746 0-1.398-.652-1.398-1.397v-.931c0-.745.652-1.397 1.398-1.397.745 0 1.397.652 1.397 1.397v.931c0 .838-.652 1.397-1.397 1.397zm0-5.495c-.746 0-1.398-.652-1.398-1.397v-.931c0-.745.652-1.397 1.398-1.397.745 0 1.397.652 1.397 1.397v.931c0 .745-.652 1.397-1.397 1.397zm0-5.588c-.746 0-1.398-.652-1.398-1.397v-.931c0-.745.652-1.397 1.398-1.397.745 0 1.397.652 1.397 1.397v.931c0 .745-.652 1.397-1.397 1.397zm0-5.588c-.746 0-1.398-.652-1.398-1.397v-.931c0-.746.652-1.397 1.398-1.397.745 0 1.397.651 1.397 1.397v.931c0 .745-.652 1.397-1.397 1.397zm0-5.588c-.746 0-1.398-.652-1.398-1.397v-.932c0-.745.652-1.397 1.398-1.397.745 0 1.397.652 1.397 1.397v.932c0 .745-.652 1.397-1.397 1.397zm0-5.588c-.746 0-1.398-.652-1.398-1.397v-.932c0-.745.652-1.397 1.398-1.397.745 0 1.397.652 1.397 1.397v.932c0 .745-.652 1.397-1.397 1.397zm0-5.588c-.746 0-1.398-.652-1.398-1.397v-.932c0-.745.652-1.397 1.398-1.397.745 0 1.397.652 1.397 1.397v.932c0 .745-.652 1.397-1.397 1.397zm0-5.589c-.746 0-1.398-.652-1.398-1.397v-.931c0-.745.652-1.397 1.398-1.397.745 0 1.397.652 1.397 1.397v.931c0 .745-.652 1.397-1.397 1.397zm0-5.588c-.746 0-1.398-.652-1.398-1.397v-.931c0-.745.652-1.397 1.398-1.397.745 0 1.397.652 1.397 1.397v.931c0 .839-.652 1.397-1.397 1.397zm-.093-5.588c-.746 0-1.305-.559-1.398-1.304 0-.279-.093-.559-.093-.838-.093-.745.466-1.49 1.211-1.583.745-.093 1.491.465 1.584 1.211 0 .279.093.651.093.931.093.745-.466 1.49-1.211 1.49-.093.093-.186.093-.186.093zm-1.212-5.402c-.559 0-1.118-.372-1.304-.931l-.279-.838c-.28-.745.093-1.49.838-1.77.745-.279 1.491.093 1.77.838.093.28.186.652.373.932.279.745-.187 1.49-.839 1.769h-.559zm-2.329-5.029c-.466 0-.931-.279-1.211-.652-.186-.279-.279-.466-.466-.745-.466-.652-.279-1.49.373-1.956.652-.466 1.491-.279 1.956.373l.559.838c.373.652.187 1.49-.465 1.956-.28.093-.559.186-.746.186zm-3.447-4.377c-.372 0-.745-.093-1.025-.373l-.652-.652a1.44 1.44 0 01-.093-1.956 1.443 1.443 0 011.957-.093c.279.186.465.466.745.652a1.35 1.35 0 010 1.956c-.28.373-.652.466-.932.466zm-201.7-1.956c-.745 0-1.397-.652-1.397-1.397v-.932c0-.745.652-1.397 1.397-1.397s1.397.652 1.397 1.397v.932c0 .745-.652 1.397-1.397 1.397zm197.321-1.49c-.279 0-.465-.093-.745-.187-.279-.186-.466-.279-.745-.465-.652-.373-.932-1.211-.559-1.863.373-.652 1.211-.931 1.863-.559.28.186.559.373.839.466.652.372.838 1.304.465 1.956-.186.465-.652.652-1.118.652zm-5.03-2.329c-.187 0-.28 0-.466-.093l-.839-.279c-.745-.187-1.118-1.025-.931-1.77.186-.745 1.024-1.117 1.77-.931.279.093.652.186.931.279.746.28 1.118 1.025.839 1.77-.186.652-.745 1.024-1.304 1.024zm-5.497-1.21h-.093c-.28 0-.559-.094-.839-.094-.745 0-1.397-.745-1.304-1.49 0-.745.745-1.397 1.491-1.304.372 0 .652 0 1.024.093a1.507 1.507 0 011.305 1.491c-.28.745-.839 1.304-1.584 1.304zm-5.59-.094h-.932c-.745 0-1.397-.652-1.397-1.397s.652-1.397 1.397-1.397h.932c.745 0 1.398.652 1.398 1.397s-.559 1.397-1.398 1.397zm-5.59 0h-.931c-.746 0-1.398-.652-1.398-1.397s.652-1.397 1.398-1.397h.931c.746 0 1.398.652 1.398 1.397s-.559 1.397-1.398 1.397zm-5.496 0h-.932c-.745 0-1.398-.652-1.398-1.397s.653-1.397 1.398-1.397h.932c.745 0 1.397.652 1.397 1.397s-.652 1.397-1.397 1.397zm-5.59 0h-.932c-.745 0-1.397-.652-1.397-1.397s.652-1.397 1.397-1.397h.932c.745 0 1.397.652 1.397 1.397s-.652 1.397-1.397 1.397zm-5.59 0h-.932c-.745 0-1.397-.652-1.397-1.397s.652-1.397 1.397-1.397h.932c.745 0 1.397.652 1.397 1.397s-.652 1.397-1.397 1.397zm-5.59 0h-.932c-.745 0-1.397-.652-1.397-1.397s.652-1.397 1.397-1.397h.932c.745 0 1.398.652 1.398 1.397s-.653 1.397-1.398 1.397zm-5.59 0h-.931c-.746 0-1.398-.652-1.398-1.397s.652-1.397 1.398-1.397h.931c.746 0 1.398.652 1.398 1.397s-.652 1.397-1.398 1.397zm-5.59 0h-.931c-.746 0-1.398-.652-1.398-1.397s.652-1.397 1.398-1.397h.931c.746 0 1.398.652 1.398 1.397s-.652 1.397-1.398 1.397zm-5.589-.093h-.094c-.372 0-.652-.093-1.024-.093-.746-.093-1.305-.745-1.212-1.583.094-.745.746-1.304 1.584-1.211.28 0 .559.093.839.093a1.506 1.506 0 011.304 1.49c0 .745-.652 1.304-1.397 1.304zm-136.579-.372c-.745 0-1.397-.652-1.397-1.397v-.932c0-.745.652-1.397 1.397-1.397s1.397.652 1.397 1.397v.932c0 .745-.652 1.397-1.397 1.397zm131.175-.652c-.186 0-.279 0-.466-.093-.279-.094-.652-.187-.931-.28-.746-.279-1.118-1.024-.839-1.769.28-.745 1.025-1.118 1.77-.839l.839.28a1.474 1.474 0 01.931 1.769 1.4 1.4 0 01-1.304.932zm-5.124-2.329c-.28 0-.466-.093-.745-.186l-.839-.559c-.652-.465-.838-1.304-.372-1.956.465-.652 1.304-.838 1.956-.372.279.186.466.279.745.466.652.372.839 1.21.466 1.955-.279.466-.745.652-1.211.652zm-126.051-2.607c-.745 0-1.397-.652-1.397-1.397v-.932c0-.745.652-1.397 1.397-1.397s1.397.652 1.397 1.397v.932c0 .838-.652 1.397-1.397 1.397zm121.672-.746c-.372 0-.745-.093-.931-.372-.28-.186-.466-.466-.653-.652a1.35 1.35 0 010-1.956 1.352 1.352 0 011.957 0l.652.652a1.35 1.35 0 010 1.956c-.279.186-.652.372-1.025.372zm-3.54-4.284c-.466 0-.932-.186-1.211-.652l-.559-.838c-.373-.652-.186-1.49.466-1.956.652-.372 1.49-.186 1.956.466.187.279.28.466.466.745.466.652.186 1.49-.373 1.956-.279.186-.465.279-.745.279zm-118.132-.559c-.745 0-1.397-.651-1.397-1.397v-.931c0-.745.652-1.397 1.397-1.397s1.397.652 1.397 1.397v.931c0 .839-.652 1.397-1.397 1.397zm115.617-4.47a1.404 1.404 0 01-1.305-.931c-.093-.28-.186-.652-.279-.932a1.475 1.475 0 01.931-1.769 1.476 1.476 0 011.771.931l.279.838c.28.745-.093 1.49-.838 1.77-.187.093-.373.093-.559.093zm-115.617-1.118c-.745 0-1.397-.652-1.397-1.397v-.931c0-.745.652-1.397 1.397-1.397s1.397.652 1.397 1.397v.931c0 .839-.652 1.397-1.397 1.397zm114.405-4.284a1.41 1.41 0 01-1.397-1.211c0-.279-.093-.652-.093-1.024-.093-.745.559-1.397 1.304-1.49.745-.093 1.398.559 1.491 1.304 0 .279.093.558.093.838.093.745-.466 1.49-1.211 1.583h-.187zm-114.405-1.211c-.745 0-1.397-.652-1.397-1.397v-.931c0-.745.652-1.397 1.397-1.397s1.397.652 1.397 1.397v.931c0 .745-.652 1.397-1.397 1.397zm114.219-4.377c-.745 0-1.397-.652-1.397-1.397v-.931c0-.745.652-1.397 1.397-1.397s1.398.652 1.398 1.397v.931c0 .745-.653 1.397-1.398 1.397zm-114.219-1.211c-.745 0-1.397-.652-1.397-1.397v-.931c0-.745.652-1.397 1.397-1.397s1.397.652 1.397 1.397v.931c0 .745-.652 1.397-1.397 1.397zm114.219-4.377c-.745 0-1.397-.652-1.397-1.397v-.931c0-.746.652-1.398 1.397-1.398s1.398.652 1.398 1.398v.931c0 .745-.653 1.397-1.398 1.397zm-114.219-1.211c-.745 0-1.397-.652-1.397-1.397v-.931c0-.745.652-1.397 1.397-1.397s1.397.652 1.397 1.397v.931c0 .745-.652 1.397-1.397 1.397zm114.219-4.377c-.745 0-1.397-.652-1.397-1.397v-.932c0-.745.652-1.397 1.397-1.397s1.398.652 1.398 1.397v.932c0 .745-.653 1.397-1.398 1.397zM104.437 94.7c-.745 0-1.397-.652-1.397-1.397v-.931c0-.746.652-1.397 1.397-1.397s1.397.651 1.397 1.397v.93c0 .746-.652 1.398-1.397 1.398zm114.219-4.377c-.745 0-1.397-.652-1.397-1.397v-.932c0-.745.652-1.397 1.397-1.397s1.398.652 1.398 1.397v.932c0 .838-.653 1.397-1.398 1.397zm-114.219-1.211c-.745 0-1.397-.652-1.397-1.397v-.931c0-.746.652-1.398 1.397-1.398s1.397.652 1.397 1.398v.93c0 .746-.652 1.398-1.397 1.398zm114.219-4.377c-.745 0-1.397-.653-1.397-1.397v-.839c0-.745.559-1.397 1.304-1.49.745 0 1.397.559 1.491 1.304v1.025c0 .838-.559 1.397-1.398 1.397zm-114.219-1.211c-.838-.093-1.397-.745-1.397-1.49 0-.373 0-.652.093-.932a1.505 1.505 0 011.49-1.304 1.506 1.506 0 011.305 1.49c0 .28-.094.56-.094.839 0 .838-.652 1.397-1.397 1.397zm113.567-4.284c-.652 0-1.211-.466-1.397-1.025-.094-.28-.187-.559-.187-.838a1.476 1.476 0 01.932-1.77 1.476 1.476 0 011.77.932c.093.279.186.651.279.93a1.388 1.388 0 01-1.024 1.677c-.187.094-.28.094-.373.094zm-112.635-1.211c-.094 0-.28 0-.373-.093-.745-.187-1.118-1.025-.932-1.77.094-.28.187-.652.28-.931.279-.745 1.025-1.118 1.77-.838.745.279 1.118 1.024.838 1.769l-.279.838c-.093.652-.652 1.025-1.304 1.025zm110.679-4.005c-.466 0-1.025-.28-1.212-.745-.093-.28-.279-.559-.372-.745-.373-.652-.093-1.49.559-1.863s1.49-.093 1.863.559c.186.28.28.559.466.838.373.652.093 1.49-.652 1.863-.187 0-.373.093-.652.093zm-108.443-1.118c-.28 0-.466-.093-.653-.186-.652-.373-.931-1.21-.559-1.863.187-.28.373-.558.466-.838.373-.652 1.305-.838 1.957-.466.652.373.838 1.304.466 1.956-.187.28-.28.466-.466.745-.28.466-.746.652-1.211.652zm105.461-3.539c-.372 0-.838-.186-1.118-.466-.186-.186-.372-.465-.559-.651-.559-.56-.465-1.49.094-1.956.559-.56 1.49-.466 1.956.093.186.28.466.466.652.745.466.559.373 1.49-.186 1.956-.28.186-.559.28-.839.28zm-102.201-.931c-.372 0-.652-.093-.931-.373a1.44 1.44 0 01-.093-1.956c.186-.279.465-.465.652-.745a1.35 1.35 0 011.956 0 1.35 1.35 0 010 1.956l-.652.652c-.186.28-.559.466-.932.466zm98.102-2.887c-.279 0-.559-.094-.838-.28-.28-.186-.466-.372-.746-.559-.652-.465-.745-1.303-.372-1.955.465-.652 1.304-.745 1.956-.373l.839.559c.652.465.745 1.304.279 1.956-.279.465-.652.652-1.118.652zm-93.816-.746c-.466 0-.932-.186-1.118-.651-.466-.652-.28-1.49.373-1.956l.838-.56c.652-.372 1.491-.185 1.956.467.373.651.187 1.49-.465 1.955-.28.187-.466.28-.746.466-.372.186-.652.28-.838.28zm89.065-2.048c-.187 0-.373 0-.559-.094-.28-.093-.559-.186-.839-.372-.745-.28-1.025-1.118-.745-1.77.279-.745 1.118-1.024 1.77-.745.28.093.652.28.932.373.745.28 1.025 1.117.745 1.863-.279.372-.838.745-1.304.745zm-84.221-.466c-.559 0-1.118-.373-1.304-.931-.279-.746.093-1.49.839-1.77.279-.093.652-.186.931-.373.746-.279 1.491.187 1.77.839.28.745-.186 1.49-.838 1.77-.28.092-.559.186-.839.279-.186.093-.372.186-.559.186zm78.91-1.21h-.279c-.28-.094-.559-.094-.839-.187-.745-.093-1.304-.838-1.211-1.584.093-.745.839-1.303 1.584-1.21.28.093.652.093.932.186.745.186 1.304.838 1.118 1.677a1.306 1.306 0 01-1.305 1.117zm-73.506-.187c-.652 0-1.304-.466-1.398-1.21-.093-.746.466-1.491 1.212-1.584.279 0 .652-.093.931-.093.746-.094 1.491.465 1.491 1.303.093.746-.466 1.49-1.304 1.49-.28 0-.559.094-.839.094h-.093zm67.917-.28h-.932c-.745 0-1.398-.651-1.398-1.397 0-.745.653-1.397 1.398-1.397h.932c.745 0 1.397.652 1.397 1.397 0 .839-.652 1.397-1.397 1.397zm-5.59 0h-.932c-.745 0-1.397-.651-1.397-1.397 0-.745.652-1.397 1.397-1.397h.932c.745 0 1.397.652 1.397 1.397 0 .839-.652 1.397-1.397 1.397zm-5.59 0h-.932c-.745 0-1.397-.651-1.397-1.397 0-.745.652-1.397 1.397-1.397h.932c.745 0 1.397.652 1.397 1.397 0 .839-.652 1.397-1.397 1.397zm-5.59 0h-.932c-.745 0-1.397-.651-1.397-1.397 0-.745.652-1.397 1.397-1.397h.932c.745 0 1.397.652 1.397 1.397 0 .839-.559 1.397-1.397 1.397zm-5.59 0h-.931c-.746 0-1.398-.651-1.398-1.397 0-.745.652-1.397 1.398-1.397h.931c.745 0 1.398.652 1.398 1.397 0 .839-.559 1.397-1.398 1.397zm-5.497 0h-.931c-.745 0-1.398-.651-1.398-1.397 0-.745.653-1.397 1.398-1.397h.931c.746 0 1.398.652 1.398 1.397 0 .839-.652 1.397-1.398 1.397zm-5.589 0h-.932c-.745 0-1.397-.651-1.397-1.397 0-.745.652-1.397 1.397-1.397h.932c.745 0 1.397.652 1.397 1.397 0 .839-.652 1.397-1.397 1.397zm-5.59 0h-.932c-.745 0-1.397-.651-1.397-1.397 0-.745.652-1.397 1.397-1.397h.932c.745 0 1.397.652 1.397 1.397 0 .839-.652 1.397-1.397 1.397zm-5.59 0h-.932c-.745 0-1.397-.651-1.397-1.397 0-.745.652-1.397 1.397-1.397h.932c.745 0 1.397.652 1.397 1.397 0 .839-.652 1.397-1.397 1.397zm-5.59 0h-.932c-.745 0-1.397-.651-1.397-1.397 0-.745.652-1.397 1.397-1.397h.932c.745 0 1.398.652 1.398 1.397 0 .839-.653 1.397-1.398 1.397zm-5.59 0h-.931c-.746 0-1.398-.651-1.398-1.397 0-.745.652-1.397 1.398-1.397h.931c.746 0 1.398.652 1.398 1.397 0 .839-.652 1.397-1.398 1.397zm-5.59 0h-.931c-.746 0-1.398-.651-1.398-1.397 0-.745.652-1.397 1.398-1.397h.931c.746 0 1.398.652 1.398 1.397 0 .839-.652 1.397-1.398 1.397zm-18.446 230.697c-.745 0-1.398-.652-1.398-1.397s.653-1.397 1.398-1.397h.838c.746 0 1.398.559 1.491 1.304 0 .745-.559 1.397-1.304 1.49h-1.025zm-4.752-.373h-.279c-.373-.093-.652-.093-.932-.186-.745-.186-1.211-.931-1.118-1.677.187-.745.932-1.21 1.677-1.117.28.093.559.093.839.186.745.093 1.304.838 1.118 1.583 0 .746-.559 1.211-1.305 1.211zm10.249-.279c-.653 0-1.212-.466-1.398-1.025a1.388 1.388 0 011.025-1.676c.279-.093.559-.186.838-.186a1.475 1.475 0 011.77.931 1.475 1.475 0 01-.931 1.77c-.28.093-.652.186-.932.279-.093-.093-.279-.093-.372-.093zm-15.559-1.304c-.186 0-.373 0-.559-.093-.279-.093-.652-.28-.932-.373-.652-.372-1.024-1.211-.652-1.862.373-.652 1.211-1.025 1.864-.652.279.093.559.279.838.372.745.28 1.025 1.118.745 1.863a1.606 1.606 0 01-1.304.745zm20.869-.652c-.466 0-1.025-.279-1.211-.745-.373-.652-.093-1.49.652-1.863.279-.093.559-.279.745-.372.652-.373 1.491-.187 1.863.558.373.652.187 1.491-.559 1.863-.279.186-.558.28-.838.466-.279 0-.466.093-.652.093zm-25.807-2.142c-.28 0-.559-.093-.838-.28-.28-.186-.559-.372-.745-.652-.56-.465-.653-1.397-.187-1.955.466-.559 1.398-.652 1.957-.187.186.187.466.373.745.559.652.466.745 1.304.28 1.956-.28.373-.746.559-1.212.559zm30.465-1.025c-.373 0-.745-.186-1.025-.465-.466-.559-.466-1.49.187-1.956.186-.186.465-.373.652-.559.559-.559 1.49-.466 1.956.093.559.559.466 1.49-.093 1.956-.279.186-.466.466-.745.652-.28.186-.652.279-.932.279zm-34.47-2.794c-.373 0-.84-.186-1.025-.465-.187-.28-.466-.466-.653-.745-.465-.652-.372-1.491.28-1.956.652-.466 1.49-.373 1.956.279.187.186.373.466.56.652.465.559.465 1.49-.187 1.956-.373.186-.652.279-.932.279zm38.29-1.304c-.28 0-.559-.093-.839-.279-.652-.466-.745-1.304-.279-1.956.186-.279.372-.466.466-.745.465-.652 1.304-.838 1.956-.372.652.465.839 1.303.373 1.955l-.559.839a1.33 1.33 0 01-1.118.558zm-41.458-3.352c-.466 0-1.025-.28-1.211-.746-.187-.279-.28-.558-.466-.931-.28-.745 0-1.49.652-1.863.745-.279 1.49 0 1.863.652.093.28.28.559.373.839.373.651.093 1.49-.652 1.862-.093.093-.373.187-.56.187zm44.253-1.491c-.187 0-.373 0-.559-.093-.746-.279-1.025-1.117-.746-1.863.094-.279.187-.558.373-.838.28-.745 1.118-1.117 1.77-.838.745.279 1.118 1.118.839 1.77-.094.279-.28.652-.373.931-.279.652-.745.931-1.304.931zm-46.21-3.818c-.652 0-1.21-.466-1.397-1.025-.093-.279-.187-.652-.187-.931-.186-.745.373-1.49 1.118-1.676.746-.187 1.491.372 1.677 1.117.094.28.094.559.187.838a1.389 1.389 0 01-1.025 1.677h-.373zm47.793-1.583h-.279c-.745-.094-1.304-.839-1.118-1.584.093-.279.093-.559.093-.838.093-.745.839-1.304 1.584-1.211.745.093 1.304.838 1.211 1.584 0 .372-.093.651-.186 1.024 0 .559-.652 1.025-1.305 1.025zm-48.445-4.005c-.745 0-1.397-.652-1.397-1.397v-.932c0-.745.652-1.397 1.397-1.397.746 0 1.398.652 1.398 1.397v.932c0 .745-.653 1.397-1.398 1.397zm48.818-1.584c-.745 0-1.397-.652-1.397-1.397v-.931c0-.745.652-1.397 1.397-1.397s1.398.652 1.398 1.397v.931c0 .745-.653 1.397-1.398 1.397zm-48.818-4.004c-.745 0-1.397-.652-1.397-1.397v-.932c0-.745.652-1.397 1.397-1.397.746 0 1.398.652 1.398 1.397v.932c0 .745-.653 1.397-1.398 1.397zm48.818-1.584c-.745 0-1.397-.652-1.397-1.397v-.931c0-.745.652-1.397 1.397-1.397s1.398.652 1.398 1.397v.931c0 .745-.653 1.397-1.398 1.397zm-48.818-4.098c-.745 0-1.397-.652-1.397-1.397v-.931c0-.745.652-1.397 1.397-1.397.746 0 1.398.652 1.398 1.397v.931c0 .838-.653 1.397-1.398 1.397zm48.818-1.583c-.745 0-1.397-.652-1.397-1.397v-.931c0-.745.652-1.397 1.397-1.397s1.398.652 1.398 1.397v.931c0 .745-.653 1.397-1.398 1.397zm-48.818-4.005c-.745 0-1.397-.652-1.397-1.397v-.931c0-.745.652-1.397 1.397-1.397.746 0 1.398.652 1.398 1.397v.931c0 .745-.653 1.397-1.398 1.397zm48.818-1.583c-.745 0-1.397-.652-1.397-1.397v-.932c0-.745.652-1.397 1.397-1.397s1.398.652 1.398 1.397v.932c0 .745-.653 1.397-1.398 1.397zm-48.818-4.098c-.745 0-1.397-.652-1.397-1.397v-.931c0-.746.652-1.397 1.397-1.397.746 0 1.398.651 1.398 1.397v.931c0 .838-.653 1.397-1.398 1.397zm48.818-1.583c-.745 0-1.397-.652-1.397-1.397v-.932c0-.745.652-1.397 1.397-1.397s1.398.652 1.398 1.397v.932c0 .745-.653 1.397-1.398 1.397zm-48.818-4.005c-.745 0-1.397-.652-1.397-1.397v-.932c0-.745.652-1.397 1.397-1.397.746 0 1.398.652 1.398 1.397v.932c0 .745-.653 1.397-1.398 1.397zm48.818-1.584c-.745 0-1.397-.651-1.397-1.397v-.931c0-.745.652-1.397 1.397-1.397s1.398.652 1.398 1.397v.931c0 .746-.653 1.397-1.398 1.397zm-48.818-4.004c-.745 0-1.397-.652-1.397-1.397v-.932c0-.745.652-1.397 1.397-1.397.746 0 1.398.652 1.398 1.397v.932c0 .745-.653 1.397-1.398 1.397zm48.818-1.677c-.745 0-1.397-.652-1.397-1.397v-.931c0-.745.652-1.397 1.397-1.397s1.398.652 1.398 1.397v.931c0 .838-.653 1.397-1.398 1.397zm-48.818-4.005c-.745 0-1.397-.652-1.397-1.397v-.931c0-.745.652-1.397 1.397-1.397.746 0 1.398.652 1.398 1.397v.931c0 .745-.653 1.397-1.398 1.397zm48.818-1.583c-.745 0-1.397-.652-1.397-1.397v-.931c0-.745.652-1.397 1.397-1.397s1.398.652 1.398 1.397v.931c0 .745-.653 1.397-1.398 1.397zm-48.818-4.005c-.745 0-1.397-.652-1.397-1.397v-.931c0-.745.652-1.397 1.397-1.397.746 0 1.398.652 1.398 1.397v.931c0 .745-.653 1.397-1.398 1.397zm48.818-1.676c-.745 0-1.397-.652-1.397-1.397v-.932c0-.745.652-1.397 1.397-1.397s1.398.652 1.398 1.397v.932c0 .838-.653 1.397-1.398 1.397zm-48.818-4.005c-.745 0-1.397-.652-1.397-1.397v-.931c0-.745.652-1.397 1.397-1.397.746 0 1.398.652 1.398 1.397v.931c0 .838-.653 1.397-1.398 1.397zm48.818-1.583c-.745 0-1.397-.652-1.397-1.397v-.932c0-.745.652-1.397 1.397-1.397s1.398.652 1.398 1.397v.932c0 .745-.653 1.397-1.398 1.397zm-48.818-4.005c-.745 0-1.397-.652-1.397-1.397v-.931c0-.746.652-1.398 1.397-1.398.746 0 1.398.652 1.398 1.398v.931c0 .745-.653 1.397-1.398 1.397zm48.818-1.583c-.745 0-1.397-.652-1.397-1.397v-.932c0-.745.652-1.397 1.397-1.397s1.398.652 1.398 1.397v.932c0 .745-.653 1.397-1.398 1.397zm-49.19-4.005c-.653 0-1.212-.466-1.398-1.118-.093-.279-.093-.559-.186-.838a1.388 1.388 0 011.024-1.676 1.388 1.388 0 011.677 1.024c.094.279.187.652.187.931.186.745-.373 1.491-1.118 1.677h-.186zm49.19-1.677c-.745 0-1.397-.652-1.397-1.397v-.931c0-.745.652-1.397 1.397-1.397s1.398.652 1.398 1.397v.931c0 .745-.653 1.397-1.398 1.397zm-50.867-3.725c-.56 0-1.025-.279-1.305-.838-.093-.28-.28-.559-.372-.839-.373-.651-.093-1.49.652-1.862.652-.373 1.49-.093 1.863.652.186.279.28.559.373.931.28.745 0 1.49-.746 1.863-.093.093-.28.093-.465.093zm50.867-1.863c-.745 0-1.397-.652-1.397-1.397v-.931c0-.745.652-1.397 1.397-1.397s1.398.652 1.398 1.397v.931c0 .745-.653 1.397-1.398 1.397zm-53.755-2.98c-.466 0-.839-.186-1.118-.559a4.053 4.053 0 00-.56-.652c-.465-.559-.372-1.49.187-1.956.559-.465 1.49-.372 1.956.187.187.279.373.465.653.745.465.652.372 1.49-.28 1.955-.28.187-.559.28-.839.28zm-3.913-4.005a1.8 1.8 0 01-.932-.279c-.186-.187-.466-.373-.652-.559-.652-.466-.745-1.304-.28-1.956.466-.652 1.305-.745 1.957-.279.28.186.559.372.745.652.56.465.652 1.397.186 1.955-.186.28-.652.466-1.024.466zm-4.659-3.073c-.186 0-.465 0-.652-.187-.28-.093-.559-.279-.838-.372-.745-.28-1.025-1.118-.745-1.863.279-.745 1.117-1.024 1.863-.745.28.093.559.279.931.466.652.372.932 1.21.652 1.862-.279.559-.745.839-1.21.839zm-5.31-1.863h-.28c-.279-.093-.558-.093-.838-.186-.745-.187-1.211-.839-1.118-1.677.186-.745.839-1.304 1.677-1.117.373.093.652.093.932.186a1.388 1.388 0 011.025 1.676c-.187.652-.746 1.118-1.398 1.118zm-5.59-.652h-.931c-.746 0-1.398-.652-1.398-1.397s.652-1.397 1.398-1.397h.931c.745 0 1.398.652 1.398 1.397 0 .838-.653 1.397-1.398 1.397zm-5.683 0h-.931c-.746 0-1.398-.652-1.398-1.397s.652-1.397 1.398-1.397h.931c.745 0 1.398.652 1.398 1.397 0 .838-.56 1.397-1.398 1.397zm-5.59 0h-.931c-.746 0-1.398-.652-1.398-1.397s.652-1.397 1.398-1.397h.931c.746 0 1.398.652 1.398 1.397 0 .838-.652 1.397-1.398 1.397zm-5.59 0h-.931c-.745 0-1.398-.652-1.398-1.397s.653-1.397 1.398-1.397h.931c.746 0 1.398.652 1.398 1.397 0 .838-.652 1.397-1.398 1.397zm-5.683 0h-.931c-.745 0-1.398-.652-1.398-1.397s.652-1.397 1.398-1.397h.931c.746 0 1.398.652 1.398 1.397 0 .838-.652 1.397-1.398 1.397zm-5.59 0h-.931c-.745 0-1.397-.652-1.397-1.397s.652-1.397 1.397-1.397h.932c.745 0 1.397.652 1.397 1.397 0 .838-.652 1.397-1.397 1.397zm-5.682 0h-.932c-.745 0-1.398-.652-1.398-1.397s.653-1.397 1.398-1.397h.932c.745 0 1.397.652 1.397 1.397 0 .838-.652 1.397-1.397 1.397zm-5.59 0h-.932c-.745 0-1.397-.652-1.397-1.397s.652-1.397 1.397-1.397h.932c.745 0 1.397.652 1.397 1.397 0 .838-.652 1.397-1.397 1.397zm-5.683 0h-.932c-.745 0-1.397-.652-1.397-1.397s.652-1.397 1.397-1.397h.932c.745 0 1.397.652 1.397 1.397 0 .838-.559 1.397-1.397 1.397zm-5.59 0h-.932c-.745 0-1.397-.652-1.397-1.397s.652-1.397 1.397-1.397h.932c.745 0 1.397.652 1.397 1.397 0 .838-.652 1.397-1.397 1.397zm-5.683 0h-.932c-.745 0-1.397-.652-1.397-1.397s.652-1.397 1.397-1.397h.932c.745 0 1.397.652 1.397 1.397 0 .838-.559 1.397-1.397 1.397zm-5.59 0h-.932c-.745 0-1.397-.652-1.397-1.397s.652-1.397 1.397-1.397h.932c.745 0 1.398.652 1.398 1.397 0 .838-.653 1.397-1.398 1.397zm135.181 6.891c-.745 0-1.397-.652-1.397-1.397v-.465c0-.745.652-1.397 1.397-1.397.746 0 1.398.652 1.398 1.397v.465c0 .745-.652 1.397-1.398 1.397z" fill="#58575C"/><path d="M80.866 87.062c.094-1.025.187-2.05.187-3.167 0-1.024-.093-2.142-.187-3.167l-3.633-1.024c-.373-2.049-1.025-4.098-1.957-5.868l2.33-2.98a24.823 24.823 0 00-3.727-5.122l-3.54 1.303c-1.49-1.397-3.168-2.7-5.031-3.632l.093-3.818c-1.863-.839-3.913-1.49-5.962-1.956l-2.143 3.166c-1.025-.093-2.05-.186-3.075-.186-1.024 0-2.05.093-3.074.187l-2.143-3.167c-2.05.372-4.099 1.117-5.962 1.956l.093 3.818a24.764 24.764 0 00-5.031 3.632l-3.54-1.303c-1.398 1.583-2.702 3.26-3.727 5.122l2.33 2.98c-.932 1.863-1.491 3.819-1.957 5.868l-3.634 1.024c-.093 1.025-.186 2.05-.186 3.167 0 1.025.093 2.142.186 3.167l3.634 1.024c.372 2.05 1.025 4.098 1.956 5.868l-2.329 2.98a24.808 24.808 0 003.727 5.122l3.54-1.303c1.49 1.397 3.168 2.7 5.03 3.632l-.092 3.818c1.863.839 3.913 1.491 5.962 1.956l2.143-3.166c1.025.093 2.05.186 3.074.186 1.025 0 2.05-.093 3.075-.186l2.143 3.166c2.05-.372 4.099-1.117 5.962-1.956l-.093-3.818a24.789 24.789 0 005.03-3.632l3.541 1.303c1.397-1.583 2.702-3.26 3.727-5.122l-2.33-2.98c.932-1.863 1.491-3.819 1.957-5.868l3.633-1.024zm-26.551 14.994a18.128 18.128 0 01-18.167-18.161 18.128 18.128 0 0118.167-18.161A18.128 18.128 0 0172.48 83.895c0 10.059-8.198 18.161-18.166 18.161z" fill="#13D99D"/><path d="M78.63 59.494a.9.9 0 00-1.304 0 .9.9 0 000 1.304c12.67 12.667 12.67 33.343 0 46.009-6.149 6.147-14.347 9.5-23.011 9.5-8.665 0-16.863-3.353-23.012-9.5-12.298-12.108-12.763-31.666-1.49-44.426l.279 3.074c0 .466.466.838.931.838h.094c.559 0 .931-.466.838-1.024l-.466-5.123v-.093c0-.093 0-.093-.093-.186 0-.093-.093-.093-.093-.186 0 0 0-.094-.093-.094l-.093-.093c-.094 0-.094-.093-.187-.093h-.372l-5.218.466c-.558 0-.931.466-.838 1.024 0 .56.466.932 1.025.839l2.795-.187c-11.739 13.505-11.18 34.088 1.677 46.94 6.708 6.706 15.558 10.059 24.316 10.059 8.85 0 17.608-3.353 24.315-10.059 13.416-13.69 13.416-35.577 0-48.989zm108.443 141.099c-1.024-.373-1.956-.652-3.074-.838-1.025-.187-2.05-.373-3.168-.466l-1.77 3.353c-2.142-.093-4.192.186-6.148.652l-2.423-2.887a26.847 26.847 0 00-5.776 2.607l.559 3.726c-1.677 1.211-3.261 2.608-4.565 4.191l-3.633-.838c-1.212 1.676-2.329 3.539-3.075 5.495l2.609 2.701a15.679 15.679 0 00-.839 2.98c-.186 1.025-.372 2.049-.466 3.073l-3.447 1.491c0 2.142.187 4.191.653 6.24l3.726.652c.559 1.956 1.491 3.911 2.609 5.681l-1.957 3.26a28.297 28.297 0 004.193 4.656l3.354-1.676c1.583 1.211 3.447 2.235 5.403 3.073l.28 3.726c1.024.372 1.956.652 3.074.838 1.025.186 2.05.373 3.168.466l1.77-3.353c2.142.093 4.192-.186 6.149-.652l2.422 2.887a26.803 26.803 0 005.776-2.608l-.559-3.725c1.677-1.211 3.261-2.608 4.565-4.191l3.633.838c1.212-1.676 2.33-3.539 3.075-5.495l-2.609-2.701c.373-.931.652-1.956.839-2.98.186-1.025.372-2.049.466-3.074l3.447-1.49c0-2.142-.187-4.191-.653-6.24l-3.726-.652c-.559-1.956-1.491-3.912-2.609-5.681l1.957-3.26a28.304 28.304 0 00-4.193-4.657l-3.354 1.677c-1.583-1.211-3.447-2.235-5.403-3.074l-.28-3.725zm9.317 29.151c-2.05 9.873-11.646 16.206-21.521 14.157-9.875-2.049-16.211-11.642-14.161-21.514 2.05-9.873 11.646-16.206 21.521-14.157 9.875 2.049 16.21 11.642 14.161 21.514z" fill="#13D99D"/><path d="M159.683 197.241c-.466.279-.559.838-.279 1.304.279.465.838.558 1.304.279 15-9.872 35.216-5.681 45.092 9.313 4.751 7.265 6.428 15.927 4.658 24.495-1.77 8.475-6.708 15.833-13.975 20.583-14.44 9.5-33.632 5.961-43.88-7.637l3.074.372c.466.094.932-.279 1.025-.745v-.093c.093-.465-.279-.931-.838-1.024l-5.218-.652h-.279c-.093 0-.093 0-.186.093 0 0-.094 0-.094.093l-.093.093-.093.093c0 .093-.093.093-.093.187 0 .093-.093.093-.093.186l-.652 5.215c-.094.466.279.932.838 1.025.466.093 1.025-.279 1.025-.838l.373-2.794c10.9 14.249 31.116 17.882 46.302 7.916 7.919-5.215 13.043-13.132 14.813-21.793 1.77-8.662.28-17.976-4.938-25.892-10.62-15.74-31.955-20.211-47.793-9.779z" fill="#13D99D"/><path d="M253.313 229.559H63.072a8.746 8.746 0 01-8.758-8.755V98.984a8.746 8.746 0 018.758-8.755h190.241a8.746 8.746 0 018.757 8.754v121.821a8.746 8.746 0 01-8.757 8.755z" fill="#DFFFF5"/><path d="M253.313 90.228H63.072a8.746 8.746 0 00-8.758 8.755v11.176H262.07V98.983a8.746 8.746 0 00-8.757-8.755z" fill="#08A979"/><path d="M68.475 103.546a3.354 3.354 0 100-6.708 3.354 3.354 0 000 6.708z" fill="#FF4832"/><path d="M80.586 103.546a3.354 3.354 0 100-6.708 3.354 3.354 0 000 6.708z" fill="#FFB632"/><path d="M96.052 100.193a3.34 3.34 0 01-3.354 3.353 3.34 3.34 0 01-3.354-3.353 3.34 3.34 0 013.354-3.353 3.34 3.34 0 013.354 3.353z" fill="#A0C14F"/><path d="M139.56 217.449H71.364a9.382 9.382 0 01-9.41-9.407v-72.366a9.382 9.382 0 019.41-9.406h68.196a9.382 9.382 0 019.409 9.406v72.366a9.382 9.382 0 01-9.409 9.407zm104.903-55.881H166.95a9.382 9.382 0 01-9.409-9.407v-16.485a9.382 9.382 0 019.409-9.406h77.513a9.382 9.382 0 019.409 9.406v16.485a9.382 9.382 0 01-9.409 9.407zm-.001 54.018H166.95a9.382 9.382 0 01-9.41-9.407V179.45a9.382 9.382 0 019.41-9.407h77.512a9.383 9.383 0 019.41 9.407v26.729a9.383 9.383 0 01-9.41 9.407z" fill="#C1EADD"/><path d="M198.905 80.076h-71.736a4.572 4.572 0 01-4.565-4.563V39.655a4.572 4.572 0 014.565-4.563h71.736a4.571 4.571 0 014.565 4.563v35.858c.094 2.514-1.956 4.563-4.565 4.563z" fill="#DFFFF5"/><path d="M198.905 35h-71.736a4.572 4.572 0 00-4.565 4.564v5.867h80.96v-5.774c0-2.515-2.05-4.657-4.659-4.657z" fill="#08A979"/><path d="M131.827 40.213c0 .931-.745 1.77-1.77 1.77a1.77 1.77 0 01-1.77-1.77c0-1.025.745-1.77 1.77-1.77.932.093 1.77.839 1.77 1.77z" fill="#FF4832"/><path d="M138.163 40.213a1.77 1.77 0 01-1.77 1.77c-.932 0-1.77-.746-1.77-1.77 0-1.025.745-1.77 1.77-1.77 1.024.093 1.77.839 1.77 1.77z" fill="#FFB632"/><path d="M144.498 40.213a1.77 1.77 0 01-1.77 1.77c-.932 0-1.77-.746-1.77-1.77 0-1.025.745-1.77 1.77-1.77 1.024.093 1.77.839 1.77 1.77z" fill="#A0C14F"/><path d="M150.068 58.231c-1.061 0-1.883.4-2.465 1.2-.582.795-.874 1.905-.874 3.33 0 2.965 1.113 4.447 3.339 4.447.934 0 2.066-.233 3.394-.7v2.365c-1.092.454-2.311.682-3.657.682-1.935 0-3.415-.585-4.44-1.756-1.025-1.176-1.538-2.861-1.538-5.056 0-1.383.252-2.593.755-3.63.504-1.042 1.225-1.84 2.166-2.392.946-.557 2.053-.836 3.32-.836 1.292 0 2.59.312 3.894.937l-.909 2.292a15.067 15.067 0 00-1.502-.619 4.475 4.475 0 00-1.483-.264zm11.864 11.142l-3.202-10.432h-.082c.115 2.122.173 3.538.173 4.247v6.185h-2.52V56.076h3.839l3.148 10.168h.054l3.339-10.168h3.84v13.297h-2.63v-6.294c0-.297.004-.64.01-1.028.012-.388.054-1.419.127-3.092h-.082l-3.43 10.414h-2.584zm19.798-3.693c0 1.2-.434 2.147-1.301 2.838-.862.691-2.063 1.037-3.603 1.037-1.42 0-2.675-.267-3.767-.8v-2.62c.898.4 1.656.682 2.275.846a6.794 6.794 0 001.71.246c.619 0 1.092-.119 1.419-.355.334-.237.501-.588.501-1.055 0-.26-.073-.491-.219-.691a2.368 2.368 0 00-.645-.592c-.279-.188-.853-.488-1.72-.9-.813-.382-1.422-.749-1.829-1.1a4.126 4.126 0 01-.973-1.228c-.243-.467-.364-1.013-.364-1.638 0-1.176.397-2.1 1.192-2.774.8-.673 1.904-1.01 3.311-1.01.692 0 1.35.083 1.975.246.63.164 1.289.395 1.974.692l-.91 2.191c-.71-.29-1.298-.494-1.765-.609a5.61 5.61 0 00-1.365-.173c-.533 0-.943.125-1.228.373-.285.249-.427.573-.427.973 0 .249.057.467.172.655.116.182.298.361.546.537.255.17.852.479 1.793.928 1.243.594 2.095 1.191 2.556 1.791.461.595.692 1.325.692 2.192z" fill="#58575C"/><path d="M249.214 41.986c0 1.676-1.398 3.073-3.075 3.073-1.677 0-3.074-1.397-3.074-3.073 0-1.677 1.397-3.074 3.074-3.074 1.677 0 3.075 1.397 3.075 3.074zM36.893 218.757c0 1.676-1.398 3.074-3.074 3.074-1.677 0-3.075-1.398-3.075-3.074s1.398-3.073 3.075-3.073c1.676 0 3.074 1.397 3.074 3.073zM96.052 50.46a1.868 1.868 0 01-1.863 1.863 1.868 1.868 0 01-1.863-1.863c0-1.024.838-1.862 1.863-1.862s1.863.931 1.863 1.862zm-59.997 87.268c0 1.118-.932 2.142-2.143 2.142-1.118 0-2.143-.931-2.143-2.142 0-1.118.932-2.142 2.143-2.142 1.211 0 2.143.931 2.143 2.142zm237.102 120.89a3.736 3.736 0 01-3.726 3.725 3.737 3.737 0 01-3.727-3.725 3.737 3.737 0 013.727-3.725 3.736 3.736 0 013.726 3.725zm27.763-73.67a3.737 3.737 0 01-3.727 3.725 3.736 3.736 0 01-3.726-3.725 3.736 3.736 0 013.726-3.725 3.737 3.737 0 013.727 3.725zm36.095-42.718c3.306-14.176-5.511-28.348-19.692-31.652-14.181-3.304-28.357 5.509-31.662 19.686-3.306 14.177 5.511 28.348 19.692 31.653 14.181 3.304 28.357-5.51 31.662-19.687z" fill="#08A979"/><path d="M305.841 143.129l-11.063-4.878v-1.593l11.063-5.524v2.673l-7.62 3.53 7.62 3.13v2.662zm10.304-14.022l-6.071 16.282h-3.086l6.071-16.282h3.086zm1.092 11.36l7.62-3.13-7.62-3.53v-2.673l11.062 5.524v1.593l-11.062 4.878v-2.662z" fill="#fff"/><path d="M108.759 282.928c10.296-10.293 10.296-26.981 0-37.274s-26.99-10.293-37.286 0c-10.296 10.293-10.296 26.981 0 37.274s26.99 10.293 37.286 0z" fill="#DFFFF5"/><path d="M74.442 269.621c0-.646-.245-1.14-.735-1.481-.483-.342-1.189-.513-2.117-.513v-2.661c.936 0 1.645-.164 2.128-.49.482-.327.724-.795.724-1.404v-3.63c0-1.136.36-1.934 1.08-2.395.72-.467 1.987-.701 3.8-.701v2.505c-.736.023-1.245.164-1.527.424-.275.26-.412.642-.412 1.147v3.33c-.045 1.395-.914 2.22-2.607 2.472v.134c1.738.26 2.607 1.047 2.607 2.361v3.43c0 .505.137.887.412 1.147.275.26.784.401 1.526.423v2.517c-1.812 0-3.078-.234-3.799-.702-.72-.46-1.08-1.262-1.08-2.405v-3.508zm7.108 1.414c0-.624.166-1.095.5-1.414.335-.32.821-.479 1.46-.479.616 0 1.092.163 1.426.49.341.327.512.794.512 1.403 0 .587-.17 1.051-.512 1.392-.342.334-.817.501-1.426.501-.624 0-1.107-.163-1.448-.49-.342-.334-.513-.802-.513-1.403zm6.505 0c0-.624.167-1.095.501-1.414.335-.32.821-.479 1.46-.479.616 0 1.091.163 1.426.49.341.327.512.794.512 1.403 0 .587-.17 1.051-.512 1.392-.342.334-.817.501-1.426.501-.624 0-1.107-.163-1.449-.49-.341-.334-.512-.802-.512-1.403zm6.505 0c0-.624.168-1.095.502-1.414.335-.32.82-.479 1.46-.479.616 0 1.091.163 1.426.49.341.327.512.794.512 1.403 0 .587-.17 1.051-.512 1.392-.342.334-.817.501-1.426.501-.624 0-1.107-.163-1.449-.49-.341-.334-.512-.802-.512-1.403zm10.996 2.094c0 .831-.152 1.459-.456 1.882-.305.423-.81.731-1.515.924-.699.201-1.668.301-2.908.301v-2.517c.735-.015 1.24-.148 1.515-.401.282-.252.423-.642.423-1.169v-3.453c0-.638.219-1.154.658-1.548.438-.401 1.084-.664 1.938-.79v-.134c-1.686-.252-2.551-1.077-2.596-2.472v-3.33c0-.52-.137-.906-.412-1.158-.275-.253-.783-.39-1.526-.413v-2.505c1.24 0 2.213.1 2.919.3.705.193 1.207.505 1.504.936.304.423.456 1.043.456 1.86v3.653c0 .623.227 1.091.68 1.403.46.312 1.184.468 2.172.468v2.661c-.928 0-1.637.152-2.128.457-.482.304-.724.817-.724 1.537v3.508z" fill="#58575C"/><path d="M88.82 348.026c-.075 1.702-.553 2.991-1.435 3.866s-2.126 1.312-3.733 1.312c-1.688 0-2.984-.554-3.886-1.661-.895-1.114-1.343-2.7-1.343-4.758v-2.512c0-2.051.465-3.63 1.394-4.737.93-1.115 2.222-1.672 3.876-1.672 1.627 0 2.861.455 3.702 1.364.848.909 1.33 2.215 1.446 3.917h-3.025c-.027-1.053-.192-1.777-.492-2.174-.294-.403-.838-.605-1.63-.605-.807 0-1.378.284-1.713.851-.335.561-.513 1.487-.533 2.779v2.82c0 1.483.164 2.502.492 3.056.335.553.906.83 1.712.83.793 0 1.34-.191 1.641-.574.3-.39.472-1.09.513-2.102h3.014zm8.86-3.733h-2.85v8.706h-2.902v-8.706h-2.83v-2.389h8.582v2.389zm9.353 3.507c0 1.743-.301 3.08-.902 4.01-.595.929-1.484 1.394-2.666 1.394-.903 0-1.627-.366-2.174-1.097v5.158h-2.902v-15.361h2.686l.103 1.015c.554-.813 1.309-1.22 2.266-1.22 1.183 0 2.071.431 2.666 1.292.602.862.909 2.181.923 3.958v.851zm-2.892-.728c0-1.073-.119-1.832-.359-2.276-.232-.444-.629-.667-1.189-.667-.595 0-1.029.25-1.302.749v5.199c.259.478.7.717 1.322.717.575 0 .971-.242 1.19-.728.225-.485.338-1.24.338-2.266v-.728zm9.076 5.927c-.082-.171-.164-.458-.246-.861-.52.711-1.224 1.066-2.113 1.066-.929 0-1.702-.308-2.317-.923-.608-.615-.913-1.411-.913-2.389 0-1.162.37-2.061 1.108-2.697.745-.635 1.815-.96 3.209-.974h.882v-.892c0-.499-.085-.851-.256-1.056-.171-.205-.421-.308-.749-.308-.724 0-1.087.424-1.087 1.272h-2.901c0-1.026.382-1.87 1.148-2.533.772-.67 1.747-1.005 2.922-1.005 1.217 0 2.157.318 2.82.954.67.629 1.005 1.531 1.005 2.707v5.219c.014.957.15 1.706.41 2.246v.174h-2.922zm-1.713-2.071c.322 0 .595-.065.821-.195a1.38 1.38 0 00.502-.462v-2.307h-.697c-.492 0-.882.158-1.169.472-.28.314-.42.735-.42 1.261 0 .821.321 1.231.963 1.231zm13.844 2.071h-2.902v-4.255h-2.553v4.255h-2.912v-11.095h2.912v4.44h2.553v-4.44h2.902v11.095zm6.768-11.095h2.892v11.095h-2.892v-6.819l-2.584 6.819h-2.912v-11.095h2.912v6.809l2.584-6.809zm4.164 0h2.912v8.685h2.574v-8.685h2.902v8.706h1.518l-.205 5.681h-2.687v-3.292h-7.014v-11.095zm15.823 11.095c-.082-.171-.164-.458-.246-.861-.52.711-1.224 1.066-2.112 1.066-.93 0-1.703-.308-2.318-.923-.608-.615-.912-1.411-.912-2.389 0-1.162.369-2.061 1.107-2.697.745-.635 1.815-.96 3.209-.974h.882v-.892c0-.499-.085-.851-.256-1.056-.171-.205-.42-.308-.749-.308-.724 0-1.087.424-1.087 1.272h-2.901c0-1.026.382-1.87 1.148-2.533.773-.67 1.747-1.005 2.922-1.005 1.217 0 2.157.318 2.82.954.67.629 1.005 1.531 1.005 2.707v5.219c.014.957.151 1.706.41 2.246v.174h-2.922zm-1.712-2.071c.321 0 .594-.065.82-.195a1.38 1.38 0 00.502-.462v-2.307h-.697c-.492 0-.882.158-1.169.472-.28.314-.42.735-.42 1.261 0 .821.321 1.231.964 1.231zm9.671 2.071v-11.095h4.029c1.292 0 2.284.267 2.974.8.697.533 1.046 1.299 1.046 2.297 0 .513-.15.974-.451 1.384-.294.404-.725.715-1.292.933.69.144 1.234.434 1.63.872.403.431.605.977.605 1.641 0 2.112-1.33 3.168-3.989 3.168h-4.552zm2.891-4.594v2.205h1.733c.376 0 .639-.092.79-.277.15-.185.225-.455.225-.81 0-.41-.082-.697-.246-.861-.164-.164-.4-.25-.707-.257h-1.795zm0-1.999h1.179c.39 0 .663-.082.821-.246.164-.171.246-.421.246-.749 0-.718-.335-1.09-1.005-1.118h-1.241v2.113zm19.187 1.394c0 1.743-.301 3.08-.902 4.01-.595.929-1.484 1.394-2.666 1.394-.903 0-1.627-.366-2.174-1.097v5.158h-2.902v-15.361h2.686l.103 1.015c.554-.813 1.309-1.22 2.266-1.22 1.183 0 2.071.431 2.666 1.292.602.862.909 2.181.923 3.958v.851zm-2.892-.728c0-1.073-.119-1.832-.359-2.276-.232-.444-.629-.667-1.189-.667-.595 0-1.029.25-1.302.749v5.199c.259.478.7.717 1.322.717.575 0 .971-.242 1.19-.728.225-.485.338-1.24.338-2.266v-.728zm9.076 5.927c-.082-.171-.164-.458-.246-.861-.52.711-1.224 1.066-2.113 1.066-.929 0-1.702-.308-2.317-.923-.608-.615-.913-1.411-.913-2.389 0-1.162.37-2.061 1.108-2.697.745-.635 1.815-.96 3.209-.974h.882v-.892c0-.499-.085-.851-.256-1.056-.171-.205-.421-.308-.749-.308-.724 0-1.087.424-1.087 1.272h-2.901c0-1.026.382-1.87 1.148-2.533.772-.67 1.747-1.005 2.922-1.005 1.217 0 2.157.318 2.82.954.67.629 1.005 1.531 1.005 2.707v5.219c.014.957.15 1.706.41 2.246v.174h-2.922zm-1.713-2.071c.322 0 .595-.065.821-.195a1.38 1.38 0 00.502-.462v-2.307h-.697c-.492 0-.882.158-1.169.472-.28.314-.42.735-.42 1.261 0 .821.321 1.231.963 1.231zm10.204-5.742c0-.814-.308-1.221-.923-1.221-.335 0-.598.099-.79.298-.191.191-.287.471-.287.841h-2.902c0-1.005.356-1.822 1.067-2.451s1.63-.944 2.758-.944c1.238 0 2.208.284 2.912.852.704.56 1.056 1.353 1.056 2.378 0 .493-.126.947-.379 1.364-.253.41-.605.739-1.056.985 1.066.451 1.6 1.309 1.6 2.573 0 1.012-.376 1.822-1.128 2.431-.752.608-1.757.912-3.015.912-1.169 0-2.123-.314-2.861-.943-.731-.636-1.097-1.484-1.097-2.543h2.902c0 .389.109.694.328.912.219.219.516.328.892.328.355 0 .626-.116.81-.348.185-.239.277-.564.277-.974 0-.868-.338-1.316-1.015-1.344h-1.446v-1.927h1.374c.615-.007.923-.4.923-1.179zm12.603 2.614c0 1.743-.301 3.08-.903 4.01-.594.929-1.483 1.394-2.666 1.394-.902 0-1.627-.366-2.173-1.097v5.158h-2.902v-15.361h2.686l.103 1.015c.553-.813 1.309-1.22 2.266-1.22 1.182 0 2.071.431 2.666 1.292.601.862.909 2.181.923 3.958v.851zm-2.892-.728c0-1.073-.12-1.832-.359-2.276-.232-.444-.629-.667-1.189-.667-.595 0-1.029.25-1.302.749v5.199c.259.478.7.717 1.322.717.575 0 .971-.242 1.19-.728.225-.485.338-1.24.338-2.266v-.728zm9.076 5.927c-.082-.171-.164-.458-.246-.861-.52.711-1.224 1.066-2.113 1.066-.929 0-1.702-.308-2.317-.923-.609-.615-.913-1.411-.913-2.389 0-1.162.369-2.061 1.108-2.697.745-.635 1.815-.96 3.209-.974h.882v-.892c0-.499-.085-.851-.256-1.056-.171-.205-.421-.308-.749-.308-.724 0-1.087.424-1.087 1.272h-2.902c0-1.026.383-1.87 1.149-2.533.772-.67 1.746-1.005 2.922-1.005 1.217 0 2.157.318 2.82.954.67.629 1.005 1.531 1.005 2.707v5.219c.014.957.15 1.706.41 2.246v.174h-2.922zm-1.713-2.071c.322 0 .595-.065.821-.195a1.38 1.38 0 00.502-.462v-2.307h-.697c-.492 0-.882.158-1.169.472-.28.314-.421.735-.421 1.261 0 .821.322 1.231.964 1.231zm10.358-8.408c1.196 0 2.143.471 2.84 1.415.704.936 1.056 2.214 1.056 3.835v.153c0 1.614-.4 2.899-1.2 3.856-.8.957-1.886 1.435-3.26 1.435-1.381 0-2.472-.519-3.271-1.558-.793-1.039-1.19-2.465-1.19-4.276v-.462c.014-2.474.369-4.426 1.067-5.855.697-1.435 1.746-2.334 3.147-2.696.67-.205 1.101-.4 1.292-.585.192-.191.288-.444.288-.759h2.317c0 1.094-.246 1.911-.738 2.451-.493.533-1.371.94-2.636 1.22-.704.178-1.247.516-1.63 1.015-.383.493-.639 1.176-.769 2.051.772-.827 1.668-1.24 2.687-1.24zm-.575 2.409c-.991 0-1.504.872-1.538 2.615v.379c0 1.019.13 1.754.39 2.205.266.451.653.677 1.159.677 1.004 0 1.524-.892 1.558-2.677v-.42c0-1.853-.523-2.779-1.569-2.779zm5.067 2.164c0-1.682.396-3.001 1.189-3.958.793-.957 1.89-1.436 3.292-1.436 1.415 0 2.519.479 3.312 1.436.792.957 1.189 2.283 1.189 3.978v.708c0 1.688-.393 3.008-1.179 3.958-.786.95-1.887 1.425-3.302 1.425-1.422 0-2.529-.475-3.322-1.425-.786-.957-1.179-2.283-1.179-3.979v-.707zm2.912.728c0 1.982.529 2.973 1.589 2.973.978 0 1.504-.827 1.579-2.481l.01-1.22c0-1.012-.14-1.76-.42-2.246-.28-.492-.677-.738-1.189-.738-.493 0-.879.246-1.159.738-.274.486-.41 1.234-.41 2.246v.728zm14.725-3.528h-2.85v8.706h-2.902v-8.706h-2.83v-2.389h8.582v2.389zm4.564 4.635h-.759v4.071h-2.891v-11.095h2.891v4.163h.718l1.682-4.163h3.64l-2.923 5.117 3.148 5.978h-3.845l-1.661-4.071zm10.203 4.276c-1.49 0-2.652-.444-3.486-1.333-.834-.889-1.251-2.16-1.251-3.814v-.882c0-1.75.383-3.1 1.148-4.05.766-.951 1.863-1.426 3.292-1.426 1.395 0 2.444.448 3.148 1.343.704.889 1.063 2.208 1.077 3.958v1.426h-5.773c.041.82.222 1.422.543 1.804.321.376.817.564 1.487.564.971 0 1.781-.331 2.43-.994l1.138 1.753c-.355.492-.871.892-1.548 1.2a5.365 5.365 0 01-2.205.451zm-1.825-6.808h2.902v-.267c-.014-.663-.123-1.166-.328-1.507-.205-.342-.561-.513-1.067-.513-.505 0-.875.181-1.107.543-.226.363-.359.944-.4 1.744z" fill="#08A979"/></svg>