<svg width="47" height="37" fill="none" xmlns="http://www.w3.org/2000/svg"><path d="M46.994 8.014V7.95a.825.825 0 00-.066-.13l-.049-.066-.097-.106-.057-.049-.107-.048h-.04L28.866.308a.816.816 0 00-.611 0l-17.67 7.12h-.041l-.106.048-.058.05-.097.105-.05.065a.816.816 0 00-.065.13v.066a.809.809 0 000 .204v6.523H.816a.815.815 0 000 1.631v.106h9.256v2.79H6.899a.815.815 0 000 1.63h3.172v2.789H2.552a.815.815 0 000 1.63h7.519v3.41c.001.328.2.624.505.75l17.679 7.338a.815.815 0 00.277.057.817.817 0 00.277-.057l17.679-7.339a.815.815 0 00.506-.75V8.218a.818.818 0 000-.204zm-18.437-6.05l6.703 2.683-15.25 6.45-6.971-2.903 15.518-6.23zm-.84 32.764l-16.015-6.67v-2.87h3.384a.816.816 0 000-1.631H11.7v-2.79h7.747a.815.815 0 000-1.63H11.7v-2.78h1.631a.815.815 0 000-1.632h-1.63V9.41l6.23 2.576 9.785 4.078v18.665zm.848-20.043l-6.442-2.7 15.265-6.474 6.678 2.69-9.728 4.078-5.773 2.406zm.807 20.043V16.063l4.59-1.908L45.38 9.392l.04 18.666-16.047 6.67z" fill="#58575C"/></svg>