<svg width="69" height="31" fill="none" xmlns="http://www.w3.org/2000/svg"><path d="M.549 27.13C.553 12.554 12.373.74 26.949.745L53.922.75c8.326.003 15.075 6.754 15.072 15.081-.003 8.326-6.754 15.074-15.08 15.072L.547 30.891V27.13z" fill="#FF9F0C"/><path d="M26.034 14.986l2.728-4.36 1.766.001-3.595 5.64 3.678 5.735h-1.782l-2.795-4.438L23.22 22h-1.773l3.689-5.733-3.6-5.642h1.758l2.74 4.36zm13.334-4.357h1.5l-.003 11.376h-1.5l.002-8.766-5.604 8.764h-1.508l.003-11.375h1.508l-.002 8.766 5.604-8.764zm11.699 1.238l-3.656-.001-.003 10.14h-1.492l.002-10.14-3.648-.001V10.63l8.797.002v1.235z" fill="#fff"/></svg>