<svg width="39" height="23" fill="none" xmlns="http://www.w3.org/2000/svg"><path d="M.002 15C.004 6.716 6.722.002 15.006.004L27.9.007C33.975.01 38.899 4.935 38.897 11.01c-.002 6.075-4.928 10.999-11.003 10.997L0 22l.002-7z" fill="#FF9F0C"/><path d="M11.436 10.305l1.642-2.7h1.476l-2.42 3.657 2.493 3.74h-1.463l-1.708-2.77-1.71 2.769h-1.47l2.497-3.74-2.419-3.657h1.463l1.62 2.7zm9.53-2.698h1.265l-.002 7.397h-1.265l.002-5.394-3.413 5.393h-1.265l.002-7.397h1.265l-.002 5.4 3.413-5.4zm9.07 1.028h-2.48l-.002 6.37h-1.265l.002-6.371h-2.434V7.607l6.18.001v1.026z" fill="#fff"/></svg>