<svg width="22" height="19" fill="none" xmlns="http://www.w3.org/2000/svg"><path d="M11 4.417A4.585 4.585 0 0115.583 9a4.45 4.45 0 01-.33 1.678l2.677 2.676A10.832 10.832 0 0021.074 9c-1.586-4.024-5.5-6.875-10.083-6.875-1.283 0-2.512.23-3.648.642l1.98 1.98A4.448 4.448 0 0111 4.417zM1.833 1.914l2.09 2.09.422.422A10.82 10.82 0 00.917 9c1.586 4.024 5.5 6.875 10.083 6.875 1.42 0 2.778-.275 4.015-.77l.385.385 2.686 2.677 1.164-1.165L2.998.75 1.833 1.914zm5.07 5.07l1.42 1.42A2.586 2.586 0 008.25 9 2.746 2.746 0 0011 11.75c.202 0 .403-.027.596-.073l1.42 1.42a4.543 4.543 0 01-2.016.486A4.585 4.585 0 016.417 9c0-.724.183-1.402.486-2.017zm3.95-.716l2.888 2.888.018-.147a2.746 2.746 0 00-2.75-2.75l-.156.01z" fill="#DAE2E5"/></svg>