<svg width="254" height="28" fill="none" xmlns="http://www.w3.org/2000/svg"><path d="M14.334 15.444c-.102 2.313-.752 4.063-1.95 5.252-1.198 1.19-2.889 1.784-5.071 1.784-2.294 0-4.054-.753-5.28-2.257C.816 18.709.208 16.554.208 13.759v-3.414c0-2.786.632-4.931 1.895-6.436C3.366 2.395 5.12 1.64 7.369 1.64c2.21 0 3.886.617 5.029 1.852 1.152 1.236 1.806 3.01 1.964 5.322h-4.11c-.037-1.43-.26-2.415-.668-2.953-.4-.548-1.138-.822-2.215-.822-1.096 0-1.872.385-2.327 1.156-.455.762-.696 2.02-.724 3.775v3.83c0 2.016.223 3.4.668 4.152.455.752 1.231 1.128 2.327 1.128 1.077 0 1.82-.26 2.229-.78.409-.53.64-1.481.697-2.856h4.095zm12.038-5.071h-3.873v11.828h-3.942V10.373h-3.845V7.127h11.66v3.246zm12.706 4.765c0 2.368-.408 4.184-1.226 5.447-.808 1.263-2.015 1.895-3.622 1.895-1.226 0-2.21-.497-2.953-1.491v7.007h-3.943V7.127h3.65l.14 1.38c.752-1.106 1.778-1.658 3.078-1.658 1.607 0 2.815.585 3.623 1.755.817 1.17 1.235 2.963 1.253 5.378v1.156zm-3.928-.99c0-1.457-.163-2.488-.488-3.092-.316-.604-.854-.906-1.616-.906-.808 0-1.398.34-1.77 1.017v7.063c.354.65.953.976 1.798.976.78 0 1.319-.33 1.616-.99.306-.659.46-1.685.46-3.078v-.99zM47.48 22.2c-.111-.231-.223-.621-.334-1.17-.706.967-1.663 1.45-2.87 1.45-1.263 0-2.313-.418-3.149-1.254-.826-.836-1.24-1.918-1.24-3.246 0-1.58.502-2.8 1.505-3.664 1.012-.864 2.466-1.305 4.36-1.324h1.198V11.78c0-.678-.116-1.156-.348-1.434-.232-.28-.57-.418-1.017-.418-.984 0-1.476.575-1.476 1.727h-3.943c0-1.393.52-2.54 1.56-3.441 1.05-.91 2.373-1.365 3.97-1.365 1.654 0 2.93.432 3.832 1.295.91.855 1.365 2.08 1.365 3.678v7.091c.019 1.3.204 2.317.557 3.051v.237h-3.97zm-2.327-2.813c.437 0 .808-.088 1.115-.265.306-.176.534-.385.682-.627v-3.134h-.947c-.669 0-1.198.213-1.588.64-.38.428-.571.999-.571 1.714 0 1.115.436 1.672 1.31 1.672zM63.962 22.2h-3.943v-5.78H56.55v5.78h-3.956V7.128h3.956v6.033h3.47V7.127h3.942v15.074zm9.195-15.073h3.929v15.074h-3.929v-9.264l-3.51 9.264H65.69V7.127h3.957v9.25l3.51-9.25zm5.657 0h3.957v11.8h3.497v-11.8h3.942v11.828h2.062l-.279 7.718h-3.65V22.2h-9.529V7.127zM100.312 22.2c-.112-.231-.223-.621-.335-1.17-.706.967-1.662 1.45-2.87 1.45-1.263 0-2.312-.418-3.148-1.254-.827-.836-1.24-1.918-1.24-3.246 0-1.58.502-2.8 1.505-3.664 1.012-.864 2.465-1.305 4.36-1.324h1.198V11.78c0-.678-.116-1.156-.348-1.434-.232-.28-.571-.418-1.017-.418-.985 0-1.477.575-1.477 1.727h-3.942c0-1.393.52-2.54 1.56-3.441 1.05-.91 2.373-1.365 3.97-1.365 1.653 0 2.93.432 3.831 1.295.911.855 1.366 2.08 1.366 3.678v7.091c.018 1.3.204 2.317.557 3.051v.237h-3.97zm-2.327-2.813c.436 0 .808-.088 1.115-.265.306-.176.534-.385.682-.627v-3.134h-.947c-.669 0-1.198.213-1.588.64-.381.428-.572.999-.572 1.714 0 1.115.437 1.672 1.31 1.672zm13.139 2.813V7.128h5.475c1.756 0 3.102.363 4.04 1.087.948.724 1.421 1.765 1.421 3.12a3.1 3.1 0 01-.613 1.881c-.399.548-.984.97-1.755 1.268.938.195 1.676.59 2.215 1.184.548.585.822 1.328.822 2.23 0 2.869-1.806 4.304-5.419 4.304h-6.186zm3.929-6.24v2.995h2.354c.511 0 .869-.125 1.073-.376.204-.251.306-.618.306-1.1 0-.558-.111-.948-.334-1.171-.223-.223-.543-.339-.961-.348h-2.438zm0-2.717h1.602c.529 0 .901-.111 1.115-.334.222-.232.334-.571.334-1.017 0-.975-.455-1.481-1.365-1.519h-1.686v2.87zm26.067 1.895c0 2.368-.408 4.184-1.225 5.447-.809 1.263-2.016 1.895-3.623 1.895-1.226 0-2.21-.497-2.953-1.491v7.007h-3.943V7.127h3.65l.14 1.38c.752-1.106 1.778-1.658 3.079-1.658 1.606 0 2.814.585 3.622 1.755.817 1.17 1.235 2.963 1.253 5.378v1.156zm-3.928-.99c0-1.457-.163-2.488-.488-3.092-.316-.604-.854-.906-1.616-.906-.808 0-1.398.34-1.769 1.017v7.063c.353.65.952.976 1.797.976.78 0 1.319-.33 1.616-.99.307-.659.46-1.685.46-3.078v-.99zm12.33 8.052c-.111-.231-.223-.621-.334-1.17-.706.967-1.663 1.45-2.87 1.45-1.263 0-2.313-.418-3.149-1.254-.826-.836-1.239-1.918-1.239-3.246 0-1.58.501-2.8 1.504-3.664 1.012-.864 2.466-1.305 4.361-1.324h1.198V11.78c0-.678-.116-1.156-.349-1.434-.232-.28-.571-.418-1.017-.418-.984 0-1.476.575-1.476 1.727h-3.943c0-1.393.52-2.54 1.56-3.441 1.05-.91 2.373-1.365 3.971-1.365 1.653 0 2.93.432 3.831 1.295.91.855 1.365 2.08 1.365 3.678v7.091c.019 1.3.205 2.317.557 3.051v.237h-3.97zm-2.326-2.813c.436 0 .808-.088 1.114-.265.307-.176.534-.385.683-.627v-3.134h-.948c-.668 0-1.198.213-1.588.64-.381.428-.571.999-.571 1.714 0 1.115.437 1.672 1.31 1.672zm13.862-7.802c0-1.105-.418-1.657-1.254-1.657-.455 0-.812.134-1.072.403-.26.26-.39.641-.39 1.143h-3.943c0-1.365.483-2.475 1.449-3.33.966-.854 2.215-1.281 3.747-1.281 1.681 0 3 .385 3.957 1.156.957.762 1.435 1.839 1.435 3.232 0 .669-.172 1.286-.516 1.853a3.758 3.758 0 01-1.435 1.337c1.449.613 2.174 1.779 2.174 3.497 0 1.375-.511 2.475-1.533 3.302-1.021.826-2.387 1.24-4.095 1.24-1.589 0-2.884-.428-3.887-1.282-.994-.864-1.491-2.015-1.491-3.455h3.943c0 .53.148.943.445 1.24.298.297.702.446 1.212.446.483 0 .85-.158 1.101-.474.251-.325.376-.766.376-1.323 0-1.18-.46-1.788-1.379-1.826h-1.964v-2.619h1.866c.836-.009 1.254-.543 1.254-1.602zm17.123 3.553c0 2.368-.409 4.184-1.226 5.447-.808 1.263-2.016 1.895-3.622 1.895-1.226 0-2.211-.497-2.954-1.491v7.007h-3.942V7.127h3.65l.139 1.38c.752-1.106 1.779-1.658 3.079-1.658 1.607 0 2.814.585 3.622 1.755.817 1.17 1.235 2.963 1.254 5.378v1.156zm-3.929-.99c0-1.457-.162-2.488-.487-3.092-.316-.604-.855-.906-1.616-.906-.808 0-1.398.34-1.77 1.017v7.063c.353.65.952.976 1.797.976.781 0 1.319-.33 1.616-.99.307-.659.46-1.685.46-3.078v-.99zm12.33 8.052c-.111-.231-.223-.621-.334-1.17-.706.967-1.662 1.45-2.87 1.45-1.263 0-2.312-.418-3.148-1.254-.827-.836-1.24-1.918-1.24-3.246 0-1.58.501-2.8 1.504-3.664 1.013-.864 2.466-1.305 4.361-1.324h1.198V11.78c0-.678-.116-1.156-.348-1.434-.232-.28-.571-.418-1.017-.418-.985 0-1.477.575-1.477 1.727h-3.942c0-1.393.52-2.54 1.56-3.441 1.049-.91 2.373-1.365 3.97-1.365 1.653 0 2.93.432 3.831 1.295.91.855 1.366 2.08 1.366 3.678v7.091c.018 1.3.204 2.317.557 3.051v.237h-3.971zm-2.326-2.813c.436 0 .808-.088 1.114-.265.307-.176.534-.385.683-.627v-3.134h-.947c-.669 0-1.198.213-1.588.64-.381.428-.572.999-.572 1.714 0 1.115.437 1.672 1.31 1.672zm14.072-11.424c1.625 0 2.911.641 3.858 1.923.957 1.272 1.435 3.009 1.435 5.21v.209c0 2.192-.543 3.938-1.63 5.238-1.086 1.3-2.563 1.95-4.43 1.95-1.876 0-3.357-.705-4.444-2.117-1.077-1.412-1.616-3.348-1.616-5.81v-.626c.019-3.362.502-6.014 1.449-7.955.947-1.95 2.373-3.172 4.277-3.664.91-.279 1.495-.543 1.755-.794.26-.26.39-.604.39-1.03h3.149c0 1.485-.335 2.595-1.003 3.329-.669.724-1.862 1.277-3.581 1.657-.956.242-1.695.702-2.215 1.38-.52.668-.868 1.597-1.044 2.786 1.049-1.124 2.266-1.686 3.65-1.686zm-.781 3.274c-1.346 0-2.043 1.184-2.089 3.553v.515c0 1.384.176 2.382.529 2.995.362.613.887.92 1.574.92 1.366 0 2.071-1.212 2.118-3.636v-.572c0-2.517-.711-3.775-2.132-3.775zm6.884 2.94c0-2.285.538-4.078 1.616-5.378 1.077-1.3 2.568-1.95 4.471-1.95 1.923 0 3.423.65 4.5 1.95 1.078 1.3 1.616 3.102 1.616 5.405v.962c0 2.294-.534 4.086-1.602 5.377-1.068 1.291-2.563 1.937-4.486 1.937-1.931 0-3.436-.646-4.513-1.937-1.068-1.3-1.602-3.102-1.602-5.405v-.961zm3.956.989c0 2.693.72 4.04 2.159 4.04 1.328 0 2.044-1.124 2.146-3.372l.014-1.657c0-1.375-.191-2.392-.572-3.051-.38-.67-.919-1.003-1.616-1.003-.668 0-1.193.334-1.574 1.003-.371.659-.557 1.676-.557 3.05v.99zm20.006-4.793h-3.873v11.828h-3.942V10.373h-3.845V7.127h11.66v3.246zm6.201 6.297h-1.031v5.53h-3.929V7.128h3.929v5.656h.975l2.285-5.656h4.945l-3.97 6.952 4.277 8.122h-5.224l-2.257-5.53zm13.862 5.81c-2.024 0-3.603-.604-4.736-1.811-1.133-1.208-1.7-2.935-1.7-5.183v-1.198c0-2.378.52-4.212 1.561-5.503 1.04-1.29 2.53-1.936 4.471-1.936 1.895 0 3.321.608 4.277 1.825.957 1.207 1.445 3 1.463 5.377v1.937h-7.843c.056 1.114.302 1.931.738 2.451.437.511 1.11.767 2.02.767 1.319 0 2.42-.45 3.302-1.352l1.546 2.383c-.483.668-1.184 1.212-2.103 1.63a7.295 7.295 0 01-2.996.613zm-2.479-9.25h3.942v-.363c-.018-.9-.167-1.584-.446-2.048-.278-.464-.761-.696-1.448-.696-.688 0-1.189.246-1.505.738-.306.492-.488 1.282-.543 2.368z" fill="#08A979"/></svg>