<svg width="21" height="17" viewBox="0 0 21 17" fill="none" xmlns="http://www.w3.org/2000/svg">
<path d="M0 11.3085C0 11.8607 0.447715 12.3085 1 12.3085H8.33333C8.88562 12.3085 9.33333 11.8607 9.33333 11.3085V11.0227C9.33333 10.4705 8.88562 10.0227 8.33333 10.0227H0.999999C0.447714 10.0227 0 10.4705 0 11.0227V11.3085ZM0 15.8799C0 16.4322 0.447715 16.8799 1 16.8799H8.33333C8.88562 16.8799 9.33333 16.4322 9.33333 15.8799V15.5942C9.33333 15.0419 8.88562 14.5942 8.33333 14.5942H0.999999C0.447714 14.5942 0 15.0419 0 15.5942V15.8799ZM0 6.73703C0 7.28931 0.447715 7.73703 1 7.73703H8.33333C8.88562 7.73703 9.33333 7.28931 9.33333 6.73703V6.45131C9.33333 5.89903 8.88562 5.45131 8.33333 5.45131H0.999999C0.447714 5.45131 0 5.89903 0 6.45131V6.73703ZM0.999999 0.879883C0.447714 0.879883 0 1.3276 0 1.87988V2.1656C0 2.71788 0.447715 3.1656 1 3.1656H8.33333C8.88562 3.1656 9.33333 2.71788 9.33333 2.1656V1.87988C9.33333 1.3276 8.88562 0.879883 8.33333 0.879883H0.999999ZM11.6667 1.87988C11.6667 1.3276 12.1144 0.879883 12.6667 0.879883H20C20.5523 0.879883 21 1.3276 21 1.87988V15.8799C21 16.4322 20.5523 16.8799 20 16.8799H12.6667C12.1144 16.8799 11.6667 16.4322 11.6667 15.8799V1.87988Z" fill="#58575C"/>
</svg>
