<svg width="17" height="19" viewBox="0 0 17 19" fill="none" xmlns="http://www.w3.org/2000/svg">
<path d="M0.356916 6.34889C0.132663 6.50907 -0.000427246 6.76769 -0.000427246 7.04328V17.8397C-0.000427246 18.311 0.381623 18.693 0.852906 18.693H5.19068C5.66197 18.693 6.04402 18.311 6.04402 17.8397V12.293C6.04402 11.8217 6.42607 11.4397 6.89735 11.4397H10.0262C10.4975 11.4397 10.8796 11.8217 10.8796 12.293V17.8397C10.8796 18.311 11.2616 18.693 11.7329 18.693H16.0707C16.542 18.693 16.924 18.311 16.924 17.8397V7.04328C16.924 6.76769 16.7909 6.50907 16.5667 6.34889L8.95779 0.913971C8.66108 0.702041 8.26251 0.702041 7.96581 0.913971L0.356916 6.34889Z" fill="#08A979"/>
</svg>
